<?xml version="1.0" encoding="iso-8859-1"?>
<!-- Generator: Adobe Illustrator 18.0.0, SVG Export Plug-In . SVG Version: 6.00 Build 0)  -->
<!DOCTYPE svg PUBLIC "-//W3C//DTD SVG 1.1//EN" "http://www.w3.org/Graphics/SVG/1.1/DTD/svg11.dtd">
<svg preserveAspectRatio="xMidYMid" version="1.1" id="Capa_1" xmlns="http://www.w3.org/2000/svg" xmlns:xlink="http://www.w3.org/1999/xlink" x="0px" y="0px"
	 viewBox="0 0 495.475 495.475" style="enable-background:new 0 0 495.475 495.475;" xml:space="preserve">
<g id="dutch-oven">
	<path style="fill:#000100;" d="M61.194,140.895h373.077c2.044,0,3.886-1.236,4.671-3.114c0.781-1.896,0.348-4.067-1.101-5.511
		c-26.619-26.633-62.733-41.584-100.391-41.584h-25.657c5.276-5.832,8.575-13.49,8.575-21.971c0-18.17-14.727-32.896-32.892-32.896
		h-79.49c-18.166,0-32.896,14.727-32.896,32.896c0,8.48,3.304,16.139,8.579,21.971h-25.662c-37.649,0-73.754,14.951-100.382,41.584
		c-1.449,1.444-1.882,3.615-1.101,5.511C57.308,139.659,59.149,140.895,61.194,140.895z"/>
	<path style="fill:#000100;" d="M479.024,224.271h-34.065l2.388-32.237c0.424-5.719-1.561-11.369-5.47-15.594
		c-3.913-4.21-9.405-6.602-15.155-6.602H68.745c-5.75,0-11.242,2.392-15.155,6.602c-3.908,4.225-5.894,9.875-5.465,15.594
		l2.383,32.237H16.446C7.365,224.271,0,231.627,0,240.717c0,9.094,7.365,16.451,16.446,16.451h36.494l7.027,94.844
		c4.5,60.693,55.052,107.644,115.912,107.644h143.709c60.86,0,111.413-46.95,115.912-107.644l7.018-94.844h36.507
		c9.085,0,16.451-7.357,16.451-16.451C495.475,231.627,488.108,224.271,479.024,224.271z"/>
</g>
<g>
</g>
<g>
</g>
<g>
</g>
<g>
</g>
<g>
</g>
<g>
</g>
<g>
</g>
<g>
</g>
<g>
</g>
<g>
</g>
<g>
</g>
<g>
</g>
<g>
</g>
<g>
</g>
<g>
</g>
</svg>
