<?xml version="1.0" standalone="no"?>
<!DOCTYPE svg PUBLIC "-//W3C//DTD SVG 1.1//EN" "http://www.w3.org/Graphics/SVG/1.1/DTD/svg11.dtd" >
<svg xmlns="http://www.w3.org/2000/svg">
<metadata></metadata>
<defs>
<font id="f25_blacklettertypewriterRg" horiz-adv-x="500" >
<font-face units-per-em="1000" ascent="800" descent="-200" />
<missing-glyph horiz-adv-x="500" />
<glyph horiz-adv-x="0" />
<glyph horiz-adv-x="333" />
<glyph unicode=" " />
<glyph unicode="!" d="M304 450l-8 -3l-6 2l-3 -7v-7l5 -8v-8h-2l-2 -5l2 -17l10 -13v-12l-4 -6l-1 -13v-5l-7 -9l2 -19l4 -6v-4h-1l-3 -3l4 -16v-4l-11 -20v-9l-6 -1l-3 -6v-14l-10 -10l-3 5l-2 6l-5 5l-6 -2l-4 -6v-10l3 -4l7 1h3l2 -4v-5l-3 -6h-7l-8 4l-7 -1l-3 -5l-3 8v11l-5 6l-2 -3h-3 l-8 14l-4 32v42l-2 5l-2 10l6 9v19l-6 6v6l5 2l-1 12l-4 3v9h2l6 13l-4 13l-4 3v17l3 4l1 6v5l-8 12l-1 6v5l2 4l-1 20l9 11v9l-2 5l-7 -3l-4 12v9l4 10l3 16l9 8l3 5l-2 4l4 14l12 13l4 3h5l4 -4l3 1h2l5 11v5h7l7 -5l2 -8v-10l3 -4l4 2l5 -28l5 -3l1 -26l3 -7l6 -6l2 -14 l-3 -12v-8l3 -3h5v-27h-1l-2 -3l5 -9v-11zM327 65l-4 -6l-2 -16l-3 -2l-5 1h-5l-4 -4v-15l-7 -7v-10h-10l-5 -6l-8 6l-15 -2l-12 2l-17 3l-5 -3l-3 -2h-5l-2 13l-2 3l-14 1l-5 4v5l2 2v7l-6 5h-8v21l4 9v2l-5 7v4l11 6v4l-2 1v6l11 12v3l-1 2l2 2h6l9 8v13l2 2l11 -4l23 -1 l11 -10l14 2h3l4 -6l3 -2h12l2 -2l3 -12l4 -3l4 1l7 10l3 -1l4 -4l-8 -17l1 -7l3 -2l2 -2l-2 -14zM208 479v2l-3 4h-1l-2 -6l2 -2zM233 318v-3v3zM267 260l-2 3h-5v-6l6 -2z" />
<glyph unicode="&#x22;" d="M334 659h14q9 -5 17 -15l-2 -7q3 -9 16 -9l13 2q9 -3 9 -11q-8 -5 -15 -5l-2 1q-7 -8 -7 -12h7l8 5q0 -3 28 -18v-2l-9 -9q0 -18 17 -18v-3q-18 -14 -18 -18l14 -13v-3q0 -3 -27 -11v-4h-2l2 -9v-7l-13 -4v-16q6 0 6 -3v-2q-9 0 -16 -9v-2l3 -7l-2 -6h2l6 2l1 -2v-7 l-25 -18h-14v-9l3 -5q-4 -7 -14 -13h-4q-17 6 -39 6h-2q0 -11 -18 -13h-4q-5 0 -5 11l-2 5l-7 6l-2 -2h-2q-8 3 -9 7v7q0 3 15 13q27 27 47 27l1 2v1l-3 4v2l3 3h4l2 -1q25 4 25 10q-2 8 -31 24v7l9 11v2q0 3 -10 7l-8 2l-5 9l2 7h-9l-15 -20q4 -7 4 -20q-7 -4 -18 -25h-2 l4 -11l-4 -3h-5l-6 3l-16 -3v-6q9 0 9 -7q0 -9 -21 -38q-5 0 -11 -7q-24 0 -24 -11h-1l1 -2v-9l-5 -5h-7q-6 0 -13 23h-7l-32 -27h-4q-14 0 -34 26q4 19 20 19q18 6 18 24q19 8 19 21q0 6 8 13q1 18 5 18l2 -2h2l3 15v5q-4 9 -9 9v2l2 9l-13 7l-7 -2l-5 2v16l-9 2h-2l-16 -5 q-17 0 -29 14q5 15 16 22q18 0 18 21q9 12 20 16h18q5 -4 27 -10l2 -9l5 5l18 -2l13 4l9 -11h9q3 4 18 4l11 5l10 -2l11 4l-2 9q0 16 15 16h3l8 -2l10 7h17q6 0 14 8zM222 646l6 -5l-2 -2h-5l-4 3zM217 637l2 -2v-9l-4 -3h-2q-3 0 -3 5q3 8 7 9zM339 430l2 -5h4l3 10v6h-1 q-8 -4 -8 -11z" />
<glyph unicode="#" d="M258 684l-9 -19l-3 -7v-9h-4l-9 -14v-1l-1 -2l6 -10v-4l-14 4l-6 -1h-5l-4 14v2l-3 3h-6l-1 5v4l3 3h3l1 -6l3 -3h2l2 12v26h3l6 -11l2 -2h3l3 3l2 10l-5 4h-8l-4 16v5l9 2l5 6l1 14l3 3l16 -7l2 -29l6 -4l-2 -5zM498 319h-10l2 11l6 -2l2 -4v-5zM495 399h-4l-1 2l-7 -13 l2 -12l-6 -7l-13 2l-11 11l-19 5h-8l-3 -10l2 -1v-4l-5 -3l-3 -3h-3l-6 8l-5 3l-13 2l-15 11l-10 -2h-2l-4 -4v-5l17 -5l3 -14l-1 -2l-11 -1l-7 4l-1 2h-4l-3 -8v-4l11 -13l-4 -17l1 -5l6 -5h4l6 17l13 2l3 14v5l8 3l36 -14l3 -6l3 -4l14 -1l5 -15l25 -3l5 -15v-3h-2l-1 1 l-4 -3v-27h-9l-3 4l-16 -10l-17 -27v-3l-9 -6h-5l-8 6l-11 3l-5 -6l-9 -1l-7 17l-7 -3l-5 -5v-6l-11 -7l-10 11l-4 -6l-3 -6v-5l1 -2l-8 -6l-5 2l-6 -5l2 -14l4 -2v-14l-4 -4l-10 -45l3 -15l4 -3l-5 -24l-8 -19v-3l8 -6l3 -4v-12l-5 -8l2 -14l1 -2l-12 -14l-3 -3l14 -11 l-6 -11l-15 6l-4 -11v-5l4 -3l2 -8v-4l-3 -3l-16 4l-4 -11l4 -8l-1 -11l-2 -1l-11 9h-2v-18l2 -2h3l4 -11v-3l-27 -14l6 12l-3 3h-3l-3 -3l-2 -9h-19v17l2 1l-2 3l-5 4l-4 -5l-9 5l-3 3l3 9l4 7v7l-7 6h-14l-1 1l3 11l9 14l-12 7l-9 3l-6 18l16 3l5 -6l2 -5l3 -3l11 7v1v5 l-11 10l1 23l15 24v20l7 8l-4 21l9 20l-6 17v6l9 5l6 6l-3 5l-4 3l-8 -1l-6 9h27l6 5l-9 14l-6 6l15 23l-5 7l-4 5l-20 -6l-3 -5l-1 -11h-12l-9 9l-12 -1l-3 -4l3 -17l-3 -3l-16 2l-7 12l-9 -3l-7 -4l-1 -2l10 -9l17 -10l-11 -17l-2 -6v-4l13 -5h1v-33l6 -9h4l2 -3l1 -14 l-5 -3l-6 -8l-3 -16l-10 -11l8 -3h11l4 8v6h14l1 -2l-11 -15h-3l-2 -8v-16l-14 -11v-6l2 -2l-13 -20l-3 -3l5 -9l12 -6l3 -3l-7 -20l-13 -13l-11 -9l-16 -5l-7 2l-24 17l-13 -9l6 -13l2 -3l10 2l6 -9l1 -1v-2l-1 -1l-16 7l-20 4l6 28l-14 19l6 9l5 49l-3 3l1 8v5l10 8v6 l-4 3v5l18 25l6 21v9l-14 8l14 16l6 42l16 16l-14 16h-5l3 9l5 7l-3 20l-11 1h-5l-16 -28h-3l-25 24l-12 7h-6l-15 -18v-2h-5l-17 20l2 30l15 9l5 4l3 13l2 1h3l-8 -19l8 -12h1l1 -2l11 8v6l9 1l8 9l-2 18l-3 7l8 14l-5 27l5 17l-11 7l-11 -7l-6 -6l2 -2v-5l-10 -9l-5 6 l-11 26l5 10l-3 7l3 5l6 4h8l17 -11l5 6l5 18l47 1l6 4l19 -10l16 19l11 -11h2l14 27v3l-8 8l12 -8l10 5l2 3l-2 8l-5 6h-8l6 17l12 22l4 13l-3 16l-1 1l12 3l-5 22l4 27l6 13l1 1l3 -3l-3 -22l-1 -2l3 -7l3 -3h3l8 15l17 -2l2 -1l-13 -5l-3 -3l3 -12v-12l-12 -10l22 -26 l-3 -9l-10 -13l-3 -9l-8 -9v-5l13 -11l5 -5v-5l-13 -14l6 -9l5 -5l8 3l6 6v10l1 2l24 -15l22 -6l8 2l3 3v1l-11 7l-3 18v2l19 -9l3 1l4 3l-9 11l12 27v16l4 3l3 3l2 21l8 3l6 23h-6l-8 -3l-3 -3l-2 -17l-3 1l-4 5l6 17l4 5l10 6l16 -10h1l5 14v4l-3 3l-8 -1h-5l-2 19l2 12 l3 3v5l-8 5l-1 2v4l19 3h3l3 3v10l-6 4l-11 3l-2 7v5l10 9l-5 11l-8 14v3l10 -1l15 -3h2l4 4l3 16l16 10h3v-8l-9 -19l-3 -17v-1l9 -3v-7l-7 -13l-2 -19v-5l-8 -9l-3 -7v-4l17 -8l3 -5l-12 -25l-11 -17l3 -43v-9l-13 -11l3 -11l-12 -16v-5l9 -14h11l13 -17l17 19h8l2 -2 l-8 -17v-6l6 -2h5l5 21l25 9h3l-6 -9l4 -11l4 -2h10h3l2 17h18l10 -10l5 3h5v-23l-8 -4l-2 -2v-4zM205 182l-8 2l-5 3l5 13l8 -8v-10zM391 405v12l-4 3h-3l-1 -2v-14h4zM339 437v3l-5 7l-2 -10l3 -2h2zM353 394v4l-2 1l-6 2l-8 -5v-5l7 -1zM414 327l-3 3h-9v-9h5l6 1z M205 377v7l-11 6l-6 -9l4 -7h5zM276 338v4l-5 1l-14 9l-12 5l-13 -21l-11 -1l-5 3v13l8 7l1 7l-3 7l-7 2h-2v-14l-5 -9l-6 -3l-8 1l-14 11l-17 19v12h6v5l-10 6v2h-3l-1 -3l6 -8l-11 -8l-3 -6l-4 -19l-10 -8l-2 -13l-6 -9l-8 -2v-7l6 -9h3l4 3l6 17l7 7l15 -12l1 -5h5l3 3 l14 -7l5 -10h16l14 -16h3l3 3l2 16l6 5h3l8 6l-6 10l10 10l10 2l10 -5l4 -6h3zM139 384v10l-3 4h-3l-7 -10l7 -7h3zM181 291v6h-9l-8 -6v-5l2 -3h4zM218 233l-3 3h-2l-4 1l-7 -4l9 -10l2 2l3 1zM167 261v3l-3 6l-6 3l-6 -4v-3l7 -7h5zM27 376v5l-5 6h-3l-1 -2l3 -11h3z M114 292v7l-4 4h-6l-1 -1l-2 -13l3 -3h2zM181 225l-5 4l-12 2l-6 -8l8 -8l7 -2l7 4zM155 132l-12 6v-11h10zM143 -8l-1 9l-5 5l-4 -8v-8zM134 -32v2l-1 2l-3 9h-5l-7 -3l-4 -3l-2 -7l6 -6l10 1zM112 -54v5l-2 5h-4l-5 -5l8 -8zM219 322l-11 -9h-5l-3 8v6l8 3h10zM196 333 l-8 -1h-5v12l8 -2l3 -4l2 -2v-3zM170 351l-6 -7l-9 4l-3 3v6l6 4l5 -1h1z" />
<glyph unicode="$" d="M228 435l11 -9h6l7 6l18 -8l14 4l20 -4l13 8l10 -9l2 1q17 -1 22 -7h12q0 6 4 6h20l7 -9q-5 -2 -5 -11l1 -11q0 -10 -18 -22h-1l-22 8q-12 -7 -38 -11h-11q-3 0 -7 9q-10 0 -34 -13l-7 4l-6 -4l-28 4l-6 -2q-12 7 -21 7h-4l2 -2v-1q-25 -8 -43 -18q4 -4 18 -4l1 -2v-3 l-3 -4l-2 2l-13 -9l-1 2h-2l-13 -4v-5l4 -6l2 2h1l11 -4v-1l2 1h2l5 -5q-43 -10 -43 -16v-4q5 -11 23 -16v-4h9l9 2q8 -21 11 -21h2q11 0 16 16h4l11 -4h1q8 0 20 13h11q11 -7 11 -15h5l22 6h2q3 0 9 -11l19 -4q28 1 38 9l9 2q15 -12 25 -12l17 1l7 -7h2l5 4h7 q12 -13 29 -18q0 -10 16 -16v-4q-7 -10 -11 -45q8 -3 8 -5v-2l-4 -4h-5q-4 0 -4 6l2 5h-2q-34 5 -34 25l-29 9l-13 6q-2 -9 -5 -9h-4l-3 3l2 2v2l-2 9h-6q-6 -7 -21 -13h-15q-6 6 -12 6h-11q0 -7 -40 -9l-3 -4h-7l-22 7l-38 -7l-11 2l-3 -4h-11q-6 7 -22 9l-5 6h-2l-5 -4h-4 l-12 7l-2 -2h-6q-23 16 -25 29q-6 0 -11 16l4 8l-5 9q2 25 5 28l-4 13l26 20l3 5l-2 2q0 11 18 23q5 3 13 18q8 0 27 22l-2 5q18 17 45 26l11 -8h4q22 11 28 11zM182 370h3v4zM439 149q7 -4 13 -14v-18q-6 -6 -6 -17h-2l4 -18l-2 -1h-2l-10 5h-6v-2l7 -12v-2q0 -5 -12 -6 q-3 -10 -6 -10l2 -2v-2q-16 -14 -16 -27h-2l-16 2l-4 -4h-19l-20 -16q-15 0 -22 9l-36 -5l-7 7h-5l-11 -9l-20 9h-2l-14 -9l-18 3l-13 -1l-11 3l-19 -2l-9 2l-15 -3q-2 5 -11 5l-16 -4q-25 0 -25 9h-4l-5 -3h-2l-25 14l5 6l-1 12v2q0 17 28 38h8l19 -2q16 9 26 9v-2l18 6 l23 -6l2 2l23 -4l9 4l29 -5h5l6 3l23 -2l9 2l11 -3l7 1q7 -2 7 -5l9 2h4l13 -2l9 7h19l9 -2l4 6l-2 7l18 9h7l8 -2l7 2q0 6 -6 13v3q6 9 15 9z" />
<glyph unicode="%" d="M449 683q5 0 13 -12l-2 -13v-5l4 -6l-4 -5v-11l4 -5q-9 -13 -22 -13q-5 -7 -5 -13v-1h3v-6l-23 -25v-2l3 -5v-2q0 -3 -18 -14l2 -13v-2l-18 -20l2 -1v-9q0 -6 -22 -11l-1 5l-9 -14l7 -9l-4 -15v-19q0 -4 -18 -11q-7 -24 -11 -24l-5 -5l4 -7h1l6 3q4 0 5 -9l-5 -3h-6 q-6 7 -12 7l-4 -13l4 -10q0 -10 -20 -20l-9 2h-14q-6 2 -11 18q-12 0 -22 10q-5 0 -18 -9l-11 4l-14 -11v-2q7 0 16 -12v-2q-3 -7 -11 -7l-10 11l1 12q-19 4 -19 20v4l1 1h2l18 -3l2 2v3l-7 18q0 17 -16 31v2l1 1v2l11 -3h7q8 4 9 9q-3 9 -10 9l-4 10l4 15l-2 5h-7 q-4 0 -4 -7l-2 -2h-3l-4 4v2q16 21 22 21q0 19 -15 29l-3 5l7 13v2l-15 3l-10 -3q-17 7 -17 18l-32 21v2l2 2v2l-6 3h-1v-1l1 -8l-1 -7q0 -5 5 -5l2 -2v-2q-18 -5 -18 -14q-15 -5 -15 -13l2 -5q-8 0 -20 -29q0 -7 18 -7l2 -2v-5q-2 -6 -27 -15l-2 -2v-5l8 -23q9 0 12 -8v-3 q-5 -9 -14 -9l-6 -9v-6q8 0 8 -5l-8 -9v-7q19 -5 24 -11v-9h-2l-5 4q-17 -5 -17 -17v-1l6 -6h9l14 13l9 -2v-5q-13 0 -21 -20l-2 -2h-11q-11 5 -23 25q-8 0 -8 6l6 9l-7 7v11q-8 0 -11 14l5 5v4q0 4 -5 4l-2 1v6l5 20l-3 14v7l5 9l-2 11v4l11 10v31l7 7h2l6 -3h3l6 3l-2 15 q13 19 30 19q1 7 26 31h12q4 0 4 -5l9 5q2 -5 11 -5h1q23 6 29 10h4l5 -5l-7 -4v-3q5 0 5 -4l9 2h2l24 -5l5 1l2 -1v-6l-2 -9q12 0 23 -11l-5 -14v-2l13 -5l23 2l2 -2v-4l-15 -16v-29q12 0 13 -5v-9q-3 -8 -20 -13v-7q7 -1 7 -5v-26q9 0 9 -5v-2q0 -4 -16 -9v-9 q-9 -8 -9 -14v-4q9 -9 22 -9l11 7l10 -3q9 3 9 7v4q-9 9 -9 14q11 16 17 34q5 0 5 4v3q-18 6 -18 9q3 14 38 15q4 -7 9 -7q16 1 16 5q0 5 -16 5q-6 7 -6 17l15 14l14 -4l4 4q0 16 -9 16q-7 3 -7 6q7 6 7 12l-11 11q13 11 22 11q0 -4 5 -4q12 5 13 9v2q-15 5 -15 9v2l18 16 q0 6 16 16l2 2v2q0 20 -12 20v3q22 19 48 24q2 12 9 12zM366 617l4 -4l-4 -4h-1l-6 6l2 2h5zM134 579h9l4 3v2h-7zM23 496l-2 -5h3l6 1v4h-7zM50 456v-3h3v3h-3zM203 381q0 -6 7 -6l18 6v2l-4 3h-11q-10 -1 -10 -5zM264 336h5q0 -5 7 -6l6 6q0 -4 5 -4l2 -2v-1q-9 -6 -18 -6 q0 5 -7 6v7zM80 332l4 -5v-4l-4 -3h-3l-8 7q0 3 11 5zM104 323q12 -6 12 -9v-7l-3 -4h-18q-6 2 -6 15zM140 323h5q16 -3 16 -9v-2q0 -4 -16 -10q-16 1 -16 5q0 9 11 16zM386 321l16 -10l-3 -11v-4h16q8 7 14 7h4q18 -14 18 -30l11 -13v-16l12 -13v-9l-9 -10v-2l4 -4q4 0 4 6 l1 1h2v-1l2 1h2l3 -3v-6q-7 -7 -7 -14l13 -13v-1l-2 -11l5 -15l-16 -25l2 -9v-12q5 -7 5 -13t-19 -9l-6 -9v-4l4 -5v-4l-22 -18l-29 13l-1 13v3l3 4l6 -2l3 5v4q-5 0 -5 4v1l3 4l8 -5l5 1v4h-4v2l8 14q-17 6 -17 9v2q4 7 9 7v9l6 7l-6 9v6h4v7l-4 5v6l8 9v3l-18 18v2 q0 4 10 7v4q0 13 -9 13l2 12v4l-3 3h-2l-6 -3q-11 3 -12 9v2q0 3 18 9l2 1v4q-24 14 -24 23q-5 0 -9 9h-2q-7 0 -23 -9l4 -3q0 -11 -9 -16h-2q-6 0 -6 10h-3q0 -5 -15 -21l9 -20q-19 -13 -28 -13l-17 4l-1 -2v-2q16 -15 16 -23l-11 -9q0 -4 20 -9l3 -5v-2q0 -4 -19 -7v-2 l5 -16l-5 -15v-2q19 -5 19 -10q-3 0 -7 -11q-8 0 -12 -9v-2q3 -3 3 -18q10 -10 20 -11v-3l-4 -11l-1 2h-4q-3 0 -7 -11q5 0 25 -16q16 -6 25 -13l4 4h3l-1 -9l7 -17q-5 -12 -13 -12q0 3 -11 7l2 2v2l-3 3h-2l-6 -3h-1q-11 0 -22 10h-4l-5 -1l-2 1v2l9 15l-2 1h-12l-11 2 l-5 -2l-15 6v5q0 6 16 6l2 1v2q0 5 -14 7v2l3 7l-25 29l-2 7v6q-4 0 -9 7q-14 1 -14 4l-2 -2h-2l-5 5q10 2 31 16l-11 17v1q4 0 7 8v1l-7 11q10 18 21 18l-5 20q0 15 36 23q0 6 7 15q-3 9 -12 9h-4l-11 -9q0 -4 15 -7v-4q-16 0 -47 -18l-22 7l-3 -3h-2l-2 9l2 1h3l2 -1l15 5 h3l7 -2q6 0 24 18l-7 11v2q16 9 16 12l12 -1h2q9 10 20 10v2l-4 13q6 4 24 7l3 -4h9l8 6h7q9 0 16 -6l5 8l2 1h9zM273 303l2 -5q-2 -7 -8 -7l-5 2v5q2 5 11 5zM352 296l-2 -5l2 -2h7v7h-7zM248 291h1l4 -4l-4 -3h-1l-4 3zM230 267h7v-3l-11 -13h-5l-4 4v2q0 3 13 10z M206 224h4l11 -14v-4l-13 -14l2 -13q-10 -20 -22 -20v-3q9 0 9 -4v-3q0 -6 -18 -9h-3l-6 3h-5v-2q9 0 9 -16v-2l-27 -18h-4l-14 17v9l3 3l6 -2l12 13l-7 5q0 9 18 9l2 2v2l-9 11v2l4 3h5l7 -2q9 0 15 9v13l-6 7v4q9 14 27 14zM350 219h2v-4l-5 -5l-2 2v1zM406 203l4 -6h-4 l-4 4l2 2h2zM116 98q33 -7 33 -12v-9q-4 -10 -20 -24q-10 -52 -22 -52l-3 -5v-2q0 -12 10 -12v-8l-3 -3h-13v-4q-10 -3 -12 -11l1 -7q0 -10 -25 -18h-2q-9 10 -18 11v2l2 2l-7 10q7 0 13 31q9 9 14 9v14q0 11 16 14q0 21 18 45q0 5 15 9v2l-4 6v5zM186 96v-1l-3 -4h-2l-4 4 l2 1h7zM399 91h3l4 -4v-1l-4 -4l-3 5v4zM296 55l2 -2v-2l5 2v4h-1zM397 53h5l2 -2h2l2 2q0 -10 38 -20v-1q-19 -12 -27 -24q-33 5 -33 18l2 2h-2l-5 -4l-13 11q3 7 16 7h4q0 6 9 11zM379 12h2l3 -4v-2l-3 -3h-2l-5 5z" />
<glyph unicode="&#x26;" d="M269 578q19 0 27 -9l-2 -5q0 -6 27 -23v-2l-4 -6v-7q1 -3 33 -20l2 -18q-2 -19 -6 -19h-2v-2l9 -9v-9l-9 -40q-3 0 -3 -5l-2 -2h-2l2 -5q0 -5 -29 -27v-4l2 -13l-11 -5l-5 2q-6 -18 -18 -18l-15 -13q0 -4 15 -16l9 -20h12l2 -2h2l-2 -5q0 -20 13 -32l2 1h5l4 -3l-6 -15 q9 -18 25 -18v-1l-1 -2v-2q3 0 3 -7l7 -4l8 7h9l3 11q-14 5 -14 7q25 18 25 38l11 9h9q14 -12 14 -20l-9 -27l2 -1h4l9 1l1 -1v-2l-5 -15l2 -16l-11 -16l4 -4q-3 -6 -24 -16v-2q0 -5 7 -5v-9q-14 0 -14 -9h-2l-2 2h-1v-6l9 -19q3 0 3 -11q5 0 11 -7h2l14 1l4 -3q6 0 12 5 l6 -2l11 6v2l-2 7q1 6 11 11h10l6 -6q-4 -11 -13 -11v-5l22 -25v-4q-6 -6 -7 -16q-18 -11 -18 -27q-11 -16 -20 -16q-5 0 -22 21l-2 -1h-1l1 -9v-6h-28q-5 0 -9 20h-22q-8 0 -20 16h-2q-12 -23 -27 -23l-27 -9q-17 0 -21 12v8l2 1v2l-11 13v9h3v5h-3v9q3 0 3 6q6 9 26 9 q1 9 27 32v2l-4 11l2 10v4l-4 4h-5l-6 -4h-1q-10 0 -11 5v4l5 5h7l2 -1h2v9q-5 0 -11 10v4h4q0 7 7 7v7h-2l-16 -1q0 3 -14 7l-4 5q5 7 5 13v2l-1 1l-6 2v2l-9 -2h-3l-8 7l6 8v3l-9 13v3l2 2q0 9 -20 13q0 11 -29 11l-11 -8h-5l-9 2l-11 -2h-16l-2 -1h-2q4 -7 4 -20 q0 -7 -34 -13q0 -23 -15 -27v-2l13 -14q-9 -9 -9 -16v-6q0 -2 7 -5l2 -2v-5q-1 -3 -16 -11v-5l14 -9v-8q0 -4 -9 -5v-2l5 -5h8l1 2h2l4 -6l-4 -5v-7q24 -20 24 -24q9 -12 19 -12h9l18 3l4 -5v-7l-4 -4h-1v9h-4l2 -2v-9l-4 -5q0 -6 7 -6l9 6l11 -2q8 0 25 9h15l5 -5v-6 l-3 -14l19 -9v-2q-3 -23 -14 -23l-2 2h-2l-16 -2q-7 0 -7 9l-9 1q0 -5 -20 -5l-7 13h-2l-5 -6v-2l2 -8h-4q-17 16 -23 16l-8 -4q-7 0 -7 9q-24 4 -29 13q-7 0 -10 7v3h3v4l-2 -2q-12 5 -12 13q18 2 18 5v4l-34 30q0 13 -6 18v11q-6 0 -14 11h-2v9l4 5l-4 17q4 3 5 23l-1 18 v5l5 6h9v-4h13q-1 6 -9 13q0 7 25 14v2q-11 8 -11 18l14 7q0 8 13 15l5 -4h8l-4 20l5 3h11l6 -3l1 2v3l-3 13q9 16 18 16l2 2l-2 2v9l9 9l5 -2l2 2v1q0 6 -23 18v6q7 6 7 12q0 5 -11 15v20q0 3 9 3q0 13 18 13h13l3 -4q-18 -11 -18 -14q0 -7 22 -9l2 -2v-2q0 -3 -6 -3v-6 l33 -9q7 0 7 -18l9 -5l14 5q14 -11 20 -11q20 8 20 15v2q0 4 -9 9l-4 -4h-2q-5 2 -5 11q5 4 34 9v9l-3 5v4l7 16l-4 16l9 13l-5 7v2l3 5v7q-7 0 -7 11h-2l-14 -3h-2q-9 0 -11 5l4 5q-6 13 -20 24v5l2 2q-3 12 -13 16h-21l-2 2h-2l-2 -2l-1 2v2l7 5l9 -2h2l3 4v2q-7 0 -7 3 l4 4h3l7 -5h2q6 0 22 10zM229 533h4l3 -3v-2l-5 -5h-2l-3 3v4zM276 512v-2h2l11 4l-4 3q-9 -2 -9 -5zM152 472l5 -5v-4l-3 -3h-2l-4 3v6zM154 429l3 -4h4v4h-7zM206 368v-11l5 -2l11 9l-4 11zM472 344h2l31 -21v-18q-8 0 -11 -7l3 -6v-2q0 -14 -25 -18l-3 -3h-38q-4 0 -9 12 l2 9v6l-20 9l-2 7q16 11 34 11l16 -2q4 0 9 13zM427 319v-2l4 -3l3 5h-7zM395 294h7l5 -5v-2q0 -4 -7 -4q0 -5 -3 -5q-5 0 -8 12zM208 262h5l4 -4v-5l-4 -4h-9l-4 4v1zM357 186l2 -2h2l3 4v2h-3zM411 71v-6h7v6h-7z" />
<glyph unicode="'" d="M200 652h7q9 -9 20 -11v-2l27 4q0 -3 23 -15q0 -3 20 -18q0 -6 13 -7l1 -2v-5l-3 -7l9 -9l2 1h1q20 -4 20 -10v-4l-3 -4l-2 2q-15 -5 -15 -9q0 -3 13 -9v-9l-4 -5v-4l11 -12v-2l-9 -16h-3l-18 5l-4 -4q0 -4 11 -7v-5q0 -24 -20 -24l-5 -7v-2l3 -3l2 2v1q11 -3 11 -7v-11 q-14 -12 -22 -12l-2 2q0 -6 -14 -18q-6 -29 -16 -29v-2q7 0 7 -4v-1q0 -9 -58 -13q0 -4 -7 -4q-5 0 -20 20q-13 0 -16 18v6q6 5 18 28q21 22 34 22v4l-3 5l9 9v4q0 6 -6 12v6q0 3 6 3l2 2v16l-2 9l2 2q-13 8 -18 18l-33 14q-7 0 -16 11q7 14 13 47q5 0 10 14q0 4 17 15z" />
<glyph unicode="(" d="M326 661q7 0 18 -38l2 -2v-14l-4 -6l4 -3v-6l-15 -14l-5 2q-4 0 -9 -11h-4v-15l-8 -9v-1q0 -4 5 -4v-2q-5 0 -15 -18l8 -14v-2q0 -5 -18 -11v-5q4 0 16 -15q-2 -5 -10 -5h-2l-4 4h-6l-2 -9v-2l12 -16q0 -5 -21 -11l1 -13v-5l-2 -6v-7q0 -3 18 -14v-4l-9 -7h-9l-2 2l-5 -6 h-2l5 -16v-7l-3 -5q0 -4 13 -18v-2q-16 -17 -16 -29l3 -4v-5q-5 -8 -5 -14l13 -17q-7 -2 -10 -9l5 -7q-2 -29 -10 -29q1 -7 15 -7l1 -2v-1l-9 -11l5 -22l-4 -11v-1q14 -15 14 -22l-6 -7l7 -6v-3q-5 -7 -5 -13v-2l8 -16l-2 -11q0 -15 14 -28l-2 -8q0 -9 13 -10q10 -24 15 -45 q13 0 13 -14l24 -24h-2l2 -2v-1l-2 -13q5 0 5 -4v-1l-5 3l-2 -2v-1l2 -2q0 -29 -22 -29h-2l-26 16l-9 2l1 2v2q-16 30 -29 30q0 6 -12 11v4q5 6 5 12l-13 32q-6 0 -14 18q-5 0 -13 13q-6 0 -6 12q0 6 -8 15v2v18q-10 14 -10 27l-12 16v5l2 2l-10 43v4l2 7l-4 11l4 16 q-7 12 -8 31l3 9l-3 10l6 4q0 17 -6 34l8 22l-2 16l10 41v13l4 11l-4 9v2q4 9 14 9v3l-2 13q7 0 10 14q12 8 12 16v2l-2 2v2l-2 -2h-1q-7 3 -7 5q11 11 15 24q11 5 24 38l2 1l10 17l-2 14q7 0 14 36l16 14v2v4q16 20 16 27h6l10 -7h3q0 5 6 9zM276 367h5l4 -5q0 -6 -12 -7 l-2 1v6z" />
<glyph unicode=")" d="M198 666q9 0 16 -12l12 3q20 -3 20 -12q6 -9 10 -27q7 0 16 -18q9 0 13 -15v-2h-3v-3q0 -4 18 -22q0 -8 8 -11q3 0 9 -16v-16q24 -2 24 -11q-8 -11 -12 -11v-7q18 -2 18 -5q-6 -8 -6 -15v-1q0 -4 8 -8l-2 -9l2 -7l-2 -9q21 -4 21 -9q-13 -11 -13 -14l5 -4h11l10 -3l1 1h2 q12 -3 12 -7l-7 -5h-15l-9 -4l-10 2h-2l-3 -9l2 -2v-2l1 2l9 -2h14l5 -5q-19 -20 -19 -23l3 -11l-7 -11v-2q8 0 15 -21l-15 -4v-5q8 0 13 -13q-8 -12 -8 -23q0 -9 10 -15v-2l-3 -3h-12l-1 -7h32q12 0 13 -6v-2q0 -4 -13 -7v2l-13 -4l-11 2q-6 0 -10 -18h2q9 0 9 -5v-6l-4 -5 l-10 5h-7l-3 -3v-4q0 -11 20 -14l1 -2v-9l-3 -4h-11l-2 2h-2l-3 -5v-4q0 -12 11 -12v-4l-3 -4h-8q-8 -12 -8 -18v-1q0 -6 7 -6v-5q-18 -2 -18 -16l6 -6q0 -16 -20 -16v-11q-10 -11 -10 -39l-17 -11l-1 -2v-10h3v-8q-7 -6 -20 -9q-8 -7 -8 -14l2 -9l-20 -9q0 -7 -14 -11 l-18 -25l-5 -4l-10 2l-8 -2l-12 11q1 14 4 18l-3 4l1 7l-6 18q0 5 23 7q3 3 3 20q9 5 16 27q3 0 5 9q8 0 8 16l12 20l-4 5q8 0 20 34q5 1 10 33l6 9l-5 14q6 3 15 16l-4 6q4 0 9 48l-2 11v9l2 2l-5 16l5 16l-5 29l6 14l-5 15q0 31 7 47q-3 13 -7 18l2 9v5l-8 20v2l5 1v8 l-2 -2h-2q-4 1 -4 12l1 17l-5 10v6l7 9v2l-3 7h-12q-4 3 -10 20v5l7 9v2q0 19 -17 32h-4v2l-2 -2h-2l-2 4l2 5v7q-6 0 -12 13l2 7q-4 9 -18 16q-3 22 -9 22q1 25 7 25zM295 589h2l3 -4l-3 -3h-2l-3 3zM368 484v-1q-1 -6 -13 -6h-2l-4 6l1 1h18zM308 456v-4l5 -5l4 3l-2 9h-4 zM400 283h4v-4h-4v4zM378 171l2 -2v-1l-4 -4l-5 2v3zM355 81h3q5 -2 5 -11l-6 -7q-15 4 -15 9zM326 43v-5h-3l-4 4l2 1h5z" />
<glyph unicode="*" d="M401 515h-1l-2 5l3 -3v-2zM419 330l-10 -10v-3l-14 -2h-4l-7 -15l-14 -7h-5l-14 14h-3l-6 8l-15 5l-7 -3l-8 -10l-3 3v5h3l2 2l-7 6l-4 -3l-1 -8l-9 -9l10 -19l-8 -18v-3l-11 -6l-5 -15l-1 -9l-9 -9v-4h-14l-9 8l-9 2l-4 5l4 10l5 8v1l-3 5l-7 -2l-5 -3h-4l-5 12l-7 6 l-3 9l3 31h3l8 9l-6 6h-4l-6 -12l-5 16l-4 4h-5l-15 -14l-6 -1l-9 8l-2 -1l-5 -4l2 -6v-2l3 -2l5 2l1 -3v-4l-5 2l-12 2l-5 -4l-6 4v1h-4l-5 8l-5 6h-3l-5 -6l-1 -14l-6 -4l-12 14l-3 6h7l3 3l2 1l-10 13l3 4l3 3l10 -6l1 -1l4 5l1 7l-14 14l9 8h3l5 -6l4 -4l9 8l-1 7 l-17 10l1 5l15 14l-5 9l-3 2l-8 -2l-5 -5v-12l-10 -1h-4v4l13 17l-6 9v5l6 2l3 -2l3 4l1 1l-5 4l-8 3h-2l-1 -3v-4h-2l-3 8l-4 32l2 10l-4 10l2 4l10 7v8l-10 8v15l2 4v6l-2 3l7 7l10 -2h2v-5l-12 -18l2 -5l14 -2l9 -15l3 -2l7 2l4 6l2 13l5 3l10 17l10 -10l-3 -5l-7 -4 l8 -5l8 5v2h1l2 4l22 -14l9 4l4 3v13l13 13l-4 5l2 5l13 16l2 2l-10 12h5v-2h11l7 2h2l2 10l3 -2l3 -3l-5 -12v-5l3 -2l13 2l3 -9l14 -13v-10l-5 -9l3 -8l2 -2h13l8 10l4 4l9 -7l1 2l4 -3l7 6l5 -7v-1l12 -10l9 3l5 7l4 -4h1l-3 -5l3 -2l15 4l1 1h3l8 -9l-2 -8v-4l6 -5h1 l5 -17l5 -4v-2l-5 -1l-4 -10l3 -8l6 -9v-5l-7 -2l-3 -14l-2 -2l-15 8l-11 -3l-1 -1l2 -9l8 -9v-5l2 -3l-6 -12l4 -8l5 -3h1h4l2 -2v-7l8 -5h9l6 -6l-6 -15l9 -14v-10zM340 517v5h-3l-6 1l-14 13h-9l-2 -2v-8l-6 -11l3 -7l-1 -2l2 -2l3 2v6l7 6l20 -4z" />
<glyph unicode="+" d="M460 243l-10 -4h-5l-10 -8h-3l-5 7h-2l-7 -17l-3 -4h-43l-8 -8l-1 -4l-2 -1l-8 5l-17 -6l-5 3l-2 7l-12 2l-7 3l-1 2l-5 -9v-16l3 -2l-4 -29l1 -14l5 -7l-3 -9l-3 -20v-2l-12 -7l2 -8l4 -2l3 -3l-13 -2l-10 -11l2 -8l1 -1l-4 -4h-2l-2 3v10l-3 3l6 -2l-7 -2l-12 4l-6 -4 l-3 -4l-1 -9l-5 1l-7 19l-5 4v4l7 6v2l-3 3h-10l-9 10l2 20v18l-6 7l-8 5l4 7v7l-5 9v4l2 3h6l3 4v10l5 7v3h-13l-51 -3l-15 7l-20 -2l-8 -9v-10l-2 -3l-5 6v7l-9 6v5l9 13l-5 5h-22l-13 5l-2 4l15 6l3 3l-3 9l5 -2l-5 11l12 9l8 2l5 5v5l4 3l1 2l8 -9l4 -1l9 6h3l8 -9l6 1 l6 10l7 -2l6 -6l9 10l24 1l5 1l13 -1l2 -1l3 1l-5 28l2 42l4 8v18l-8 12l-9 2l-1 -2h-5l-1 2v3l14 4l4 8h7l9 -8h4l4 5l-2 13l8 22h4l2 -4v-7l6 -6h14l4 2l2 2h3l6 -11l4 -10l5 -6h5l2 -4l-7 -8l-1 -2v-4l7 -6l-1 -5l-5 -3l-3 -4v-5l10 -8l-1 -5l-7 -6v-2l7 -4l3 -7l1 -23 l3 -3l-3 -15l3 -3h11h11l5 3l16 -4l23 1l12 4l6 -4l24 -1l3 -12h8l6 7v1l3 -12l12 -10h7h4v-4l-13 -2v0v-13l2 -5v14l-4 -6l4 -8l6 -4h6l1 -1v-4zM380 260l-3 3l-6 2l-5 -9l6 -6h3l3 2zM266 376l-1 2l-2 4l-10 2l-23 -6v-5l6 -4l8 4l9 -5v-4l-4 -5v-5l4 -5l3 -1l2 20z M258 303v4l-2 3h-5l-2 -7h9zM217 252v3l-3 3h-3v-6h6zM261 150v6l-8 3l-3 -3v-9l6 -1zM174 260l-2 2l-19 -2l-5 5v2h-6l-1 -1l-3 -8l1 -6l5 -19h6v19l3 3h4l5 -3h7z" />
<glyph unicode="," d="M255 128q7 0 25 -24q14 -9 14 -26l2 -1h4l7 5h6l12 -4v-3l-7 -10l3 -3q-3 -3 -3 -13h-2q3 -22 9 -22h3l5 2h3l-2 -14l2 -29v-14l-15 -49q0 -9 -14 -18q0 -19 -9 -19h-1l-1 1h-2q-6 -1 -14 -8q-4 0 -4 -11l-29 -16q-4 0 -7 -15q-9 -6 -9 -7q-7 3 -14 0h-8q-24 0 -30 12 l-4 5v8q10 8 10 11l-2 15q10 3 16 22q9 0 14 17l-5 5v3l5 7l8 -2l6 6l-1 2v2l1 1l-1 8v4l9 -4q7 9 7 15q-16 6 -16 8l3 5q0 3 -18 8q0 7 -18 10q0 3 -4 3q-6 9 -14 16q0 4 -4 4v4l2 4v12l-1 6l1 6l-12 9l11 5l1 -2q5 15 10 17h2l2 -2l4 2v3l-4 5q-2 -5 -10 -5h-2l-3 3 q0 6 9 6l43 24h3l17 -2zM312 69v-2l3 -3h1v5h-4zM264 -59v-5h2v5h-2zM173 -105h2v-2h-2v2z" />
<glyph unicode="-" d="M156 289l14 -5l11 4h13l32 -2l27 3l16 -5h4l20 4q22 -7 32 -18q12 0 18 -4h4l14 4l51 -4q0 -2 7 -5l7 2l9 -6h16q5 0 9 -23l-12 -14l1 -9l-30 -17q0 -3 -9 -5l-11 2l-27 -6q-13 4 -13 8l-23 -6l-5 2q-15 -3 -15 -7h-5v3h-2l-11 -1l-11 3l-1 -2h-2l-18 6l-16 -2h-8l-14 4 h-13l-7 -2l-7 2h-14l-6 -4q-20 1 -38 7h-18q-36 13 -36 25l-17 20l16 25q0 13 23 13l9 5h2q8 0 14 -7q14 12 20 12z" />
<glyph unicode="." d="M238 173h5q19 0 37 -14q14 0 25 -21q4 0 22 -21q12 0 16 -11v-18l-2 -6v-4q1 -6 14 -10v-3q-12 -10 -12 -13l2 -11q0 -5 -29 -30q0 -7 -14 -11q0 -3 -15 -19q0 3 -13 7l-18 -4q-25 11 -34 18q-15 22 -19 23q-3 2 -18 2l-4 6q6 5 6 14l-6 11v10l4 5v8q-8 10 -8 19 q12 17 12 25q5 0 18 22q7 0 22 20z" />
<glyph unicode="/" d="M505 749q17 0 35 -30v-4q-6 -8 -6 -18l2 -2h2l2 2l1 -2v-3q-7 0 -10 -13q-15 -3 -15 -13v-5l9 2l2 -2v-4l-4 -3l-1 2h-2q0 -4 -9 -4v-4h-2l2 -1v-11q-8 -6 -15 -20l-12 -14l2 -9q-11 -9 -20 -11q0 -16 -22 -31q0 -5 -5 -5q-4 -21 -18 -36l3 -4q-1 -9 -27 -14q-5 0 -5 -9 h-2l9 -11v-2l-18 -20v-3q9 -2 9 -6l-29 -30q-12 0 -18 -25v-13l-5 -5l-2 1l-3 -5v-5l3 -8q0 -12 -25 -21v-6l5 -7v-5q-21 -17 -21 -20l2 -5l-2 -2h2l5 2q0 -4 5 -4v-4h-3l-7 2q-13 -5 -13 -21l4 -15l-17 -9q0 -6 -16 -12q-18 -24 -18 -47q-4 0 -9 -18q-8 -11 -27 -24v-3 l4 -6v-3q-13 -3 -34 -38l-9 -11l3 -3q0 -5 -23 -35l2 -1v-2q0 -5 -11 -15q-8 -14 -11 -14l2 -2v-2l-2 -1v-2l2 -2v-1q-4 -20 -22 -29q-2 -10 -16 -25l2 -2v-2q0 -5 -15 -27l2 -9l-5 -4l-6 4h-5q-14 -7 -14 -11v-3l3 -8q-15 -19 -27 -19l-9 -8h-16q-2 0 -18 29v4l8 11v1 l-6 47q14 25 25 25l-2 2v4l2 2l-2 1v2q0 5 16 15l13 23l-4 10q5 17 17 17q6 0 9 12q9 0 9 7l-2 8l2 1l14 8q12 31 32 64q0 14 24 22l9 11l-2 2v1q16 14 16 35q9 0 15 14q3 0 7 11q12 10 12 27h2l6 -2v2q3 12 19 30l-1 2v2q11 11 14 20l-2 2v3l15 7l9 13l-6 5q15 7 15 26 q21 20 27 48q6 1 32 33q0 19 13 25q0 5 3 5l-2 9v4q21 14 22 18v16q13 13 13 20l-2 7q11 5 36 43q4 0 12 33q9 10 13 10v9q1 5 14 9l-3 15q11 5 27 39q30 29 39 29zM428 504h4v-3h-4v3z" />
<glyph unicode="0" d="M253 635h4q0 -8 12 -12q0 -6 4 -6h7l15 4h3l15 -11l1 2h2q14 0 25 -18q19 -2 36 -40q10 0 15 -9l-6 -10v-2q11 -18 29 -18v-2l-5 -2v-3q16 -4 16 -24q0 -3 16 -9l6 -20h-2l7 -19l-2 -11l7 -7l-9 -11q0 -22 9 -29v-5l-7 -9l4 -6l-6 -18v-5q0 -6 6 -13v-9q0 -3 -6 -3v-9 l-7 -26l7 -9l-1 -34l-15 -14l4 -16l-4 -11l6 -6v-16q-11 -7 -11 -16l-2 -2h-2l-7 2l-5 -9l9 -7v-7q0 -6 -13 -6q-5 -9 -13 -9v-12q-11 -15 -21 -15l-6 2v-2q0 -9 -5 -9l2 -12q0 -10 -22 -22h-11l-18 -2v-3l6 -8v-5q-1 -5 -13 -5l-14 1q0 -4 -27 -7q0 -16 -25 -16 q-30 0 -47 29q-49 23 -49 41q-8 3 -12 11q-18 7 -18 11v2l7 9v1q0 3 -25 13l-6 9h2l-13 34q0 10 -9 18v6q9 9 9 16v5q-18 17 -18 34q5 0 15 18q-4 0 -4 6q-11 0 -11 3v4l2 11l-9 18l6 9v5l-9 9l3 20l-7 11v2q0 6 5 12v20l8 11v12l5 27v9q0 7 27 18l2 2l-6 11v4l11 14v5l-3 6 q15 14 19 14v9q0 3 35 29q0 16 28 23l2 -1l13 25q6 0 14 7l9 -2h11q12 6 25 25zM197 529l2 -2v-1l-9 -9l-5 3l-11 -2l-7 2q-8 -3 -9 -7l7 -7v-4q-18 -9 -18 -23l2 -2v-2q0 -16 -16 -16l-2 -2l-6 -3q0 -29 11 -38v-6l-20 -9l2 -10l-2 -15q6 -5 13 -5v-2l2 2h2q3 0 3 -6 q0 -7 -18 -12l2 -9l-4 -20l22 -14v-4q0 -3 -11 -9l-2 -7q0 -26 24 -36l11 -25l-2 -2h3v-2l6 2q8 -4 9 -7v-2q0 -3 -13 -7q13 -16 13 -22h-2q0 -6 13 -9q9 -6 21 -27l9 -2l2 2h4q3 0 3 -5l2 -2q0 -15 22 -18q0 -3 23 -11l7 -5v-4h2q5 0 32 16q14 0 15 16l-2 6q7 0 13 25 q15 0 36 18l-6 11q16 10 20 29q-2 18 -7 23v9q0 4 11 7l1 9l-5 15l4 9l-26 12v4l17 16l-2 11l2 2q0 12 -18 23v2q0 4 7 5v11q-5 0 -13 11l9 7q0 5 -16 20q0 16 -7 16q-13 4 -13 14v2q0 5 7 6v5q-7 0 -14 9l2 9v5q0 3 -18 13q0 12 -24 23l-10 22q-24 6 -24 22h-7 q-9 0 -16 -17q-6 0 -13 -19q-4 -4 -20 -6zM395 547h4v-2h-4v2z" />
<glyph unicode="1" d="M220 608l14 -2l11 2l18 -16q26 -8 34 -26q3 -14 13 -14v-7l-4 -6v-3l5 -6l8 6l9 -11v-9l-11 -11v-5q12 -3 12 -7v-8q-18 -2 -18 -7v-9l6 -7v-2l-7 -20q0 -4 10 -7l6 2l2 -2v-2l-15 -16v-3q0 -5 15 -9v-4q0 -5 -8 -5l-12 -11q3 -9 11 -9v-2l-2 -20v-3q12 0 12 -8 q-3 -9 -9 -9v-7l8 -11q0 -11 -17 -30q9 0 9 -4l-1 -2h-2l-6 2l-5 -5l5 -16v-6q-8 -8 -10 -30q10 -7 10 -20q15 -5 15 -7v-4l-13 -11l-3 -11v-3l3 -6l-2 -10l2 -11l-7 -22q13 -6 13 -11l-4 -10q1 -11 11 -11q-6 -8 -6 -18q13 -3 13 -9l-4 -11v-7l4 -18q-20 -20 -31 -22 q-21 0 -25 27h-7q-26 -27 -58 -34h-5q-14 0 -32 22v5l3 16l-2 15q0 8 15 25q0 5 18 16l3 -5q22 14 22 43l13 23l-6 11l7 27q0 27 -7 27l-3 4v3q21 20 21 27l-14 25q-6 0 -6 4v4l8 10l-8 27v2l2 34l-5 17v18l-7 9l7 10q3 7 3 20v29q13 8 13 16l-11 11v2l2 2l-5 10h-20l-13 2 l-9 -11h-2l-1 2l-13 -7h-11l-3 4l-18 -4q-13 16 -13 31q3 0 14 27q14 0 26 34l5 2l9 -2h2q17 0 21 23zM257 408v-2l6 -2l3 6l-1 2h-4z" />
<glyph unicode="2" d="M282 619q31 -9 43 -21q58 -11 58 -40q13 -16 27 -16v-2q-8 -6 -14 -25q9 -3 9 -6v-5l-8 -2v-3h11l2 -2q7 3 7 5v2h-3v5h12l4 -3l-11 -4v-2q6 0 11 -9l-4 -10q7 -20 15 -27v-8l-4 -5v-5l2 -8l-6 -9l4 -18l-2 -1v-2l2 -11q0 -3 -13 -9q0 -4 -14 -22q0 -7 -7 -7 q-3 -6 -15 -11q0 -6 -18 -23h-1l-6 2l-3 -4l1 -2v-1l-3 -6l2 -2v-1q-9 -11 -13 -11l-7 2q-4 0 -18 -24q-5 0 -7 -12q-5 0 -9 -6l-6 2q-26 -31 -63 -54l-2 -2l-9 -7q-6 -13 -12 -13q-1 -3 -11 -5l-7 -18q9 0 14 -4q10 3 18 11h7q4 0 15 -20h3l6 2q12 -1 12 -3l2 1h9 q16 0 45 -32q0 -14 22 -18h7l5 4h2q7 -6 16 -6q5 0 8 13l18 5l10 -2l2 2l-2 2v2q0 9 8 12l1 -1l9 1l13 -5l5 4q6 -7 6 -13l-24 -20l2 -5q-13 -37 -56 -67q0 -5 -5 -9q0 -7 -11 -7h-5q-10 13 -16 13l-9 -2l-31 14h-13l-7 11l2 2q0 10 -23 14l-6 6h-5q0 -9 -6 -9h-14v5 q0 14 -16 14q-32 0 -47 -12l4 -6v-3l-8 -7l-9 1l-21 -5v-4q7 -7 7 -14q-19 0 -43 -14h-2q-20 0 -29 39q-7 0 -7 6v18q3 16 11 27v18q4 11 16 16l7 27q5 0 6 7q23 10 32 34q25 18 25 22q34 29 47 29q0 12 27 18q18 8 18 19q8 0 16 6h4q3 0 3 -6l2 -1h2q18 1 20 34q5 7 12 7 q10 0 36 -18v2q-10 16 -10 21l-2 13q0 13 18 13q7 0 7 7l9 9h4v-2l-2 -2v-2l2 -1h3v1l-2 2v2l18 13l-1 1v2l1 2v2l-3 3v2q0 4 5 4v7l-9 16v6h4v9q9 14 23 14v4q-20 0 -32 41q-11 2 -24 11l-5 -2l-2 2v12l-21 8h-8q0 5 -9 9q0 7 -18 10l-10 -3h-4l-14 3h-13l-11 6 q-28 -6 -38 -20q-27 0 -52 -43q17 -34 20 -34l11 -4h14q4 0 4 9l2 2h3q11 0 18 -11v-4l-2 -12q28 -12 31 -20l-5 -5l-8 1l-21 -7v-3l9 -13v-2q-15 -11 -15 -20q-3 -15 -25 -28l-21 -4q-1 4 -22 18l-11 22q-9 0 -9 7l2 2v1q0 6 -5 6q-17 11 -17 34l-3 5v22q-9 14 -9 20l11 16 l-4 13q10 23 20 23l9 -2l3 6v16q27 38 49 38l16 10l2 8l9 -2q14 10 38 21l29 -5zM370 401l8 -7v-2l-4 -3h-4l-3 3v6zM277 311l2 -1v-2l-4 -4l-2 2v2zM187 151v-2h5v4z" />
<glyph unicode="3" d="M425 628q4 0 11 -11q13 0 14 -25q20 0 20 -9l2 -2v-2q0 -3 -20 -9l-41 -36q-14 -21 -36 -28q-3 -16 -18 -26l-13 -9q0 -14 -32 -34v-5l9 -9l-2 -6l13 -5l14 4q0 -7 23 -9q7 -10 9 -22l27 -11l4 -12l-2 -6l18 -18q11 -9 11 -39l7 -4l-2 -5l9 -13v-5l-5 -8v-7l13 -14v-2 q-8 -8 -8 -13l11 -19q-11 -16 -11 -26l4 -3v-4q0 -3 -9 -3l-2 -2v-4q0 -6 7 -14v-4q-12 0 -23 -47l2 -1v-2q0 -13 -16 -22q0 -5 -8 -5q-6 -25 -50 -49q-13 0 -40 -12l-23 -6l-22 2l-27 -9h-3l-6 5l4 4l-5 2l-38 -7h-7q-11 6 -11 16l2 5l-6 4l-16 -7q-18 0 -43 25 q-27 10 -27 38q-15 9 -15 23l-7 7v7q0 4 9 4l2 2v3q0 4 -27 24q0 4 13 12v4l-8 13v3l8 7l1 -1h2v1q0 7 -9 15v3l4 6l-4 16q7 9 18 13q29 32 38 32v14l4 4h5q26 -19 27 -25l2 2h2q9 0 14 -18l2 -2l14 -7q0 -32 -14 -42l-13 -12q-5 0 -34 -33l4 -3l7 1l2 -1v-4l-4 -4l-5 4 q-9 -5 -9 -14v-2q10 -1 10 -6v-3l-3 -6v-1q0 -5 11 -20q0 -6 30 -16l9 -8l11 2q2 -8 32 -21q4 0 9 10h4l18 -5l4 -11h3q0 12 18 20h2l7 -2q11 0 11 13q32 16 32 29q7 7 29 19l2 8l-4 14q18 6 18 14q0 6 4 6l-2 2v1l15 17v5l-4 5l5 17q0 6 -14 10v8l5 7v16q-1 18 -14 18v11 l2 7q-3 9 -6 9l-3 -4h-2q-25 9 -25 18l-6 9h-18l-43 9h-7q-5 -12 -14 -12l-27 3l-13 -9q-7 3 -11 9v2q0 4 9 6v5q-5 8 -16 13l-2 -2h-2l-1 2v1q10 0 14 24l-2 7q20 13 20 20l-4 3l11 11h4l2 -2q19 8 19 18l-3 13q1 5 20 23l7 -1q11 13 11 28l3 4v2q0 3 -9 3q-9 9 -50 17 l-9 7h-6l-14 -4h-2l-3 4v3h5v2q0 4 -22 7h-9l-10 -5l1 -9q-10 -11 -34 -16h-3v-2l1 -5l-18 -15h-3l-7 9v4l5 12l-7 15q0 23 25 23l4 6l-2 14q13 15 29 20v9h5l2 -2q7 1 18 13l9 -2h3q0 5 4 5h4l19 -7l18 4q7 -6 13 -6l16 4q10 0 13 -9l56 3l16 -1q28 18 43 18l2 1l11 -1z M355 268h4v-4h-4v4z" />
<glyph unicode="4" d="M205 605q26 0 50 -22l-9 -14v-2l7 -13v-1q0 -3 -19 -17v-7q14 -2 14 -7v-2q0 -3 -9 -3l-2 -2v-4q1 -5 13 -11v-1q0 -3 -24 -15v-3h-1l1 -9q-3 -14 -9 -20v-9h11l9 -2v-2q-2 -7 -29 -16l-1 -9q7 -1 7 -5v-2q0 -4 -18 -11l-4 -7q8 -4 9 -7v-8l-3 -3l-2 2l-18 -11 q0 -6 16 -6l4 -5l-26 -22l2 -9v-3q0 -3 -20 -15l-1 -9q19 -7 19 -12l-5 -4q-4 0 -5 7h-2l-7 -5h-4l-2 2h-2l-1 -2v-9l7 -2l9 2q7 -3 7 -5l-5 -8h-13l-2 2q-11 0 -11 -18l-3 -11l-7 -7v-7l9 -9h3l13 11q20 -10 20 -13l-2 -2q0 -7 16 -10h2l11 9l23 -4h7l6 -4l12 4v-2l15 4 l3 -4h6v6q-13 3 -13 7q16 0 20 25l-7 7v2q0 5 9 5l-9 44l-4 3v4l13 14l-6 6v5l9 13q0 4 -16 12l-2 2v4q6 9 15 9v12q-6 7 -6 13l2 16l-9 7v4l5 11l-5 12l11 11l-22 16v7l15 8q0 7 14 9l2 -2l3 5l-3 13q15 13 34 18q5 14 7 34l-2 2l6 3h2q10 0 14 -12l-2 -2l16 -14l-1 -2 l1 -2l-1 -5l1 -13q0 -8 -10 -25q0 -4 12 -15l-9 -18h2q0 -19 -11 -19l-3 -4q5 0 12 -13v-1q-11 -11 -11 -18h-1l3 -18l-7 -4v-4l13 -12v-4l-9 -9v-3q0 -6 10 -6v-3l-5 -8v-3q4 -9 13 -16v-2q-8 -7 -8 -13l2 -21l-7 -9l5 -17l-1 -1h-2l-2 1l-2 -12v-6q22 -12 22 -16v-5l-7 -9 q23 0 23 -13h9l16 2q28 0 45 -13q7 0 11 -7v-3q-11 -13 -36 -22h-2l-5 4h-22l-5 3h-4l-5 -3h-20q-14 0 -14 -15l3 -14v-2l-2 -13l8 -9l-4 -16l4 -5v-2q-8 -10 -8 -16v-9q31 -2 31 -11q5 -18 18 -18v-9q-5 -9 -14 -9h-18q-11 12 -17 13l-7 -2q0 4 -34 11l-70 -20h-4l-20 7 l-9 -4l-16 11v2l7 9v13l17 -2q36 18 43 18q2 13 12 23v4l-7 20l2 18q-4 4 -4 18l-21 10l-11 -1q-1 4 -14 10l-11 -3l-22 3l-14 -5h-18l-27 5l-2 -1h-2l-7 1l-13 -5q-50 0 -50 22v1q6 36 23 56l2 2h2l-2 2v2q5 12 11 12v13q6 0 13 41q16 15 16 18l-2 9q7 0 9 22h4v11l7 9v36 q0 4 16 7v9q3 17 9 23v9l-4 6l8 12l-9 15v1q18 11 18 45q3 0 3 9l-2 9l9 6v2q0 5 -9 18q0 18 31 25h2z" />
<glyph unicode="5" d="M360 615h2l25 -18v-2l16 12h11l7 -7l-3 -5v-2q7 -10 7 -31l-2 -1h-3l-2 1l-22 -10h-16l-5 -4q-13 0 -13 13h-2l-12 -2v3q0 4 5 4v4l-4 5l-16 -4v-10q9 0 9 -8q-4 -10 -11 -10l-25 18h-3v1l-2 -1h-2q-30 0 -36 9q-8 -13 -18 -13l-18 5h-4q-21 -18 -28 -18h-6q0 -9 -5 -14 l5 -7v-4l-5 -7v-9q7 -1 7 -5v-4q0 -4 -7 -4v-12q5 0 9 -7v-6q-7 -14 -16 -14v-9q5 0 18 -16l3 -4v-2l-9 -2v-1l6 -6l9 9l18 -16h5l11 7h3q7 0 18 -9h4l16 16h2q11 0 20 -9h2l19 6q0 -3 27 -25q0 -13 27 -13q6 -10 8 -27l1 -2h2l4 4q2 -11 9 -11l9 4v1l-2 2v2l5 4h2l11 -11 v-6l-7 -14h12l11 -11q-1 -14 -3 -14q3 -8 3 -24v-3q4 0 16 -15q-9 -7 -9 -14l-10 -4q16 -26 16 -34l2 -11l-11 -10l2 -2v-4q-8 -14 -11 -14h-6l-5 5q0 5 7 6l-7 27l2 9l-11 10q0 9 16 20q-6 6 -12 6l-4 -4l-4 4q11 10 13 18q-15 0 -32 32q-4 0 -4 23l-9 9l-22 -1l-10 3 l-2 -2l-2 2l2 2v2q0 4 -16 7v4l-20 -2l-18 9q-9 -1 -9 -6h-4q0 6 -5 6l-25 -6h-2l-6 4h-3q0 -7 -16 -7q0 -9 -45 -24l-9 -1h-9q-17 14 -17 36l6 5v16l-6 9l2 11l-7 11v2q10 10 13 25l-6 9v16l4 14v17l-4 5v9l4 5v6l-4 5v2l6 9l-4 16l2 7l-4 4v4l13 18l-6 5v2q9 16 36 16l9 4 l8 -2l14 2l11 -4h9l11 7l18 -5q6 0 12 5h2q9 0 16 -5h13l20 -4h3q22 15 27 15zM360 602v-4q4 -9 11 -9v2l2 2l-6 11zM186 561l3 -4h2l4 4l-2 5h-2zM168 233q12 0 28 -23v-4l-3 -5l3 -11q0 -15 -27 -24q-2 -25 -16 -25v-9l4 -5v-2l-4 -14l7 -9v-2l-1 -2v-2q32 -10 32 -38 q5 0 18 -12l23 9q26 -15 45 -15l8 8l19 -2l9 5l6 -2q0 3 16 13h4q7 -5 14 -5q8 0 16 28l18 4l2 -2h2l5 2l2 -2q7 8 16 36l18 24l11 -11l-13 -15v-3h-1l1 -2q0 -17 -23 -47h-2l-5 2q-16 -13 -16 -27q0 -6 -18 -29l-2 2q-14 -13 -20 -13l-11 4l-36 -14h-11q-21 0 -28 -4l-15 6 l-18 -2q0 5 -21 7q-8 11 -15 11l-20 -2q-57 45 -57 56q0 21 -15 21h-1q0 4 5 4v3q-9 13 -9 20q0 8 11 16v9l-6 8v7l8 9v5l-8 9v6q11 14 20 14v7q0 17 43 25z" />
<glyph unicode="6" d="M260 617h2l13 -11h3l20 11h4q0 -7 11 -7h3q7 5 13 5l36 -22l5 2q1 -7 24 -16l1 -7l6 2l2 -2v-4h-9l16 -16v-2q0 -6 -15 -23q0 -15 -45 -15l-21 11l-9 -5h-2l-5 5v4l7 9q-9 20 -18 20l-11 -8h-2l-7 8v1l9 -1h2l5 3q-2 16 -9 16l-11 -3h-9l-12 2l-9 -9h-6q-3 0 -3 5l-2 2 h-9q0 -13 -18 -13q-4 -18 -9 -18l-9 2l-2 -5l4 -9q-1 -8 -25 -17l-17 -28l4 -11l-2 -6q8 -3 9 -7v-2q0 -5 -11 -5l-5 -2l-4 -9q6 -4 17 -5v-6l-8 -7h-7l-11 2q-5 0 -7 -14q9 -6 25 -9l2 -2v-6l-7 -7h-2q-4 0 -5 7h-7l-2 -5q8 0 11 -20l-6 -3q-3 0 -3 5l-13 -11v-3 q0 -5 16 -9q1 -4 11 -11q11 0 20 9h2l7 -6q-4 -10 -15 -10l-1 -8l12 -5l2 2h2l14 -2q19 14 29 14q1 8 7 8q0 2 16 7v2l-1 1v2q0 14 41 25l14 6v3h2q0 6 -5 6l-2 2v1l22 11q0 7 19 7l4 -9h7q0 6 7 9h6l16 -7l4 4q5 0 5 -7l-2 -8l2 -5h9q15 0 20 -22l11 -10l-2 -13q5 0 7 -20 l2 -2v-5l-2 -13l7 -9l-2 -9l2 -5l-5 -9q4 -6 5 -16l-5 -11v-13l-7 -19l7 -18q0 -4 -16 -8l-8 -12l6 -13q-7 -4 -13 -14v-7l2 1h2l3 -3v-2l-3 -4l-7 2q0 -3 -6 -3l-2 -2v-6l4 -10q0 -7 -23 -35l1 -7q-10 -3 -25 -25q-11 -5 -38 -27q-14 -5 -27 -20l-23 -7l-49 25l-30 31 q-11 4 -25 29q-5 0 -18 12q1 11 3 11l-20 20v2l2 1v2q0 7 -21 25v11q-9 0 -9 13v2l5 7q0 8 -16 25v2q5 8 5 16q-7 10 -7 29q0 7 9 27q-4 0 -5 7l5 25l-9 15l7 7q0 5 -5 5l-2 2v5l7 9l-2 18v2q11 11 11 16t-11 13v2l11 12v17l11 12l-5 15q0 12 23 18l-5 14q7 2 7 11l5 2v3 l-2 9q19 5 38 33l-2 1v6h15q14 12 25 12l5 -10q13 0 15 12q-18 7 -18 11l7 5h16q13 0 16 11q10 13 18 13zM313 338q0 -14 -27 -22q-22 -20 -38 -29l-2 2h-2l-11 -5h-9l-1 2l-11 -6h-18q-12 -12 -33 -16l-1 -11q14 -7 14 -11q-3 -7 -11 -7l2 -12l-4 -17q0 -3 18 -19l-5 -9 l9 -13l-4 -18q36 -9 36 -14v-4l-7 -9v-2q0 -3 6 -3l5 1l9 -10v-4l-2 -2q3 -11 6 -11l10 4q17 -14 22 -14l23 -9l11 -2v2l-7 12l2 2h3l8 -2l23 24q22 12 22 28q3 0 10 15q13 0 18 9l-9 11v1q0 4 15 4l5 4l7 -2h2v2q-11 15 -11 21q1 7 4 7q-3 8 -5 8l-8 -2l-5 14q8 0 13 11v2 h-4q-4 12 -9 12v13l-11 9l-2 -2h-1l-4 4l7 18v3l-7 8h-9l-5 -4h-2l-7 2l-9 -6h-2l-4 4q8 14 20 14v9l-13 15h-10z" />
<glyph unicode="7" d="M180 617l22 -14l1 2h4q7 0 20 -13l7 -2l9 4l25 -2h9q8 0 24 -14h9q18 0 34 14h3q9 -5 20 -5q18 7 27 16h4l11 -2l12 4q22 -4 22 -16v-27q-9 -11 -22 -51q-27 -4 -27 -11q0 -15 -9 -23v-4h-2l2 -1v-4l-9 -7q0 -6 -7 -13l-2 -7l4 -5v-2q0 -7 -11 -25q0 -5 -9 -15l4 -5 l-2 -7l2 -11q0 -8 -18 -11l-6 -9h2l-2 -2v-2q0 -47 -5 -55l2 -11q-9 -10 -9 -16l1 -6q-3 -1 -16 -25l2 -2l9 2q9 -1 9 -5v-2q-12 -15 -16 -15v-7l12 -2v-10l-7 -9v-6l15 -14v-2q0 -4 -6 -4l-2 -5l11 -11v-3l-3 -4l-2 2h-2q0 -4 -9 -4l-2 -2v-1q0 -8 9 -17v-12l-5 -7v-8 q10 -9 18 -30q4 -2 7 -24q4 0 5 -19l-14 -13q-50 0 -50 18q-5 4 -24 9l-74 -14l-10 -6l-20 2l-9 -5q-12 7 -27 9q-13 13 -13 21q0 5 7 6v3q0 25 51 40q0 15 21 27q16 16 22 36q13 10 13 20l-2 12q7 9 11 34q4 0 7 27q5 0 14 33q14 18 22 39q6 0 9 18l-2 15l4 5l-2 6h2l1 -2 h2l-2 -2v-4h6v2l-2 2v2q4 22 14 43l2 9l-2 5q11 6 11 9l-2 11q16 12 17 24l-4 3q18 23 18 34q-3 4 -22 6l-1 2l-8 1l-1 -1h-2q-12 9 -18 9q-11 0 -36 -13q-15 1 -15 5l-1 -1h-2l-15 12h-10q-19 0 -38 16l-16 4q-22 -12 -22 -23v-2l4 -6v-5q-13 0 -13 -13v-1l4 -6l-6 -3 l-16 1l-11 -9q-12 0 -25 42q8 30 27 47q3 0 13 21q6 0 18 20q5 0 34 20zM347 383v-5h2v5h-2z" />
<glyph unicode="8" d="M264 612q24 -20 54 -20q8 -5 29 -7q11 -12 36 -27q1 -20 13 -20q10 -10 12 -23q9 0 11 -31q7 -2 11 -9v-2q-13 -10 -13 -18v-1l11 -8v-7q0 -3 -13 -5q-4 -18 -18 -18l6 -15v-3q-8 -11 -15 -11l-16 2h-2l-3 12q17 17 27 17v7h-4v11q-11 16 -18 16v2l2 1v2l-2 2 q-3 9 -29 16l-5 9l2 7q-11 24 -31 24q-12 9 -23 23l-7 2q-6 0 -6 -7q-3 0 -3 -7l-2 -2h-4q0 27 -18 29q-2 5 -11 5q-6 -7 -41 -11l-9 2l-7 -9l-11 2l-4 -4l8 -3l12 1q11 -1 11 -5q-7 -7 -22 -11q0 -3 -21 -5l-7 -9l1 -2v-4l-21 -27l2 -10v-4l-4 -5v-2q0 -5 18 -9 q0 -24 16 -24l7 2q9 -3 9 -12h2l2 1h2q2 -10 14 -10q0 -4 20 -4l2 -2v-2l-2 -1v-2q2 -7 9 -7l7 1l16 -10h2l6 3h5q18 -20 34 -20h2l11 6l12 -4l-5 11v4l5 5h4q6 0 13 -5l7 7l12 -2l15 2l7 -7l-20 -18l-5 -13q6 0 7 -11q13 0 23 -11l-1 -1q0 -9 19 -15l4 -3l-2 -13v-9 q0 -3 22 -14q0 -10 11 -18l3 -8q-11 -3 -11 -7q2 -8 17 -21l-2 -9l11 -9v-8q0 -7 -22 -14v-5q0 -9 4 -9q0 -18 -26 -63q-10 -20 -18 -20l2 -13v-2l-5 -5h-9l-13 2q-1 -6 -14 -6l-6 -12v-6q10 0 13 -7q0 -3 -20 -3q-17 -2 -34 -18q-15 0 -23 -11l-22 2l-16 -4l-60 16 q-11 12 -19 15l-6 -2q-11 5 -38 36l-18 9l2 9q-14 11 -14 27q-15 13 -15 29l2 10v4l-7 9l5 9v7q-5 7 -5 20q5 0 11 52q4 22 12 22q4 13 17 23l1 6l-1 1v2q7 9 23 15q7 4 7 12l11 11v5q-20 14 -20 31q-16 0 -16 16v24q-7 0 -7 12l2 2q0 5 -17 9l-1 2v11l3 5v4l-3 5v11 q3 7 10 7v5l-7 9v2q3 8 16 18q11 31 20 31q0 5 4 5h2l1 -2h2q0 4 9 4q11 29 27 29l20 3q9 0 14 -10l2 -8q4 0 4 6l2 2h1l15 -11h3q0 7 -12 27q3 12 20 23h1l6 -3h2q6 5 12 5zM318 358v-7l13 -11l5 -2v4q0 3 -16 13v3h-2zM163 272l-9 2q0 -9 -27 -18h-12l-2 -8l4 -14 q-18 -7 -18 -16v-2l18 -5l12 5l4 -5q0 -6 -16 -6v-3q0 -11 16 -15l2 2h1l4 -4q-18 -4 -18 -12l-2 2h-3v-2l1 -2v-2l6 2q16 -8 21 -16v-4l-1 -2v-1l7 -9h5l6 1q15 -4 23 -25h4v-2l1 2h8q16 0 27 -21q4 -6 14 -6q7 -5 7 -9l-2 -5l27 -13l6 -3q5 0 20 21h1q7 -5 13 -5h13l1 2h2 l-2 1v2l6 13l12 -2q17 0 24 32q9 1 16 20q16 10 16 13v2q0 4 -14 5q0 4 -6 4l-1 1v4q18 13 18 18q0 18 3 18q0 7 -18 11q0 4 -12 20q0 14 -26 14l-19 18q-4 0 -15 14l-39 13l-11 -9q-13 0 -29 20h-5q-36 -24 -49 -24q-5 0 -11 -12h-2zM430 198l-2 -2l2 -5h2l7 3v4l-2 -2h-2z M194 121h4l-4 -4v4zM383 49h2q9 -6 9 -13l-11 -4h-5l-2 2h-2q0 9 9 15z" />
<glyph unicode="9" d="M278 634q7 0 11 -32l9 -2h9l16 5q8 0 16 -27l26 -10v-2l-9 -11q0 -5 14 -11l5 2v-2l-1 -7q0 -3 19 -18q0 -19 24 -29v-2l-11 -12v-6q0 -3 11 -7l2 -9l-2 -2v-1q1 -7 14 -20l2 -11l5 2q9 -4 9 -7q0 -9 -5 -9v-8h4v-5l-8 -11q0 -18 9 -27v-3l-7 -6l2 -9l-5 -14l9 -16v-2 l-4 -6v-3l4 -6v-7q-9 -12 -9 -20l1 -7q-3 0 -7 -14q-5 0 -5 -7h-2l9 -13v-2l-4 -11l4 -10v-2q-11 -10 -11 -18v-16q-5 0 -5 -6l5 -12v-2q-12 -18 -20 -18q0 -6 -3 -6l2 -1v-2l-11 -18l3 -11v-2l-14 -14q0 -7 -4 -7l2 -2v-2q0 -5 -20 -7q-8 -16 -23 -16l-4 -6v-2l13 -3v-7 l-4 -4l-9 2q-18 0 -61 -15l-21 -5l-20 5l-18 -1l-25 10l-9 -1h-6q-12 19 -25 19q-16 10 -16 13l2 2q-5 15 -20 27l-4 5v6q11 17 27 25q19 20 31 20q6 -1 36 -24l20 2q10 -7 10 -16h18l2 -13l-2 -2l11 -3q6 0 15 9l9 2l16 -2q39 12 39 27q11 12 18 32q18 5 18 13l-3 11l12 30 q0 14 8 20v7l-4 6q7 11 7 18l-2 18q8 0 8 14l3 4h2v3q-5 0 -5 16q-11 5 -11 17q-5 0 -9 5l-22 5q-6 -6 -11 -21l-1 -2h-9l-8 2q-6 -5 -37 -11q-8 -5 -9 -13l-6 -1l-5 1q0 -9 -9 -9l-2 -1q0 -5 -38 -13l-5 -14q-9 0 -25 -22v-2h7v-5h-4l-5 3q0 -3 -6 -3l2 -2v-4l-9 -1v1 l-2 -1h-1l-2 1l-9 -1q-33 0 -33 18q-18 7 -18 23q-19 20 -19 36l-13 13l2 9l-7 14v2l3 5v4q-11 25 -11 47v1l4 15l-9 25v2q6 5 11 30l2 6h1l-1 2v3l5 16l14 13l-5 20q8 3 25 25q24 32 33 32q19 26 27 26q37 6 37 9l-1 5l1 2h2l6 -4h9q8 0 21 9l18 4l-3 5q3 0 3 7l2 2h7z M165 503l2 -6h-2l2 -5l-2 -13q9 -2 9 -5q-1 -3 -16 -11q0 -7 -4 -7l2 -2v-3q-7 -19 -18 -22v-4h3l2 -1l2 1q2 6 11 6l9 -11v-4q-9 -7 -9 -14l5 -9l-3 -5v-4q10 -22 21 -22v-1l-9 -9l-2 1v-3q7 -23 29 -36l2 -2l-13 -16v-6l9 -1q0 5 26 9q0 9 34 30q6 0 12 -5h6q7 29 18 29 l14 -2l45 12l18 4l9 -14l-3 -8h3q4 -10 11 -10l2 1v4q-5 0 -9 7v7l3 6v3l-3 8l3 10q-2 8 -10 8q-13 5 -13 9v1q0 5 16 8l4 5l-29 47l2 9q-13 6 -13 9v16q-3 0 -3 5q-15 4 -45 38l-2 -2h-2q-7 0 -52 33h-2q-4 0 -25 -22q-33 -18 -42 -34zM359 64v-2h4v2h-4z" />
<glyph unicode=":" d="M237 444q23 0 39 -22v-2h15q10 0 10 -12h2l11 1q8 -18 20 -34l-2 -7l2 -2v-2l-2 -10l4 -8q0 -19 -18 -19q-13 -24 -22 -24q-6 -32 -32 -32l-8 -2q-12 1 -12 4l-15 -4l-1 2v3q0 4 5 4v7q-9 15 -20 15l-9 -2q-10 43 -23 43q-11 4 -11 14l4 6l-4 11q3 0 16 27l45 37q1 8 6 8 zM244 283l-2 -1v-4h7v4zM220 139h15q18 0 23 -9q12 -9 24 -10q0 -4 19 -20q5 -16 15 -16v-4l-4 -5v-6q0 -7 9 -20l2 2h2l3 -3v-6l-7 -9v-3q6 0 6 -4q-8 -16 -24 -16q0 -9 -18 -11q-6 -14 -14 -14l-7 2l-13 -2q-23 7 -36 21q-7 1 -20 18q-7 3 -7 16v8q-4 0 -4 9l-7 9v9 q9 16 15 21l-2 15l29 27zM233 116v-4h2q7 3 7 6h-4z" />
<glyph unicode=";" d="M348 376l-22 -2l-7 -8l10 -42l-8 -5h-24l-11 -9l-9 7h-4l-3 -7v-30l-3 -5v-2l-20 16l-5 4l-11 -2v11l-4 6l-10 6l-17 3l-21 2l-5 4l-3 26l-6 17l-14 8v6h14l13 13l-5 8v6l14 15v4l-6 8l5 6h39l6 7v15l5 2h4l4 -16l5 -5l4 2l5 5l-3 14l1 3l10 -3l3 -3l-2 -11v-5l6 -3l13 2 l16 -4l-5 -23v-2l3 -3l16 3l6 -3v-8l-6 -11l5 -9l8 -5l14 6h3l2 -5v-4zM357 50l-3 -9l-5 -5l2 -16l-18 -12l3 -10l1 -1l-13 -11v-6l9 -7h12l1 -2v-4l-17 -2h-5l-3 -3v-22l-3 -3h-15l-12 -13v-13l-2 -1v-2l-12 3h-2l-6 -9l1 -30l-4 -9l-6 -5l-24 10l-11 13l-5 3h-17l-2 24 l-3 5l-3 2l-12 -4h-2l-2 3v4l7 5l3 3l-7 14l16 7l2 21l6 10v11l-3 3v3l10 3l4 3l5 5l-2 5l-11 8l-9 3l-3 6l1 11l-24 2l-4 6l4 17l-1 7l-5 3l-12 1l-2 2v3l13 3h1v19l11 25v7l18 1l9 5l3 5l-6 10l3 9h22l16 6l11 -2l5 5l3 9l4 -6l2 -9l6 -4l8 4l23 -7l9 -2l1 -12l3 -6l7 -6 h19v-71zM255 308v5l-2 3l-7 1l-4 -3v-4l2 -3l8 -2zM253 -99l-3 4l-6 2l-4 -6l4 -7h3l3 2zM227 -102v6l-4 3h-4l-7 -6v-3l2 -4h8z" />
<glyph unicode="&#x3c;" d="M402 31q0 -5 -4.5 -14.5t-4.5 -14.5v-3q-26 0 -10 -9q-11 -12 -22 -12q-12 0 -26 3t-27 3h-5q-3 2 -4 15t-5 13q-6 0 -13 -6.5t-11 -6.5v2l2 6v2q0 2 1 5.5t1 5.5q0 6 -6 6q-3 0 -7.5 -1t-6.5 -1l-11 4v7q0 15 -13 17t-13 5t2 7l-4 16q-4 0 -11.5 4t-11.5 4q-3 0 -6 -1 q-2 3 -3.5 15t-8.5 14l-9 -4q0 10 -10 21t-10 18l-1 1q-2 0 -10.5 -4.5t-12.5 -4.5t-6 3l3 28l-4 -4l-41 26q3 4 3 8t-4 11t-4 12q0 11 10 24q13 18 15 22q12 1 17 3q9 4 10 12l16 -5l-12 21q1 7 11 18t10 18v2l8 -3q7 2 9 12q2 14 4 16q4 -1 6 -1q6 0 12 4t11 5l3 16 q-1 3 -1 5q0 6 13.5 7.5t13.5 13.5q0 4 -1 9q4 4 12 4q5 0 14 -2q5 2 5 7q0 2 -1 6t-1 6v1q-1 2 -3 7q5 0 12 -6.5t13 -6.5q2 0 9 29q17 -3 18 -3q4 0 25 9t32 9t8.5 -10.5t6.5 -19.5q-1 -3 -1 -5q0 -5 5 -14t5 -14q1 -6 0 -9q-16 -8 -6.5 -9t5.5 -17v0q-11 0 -36 -11 q-1 -14 -7 -17l-8 8v0q-12 0 -43 -28t-34 -40q-5 3 -10 3q-10 0 -22.5 -14.5t-18.5 -17.5q-2 1 -4 1q-9 0 -23.5 -23.5t-20.5 -23.5v-7q7 -1 29.5 -18.5t32.5 -17.5q3 0 6 1q6 -3 20 -18q11 -13 21 -13q5 0 10 3q3 -12 34 -40t43 -28l9 7q5 -2 6.5 -14.5t10.5 -12.5 q4 -16 6.5 -19t18.5 -12q1 -2 1 -5z" />
<glyph unicode="=" d="M156 237l14 -5l11 4h13l32 -2l27 3l16 -5h4l20 4q22 -7 32 -18q12 0 18 -4h4l14 4l51 -4q0 -2 7 -5l7 2l9 -6h16q5 0 9 -23l-12 -14l1 -9l-30 -17q0 -3 -9 -5l-11 2l-27 -6q-13 4 -13 8l-23 -6l-5 2q-15 -3 -15 -7h-5v3h-2l-11 -1l-11 3l-1 -2h-2l-18 6l-16 -2h-8l-14 4 h-13l-7 -2l-7 2h-14l-6 -4q-20 1 -38 7h-18q-36 13 -36 25l-17 20l16 25q0 13 23 13l9 5h2q8 0 14 -7q14 12 20 12zM156 389l14 -5l11 4h13l32 -2l27 3l16 -5h4l20 4q22 -7 32 -18q12 0 18 -4h4l14 4l51 -4q0 -2 7 -5l7 2l9 -6h16q5 0 9 -23l-12 -14l1 -9l-30 -17 q0 -3 -9 -5l-11 2l-27 -6q-13 4 -13 8l-23 -6l-5 2q-15 -3 -15 -7h-5v3h-2l-11 -1l-11 3l-1 -2h-2l-18 6l-16 -2h-8l-14 4h-13l-7 -2l-7 2h-14l-6 -4q-20 1 -38 7h-18q-36 13 -36 25l-17 20l16 25q0 13 23 13l9 5h2q8 0 14 -7q14 12 20 12z" />
<glyph unicode="&#x3e;" d="M68 31q0 3 1 5q16 9 18.5 12t6.5 19q9 0 10.5 12.5t6.5 14.5l9 -7q12 0 43 28t34 40q5 -3 10 -3q10 0 21 13q14 15 20 18q3 -1 6 -1q10 0 32.5 17.5t29.5 18.5v7q-6 0 -20.5 23.5t-23.5 23.5q-2 0 -4 -1q-6 3 -18.5 17.5t-22.5 14.5q-5 0 -10 -3q-3 12 -34 40t-43 28v0 l-8 -8q-6 3 -7 17q-25 11 -36 11v0q-4 16 5.5 17t-6.5 9q-1 3 0 9q0 5 5 14t5 14q0 2 -1 5q9 9 6.5 19.5t8.5 10.5t32 -9t25 -9q1 0 18 3q7 -29 9 -29q6 0 13 6.5t12 6.5q-2 -5 -3 -7v-1q0 -2 -1 -6t-1 -6q0 -5 5 -7q9 2 14 2q8 0 12 -4q-1 -5 -1 -9q0 -12 13.5 -13.5 t13.5 -7.5q0 -2 -1 -5l3 -16q5 -1 11 -5t12 -4q2 0 6 1q2 -2 4 -16q2 -10 9 -12l8 3v-2q0 -7 10 -18t11 -18l-12 -21l16 5q1 -8 10 -12q5 -2 17 -3q2 -4 15 -22q10 -13 10 -24q0 -5 -4 -12t-4 -11t3 -8l-41 -26l-4 4l3 -28q-2 -3 -6 -3t-12.5 4.5t-10.5 4.5l-1 -1 q0 -7 -10 -18t-10 -21l-9 4q-7 -2 -8.5 -14t-3.5 -15q-3 1 -6 1q-4 0 -11.5 -4t-11.5 -4l-4 -16q2 -4 2 -7t-13 -5t-13 -17v-7l-11 -4q-2 0 -6.5 1t-7.5 1q-6 0 -6 -6q0 -2 1 -5.5t1 -5.5v-2l2 -6v-2q-4 0 -11 6.5t-13 6.5q-4 0 -5 -13t-4 -15h-5q-13 0 -27 -3t-26 -3 q-11 0 -22 12q16 9 -10 9v3q0 5 -4.5 14.5t-4.5 14.5z" />
<glyph unicode="?" d="M254 617l5 -6l-4 -3l-5 5zM189 613h2v-3h-2v3zM142 601q10 -4 18 -15l11 4q23 0 23 -18h11q2 21 11 21l5 -1l16 5q8 -2 8 -7h3l7 5l15 -3l9 1l11 -1l3 3h22q4 0 12 -16q12 0 29 -11q7 0 22 -16q21 -7 21 -14t18 -20q0 -29 15 -29l3 -5v-2l-10 -2v-9q14 0 18 -13 q6 0 10 -10q0 -10 -9 -15l-1 11h-2l-4 -4v-1l4 -15v-21q16 -5 16 -8v-5q-11 -11 -11 -23q-7 0 -14 -22l-2 -2h-2l-2 2h-1v-5l9 -4h9v-4l-9 -7q0 -4 -20 -9l-4 -9q12 0 20 -12v-4q-2 -5 -11 -5l-2 5h-7q-7 -7 -25 -11v-7q9 -1 9 -5q0 -33 -14 -33h-2l-6 11h-10l-4 -11l-2 2 h-3q-7 0 -11 -27l-2 2h-5q-6 0 -13 -6q-10 4 -18 13h-5q-9 -13 -18 -14l-11 3l-15 -5l2 -2v-5l-9 -9q0 -4 7 -4v-5q-9 0 -12 -9l2 -2l-6 -4l-9 7h-5q-7 -5 -25 -9l-4 4v2l4 14q0 6 -15 27v6h4v3l-16 33q-8 0 -15 34l-7 5v4l5 5l-3 11v4q0 3 18 10l7 20l-4 4l4 3l2 -1h2l14 7 h4l7 -11q17 0 25 -13q15 0 18 -28l13 -31l5 -4h2l11 9q8 0 21 -10l6 1l-2 2v4q22 16 27 16v4l-4 5q0 11 20 14l2 2v2l-4 5v6q4 9 18 9v5l-9 13l9 14v2l-7 11q7 11 7 16v4q0 2 -7 5q-3 -8 -7 -9l-6 5l11 13v4l-9 9l-2 -2l-1 5l1 15q0 8 -18 21v2l4 5l-5 4h-4l-5 -2v2 q-17 10 -17 20q-12 0 -12 7h-6v-4h-3q-6 0 -11 22l-11 2q-12 -9 -20 -9l-14 20h-14q-11 0 -17 -15h-1l-11 13q-9 0 -16 -27l-6 -4h-3l-9 6l-11 -6q-9 4 -9 11l-7 5h-6l-14 -7l-9 4v-2q0 -4 9 -4l2 -5q-2 -7 -15 -7q-7 2 -7 5v4l9 9q-4 3 -5 27q0 5 16 14q0 16 43 42z M223 525h2l2 -9l-2 -2h-6l-3 4zM435 476h4v-3zM412 269h2v-3h-2v3zM275 264v-2l2 -2l5 -1v-2l6 2q-2 5 -11 5h-2zM425 215h3v-3h-3v3zM329 205q16 -3 16 -8v-1l-3 -4h-9l-6 5zM381 174h4v-4zM200 104h5q9 -4 9 -11h4l27 -9q12 -22 12 -29l2 2h2l7 -7q13 -5 13 -7 q0 -4 -11 -8v-1l2 -11q-3 -6 -38 -15q0 -4 -18 -8q-9 5 -25 7l-22 21v20l-4 14q16 20 29 20zM360 86l2 -2v-2l-4 -3h-2v3zM263 80h1q9 -9 13 -9v-5l-4 -4q-2 9 -12 9l-4 6z" />
<glyph unicode="@" d="M196 524l-6 -4h-8v9l8 8l6 -9v-4zM582 183h-16l-12 -6l-10 1l-9 -23l-21 -5l-2 -3l6 -13v-3l-15 -17l-3 -13v-3l2 -2h-16l-1 2h-3l-6 -14l-1 -8h-17h-3l-6 -6l2 -16l2 -8v-5l-7 -9l2 -12h-39l-2 13l-3 10h-3l-9 -13l-2 -16l-10 1l-3 1l-9 -2l-5 -3l-19 -4l-9 -10l-3 -9 l-2 -1l-6 6l-13 -3l-6 -3l-11 1l-3 5h-5l-8 -8l-20 11l-16 1l-13 14h-27l-7 -9v-12l-5 -3l-6 1l-13 22l-3 4h-9l-11 4l-13 -2l-2 -1l-3 3v8l-15 15l-40 3l-5 4l2 15l-17 11l-8 2l-5 8l-2 8l-13 7l-13 16l-16 33l-12 43l-4 37v3l1 1l-4 5h-18l-13 9v3l8 6l6 6l-10 13l9 13 l1 1l-5 7v9l5 13l-1 7l-4 2v4l4 1l4 5l-8 23v4l7 6l18 -8l7 33l-5 17l16 5l12 5v4l-25 17l7 5l17 4l3 3l-3 11l14 20l2 2v3l-8 8v1h9l2 -1l15 6l25 1v24l19 9l4 3l-7 6l-9 3l-2 1v5l22 11h13l5 -8l17 9l3 3l-3 15v3l20 9l5 16l11 -4l10 -23l24 -1l6 14l3 17l1 2l14 -9v-9 l-1 -1l19 -19l-15 -8l-4 -2h-2l-3 -3l8 -15l-25 -2l-34 -10l-1 -10l-6 -13l-10 27h-6l-8 -5l2 -9l3 -3l-11 -24v-8l-29 -1l-18 -8h-2l-6 -6l5 -9v-4l-12 1l-7 -6l-3 -3l6 -10l4 -3l13 -1v-5l-14 -2l-16 -6l-1 -22l-6 -17l1 -5l5 -5l-7 -4l-17 4l-5 -6v-30l11 -39v-5l13 -1h5 l-5 -5l-17 -5l-5 -5l5 -12l-13 -22l14 -10l5 -16l4 -9l10 2l-3 -20l5 -24l4 -5l19 -2l13 -9h11l9 -9l2 -10l8 -5l11 1h4l6 -4h20l1 2h3l8 -30l11 1l5 2h3v-13h-8l-9 3h-2l-3 -4l-2 -8l-1 -1l4 -5h13l7 6l14 -6h3l5 6l-3 8v6l9 19l3 14l5 4l23 -9l11 -18l10 9l2 -25l4 -9h13 l8 4l1 2l-2 6l9 19l-2 6l-6 6l1 8v1h5l9 -7l-6 -11l2 -5l12 -11l10 7l11 -3l9 -5l31 9l-3 11l3 21v3l-4 5h-10l-4 -10v-5l3 -3v-5l-24 -1l-8 -6l-1 -2h-5l-5 16l18 -4h6l9 9l-6 23l3 10l-8 4h-4l-8 -14l-10 11l-3 6l-38 2l-4 -2l-5 -11v-12l-5 -3h-36l-11 -7l-14 5l-27 2 l-3 4l2 12l-2 1l-5 -1l-9 -10l-2 14l-11 6l-19 2l-4 21l-10 9h-1v8l4 7v3l-4 4l-19 2l-5 3l-2 1l14 14l18 -4l3 3v11l-5 6l-16 -8l-4 4l6 15l-11 22l6 8v13l-1 1v4l19 4l3 5l1 1l-6 7l-17 6l22 14l1 5l-4 4l-12 -3h-3l-4 11v3l10 -3l15 10l-6 11l-5 4l-13 2v6l3 2l21 2l3 4 l-1 17l6 5h4l3 -26l3 -2l10 3l5 20v4l9 -2l-1 -20l5 -5h3l5 10l1 12l26 6l9 8v3l-11 7l-13 -3l-3 7v5l19 3h6l19 -11l41 13l9 -8l3 -3l20 6l4 -3l-3 -20l16 -5l12 1l-1 -22l3 -8l5 -4h3l9 9v13l-3 3l8 16v9l-5 6l8 5h3l2 -14l3 -8l3 -2l9 2l5 5l-5 11l2 6l3 3l4 -9l3 -14 l6 -7l3 -3l8 3l9 10l-8 12l5 5l19 5l3 2l-14 15l-11 2l-2 16l-12 9l-18 3l3 17l-3 2l-23 2l-8 6l-23 -6l-4 3l3 17v4l-6 6h-30l-8 -7l7 -5l11 -4l5 -7v-4h-29l-8 3l-16 -8l-3 -2v-26l-4 1l-3 5v24l-5 4h-2v3l13 7l9 1l3 3l-1 12l-3 7l9 10l5 4l-3 5l-4 3h-9l18 17l12 -10 l-2 -19v-5l10 -5h3l6 8l11 -2l2 -1l11 15l3 9h10v-7l-4 -8v-1l-1 -2l6 -5l16 -1l3 5h23l5 4l18 -18l7 1l3 -16l12 -15l-5 -12v-3l8 -4h3l5 14v8h9l6 -3l7 -19v-2l7 -6l-10 -9l-2 -2l22 -11l1 -2l-3 -12l6 -21l-3 -8l6 -6h3l9 16l1 4v2l5 -5l2 -22l7 -9l3 -29l-3 -12l4 -8 l3 -2h19l-22 -12l-4 -6l4 -12l-1 -12l-3 -3v-6l5 -6h22v-5l-6 -5l-17 4l-7 -10v-4l25 -6v-14l13 -19l2 -1l6 3h3v-13l6 -14v-49l5 -5h11l5 -4v-5zM462 451v7l-3 4h-4l-4 -4v-4l4 -4h4zM489 424v5l-3 3h-4l-4 -3v-7l3 -3h4zM467 422v7l-5 4h-1l-5 2l-5 -3l-2 -5l3 -6l7 -2z M464 403l-3 3h-6l-19 -4l-14 6l-2 -3h-7l-18 -6v-3l11 -5l23 -2l10 5l20 -5l3 3zM519 284v3l-1 4l-7 2l-2 -3v-10h7zM519 261l-3 2h-5l-6 -8l4 -4h2l7 3zM518 225v9l-6 3l-6 -5v-2l5 -6h3zM547 202l-3 5h-6l-2 -2v-11h10zM462 282v9l-10 3l-4 -6l5 -8h5zM352 394v5l-5 6 l-9 1l-5 -9l5 -6h11zM350 369v4l-4 5h-3l-8 -6l2 -5h4zM461 343l-5 4h-16l-4 4l-4 5v5l19 2l8 6v3l-6 9h-2l-38 -8l-15 5l-8 -6l5 -16l-5 -5h-2l-17 -3l-8 -6v-5l2 -19l-3 -4h-3l-9 4l-4 -3v-6l4 -2l4 3h6l3 -3v-4l-1 -15l4 -8l2 -9l-3 -11v-9l8 -2l9 -5v-3l-9 -11l14 -5 l16 -1l4 3v8l-17 3l-3 3v6l2 4h7l11 3l2 7l-3 9v7l-7 8l-10 3l-12 8l-1 7l6 6h5l5 -5h11l7 5l10 1l5 -4l3 -10l-3 -2l-2 -9l3 -11l-4 -17l3 -5l4 -1l7 4l-2 13l5 22l-8 5v5l8 17l-10 9l-1 8l4 5h7l9 -5h10zM350 339v6l-3 3h-1l-6 -6l3 -6h4zM461 225v10l-5 2l-5 -5v-5l5 -3z M467 200v5l-3 3l-8 2v-13h8zM434 234l-2 1l-7 2l-2 -12l8 -1zM127 505v3l-5 4h-6l-4 -4l4 -6h8zM292 310v5l-1 6l-8 3l-2 -15l5 -3zM294 337v8l-27 3l-3 5v5l7 8l17 -5l4 5l2 4l-11 11l9 18l-4 7h-27l-19 -4l-4 4v21l-5 6l-4 2l-1 -2l-2 -25l-9 -9l-11 6h-7l-1 -8l4 -5h6 l9 5l6 -5l6 -8l-7 -9l-7 -2l-6 5h-14l-20 -3l-5 -5l5 -9l3 -11l-3 -13l3 -7l-12 -13v-5l2 -5l3 -3v-17l5 -5h3l11 5l6 -7v-7l-1 -18l3 -4l4 -2l10 8v4l-3 2l-3 10l5 4l11 2l4 -5v-6l-3 -11l6 -33h2l3 3l-1 19l5 11v16l20 4l3 8l-3 6l-11 7v3l4 5l4 14l9 8l20 3zM70 477v4 l-4 6l-8 1l-3 -8l6 -8h5zM407 92l-6 11h-5l-3 -13l5 -8h5l3 2zM209 228v4l-7 8l-6 -3v-10l9 -2zM182 257v4l-3 2h-8h-1v-11l5 -1zM14 394v9l-10 2l-3 -9l3 -4h5zM12 373l-5 5h-1l-5 -3l-3 -8l5 -4l4 -2l4 3zM12 339v4l-3 4l-8 1l-1 -3v-8l7 -3zM14 318l-3 3h-7l-3 -6l2 -5h9 zM17 288l-5 6h-6l-5 -7l3 -8l5 -2l7 5zM-18 309v6l-4 5h-2l-5 -5v-5l2 -3l6 -1zM-16 282v8l-3 4h-5l-5 -7l5 -10h3zM122 112v13h-6l-4 -8l3 -3zM12 227v7l-3 3h-5l-6 -7l5 -6h6zM-16 261l-2 2h-8l-1 -2v-7l3 -5h3l4 3zM40 177l-6 6h-6l-3 -9l3 -4l8 -1l3 2zM420 323l-4 -5 h-4l-3 3v9l3 1l8 -1v-4v-3zM199 333l-1 -9h-9l-5 4l5 6zM198 295l-6 -5l-5 1v9l3 3h8v-8z" />
<glyph unicode="A" d="M435 593q13 0 25 -22q0 -6 -14 -16l1 -5l9 2l2 -2v-2q0 -3 -9 -5v-4h-11l2 -2v-2q0 -9 -23 -30l-16 3v-1l3 -6l-5 -9q0 -17 11 -25v-7q0 -12 -17 -20l-1 -7l1 -6l-9 -10l2 -2l-7 -9l7 -6l2 2h2q16 -4 16 -9q-5 -9 -14 -14h-2l-2 2h-2l-2 -6l2 -14l-7 -4v-7q21 -14 36 -14 v-4l-5 -5h-24l-5 -6l3 -12h9q14 -3 15 -8v-1q-11 -11 -11 -18q0 -4 20 -4l2 -2v-5q-2 -7 -18 -7l-13 5q-7 -6 -7 -11q8 -3 20 -20v-1q-17 -27 -22 -27q0 -7 13 -18q0 -15 7 -20l-4 -6v-3l6 -6h1l6 4h3l13 -13q0 -8 -29 -16v-12l4 -6l-7 -9v-3q1 -6 10 -6q2 6 13 9 q14 -22 40 -30q0 -4 14 -11v-6q-38 -55 -52 -55l-22 -5q-8 6 -41 12l-9 25v4l3 12q-5 6 -36 16v2q0 4 29 9l2 -2v4h-4v16q-6 14 -12 16h-6q-16 -5 -16 -18q-7 -1 -7 -10q-9 0 -32 -26l-22 -16v-5h9l5 -6v-5l-5 -5h-5l-6 7l2 7h-2q-5 0 -14 -18v-2l2 -2v-1q-8 -6 -47 -6 q-1 4 -9 7v-3l2 -9l-6 -3h-5l-9 8v7l2 2v2l-2 2h-9l-11 -2q-4 0 -18 20q-23 6 -23 12v2l3 6v5q0 4 -16 9q0 3 -13 9h-5l-7 -5h-6q0 17 -27 21l-5 9q7 6 13 6l9 -4q7 2 7 9q-10 0 -24 16v6q6 7 20 12v2h2q0 -4 7 -4q0 -3 20 -9l2 -1v3h-4v2l7 11v3l-12 15v3q4 6 14 9l7 -1 q15 0 15 7l-2 2v1q13 33 25 33l20 -2v7l7 22q-11 0 -12 5v4q30 7 45 7q23 -5 23 -9q-23 -13 -23 -27l-2 -23h-2l-13 9q-18 -4 -18 -17l4 -10l-7 -17l2 -5l-2 -2h-2l-4 4l2 2v1l-9 9q-9 0 -18 -19q-3 0 -16 -13l-9 -2v-7l9 -2l5 4l6 -2l20 2h5l18 -27l7 2l16 -4v-5 q-10 -2 -10 -6q18 0 18 -16q-9 -3 -9 -7h3l13 5l7 -2q4 0 20 13h3q0 6 13 9l7 -2q0 4 6 4l-2 2q0 13 21 21l2 -2q7 0 18 17v7l-3 5q0 8 36 20v4h-4v5q5 0 5 5q18 0 18 20l-3 4q1 5 14 5l2 -2l4 9l-24 9q-11 2 -11 6q0 18 22 18l5 5l2 -2h2q0 6 7 15v2l-9 7h-5l-7 -4 q-5 0 -17 16l8 13l-2 13l20 12l5 -2l2 2v2q-11 0 -18 9q-11 0 -16 9v5l3 4q1 -5 15 -5h1l4 3v7q0 13 -11 24l2 2h5q11 -7 11 -13h6l7 7v7q0 6 -24 6h-3l-6 -4h-1l-11 9v6q0 6 21 12l6 6q0 3 -11 5q-4 13 -11 13l-5 12v7l2 2l-2 2v2l2 2q0 10 -17 10l-5 6v12l9 2h13v6l-8 9v3 l6 6h11l5 -4h4v4l-4 7q4 11 13 11l9 -2v3l12 -3q7 2 7 9l-1 2h-6l-7 -2l-5 2v1q0 4 7 4q5 16 16 16l4 -12h16l5 -4l24 25zM120 579q19 -6 21 -15v-7h-3v-4l2 2h1l13 -23q-17 -27 -20 -27q-11 5 -11 12h-3l-7 -5h-4q-4 0 -5 16h18l1 7l-9 15l2 7h-11l-9 -2l2 2l-2 2v2 q17 18 24 18zM167 550h3v-4h-3v4zM89 537l9 -7q-14 -11 -20 -11l-1 2v2l9 7q0 7 3 7zM168 526l29 -9q-5 -9 -11 -9v-1q0 -6 24 -11q6 0 9 -29l-6 -11v-12h4l5 3q13 -8 13 -20q-8 -20 -13 -23l-12 -2v-5q5 -14 14 -22q-1 -5 -14 -5l-4 -6q11 -10 11 -16h2l2 2h1l2 -2v-3 l-3 -4l-2 2l-2 -9l5 -11v-2l-16 -14v-4q6 0 31 18h5v-3l-12 -11q0 -18 -27 -25l-9 -9h-2q-13 5 -18 16q0 3 18 14l2 2v2q-9 7 -9 16l1 13l-3 14q11 5 12 9l-1 16l3 6v5l-9 11v2q6 0 6 3q-11 21 -11 27l2 6q-18 5 -18 21q0 5 -13 16l-11 15v2q9 4 9 23q0 3 13 7q0 7 3 7z M30 525h3v-2h-3v2zM64 523l2 -2v-4l-4 -3h-3l-4 3zM415 496h2v-4h-2v4zM194 463v-5l9 -2v4l-4 3h-5zM311 391h9l3 -3q0 -5 -16 -7l-2 1v2zM305 336h4l3 -4l-3 -4h-7v4zM136 166h5v-1l-3 -4h-2v5zM377 147l-5 -9l7 -4l7 5v2q0 4 -9 6zM51 123v-5l4 -4l18 20h-2q-13 0 -16 -11 h-4zM190 112h4l5 -5l-4 -4h-5l-4 4v2zM149 100l-2 -7h2l5 5v2h-5zM80 89l2 -2h2l5 2l-3 4h-2zM372 78v-2h7v6h-4z" />
<glyph unicode="B" d="M343 620h2q7 -11 27 -16q13 7 32 7l9 -21l27 -18l2 -2v-14q0 -7 13 -18q12 -15 12 -24l11 -25l-4 -4v-18q-10 -10 -10 -14l3 -11l-20 -38q-3 0 -7 -10l6 -17q-13 -5 -13 -10q0 -10 22 -20q6 -17 18 -27l7 -16v-17q0 -6 11 -19l5 -18v-24q0 -3 -7 -3l-4 -8q6 -1 6 -10 l-11 -13v-16q-3 -9 -24 -24q-10 -20 -21 -28l-2 -2v-2l4 -4l-4 -7h-7q-55 -25 -67 -45q-11 0 -52 -30l-5 -2v2l-22 -11l4 -4q0 -3 -18 -5q0 -7 -33 -16q-28 0 -50 18q-10 19 -27 19q-12 10 -13 17q-5 0 -50 30l-20 16q0 5 7 6v3q0 5 -29 13l-3 -4h-15q0 12 -16 17l-16 12 q6 14 9 36q13 0 14 18l2 2h16l2 -2l27 29l7 2l11 -2l15 25h-4v4q29 4 29 29q3 0 16 14h16q0 8 7 14v2q-9 11 -9 18l8 9v4l-6 7l2 22l-5 12l10 9q-1 21 -9 29q0 13 -9 20v5q0 4 8 4v5q-11 0 -15 18v2l2 2q-2 6 -13 18q0 21 -28 27q-17 12 -35 12l-3 -3h-6l-7 5h-7 q-8 0 -14 -12h-4q-11 4 -11 7v9q6 0 7 21q16 5 20 11h13l-2 11q0 16 18 16l9 2l5 -2q0 5 15 7h3q10 0 13 -7v-2l-4 -5v-4l8 -3h9q0 7 16 7h3q22 -16 22 -29q3 -7 20 -12l14 -9q0 -10 11 -15l27 11l2 -2v2l-2 2q0 12 13 12q0 8 28 13l13 11q0 14 36 21q4 18 9 18zM321 538 v-13l-1 -2v-2l-9 2q-5 0 -9 -5q-35 0 -35 -16l-5 -4l-5 2q-12 -4 -24 -24l6 -18q-7 0 -9 -18l1 -1v-2q-1 -14 -5 -18v-9l14 -15l-10 -18h1l22 -5l2 -2h2l1 2h2l-2 2v3l4 4h5q7 -5 17 -5l3 3h4l5 -3l15 7l14 -4h2q21 22 43 29l14 22l9 -4l8 11l-2 9l3 3l-16 18q6 7 22 13l2 7 v4q-8 0 -13 18h-4v2l-9 -2h-1q-22 25 -31 25l-5 -2zM266 496h1v-3h-5zM258 358l4 -4v4h-4zM318 325h-7l-6 4l-21 -2l-2 2l-4 -13h-7l-23 9q-27 0 -47 -9l3 -16q0 -6 -12 -9q0 -5 -13 -22q0 -4 -5 -10l5 -13q-29 -20 -29 -32q0 -11 -23 -15v-2l2 -18l-6 -9v-5q14 0 17 -20 q5 0 5 -5l5 2q24 -5 24 -24q5 -7 25 -7q0 -3 16 -5q0 -11 4 -11h11l10 -2l11 4l2 -2h2l16 7v-2q7 0 38 22l27 3v13q0 6 27 9q14 14 14 27q7 0 18 9l7 -2h2q0 13 13 13l2 2v1l-2 2l-6 -2l-7 6v2q15 11 15 23q7 0 7 4v1q0 16 -18 29q0 20 -7 20q-3 0 -15 22q-23 10 -34 21 l-22 6z" />
<glyph unicode="C" d="M255 611q18 0 38 -10l9 1l11 -1l34 7q45 -8 50 -13h9l11 9l9 -2l11 2l2 -2v-1l-2 -2l30 -9l2 2h2q5 0 7 -18q0 -9 -14 -15q0 -5 -22 -11q0 -6 -11 -12h-5l-11 2l-5 -2q0 3 -7 3l-4 8h-9l-20 -8h-14q0 -7 -6 -7l-1 2l-2 -2h-2l-2 2l-5 -2q-7 2 -7 7h-11l-2 2l-20 -5h-2 l-18 5h-7l-20 -14q-6 0 -14 7h-4l-5 -5l29 -40q12 0 12 -23l9 -13l-7 -11v-11l9 -12v-2l-2 -2l17 -20q0 -15 12 -23v-2l-3 -5q0 -7 18 -25v-4l-2 -2q1 -12 16 -29v-3l-4 -13l4 -3v-2l-4 -6v-3q6 -6 8 -16h16l7 1q9 0 14 -9v-23q-12 -18 -21 -18t-9 7l-6 -2v-3q0 -7 8 -16 q-1 -4 -17 -11q0 -7 -10 -15q-17 -36 -44 -45q-8 0 -18 -18l-12 -12l-2 2h-2v-8q0 -14 24 -19l3 -18q-9 0 -9 -9l-5 -4l-2 2h-2v-7q9 0 15 -9l5 3l-2 2v2l6 11v1l-4 6v3l18 9q6 0 18 -9l16 4h4q12 -2 12 -5l2 1h13l7 -1q28 12 36 12q20 9 20 13v2l-6 5l2 2h6q10 -1 10 -6 l-1 -1h3q1 7 16 7l9 20q0 14 15 14l2 2l16 -31l-15 -21q0 -16 -41 -44h-11l-14 11h-9v-5q5 0 14 -15h2v-3l-5 -2l-13 2l-18 -2l-5 2q-20 -11 -29 -11l-2 7h-4l-12 -2q-4 5 -9 22l5 2v3q-8 0 -12 -9v-1l3 -6q-3 0 -3 -7l-2 -2h-9l-20 2q-15 -9 -23 -9q-5 0 -18 16l-6 2 l-14 -5h-13l-14 3l-2 -2h-2q-17 0 -45 27q0 17 -5 17l-13 5l-2 -2h-1q-18 4 -18 27h-2l-4 -3l-23 12q-6 0 -6 4v3q0 5 9 6v5q-7 7 -12 25q-16 0 -27 36l9 8v3l-7 6l-2 1v6q0 4 7 5v7l-11 15l2 2v1l-9 15v20q12 0 18 23q-7 8 -7 14v6q0 9 7 18l16 59q7 0 15 11l-4 14 q4 10 14 15l4 18l-2 2v1q0 3 13 11q0 12 16 16q4 18 14 27q0 7 9 13q8 7 8 14l19 17q7 0 8 14q23 16 23 29q3 6 25 16h13zM154 455v-11q-13 -20 -20 -20l-5 2l-2 -2q0 -3 -11 -3l-5 -27q23 -6 23 -13q0 -3 -36 -11l2 -16q-11 -16 -11 -25v-13q0 -3 -5 -3l-2 -2v-6 q5 0 15 -14v-7q-9 0 -9 -16l-6 -4q0 -7 15 -11v-2q0 -3 -6 -3v-6q9 0 9 -5v-2l-3 -14v-7q8 0 16 -9v-6q-7 -9 -7 -16v-4l7 -9q-6 0 -11 -18q8 -2 23 -21q17 0 24 -20v-5q7 -1 7 -4l2 2h3l8 -7l-4 -4v-2l7 -2q15 0 25 17q35 12 40 25q9 0 16 5h9l2 -2h2l3 6v12q0 14 22 26 l9 -2q5 6 9 34v4l-9 1h-14l-6 6v3l13 8v1l-9 11q0 12 -16 31q-4 20 -20 20q-12 4 -13 9l11 10l-7 15v5l7 15q-16 5 -18 10v6l5 7v4q0 6 -25 9l-2 1q-5 0 -5 4l11 11q-3 17 -16 29q-13 0 -13 5v5l2 11q0 7 -11 9zM341 248v-7l4 -4h2l5 5v4l-9 2h-2zM185 79v-4h3v4h-3zM426 25 l4 -4l-2 -2h-6v2z" />
<glyph unicode="D" d="M138 619l9 -2h2l28 2l15 -3h12q7 -6 13 -6h9l20 2q26 -9 56 -13l5 2q0 -13 58 -29q12 0 12 -19q5 0 20 -13h2q0 5 9 9h2l3 -4v-1q0 -4 -7 -4v-16q3 -11 13 -11q5 0 12 -7h2v-9l4 -15v-9l23 -9l-9 -23l2 -2q0 -3 9 -7l3 -7l-3 -11h-2l9 -9l2 2h2l3 -4v-2l-14 -16v-7l2 2h1 l13 -13q0 -7 -9 -7l-2 -5l4 -15l-4 -20q7 -3 9 -10l-9 -2l2 -15l-4 -10l4 -11q0 -6 -9 -13v-3l4 -4l1 2l2 -2v-2l-9 -20q0 -16 -12 -25q-6 -11 -15 -18q-3 0 -12 -12v-6l5 -7q-8 -12 -29 -20l2 -2q0 -19 -27 -32q-7 -20 -18 -20l-14 4q-5 0 -15 -31q-7 -6 -23 -11 q-18 -10 -18 -19q-25 -17 -45 -17q0 -12 -13 -12l-14 -2l-6 7l-9 -2h-3q-24 0 -24 13q-7 6 -45 20q0 10 -46 27q0 12 -20 18l-2 -2h-2q-6 2 -18 13q-25 7 -25 19q33 36 50 42l2 7q-9 2 -9 5q6 5 22 9q10 3 14 11v6l-3 5v4l7 7h2l1 -2l24 11l-2 9v7l4 5v11q-8 0 -15 7v2h4 l2 -2q10 0 19 11q-3 11 -9 13q0 19 13 36q-2 0 -9 27q-11 18 -11 25q7 11 13 11v5l-9 24v9q-5 0 -13 9v16l-3 12l10 9l8 -1l7 1v4l-4 4q0 16 47 16q0 8 32 14l6 7l-6 11v4l24 12v2l-9 2h-2l-5 -5l-42 3v2l2 5l-7 6h-7q-5 0 -9 -15l-20 -7q-8 7 -16 7v-1q0 -9 -6 -9h-3 q-24 0 -24 5v4h4v3h-2q-25 -14 -45 -18l-2 -2h-5l-9 9q0 4 20 27l-2 2v11l36 22l9 19q14 8 21 8l8 -6q11 0 25 9zM180 545v-3h2v3h-2zM164 544v-2h5v2h-5zM173 544v-2h5v2h-5zM76 538v-3h1v3h-1zM243 475v-2l2 -9q-12 -10 -25 -10v1q-20 0 -29 -10v-4q0 -4 11 -7l1 -9l-3 -4 l-2 2h-2q-11 -2 -11 -5v-2l4 -6v-1l-4 -11h-1q4 -22 18 -22v-3q0 -13 -4 -13l2 -2v-2l-9 -25v-3q11 -15 11 -22l-2 -2h-2l-4 4l-9 -9l2 -20l-3 -7q5 -12 10 -16l8 1l9 -9l-2 -10q11 -5 11 -17l-4 -16v-11q-6 -12 -16 -12l-11 2h-5l-8 -2l-7 2q-5 0 -14 -24q-9 -9 -20 -9h-11 l-7 -7q2 -25 9 -25h2l12 2q7 -22 20 -22q20 -6 20 -11l-7 -9v-2q0 -3 21 -14h9q0 -7 8 -7l1 2v1q-5 0 -5 4l18 14h2q9 -4 9 -12h5q4 0 4 7h3q16 0 20 11v18l6 5l23 -3h2q14 0 16 18q13 0 14 23h2l-2 9v4q12 13 27 16q0 5 8 14l-2 6q20 5 20 16l-6 9l15 5l1 -2v8 q-14 15 -14 19q14 13 25 13v7q0 4 -5 4l-2 2v10l2 2q0 10 -22 16v2q18 10 18 13l4 5l-4 7l9 20v2q-21 8 -21 11v2q0 5 21 10v4l-12 16l3 6v9q-7 0 -11 7v5l4 6v7q-9 7 -9 14l-7 2l-15 -2l-1 2v4l9 10q-4 11 -8 11h-5q-10 -7 -18 -7q-11 2 -11 5l7 6l2 2v7q-12 0 -12 9l-9 2 q-12 -7 -36 -9q0 -4 -31 -15zM184 250l3 -3l4 3l-4 4z" />
<glyph unicode="E" d="M278 618q9 0 16 -10l-4 -11l2 -7h2q12 0 12 19l2 2h2q18 -12 23 -12h6l3 3l-1 7l18 6l1 -2l-1 -2v-3q9 0 9 -9l14 -8l11 8h5q16 0 36 -11q7 3 7 5l-14 15v1h5q7 -2 17 -14q5 0 23 -13l-7 -9v-10q4 0 7 -8v-7q-1 -5 -14 -5h-4q0 -7 -11 -7h-5v-8q0 -9 11 -12v-4 q-4 -11 -44 -12q-8 9 -19 9v3l3 6v5q-32 6 -32 11h-4l-5 -4h-20l-7 -7q-9 2 -18 16l-9 2l-6 -4l-9 2l-23 -2l-16 6q-20 -2 -20 -6v-9q0 -3 20 -5l3 -5l-7 -8l7 -7l-5 -5h-2l-5 3h-6l-5 -5v-5q12 -22 20 -24q7 -7 7 -20l-4 -10l6 -6l20 2l10 -9q5 0 11 20l6 5l-4 4v7l4 4 l16 -4l3 5l-1 8l1 1h11q14 -12 24 -12h3q8 5 18 5v6l-16 19l-4 4v7q0 4 11 7q7 0 7 -14q13 -3 24 -18l-2 -2v-2l4 -12l-2 -2h-4l-7 5h-2l-7 -12q-6 0 -18 -22q-5 0 -5 -9l-20 -9h-2l2 -2v-1l-2 -2l2 -2v-2l-11 -23q4 0 16 12h6q9 -3 9 -7l21 2q10 0 16 -13h6l7 2l2 -2h2 l12 11h11l11 -12h2q3 0 5 12h4l1 -2l2 2h2l2 -2l2 2h1q12 0 15 -18q0 -13 -16 -29v-1q18 -5 18 -11v-4q0 -9 -47 -11q-11 1 -16 6h-11q-12 -9 -18 -9q-17 5 -31 5l-16 -9h-9l-5 4q-9 -3 -9 -6l12 -9v-5q0 -8 -9 -18v-2l4 -3q3 0 5 7h4q23 -3 23 -9q-7 -10 -7 -16 q18 -17 18 -26q-4 0 -5 -9q3 0 3 -5q0 -7 -27 -16q0 -22 -20 -38q-23 -12 -28 -31q0 -3 -17 -5v-7q0 -4 17 -9q4 0 10 11l-1 1v2q0 4 25 15l21 -8q0 -3 11 -5q0 -7 11 -7l5 2v1q-12 15 -12 26v1h11q5 0 5 -7h14l4 -3v-4l-9 -13v-5l7 -4q8 7 11 24q12 0 18 16l-2 2v2 q2 4 27 12h6q9 -11 16 -11l9 -16v-3l-11 -20q0 -9 11 -9l3 -6v-1q0 -4 -9 -8l-1 2v-3l3 -6v-7q-5 -13 -20 -18v-16q-15 -20 -34 -20l-5 -5l2 -2q0 -14 -20 -16l-2 -2h-14l-6 4h-7q0 -7 -5 -7q-15 9 -24 9h-2q-6 0 -12 -6h-4l-18 11h-2q-11 -9 -18 -9l-21 14q0 7 -6 7l-21 -9 q-4 7 -11 9l-16 -5h-2l-11 5l-11 -2q-5 0 -25 15q-12 0 -39 30q-24 0 -24 13q-8 11 -34 22q-8 25 -14 25q-6 2 -6 11l2 1q15 0 22 -9h1l6 2v2q-6 0 -25 25q-10 0 -20 18v7q9 0 9 6l-13 14v6q0 6 25 9v7l-21 21q0 10 -9 18q2 5 21 18l2 8l-2 1l-1 -1q-13 0 -18 9v3l5 6l14 -6 l6 11l-2 5h-2l-20 -7l-5 6q8 18 23 18v7l-12 12v2q0 6 23 7l2 8q-3 3 -20 3l-5 6q7 14 30 14l2 5l-2 15q13 6 22 18v7h-13l-3 4v3q0 9 27 11v2l-13 7l-2 2v3q7 13 24 13q11 -4 11 -7v-15l9 -1v1l-4 6l2 7l-9 23q2 13 7 13l20 -2v2l2 5l-2 9l5 9l-2 2v4q4 11 18 11 q15 4 22 25l13 11h10l49 16l11 -4l23 7l-2 9h-3l-4 -7l-7 6v5q0 4 13 5zM357 602l2 -2h1l2 2v4h-2zM351 478l2 -2v-3l-3 -4l-4 4zM117 422l4 -9q0 -16 -27 -21v-2q0 -4 5 -4l2 -2v-9l-7 -9v-1q0 -7 7 -13q0 -3 -16 -11l-2 -12l2 -13l-5 -5v-2l3 -4h2l7 2q8 -2 11 -9v-2 q0 -3 -11 -5l-2 5h-3q0 -8 -11 -16v-4l5 -12v-2l-5 -7v-4q0 -3 13 -3l12 -9v-2q-16 -14 -16 -25v-2q0 -9 25 -29v-5l-12 -13l5 -5l11 1l3 -3h17l9 -7v-2q-9 0 -9 -4v-2l5 -1l4 3q9 -2 9 -5l-8 -11l2 -5q23 0 27 16q31 6 31 14q13 5 25 22q0 3 18 14q0 6 18 18q6 5 9 18h4v9 q0 6 -26 11q-6 20 -12 20q0 20 -13 20q-10 0 -16 10q2 5 25 13v4h2q-4 10 -14 10l-9 -1q-9 3 -9 10l7 6q0 14 -31 21l-2 2v2l2 5l-9 9l6 24l-22 14v2q7 8 7 14v4h-12q0 4 -8 7q-7 -2 -9 -9q-18 -3 -18 -9zM274 419l4 -4h1v5zM40 404l4 -3v-2l-4 -4l-4 4v2zM206 370l-2 -2v-5 q0 -4 14 -11q0 -5 4 -5h9v3l-11 7v6l2 5h-2zM348 366v-1l3 -4l4 4v5h-4zM386 339l-4 -10l4 -4l10 2v9zM98 156v-6l5 2v2zM287 98v-2h5v2h-5z" />
<glyph unicode="F" d="M457 650h3q0 -5 22 -13q8 -18 30 -27l2 2h4l3 -3v-6l-9 -9h-3l-6 4h-3l-15 -9l11 -13v-2q0 -9 -7 -12h-11q0 -8 -20 -11l-3 -7l2 -2q-3 -23 -18 -23q-2 -3 -26 -11l-14 -15l-11 13q-14 0 -34 16h-2l-11 -2q-7 17 -21 17h-6l-23 -9l-20 1h-2q-14 0 -14 -14v-2q11 0 11 -3 v-4l-25 -20v-5l3 -6q0 -4 -20 -10v-18q-14 -18 -19 -18v-6l16 -16v-7q-6 0 -6 -9l2 -18h-2q0 -3 24 -20v-2q0 -3 -6 -3v-2q6 0 6 -6q17 -3 23 -12l-3 -6v-5l9 -11h1q10 0 17 6l12 -9l13 5h3l8 -7l19 7l17 -4h5q10 12 25 15l9 -6h6l12 2q0 -16 24 -18q0 -5 18 -16l-6 -14v-4 q11 -7 20 -7v-6l-5 4l-15 -27v-2l4 -5v-4l-7 -5q-8 0 -18 11q-11 0 -11 7h-6q-9 -7 -16 -7h-2q-14 0 -30 10h-13q0 -7 -14 -10v-8q5 0 5 -3v-6q-9 -9 -9 -16q20 -9 20 -12l-2 -6h2q7 7 13 7q7 -21 14 -21q8 0 20 -22v-7l-2 -2l16 -12q0 -6 16 -22q0 -7 15 -34q0 -14 20 -20 v-2l-11 -12v-11h3v-2l2 2h2l4 -4l-8 -21q12 -5 13 -9v-2l-16 -14v-4l11 -11v-1q0 -4 -17 -15q-3 -29 -12 -29l2 -1v-2l-2 -2v-2l2 -7q-13 -16 -24 -16l-3 -11q7 -1 7 -5q-19 -15 -25 -15q-18 0 -26 -18q-23 -15 -30 -25l-42 -7l-10 2l-13 -2l-11 2l-16 -2q-18 2 -29 12 l-16 -1h-5q-11 6 -27 10l-11 -1l-6 7l2 2q0 5 -11 5q-9 7 -9 13h-7q-26 0 -36 32q-9 0 -9 13v12q-12 13 -12 20l1 2q0 4 -14 21v9l5 8v10l-5 2l2 15q0 7 -13 19v14q-16 7 -16 11v16q12 20 22 26v1h7q0 -8 36 -12q13 -20 25 -20h4q11 16 18 16l12 -7q0 -7 7 -7l4 -9l-2 -6h2 l2 -1h2l9 3l12 -3v-6q-21 -21 -36 -28l-18 -29l2 -9l-11 -16v-4l9 -2h4q0 6 7 9h2l7 -7v-5l-16 -22l9 -12l-2 -2q24 -11 31 -20h5l18 4q5 -9 14 -9h20q0 5 4 5h2l5 -7l2 -2h2l12 5v-1l2 1h4l1 -1l11 3l11 -3h4q0 10 10 10q30 7 51 27l2 -1h1l2 5l-9 11v2l4 3l5 -5l2 2h18 l5 5l-14 16v2l20 14l2 20q-2 13 -11 22v1l3 6v5l-32 38v2l5 14v4q0 4 -25 10l-5 6l2 2v1q-5 0 -13 22q-16 0 -16 18v13q-29 20 -29 25q0 21 -27 30q-4 18 -16 18q0 3 -16 4l-6 -2l-2 2v2l4 3v8q0 5 -27 10l-2 2h-20l-9 7h-5q-15 0 -27 -23h-4q0 5 -12 14l-9 -7h-6l-27 31v3 q8 7 9 22h4q9 -3 9 -13l-2 -1l6 -4l1 2h2l-2 9v3l9 8q20 -5 20 -11h6l-4 5l9 7h18q13 0 13 18q-22 25 -22 33q0 16 -27 21v6l13 12l-4 17l4 3v2q-9 15 -9 27l3 4l13 -2h3l6 5v6q-6 0 -11 9v1q6 0 9 17l-2 10v2q4 9 24 18v4h1l-1 2v10q0 5 25 15q0 27 11 27l1 2h17q6 0 9 21 q13 13 30 13l2 9l-4 11q0 11 54 28q18 0 40 -16l14 4l17 -13l7 2l7 -2l9 2q9 -3 9 -9h4q1 7 9 7l-2 2v2q4 6 36 23zM325 231v-2l7 -4l6 7l-6 4zM363 90v-5h2v5h-2zM93 38v-4h5v4h-5zM424 -138l4 -4l-2 -1h-5v1z" />
<glyph unicode="G" d="M252 631l18 -11l25 2l11 -2l7 8q3 -4 27 -6l11 2l21 -4q-1 -10 -10 -10v-8q16 3 16 6v12l30 9h6l11 -9h10l11 6q18 -5 18 -13l-2 -7l8 -14v-9q-9 0 -9 -11l5 -6v-1q-27 -25 -27 -29l-22 -6v-5q0 -6 6 -13v-5q-18 -2 -38 -11h-7q-13 13 -18 13l-2 9l9 5l11 -2h2q3 0 3 6 q-2 8 -14 16l-9 -2h-2q-13 0 -13 4l-14 -4h-2q-7 6 -16 6q0 -6 -7 -6l-22 2l-9 -2l-20 9l-30 -5l-2 2h-2l2 1v4q0 9 -18 22q0 7 -5 7l-22 -18q6 -11 25 -18v-2q-2 -7 -7 -7l-11 3h-3l-9 -1v-4q0 -5 23 -5l5 -8v-9l-12 -1q0 3 -6 3q-9 -3 -10 -9q2 0 5 -7l22 7l10 -30 q13 -9 31 -13v-2q-11 -10 -11 -23l4 -4l5 6h4q9 0 12 -8l-3 -12l9 -4q0 7 3 7l-1 2v2q10 11 28 11l4 12l-2 2v2l2 2l-2 2v3q0 3 16 11q5 9 9 9v2h-3v2h5q0 -5 7 -8h4q5 16 16 24h2l13 -9l1 2h2q9 -9 25 -9l2 -2v-2l-21 -13h-20l-2 -7l2 -7q0 -10 -25 -16v-13q13 -23 59 -23 q32 -12 32 -22l-1 -2v-1q10 0 10 -11q5 -6 15 -6q1 -7 9 -14v-2l2 2h1q11 0 13 -25q4 0 7 -11l6 -2l-2 -9q6 -21 11 -27v-2l-6 -7v-2q9 -9 9 -23l-2 -14l2 -17l-3 -3v-7l3 -6v-5l-3 -15v-12q-6 -8 -6 -18l4 -4q-4 0 -11 -25q-11 -3 -11 -22q-19 -39 -38 -39l-10 -15 q0 -3 -24 -10q0 -6 -39 -24q-11 -12 -81 -12q-40 0 -40 5l-2 -1q-21 7 -48 10q-1 6 -31 13q-12 12 -52 34q-3 8 -25 23q-19 21 -38 58l2 9v3q-5 12 -15 20l-2 11l9 4v5q-9 0 -9 16q-12 16 -12 24l2 12l-2 13l5 14v2l-7 9v4q0 4 7 5v7l-3 11q7 12 7 22l-6 18l13 21v4l-4 5v2 l9 9l-5 13q8 12 18 12h11v2l-9 11v7l14 22l-2 5l2 2l4 7q5 0 12 7l4 9l2 2l2 -2h5l-2 2v4q18 14 18 18v21l9 9l6 -2q6 13 18 13l1 7l-1 2v4l14 19l-2 2v2q4 8 20 13l4 3h1l11 -11q7 1 16 13l2 -2q14 0 29 18l9 2l-4 5q8 11 15 11zM419 593v-1l2 -6h4l3 4v5h-3l-2 2zM95 466 v-4h6v5zM115 446l-25 2h-6v-6l11 -12v-4q-10 -9 -12 -16q-11 0 -11 -6q7 -10 7 -16v-2l-5 -7q5 0 12 -11l-25 -21v-7l14 -20l17 -6l3 4l2 -2v-3q0 -4 -20 -8q-12 -7 -12 -19l5 -6h-2l15 -27h3v-7q0 -4 -16 -11l-2 -14q0 -11 13 -11q20 -17 20 -25l-4 -4q16 -5 22 -11v-1 q0 -4 -17 -11v-6l24 -16q7 -30 21 -30l15 1l14 -1l11 10l-2 11q0 4 20 9l4 7l9 -1h5q4 27 16 27q0 3 7 3q0 11 11 22v3q0 5 -14 22q0 12 -9 27l3 7l-1 2q-20 16 -20 20v3q3 0 12 13h2v4l-14 1l-13 -1v5l6 9q0 14 -26 41l2 8l-7 9q14 14 18 23q-22 0 -22 13q0 6 -9 25l-1 -2 h-2q-4 0 -4 18l-9 5l-2 -1h-1l-18 1zM277 363l2 -2h2l3 4l-2 2h-1zM266 347l-3 -6q0 -4 12 -10q7 -5 11 -20l2 -2v-2l-2 -2v-1q18 -24 31 -24v-5q-13 -2 -13 -6v-3l14 -22q15 0 26 -16q15 -17 32 -22v-7l-14 -18v-2l3 -5v-2l-29 -14l-19 -18h-13l-2 -13v-3q-7 0 -16 -11 l-7 -4v-3l3 -6q-18 -16 -46 -30v-8l12 -3h6l3 3l18 -1h4l12 3l4 -3q28 0 56 14v16q36 19 36 31q0 5 9 9l9 -7h5l-2 18q0 6 8 16v2l-4 5v5l11 17v5l-6 7l2 9v2q0 9 -5 9v4l2 27q-4 0 -9 19l-6 2l2 2v4q0 7 -13 18l4 5q-4 9 -11 9q0 11 -18 11l-7 3l-5 -1l-17 12h-1l-6 -3 q-16 12 -16 16l-20 -2l-5 2l-11 -2h-7l-2 2h-2zM428 221l4 -4l2 2v5h-2zM90 183v-4h2v4h-2z" />
<glyph unicode="H" d="M249 645h3q8 -9 43 -17l15 2l5 -2l11 4h2q8 -16 34 -16q19 0 25 -18q11 -6 22 -6q0 -7 11 -7q4 -7 37 -23v-4l-1 -7q1 -7 14 -13v-1q0 -4 -9 -4q0 -4 -7 -9v-4h-2l2 -9v-5l-38 -16v2l-18 -8l-14 4l-24 -9q-9 0 -11 5v2q6 0 6 9v4q-12 11 -18 30q-10 8 -15 17l2 7l-25 9 l-23 -6l-27 4q-32 -20 -42 -20v4l-3 -4l1 -7q-10 0 -10 -11q5 0 5 -7l-4 -7l2 -29q0 -7 -16 -25v-2h4v-9q0 -12 16 -14l2 -8q-20 -11 -27 -19q-6 0 -6 -4q0 -19 31 -23h20l12 1v4l-3 16l27 9h10q0 11 4 11v-2l16 11h11q10 -7 16 -7h4q3 0 7 11q11 0 14 3h8l21 -20h9l6 4h12 l-3 -14q0 -4 18 -13q0 -4 10 -4q6 -4 9 -16q14 0 18 -25q8 -2 22 -38l-2 -25q-9 0 -9 -4v-1l6 -2q0 5 3 5l2 -2v-1l-2 -2v-2q14 0 18 -34l-7 -13q7 -5 13 -5v-6l-13 -18l2 -1v-2q0 -7 -13 -20l-3 -9l3 -16q-5 0 -7 -15l2 -12q-13 -7 -13 -25q-16 -17 -16 -26l-2 -7 q-3 0 -9 -12q-9 -2 -9 -6v-2q0 -3 6 -3l1 -2v-2q-18 -17 -18 -25l2 -5q-8 0 -11 -22q-9 -8 -9 -19q-10 -6 -10 -15v-2l3 -5v-4q-18 -6 -18 -10v-4l4 -5q0 -6 -6 -13v-11l6 2q12 0 18 -9v-7q-16 0 -16 -11v-2l1 -2h2l4 4q3 0 5 -11q4 -3 33 -9q0 -14 19 -14l11 3h6l1 -1h2v1 l-2 2v2l2 2l6 -2v-2l-2 -2v-1l2 -2l1 2h2l9 -15v-5q-11 -24 -20 -24v-16l11 -2v-5h-2l-28 -2l-8 4l-16 -2l-12 2l-15 -2q0 11 -21 14l-2 2v2l3 5v2q0 5 -18 9q-10 8 -10 20l1 2q-3 0 -5 11q-4 0 -16 10v6l11 23l-8 7l11 13v5l-7 11q2 8 16 22l-2 2v1q13 15 13 26h4v5 q-8 0 -8 5v4q0 4 11 5v16q17 34 29 34v4q-3 9 -14 9l5 18v5h4l1 -1q8 0 8 9q3 0 3 18q17 9 27 25h2l-2 2v1l2 8q-1 16 -11 16v3q8 0 31 17l-6 9l4 21l-11 7v2q0 4 18 4l2 2v1q-9 18 -25 18l-4 4v2q0 3 13 7q-3 10 -16 16l-6 -2l-2 6l4 11v5h-4q-13 0 -16 7l2 2v2 q-27 45 -50 45q-6 0 -9 7l1 7q-14 4 -14 16l-11 6h-3q-21 -27 -53 -27q0 -4 -9 -4v-3q6 0 6 -4q-4 -6 -25 -16l-11 2q-24 0 -24 -17l4 -3q0 -10 -16 -16l-2 -18q0 -8 18 -20v-2l-2 -9l27 -16l2 2l2 -2v-4q-10 -12 -27 -12q0 -3 -11 -8l4 -7q0 -4 -11 -11q0 -5 -11 -10 q-16 0 -25 -22q-15 -8 -15 -16q27 -7 27 -22q13 -2 29 -25q0 -4 24 -22h3q7 0 15 9h9v2l-4 15l7 9l11 -2q23 7 54 29h4l5 -4h2q10 0 21 16q13 9 24 9l11 -11l-2 -9l5 -5q0 -7 -11 -7q-7 -12 -12 -33q-34 -12 -34 -16l-4 -3l2 -2v-4q0 -3 -13 -7l-34 -22q0 -7 -25 -16 q0 -3 -11 -5q0 -18 -34 -18l-20 13q-20 0 -31 25q-23 11 -23 18l-41 32q-3 7 -13 7h-32q-12 0 -17 24l-5 7v18q0 5 18 14q0 22 20 22q8 8 36 14q0 8 20 13l3 7l-2 2v2l2 1q-2 20 -5 24q9 9 9 16l-6 14v27q-7 0 -12 9q12 5 12 8l-9 25l4 14l-2 11l9 13l-7 30h2l-2 2v14l5 11 l-9 40q-5 0 -5 3v4q0 4 5 4v1q-3 8 -12 13q0 11 -11 11l-9 12v9h-5l1 15l-5 9l7 7l2 -2q5 14 11 16l30 -1q28 0 53 16q18 6 28 23q0 4 22 9q14 18 23 18q5 0 17 15zM186 495l-2 -9l2 -2h3l4 4q-3 7 -6 7h-1zM204 342v-2h5v2h-5zM477 153l2 -2v-3h-5v2z" />
<glyph unicode="I" d="M192 617q7 -7 27 -7h6q0 -8 5 -8q6 0 11 -9v-1l-6 -8v-1l6 -6l16 4h2q9 -6 18 -33h9l11 6l19 -4q20 6 22 13v2l-4 5q0 5 18 18l9 -2h2l36 11h4l14 -9h9l6 4l5 -6v-2q0 -5 -7 -5v-13q3 -7 11 -7l-2 -16l3 -4l2 2h2q13 -2 13 -7v-4q0 -2 -18 -10q0 -8 -4 -8l2 -1v-8 q0 -5 -29 -25l2 -2q0 -9 -16 -9q-13 -14 -13 -21l14 -4v-3l-5 -6q-16 0 -22 15l-7 1q-14 -3 -14 -19q0 -11 20 -11l9 -13q-6 -14 -22 -25v-2q0 -6 20 -25l-6 -14v-4q12 -16 15 -27h-2q-5 0 -5 -4l10 -7v-2l-3 -7l2 -11q-5 0 -8 -14l6 -4h5q0 11 4 11h5l7 -7v-9l-5 -5h-2 q-3 0 -3 5h-6l-2 -9v-2q4 -21 8 -21q1 10 7 14q2 11 5 11q6 -7 6 -13l-8 -7v-5l22 -6l-4 -25h4q14 0 20 -11v-7l-16 -13v-7l3 -3h7l13 12h5l11 -7v-4l-14 -12l11 -9v-7l-2 -2q1 -9 14 -9q0 -6 7 -6v-5q-6 0 -23 -22l2 -7l-7 -20q10 0 14 -9v-1q0 -3 -16 -9l-4 -11v-2 q6 0 6 -4l-13 -12l-2 2q0 -13 -16 -20l-4 -18q13 -17 13 -21l-20 -6l-3 4h-2q-11 -13 -16 -13l1 -7l-1 -7q0 -5 7 -13q-11 -12 -34 -12l-2 -2q-6 0 -6 -4l2 -9h2q0 6 4 6l3 -4q0 -14 -57 -20q-10 -20 -27 -20l-22 -1q-41 4 -41 14q-9 0 -17 16q-15 0 -18 11q-17 18 -36 23 q0 9 -9 15v9h-3l-18 2l-13 -15l-2 2h-3q-5 -22 -18 -22l-24 -14h-16q-12 11 -25 50q18 18 18 40l-2 2v2l13 32l68 37q0 7 40 9q18 -15 18 -23q11 -2 27 -20l3 4q13 -2 29 -29q11 0 15 -10l7 -2q4 12 14 12l2 -1v-2l-2 -11q11 -13 27 -14q11 0 11 -13h9l2 14h23q24 5 24 15 l1 7h-3q0 -5 -4 -5l-2 1v2q0 7 44 15l-2 8q0 22 18 22v2q0 2 -15 7q0 8 22 14v4q-13 6 -13 18l2 16h-2q-7 0 -10 7l1 2h8l1 -2h2l4 15l-9 10q4 8 14 8v3q0 4 -11 4v2l-1 -2h-9q-13 3 -13 11t-16 30q0 20 -11 20l-4 4l11 14v4l-5 1l-2 -1h-2q-6 0 -9 12l2 6q-4 0 -5 7h-11 q-24 3 -24 11l6 9q-3 12 -9 12l-16 -3l-6 7l13 9l-16 18v5l1 16q-9 3 -9 6v5q17 4 17 7q0 11 -9 22v2q0 6 5 12v2l-11 13q0 4 27 16v5q-3 9 -12 9v4q9 6 9 18q0 4 -6 4l-2 1v2l2 6l-5 3h-6q-10 -1 -10 -5v-2q5 0 5 -4l-5 -3q-22 0 -45 20q-10 0 -15 9l2 7l-20 5l-9 -2 q-8 4 -9 8l11 12v6l-22 9h-3l-13 -9h-5q-9 0 -22 12l4 9l9 -2h7v8l-5 5h-8q-6 -3 -12 -23h-2l-20 1q-2 -27 -9 -27h-21q-7 -5 -17 -5h-7q-9 7 -9 20q0 24 22 38q5 0 5 5l2 2q5 12 16 12q9 9 20 9v2q0 5 -7 6v9q4 7 9 7q9 -6 18 -6q0 11 21 17l6 5h2q7 0 23 -16q11 0 11 16 l2 2h3zM163 595v-3h6v3h-6zM156 534v-5h2v5h-2zM340 408v-2l3 -3l-1 -9v-4l3 -4h7l6 4q-11 16 -11 22h-4zM405 37h1v-3h-1v3z" />
<glyph unicode="J" d="M173 626h5q7 -7 17 -7q12 -8 12 -15l9 -2h2l7 6h2l4 -4v-2l-4 -3h-9q0 -15 14 -15l8 2q7 -2 10 -9l-3 -5v-2q5 0 20 -16l9 2h5q0 -16 16 -20l24 14q14 0 14 7q8 23 27 35q6 0 22 10l27 -16l-4 -5l4 -4q10 6 19 6l2 -2v-2l-5 -7q4 -6 36 -18l-15 -16l2 -2v-2l-12 -7 l-9 -13l-2 2q-9 0 -18 -20l2 -5l1 2h2l2 -2v-7q0 -4 -5 -4l-2 -2v-2l2 -10q0 -4 -17 -4q0 -6 -16 -16v-6l4 -5v-4q0 -7 -11 -21l2 -2v-2q-13 -7 -13 -27l4 -11l-11 2q-6 0 -14 -14l1 -20v-7l9 -2q9 3 9 11h6l5 -24l-11 -14l-1 2h-2l-2 -2v-4q7 -5 7 -10h9l4 -4l-4 -11v-2 q1 -9 4 -9l2 2q19 0 19 -9l-1 -12q10 -8 16 -8v-3l-6 -18l6 -4l11 6q16 -3 16 -8v-1q-13 -12 -27 -20q3 -9 12 -9l4 5l7 -5q-11 -2 -11 -9q-8 -11 -21 -11v-4h18q3 0 7 11h2q0 -4 25 -9v-2l5 2q13 -5 13 -16v-2h-11l-5 -5v-6h14q1 8 6 8l18 -11q-13 0 -27 -24v-5q0 -4 9 -4 v-10l18 -17q0 -6 -22 -9l-2 -1v-11q13 -2 13 -7v-2l-4 -6v-9l2 -21l-5 -2l-9 6h-2q-11 0 -11 -18q0 -11 -16 -20l9 -18v-2l-6 -5h-7q-2 13 -11 21q-9 -1 -9 -10l4 -13v-4l-13 -12v-4l9 -9q-20 -20 -36 -20q-5 -4 -5 -9l2 -1l-2 -2h-2l-14 5q-7 0 -11 -16q-15 -11 -36 -18 l-27 -7l-16 -9h-7q-9 0 -20 14q-51 18 -81 63v9h-9l-11 -3l-5 1l-11 -3l-13 9h-5l-7 -7v-4q7 0 7 -11q-19 -20 -49 -20l-2 -1h-1q-15 0 -31 19v6l2 2l-2 1v36q6 18 13 18v17q10 5 10 18l9 7l2 -2q14 4 31 36l32 14h2q74 -8 74 -27l3 -4l2 2h2q13 -6 13 -9l-2 -9q11 0 25 -10 q0 -6 5 -6q0 -10 15 -10q0 -3 12 -6q0 -14 31 -18l7 -14q26 3 45 12v4l2 2l-7 7l9 9l9 -5l21 19v6l-3 12l20 11v3h1l-1 9v4l10 13v10l-3 6l9 12l-9 13v22q-9 0 -9 5v4l5 7q-5 22 -27 45h2l-2 2l2 9v3l-2 2v2l-9 -2h-2q-10 0 -14 14q-5 0 -5 4v9q0 4 5 4l2 5q0 5 -7 5l-11 13 l-2 -2h-2q-12 6 -12 9v2l1 2q-3 9 -9 11l-10 -2q-4 0 -6 20l2 1v2q-7 16 -25 16v6q7 7 7 14v15l2 16l-9 18l2 2v1l-4 9l23 33v2q0 6 -5 12v2q0 4 13 5v9q-12 0 -17 17h-3l-20 -11h-7q-7 0 -33 14q0 19 -27 29q0 19 -41 36v4h-7l-15 3h-1v-3l-2 -2l2 -2l10 -9v-2 q-10 -12 -16 -12l-20 1v-1q0 -4 -10 -15l-13 2l-11 -4l-9 2q-2 -5 -11 -5h-1q-26 18 -27 23v4q27 40 46 48q5 15 9 15l-1 2v1q7 9 34 22q0 5 5 5q11 4 11 17h5l15 -15q9 6 18 6h9v1l-6 8v3zM355 525v-7h12v2l-1 9h-4zM355 412v-2l3 -4h6l3 4l-1 2h-11zM330 403v-4 q0 -13 10 -13q0 4 6 4l2 5q-3 8 -9 11h-6zM348 300l-8 -11h6l5 6l-2 5h-1zM369 242v-1h4v1h-4zM380 208l4 -5q0 -9 -4 -9l2 -6h5l11 6q-9 15 -9 21q-8 -3 -9 -7zM387 169l7 -8l2 2v9h-5zM483 100l1 -2v-7l-3 -3h-2l-4 3q4 8 8 9zM466 32v-7h6v5zM429 -67v-5l-4 3l2 2h2z M427 -81h3l4 -4l-5 -5h-2l-4 3v2z" />
<glyph unicode="K" d="M381 605h24q6 -5 25 -7q0 -5 16 -9l18 -20q0 -25 16 -25v-2q0 -5 -18 -9q0 -9 -16 -12h-16q-25 0 -31 -11l-16 -15q-7 0 -7 -5v-5h12l6 -6q0 -5 -18 -7q0 -5 -6 -11v-3l15 -13v-4q0 -7 -22 -7l-3 -7l14 -4v-3q0 -5 -18 -16v-2l7 -20q-7 -5 -16 -5q0 -4 -18 -4l-7 -9 q13 0 23 -20q11 -4 11 -14l-7 -9v-4h3l8 6h7l3 -4v-4l-7 -16l2 2h2q0 -4 18 -20l3 -7l-7 -13q0 -4 18 -23q-7 -4 -11 -11v-16q0 -5 -7 -5q0 -11 15 -18l-4 -4h-2l-2 2l-21 -9l-6 2q-9 -9 -9 -15l2 -2q4 0 4 -9l2 -1h5l14 3h2q10 0 15 -9v-5l-4 -7q4 -11 16 -11v-2l-2 -14 q0 -16 20 -22l-2 -9h9l13 23l7 2q13 -6 13 -9l-9 -3v-8l12 -21q8 0 9 -11l-1 -2l7 -7v-2q-1 -4 -9 -7l-7 2l-20 -2h-6l-5 -5v-6l16 -14l-2 -2h-3l-4 4l-5 -2l-20 2q-10 -8 -18 -8l-16 8l-20 -4q-5 16 -25 29q0 18 -9 18h-4l-5 -4l-22 13v3q7 0 13 18q6 0 11 22l7 4v9 q11 15 11 19q-15 16 -15 33q0 6 -9 12v2l4 11l-18 20v3l9 11v7q-6 0 -6 4q6 2 6 11v2h-2l-2 -2h-2q-7 3 -7 5v16l-3 4h-15v5l16 22q0 5 -27 11l-28 16q-18 -1 -18 -5l3 -4q0 -5 -36 -18v-4l2 -10l-4 -18q7 -8 18 -8q0 -2 8 -5l1 -2v-2q-9 -6 -9 -16l-12 -16v-4q9 -11 9 -18 q-23 -21 -36 -21v-4h-2l2 -9v-7q-2 -5 -11 -5h-2q-12 0 -12 3l-20 -5v-2q23 -5 23 -11t9 -12h9q26 0 34 -15q0 -7 11 -7h2l5 4h2q1 -8 6 -8h3q6 9 25 9q0 3 22 15h16q0 7 7 11h2l6 -15q-6 -15 -20 -30v-4l3 -13l-5 -7v-5l2 -2v-2q-9 -11 -22 -16q-3 -3 -3 -18 q-15 -4 -35 -22l-19 -5q-58 11 -58 22q-3 0 -9 12l-5 2l-22 -2q-5 1 -18 15q-6 0 -31 14q-22 4 -32 22l-18 18l-4 7q15 30 15 45h18q2 9 32 25q0 5 13 14q0 11 16 18l4 8l-6 5l9 4v7q-5 10 -16 20v1q0 9 4 9l-2 2v2l7 27l-9 16q0 5 7 6q0 9 -14 21v7l11 11l-2 13q7 2 7 11 q-7 2 -7 5v4q0 3 5 3v7l-3 6v5q0 4 5 4v3q0 4 -5 4l9 11q0 11 -13 11q0 3 -5 3l-2 2v2l7 16l-5 13q0 2 7 5l7 -2h2v13l-6 5h-5l-22 -5h-16l-3 3l3 4v7l-39 22l3 3l-16 18v11q1 4 29 15l7 -2l4 14h9q6 -5 16 -5l12 2q11 -18 27 -18v-2l-1 -6l5 -3l5 5l-1 2v2l1 2v1q-5 0 -5 4 q10 16 18 16q41 -10 41 -16q3 -18 8 -18h12q10 0 15 -9v-4q-20 -6 -20 -10v-6l3 -5v-2l-3 -5v-8q9 -6 12 -25q-6 0 -12 -32q3 -11 12 -11v-2l2 2h6l1 -11l-1 -2l-2 2h-2l-5 -5q2 -16 7 -16l-2 -2v-2q0 -9 25 -16v5h6l12 2v-7h7q6 23 17 23l1 -2v-1l8 1v4l-2 -2h-2l-5 2v2 l5 5l5 -3q0 3 6 3l2 6l-6 5v7q0 3 20 20l-11 11q4 0 4 5q12 4 12 7q-1 9 -19 17v1q0 5 18 9v4l-4 14v6q0 3 16 9l4 16l-4 4q3 9 22 16h18q5 0 7 20zM194 407v-3l4 3h-4zM192 402l4 -4v4h-4zM207 330v-6h3v6h-3zM352 297l-1 -5h7v2l-4 3h-2zM379 144v-1l4 -4h7v4zM448 96 l3 -4v4h-3zM448 89v-2h5v3z" />
<glyph unicode="L" d="M300 603h8q4 -5 16 -5q16 -8 16 -11l-2 -2v-2q9 -9 29 -9l7 -1q7 -20 22 -20q0 -9 25 -9l4 -4h25l11 7h9q14 -6 14 -21l-7 -6h-6l-5 4h-4q-7 -4 -7 -9l4 -11v-2q-3 -16 -11 -16l-5 2q-8 -9 -40 -16l-11 -7l-11 12l-21 4l-2 -2h-2l-32 25q-16 0 -20 6l-13 -6h-3l-6 4h-12 l-7 -7v-6l18 -3v-6q0 -3 -29 -18l-2 -7v-5l14 3h2l6 -5v-4l-8 -14q0 -4 9 -4l2 -2v-1q0 -4 -9 -4l-2 -11l2 -5q4 0 4 5l2 2h1l2 -5l-2 -6q9 0 24 -18q0 -3 -6 -3v-11q22 -6 22 -40v-7l-2 -9q9 0 18 -9v-2l-7 -12q11 -14 11 -20l-2 -18l2 -2l2 2h3l2 -7q0 -6 -7 -6v-18l-4 -3 h-2l-1 1h-2q-9 -19 -18 -19l-2 -13l5 -4l6 2l2 -2v-1q-4 0 -4 -11l-14 -11l1 -7q0 -7 -16 -13l-11 -16q3 -6 38 -27q13 0 22 -14l11 -2l19 2l13 -8h2q2 27 9 27h3l29 -7l29 13h2l3 -4v-12h6v-8l-9 -23l3 -4l-12 -7l-6 4q0 -4 -7 -4l-2 -2v-1l2 -6q-12 -5 -41 -34l-22 -9 q0 -6 -14 -12q-1 -7 -20 -16q-26 0 -38 30h-11q-52 20 -70 36h-2l-5 -2q-4 0 -36 20q-12 0 -27 7q-30 -15 -34 -27q-13 -14 -33 -16l-16 14v7l2 8l-9 27v5l2 2l-2 2v7q4 3 4 20q25 16 25 34l-9 21v2l7 27l-2 6q5 10 31 21q7 3 7 25v6l2 2l-6 14l2 14q-18 3 -18 18 q0 8 -18 22v2l2 14q-5 0 -11 18h2q-6 11 -11 33l-2 1v2q2 11 4 11l-4 18q5 1 9 13l-3 16v2q0 3 11 3v7q0 4 -11 8v5q8 14 23 14v9l-3 6v2q13 12 27 12l1 -2v4q-9 12 -9 20v2l6 5l2 -2l7 2l25 -2v2l-4 5v15q9 12 20 12q11 -1 11 -5v-4l-11 -7v-2q2 -18 11 -18l11 2 q18 -1 18 -5q-3 -7 -22 -16h-14v-6q14 0 14 -14l2 -2l-2 -7l-38 -13l2 -9l-2 -11h-3l-2 6q-8 -4 -9 -7v-2l4 -4h3l6 4h3l11 -13v-2q-22 -9 -22 -19l-1 -18q4 -4 19 -6l6 -9l-2 -11l11 -10h2l16 1q16 -7 16 -10l-25 -8l2 -27v-1l-2 -2v-2l9 -5l2 1h1q12 -4 13 -9v-3l-11 -15 q0 -28 11 -28q9 -1 9 -6v-9l-5 -5h-8l-1 2q-8 0 -13 -24q0 -8 11 -12l-2 -9h-4l-3 9h-2q-11 0 -14 -15l9 -12l1 1h2q28 -32 36 -32h6l3 4l-3 9q2 10 14 21h5l2 -2h2q17 25 32 35v3q0 8 -16 29v5l4 15q0 5 -13 5v2l-2 -2h-1l-18 9v4q0 3 14 9l-13 16q0 4 13 5v6q-23 0 -27 11 l-4 3l4 13q-5 20 -9 20l2 1v2q-7 10 -9 25l5 9v4l-3 7h-13v7l4 4h1l9 -2l-7 20h2q4 0 4 9l10 14v2l-14 9l-2 7h2l5 -3l9 2v5q0 5 -14 7l-2 2v2q0 7 36 18q8 15 25 29q0 18 24 19q0 5 9 11q0 14 12 18zM149 576l4 -3h3v3h-7zM128 357v-6h3q13 15 16 15l8 -2l5 2q0 3 -11 5v9z M169 265v-6h4v6h-4z" />
<glyph unicode="M" d="M224 600h6v-2l-2 -6h2l5 -5l23 4q11 -17 22 -17v-1l-4 -4v-4q0 -5 18 -10q35 4 35 16q0 7 3 7q7 -5 16 -5h4l2 1h2l3 -3h6q0 21 46 23q0 -3 8 -3l1 -2v-2l15 4l5 -8v-9h7l13 4l-2 2v2q9 10 18 10q9 -5 9 -10h2v3h4l1 -7l-7 -7v-6l7 -10v-4q0 -5 -14 -5q-13 -10 -13 -13 v-5l9 -11h2l6 5l-4 6h2q9 0 12 -8l-7 -7l4 -3v-15q0 -16 -29 -16v-5l5 -8v-3l-5 -6h-4l-1 2q-26 -11 -26 -27q-17 -8 -25 -21l2 -13l-5 -5h-2l5 -15v-2q0 -12 -3 -19l3 -17l-3 -3l9 -11v-5q-9 -16 -9 -26v-7l9 -11q-3 0 -6 -7l2 -9l-4 -21v-9l-5 -9l2 -6l-2 -11l2 -12 l-4 -11l4 -11l-4 -14q9 0 13 -15l-4 -10q12 -14 13 -22l-2 -7v-2q7 0 7 -13l6 -3h12l6 5l-2 2q2 0 11 20l14 2q14 -14 14 -36l8 -9v-8l-9 -9l1 -1v-2q0 -3 -16 -7q0 -20 -23 -22l-9 -14l-2 1l-36 -23h-4q-11 15 -27 18l-28 22q3 9 9 9v7l-13 7l2 9v2l-4 66l4 11v2l-2 22l4 3 v7h-4v2l4 16v4q-6 6 -8 20h8l1 -2q8 3 8 5l-8 11l2 13l-2 18v7q0 4 -5 4l-2 1v4q0 4 6 4v5q-8 0 -8 5v6q18 16 18 38q0 7 -9 9v3q0 12 8 18l-2 2v13l5 5q0 5 -16 16v7q5 18 5 31v5l24 11h11l5 -3q23 9 34 30l27 13h6l1 -2h2q0 7 9 7l7 13v7l-14 5l-22 -18l-19 -9q0 -9 -8 -9 q-9 3 -9 6l2 7q-6 7 -32 13l-2 1v6h11v9l-16 -2l-2 2v2l3 9q-12 6 -12 9l-2 -2h-4v3l2 2v2h-2q-16 -3 -16 -7l2 -16v-2h4v-2q0 -3 -11 -7q0 -9 -4 -9l-5 2l-11 -9v-2q2 -9 11 -9l5 2l7 -11q-4 -7 -12 -7v-9q-9 -10 -9 -17v-18l7 -19q-4 -2 -18 -24q0 -5 13 -11q-4 -8 -4 -23 v-20l-4 -5v-2l4 -5v-11l-4 -6l4 -5v-14l-5 -8v-1q7 -7 7 -33l-2 -2v-1l2 -11v-4q5 0 5 -3l-3 -6l7 -21q-2 -8 -7 -8v-7q5 0 5 -3v-4q-9 -7 -9 -14v-9q0 -11 13 -15l-4 -12q4 -16 5 -60q-3 -5 -5 -23q13 -16 20 -16v-2q0 -6 -36 -6l-33 -16q0 -2 -27 -3q-8 5 -32 7l-5 9 q0 7 9 7v5q0 7 -6 11l-12 -2h-13l-25 -12q0 -11 -11 -11l-14 5l-8 -1q-8 9 -23 16q-11 25 -29 25q-8 12 -29 27q0 5 -12 14q0 9 -15 22l-5 22q1 4 14 9l4 7l-5 11q4 10 19 18q5 17 11 23q0 4 6 4q1 10 3 10l-2 2v4q17 10 17 18l-4 9q27 11 27 23l-2 11l16 11v5q0 10 9 11 l2 9q0 4 -7 4l-2 1v8l18 14l-5 16l3 4v3q-10 0 -10 6v3q0 9 9 20v2l-11 11l5 9v5l-9 16l13 13v4q0 4 -7 5l-13 -5h-4q-7 3 -7 12l11 9v6q-7 0 -7 5l3 5l-1 2h-2l2 2v2q-4 8 -8 9h-10l1 -2v-2q0 -6 -19 -9q0 11 -24 29l-2 7v6h6q0 -6 9 -9v-2l12 2h2l9 -8l9 11v9h-7 q-6 0 -13 -5h-3q-6 8 -22 9l-2 2v3q2 5 24 15h7l11 -4l5 2l20 -6l2 2q18 -2 18 -7v-2l-4 -5l4 -7h5q6 0 6 7l-2 5l2 2h10l2 -2h2l-2 -2v-5l4 -4l7 6l-5 7v4q0 6 28 10l8 -9q-4 0 -4 -5l-2 -7l-2 -2h-1l-6 2q0 -4 -5 -4v-9q3 -3 3 -20l20 -21l-3 -15v-9l5 -7v-27l-7 -48v-17 q-4 -9 -11 -9v-7l-2 -7q3 -7 6 -7l-2 -9v-2l3 -22q-14 -14 -19 -14v-5l1 -6l-1 -9v-16l7 -5l2 -2v-6q-13 -2 -27 -19v-2q0 -6 7 -13v-2h-2l-2 2q-10 0 -12 -16l-2 2h-2q-12 -5 -13 -9l2 -13l-7 -7v-4q0 -3 5 -3l11 -7v-2q-5 -9 -11 -9v-2q2 -11 6 -11h3q6 10 35 16h5 q11 0 29 -7h3v6q0 3 -12 5v4q15 16 27 19v4q-4 7 -11 7v4l7 16q-2 0 -5 7l5 27q-3 0 -7 11l11 18v2q-6 0 -6 3q9 11 15 11l3 11l-18 11l13 14q-8 5 -11 25l6 6l-6 9v14l4 6l-4 3l7 47v22l2 14l-2 14v8l11 3v25h-7l-5 -3h-4q-2 0 -9 27l18 7v5q-7 0 -7 4v14q9 20 14 24v2z M354 562v-4h2v4h-2zM449 484v-3l4 -7l3 3v7h-7zM368 384v-4l15 -4l-2 13h-7zM273 360l2 -2h1v6zM163 328v-2h4v2h-4zM287 38v-9h2l5 5l-3 4h-4z" />
<glyph unicode="N" d="M285 610h2l14 -22l7 -2l11 2h4l5 -5l-2 -2q9 0 16 -11l2 2h2q43 -11 43 -18l-3 -6v-1h1l35 7l9 -9l-4 -7l2 -6l-2 -11q6 -5 18 -5l9 5h5q11 -8 11 -21l-16 -16h-2l-7 5h-5l-6 -5q0 -7 15 -18l3 3l2 -2v-1q0 -12 -25 -15q-4 -7 -27 -7h-7l-2 -5l16 -13l4 4q-3 -22 -8 -22 l2 -2v-3l-3 -4l-6 5h-12q5 -7 5 -16q10 0 22 -16v-4q0 -3 -8 -3v-18l8 -9q-8 -13 -8 -20l8 -13q-9 -15 -13 -41q-3 0 -4 -9v-2q0 -3 17 -5l3 -6l-16 -21v-6l4 -5l-4 -5v-9q7 -8 7 -15v-3l-11 -11v-7l4 -6v-2l-4 -5v-5q0 -5 17 -11v-4l-11 -14l5 -7l-2 -11l4 -4q0 12 5 13h13 l-2 -9l2 -9h-5v-2h14q0 8 27 9l20 -7l-6 -11v-5l6 -6q0 -19 -40 -30l-20 -18l2 -2v-2q-2 -9 -7 -9q-16 4 -16 9l9 2v9h-6q-2 0 -5 -7h-4l2 -2v-2l-23 -5q-7 0 -20 23q-10 20 -25 20q-6 0 -6 3v8q4 4 6 18h-4v9q7 7 7 14v2l-3 3h-6q-13 -12 -25 -12l2 9l-2 7q-7 0 -9 -11 q0 -5 7 -5q0 -27 -28 -27q0 -20 -9 -20q-7 0 -27 -20q-11 -10 -26 -14l-14 -13h-7q-10 0 -15 9l2 6q-15 0 -48 28q-7 0 -27 22q-11 6 -11 13h-4q-15 0 -23 19l-31 11q-11 16 -11 24l4 18l-5 9q0 9 14 19q4 15 9 15h4l7 -2q14 9 21 34l24 24q14 0 14 30l18 7h6v2l-2 13 q11 0 11 16v4l-4 5v9l5 11l-1 11q9 4 14 18q-5 28 -11 37l4 11v7l-6 13l2 2v2q-1 10 -39 52l3 3v6q0 4 -29 14q0 7 -5 7l-7 -1q-7 1 -7 7h-4q0 -9 -13 -9q-1 5 -10 5h-13q-5 0 -9 22q9 11 29 11l9 7v2h-13l-3 3q0 6 7 6q7 10 18 14q6 11 16 11q5 -7 25 -7l2 -2v-2l-2 -2 l7 -3l13 7h4q0 -7 5 -7v-6q-5 0 -5 -9l37 -9h2l6 4h1q6 0 6 -7q-2 -8 -7 -8q0 -9 7 -12h3l9 7l26 -7q0 -6 7 -13v-2q0 -5 -7 -5v-5l3 -6v-3l-3 -6v-5l7 -9v-6l-4 -3l-7 2l-4 -4l4 -16q-5 0 -5 -9q-6 0 -11 -6q3 -5 3 -14l2 2q13 0 18 -18q-6 -13 -9 -13l-2 2h-1l-4 -23 l18 -15v-9q-7 -5 -7 -16l-9 -7l3 -7l-1 -18l5 -9l-4 -4v-4l6 -7v-2l-20 -10l-9 -15l2 -2v-1l-13 -15l-2 -12l2 -2v-2q0 -17 -32 -25l-2 -2v-2l4 -5q-2 -13 -4 -13q4 -11 11 -12l11 1l5 -5v-4l-4 -3l-3 3l-6 -1l-1 1l-4 -7q2 -7 11 -7v-2l2 2h1q8 0 15 -9q10 0 16 -14 q7 -1 7 -4l2 2h2q8 -9 14 -9h7q9 13 15 14h2l3 -3q24 0 27 14l7 2l24 -6v6q-7 0 -7 3l5 6h5l9 -9l17 11v1l-15 18v4q0 6 11 20q0 8 4 12v6l-11 16v7q14 11 14 22v2l-9 30v4q15 9 15 32l-9 15v9l18 21q0 16 14 16l2 2v6l-6 5l-9 -9q-21 4 -21 29l-2 5q0 4 13 13q0 7 3 7h7 l6 -4h7q0 10 18 20l-2 2l4 18h-4l-5 -2q-20 0 -31 25q-21 2 -21 6q0 5 -11 5q-1 9 -11 9l-16 9h-15l-9 -2l-7 8h-2q-6 0 -12 -6h-2q-9 3 -9 24l5 10l-1 2l5 2l5 -2q10 12 18 15l8 -2h1v16zM242 566v-1h3v1h-3zM87 539v-1l3 -4v5h-3zM195 527l3 -4v4h-3zM359 422v-5 q8 0 10 -11l2 -2h9l6 17l-15 5zM330 138l2 -2h5v2l-4 4zM510 61h3v-2h-3v2zM252 55v-2h8l-2 2v2z" />
<glyph unicode="O" d="M176 607l4 -4h-4v4zM218 605l1 -2v-2l-5 -1v-6h2l11 4l10 -4h17l14 -14h2q0 11 5 11l20 -2l32 11l4 3h23q26 -6 26 -20l19 -18v-3l-3 -6v-9l5 -5h13l5 4h9l7 -8l-1 -9q0 -4 27 -39q0 -25 12 -25l6 -13l-4 -16q0 -6 7 -6l2 -1v-11h2l2 2h1q11 -3 11 -6v-3q-16 -17 -18 -24 l2 -12l-9 -17q0 -3 14 -16v-16l-5 -7l2 -2l-9 -14v-8l9 -12l-9 -18h2l9 -4v-3h-8l-1 1l-6 -1v-9q-7 -6 -7 -11l2 -2h2l5 2l7 -6v-7q0 -3 -7 -3q0 -11 -14 -13l9 -38v-2q-20 -13 -20 -27h-4v-3l2 2h2v-2l2 2h5q4 0 4 -6q0 -4 -26 -16q0 -4 -5 -4l-2 -1v-2l2 -2v-2 q0 -9 -13 -20l-3 -9l2 -1v-2q-12 0 -31 -29q-4 0 -16 -14q-4 0 -4 -8q-4 -5 -27 -7q-6 -9 -14 -9h-2l-4 4l-18 -13l-12 2l-16 -7l-29 -3q-26 0 -51 24q-7 -1 -9 -9h-3q-8 9 -25 11l-2 6l-2 -2h-2q-23 12 -41 16q-9 9 -13 20q-15 13 -18 29q-14 4 -14 10l2 9l-17 20v6l4 5 q-4 11 -16 11v18q-24 22 -24 38q4 0 4 5q-6 26 -14 32v6q0 3 5 3l2 2v2q0 15 -9 49q0 3 12 12v4q-5 41 -12 41l-2 6q3 9 13 9v3l-2 7l7 11v6q0 6 -9 14v4l18 16l-2 18q9 15 9 21l-2 8l4 3l2 -2h2q12 15 18 15l1 2v1l-1 2h-2q0 17 18 27q0 15 41 31q3 9 18 9q3 -3 6 -24l1 -1 l-3 -15q11 -9 11 -18v-2l-4 -3h-2l-12 3v-1l-2 -8l3 -3v-2h-1l-2 2h-2q-20 -3 -20 -16l2 -9q0 -14 -11 -18q4 -13 9 -18l-2 -17l2 -12l-5 -4h-7l-2 2h-2q0 -4 -7 -4v-10h3q0 5 4 5h13l3 -4l-7 -7l-11 2q0 -9 -11 -9l-9 7h-3l-4 -7v-4h4l29 4l7 -9l-4 -11q0 -12 18 -12v-4h-7 l-7 -2q-16 2 -16 6v1l1 2v2h-1q-10 0 -15 -9v-2q6 0 6 -3v-4l-2 -2q0 -8 25 -9l2 -2v-1q0 -18 -16 -18v-6q0 -6 5 -12v-6l-7 -9v-2q0 -10 11 -10l5 -17l-9 -14l-14 4l-2 -2v-4l14 -16l2 2v2q11 0 18 -26l7 -1q5 0 13 7h7l2 -2h2l7 7q0 13 12 13l4 12l20 -5l2 2l-4 14l16 7 q0 6 -23 18q16 6 18 13v2q0 4 -20 9l-2 2v1q16 13 16 17l-9 9h-18v5l17 5l1 -1h2q8 2 11 9l-4 14v5l4 13l-2 16q20 5 22 13l-9 5q-12 0 -13 6v3q0 4 6 4v7q-8 8 -8 13l2 10h2l5 -3h6l5 5v4q0 3 -12 5q0 27 -15 31l-3 9l27 7v5l-13 15v2h4v5l1 5l-1 9v6l3 25q0 7 -12 7v2 l-17 -11h-7l-3 4q1 4 23 11q12 0 23 16l-5 2v3zM255 567l4 -3l11 3l2 -2l3 6v2l-5 5q-14 -7 -15 -11zM128 544l1 -2h4v7zM315 544l-2 -2v-2l2 -7q0 -22 -34 -27q0 -9 -4 -9l-2 2q0 -6 -7 -16v-6q23 -5 23 -9v-2q0 -3 -23 -10v-9l4 -6v-7q-6 -7 -6 -13v-5h2l2 2h2 q10 -3 19 -15l-19 -9l-2 2h-2v-3l4 -6v-2q0 -10 -15 -27v-5h4l5 4l11 -4h18q5 0 5 -7q-2 -9 -12 -9l-13 3q-6 -1 -11 -10v-8l-1 -16q0 -7 9 -7q0 -6 21 -9l2 -2v-2q-2 -8 -20 -16q0 -5 -7 -5q0 -15 22 -29q0 -14 -20 -29l-16 -7l-15 2q-25 -18 -32 -18l-4 -13v-5q9 0 9 -4 v-2h-3l-4 4q-20 -5 -23 -14l3 -4v-9l-7 -2l-5 4q-12 -2 -29 -20q0 -30 30 -38q8 -18 22 -23l16 2l16 -6q11 4 45 6l-1 1v2l5 2l18 -5h4q0 7 3 7l2 -2l9 4l-2 1v2q3 0 6 11l9 2l10 -9h6v16q0 4 14 9q1 14 6 14h1l8 -5h3q5 0 9 22l9 1l6 -1l7 14v4l-7 1v4q0 3 9 5q0 13 12 13 q0 7 15 25v7l-2 2l-6 2v2l-1 -2h-8l-3 4v3q0 6 20 7v9q-5 0 -11 9l-7 4v-4h-6v2q11 15 27 15v1q0 8 -12 17q9 5 9 14l-6 4h-3l-8 -8v-7q6 0 6 -3t-11 -8q-11 4 -11 8l4 10l-4 13l2 2q16 9 16 12l6 6l-17 18v9l2 2v1l-7 8v1l2 2q12 7 12 15q0 6 -25 12v2l4 14q-7 12 -7 22h-9 l-4 4v14l-16 4l-7 -2l-4 7q5 17 11 23v2q-6 0 -25 22v5l1 2v2l-12 25l2 7zM336 544l-3 -6v-1l3 -4h4l4 4v5zM434 508l-2 -2v-5l3 -4h4l4 4zM486 470v-2l-4 -3l-3 3l1 2h6zM378 463l-4 -16h6l3 12zM412 429v-2l4 -4l3 4v2h-7zM480 416v-4h6v4h-6zM243 339v-6l7 -3l9 1 q0 4 -16 8zM234 286v-5h14l9 -5l7 5v7l-19 -2v2zM234 216l3 -5q9 3 9 7l-3 4h-4zM23 204v-8l4 4v4h-4zM97 182l-2 -9l2 -2h2l3 11h-5z" />
<glyph unicode="P" d="M304 582q36 -8 36 -11l-2 -6q9 0 16 -14h7q27 -4 27 -27q4 0 4 -5l7 1q12 -5 16 -12l-3 -4v-3q8 -6 21 -6q11 -6 11 -14l-2 -9l2 -15l-2 -1q6 0 11 -20q10 0 23 -20l-1 -11l7 -20v-16q0 -22 16 -30v-2q-3 -8 -20 -13l-2 -2v-1l8 -20l-2 -7l2 -8l-11 -28l-15 -35h-3v4h-4 l-2 -7l6 -6q0 -6 -15 -9l8 -14q-6 -13 -17 -13h-18v13l8 9v7q0 4 -20 4l-2 2v5q5 0 5 5q17 5 17 20l3 18q-1 7 -16 18q2 15 5 15l6 -2v14q0 17 -20 25v2q9 10 11 24v16q-6 0 -22 18v2l2 1l-2 2v4l2 2q0 4 -20 12v16l2 2q-2 8 -9 11l-18 -4l-2 2l-2 -2l-3 6q0 3 11 7v5 q0 14 -27 20l1 9v6l-18 19l2 6h-3q-24 0 -24 9l-2 2v-2l2 -11q-8 -8 -36 -14v1l-21 -5l-2 2v5l21 22h2q10 -7 16 -7h4q7 3 9 10q0 4 -11 9v8q0 3 22 10l3 8v3q-5 0 -5 4v2q10 9 22 9zM302 567l-2 -2v-5h5v4zM178 488l9 -5l1 1h6v-5q-11 -16 -20 -16l-4 3h-3q0 -13 5 -14l6 2 l12 -11l-7 -7l-2 2h-2l-3 -18l3 -8l-12 -12v-6q5 0 9 -7l-6 -7v-5q2 -11 6 -11h3l8 5q9 0 12 -7v-2l-21 -14l1 -13l6 4l3 -6v-3l-1 -2q9 -25 14 -29v-3l-9 -8h-2l-2 2l-9 -2v-3l13 -16q-5 -1 -14 -18l-4 -4v-4h5q11 7 11 13h6l3 -13q-2 -7 -23 -12v-18q0 -5 -15 -7l-1 -9 l5 -2l29 14q3 -16 7 -21v-4l-5 -5h-4l-2 1l-11 -5l2 -18v-4l20 -5q0 -7 -13 -31q8 -6 26 -9l3 -9l-2 -1q3 -10 22 -24q0 -6 16 -11q0 -6 25 -27l15 -19v-6q0 -9 -7 -12h-4l-5 7q-18 -6 -18 -16q-6 0 -6 -5h-2l-5 3h-7q-5 -5 -18 -7q-9 0 -16 11l1 2v1q0 11 -10 11h-2l-2 -9 l4 -7l-4 -11q14 -9 14 -16l-5 -13v-3l11 -15v-1l-2 -2v-2q11 -8 11 -25l-2 -7l5 -15v-5l-18 -6l-14 2q0 -4 -34 -12l-27 -17l-24 4q0 -13 -23 -13l-25 -5l-16 5l-17 -3l-10 12q-16 2 -16 13q1 7 16 13q0 26 25 43q20 23 20 34l16 22v28l7 13v16q5 9 16 9v5q-12 0 -14 18 l-2 2v4q9 7 9 27v3l-5 6l-15 -4h-3q0 19 -29 27q-29 23 -33 34v2l9 9v27l4 4l2 -2q12 3 18 12h3q3 -9 13 -9q3 0 9 -18l2 -1l2 1h1l11 -1q6 0 11 18l2 1h5l15 -5q6 6 9 23l3 6q0 8 -20 11l-1 1v8q7 0 16 48q-13 3 -13 7v6l6 7l-2 20l9 9q0 13 -15 18v5l26 11l-2 13v3 q1 6 14 6l7 -6l2 2v2q0 7 -16 11l-4 -4h-1q-19 0 -24 25l-5 16q9 12 14 26l34 10v2l-3 6q0 4 29 5zM178 317v-7h3l-2 7h-1zM109 173l-2 -7l11 -4h6v6l-13 5h-2zM413 175q9 -11 9 -18l-10 -18l1 -2v-2q0 -3 -12 -5q0 -8 -7 -11h-2l-4 4v1l6 8v19l1 8l-1 5q14 11 19 11z M-2 159v-2h-4v2h4zM367 135h3l4 -3l-6 -4h-3l-4 4zM385 114q3 -9 7 -9l-18 -15l-4 -5v-2l4 -5v-2q-3 -7 -16 -7h-6q-3 0 -9 10q27 35 42 35zM253 78l4 -4l-2 -2h-4l-3 4l2 2h3zM106 60l-2 -6h9v6h-7zM320 49h9l3 -4v-3l-12 -13l-4 4zM242 -115l4 -3l-2 -2h-2l-3 4l2 1h1z " />
<glyph unicode="Q" d="M200 578l4 -5l-2 -2h-2l-4 3zM240 574q10 -3 10 -21q7 0 18 -9l6 5l11 -12q5 0 5 -4v-11q0 -30 -16 -30l-7 3l-2 -2q2 -19 7 -23q-2 -11 -5 -11h-2q-4 0 -4 6h-9l-11 -8v-5h9q6 0 17 -31q-18 -9 -18 -23h-13v2l2 2v1l-2 6h-2l-14 -2q-20 3 -20 7v2q0 4 14 5v8l-7 10v17 l6 9l-4 16l5 5v9l-3 6v5q5 8 5 16q0 7 -9 16v9l9 4l6 -4l1 2h18v4q-9 0 -9 3l-1 -1h-17l-1 10l16 8v-2zM146 564l2 -2v-4h-6v2zM200 562q5 0 7 -15l-5 -1q-11 1 -11 5v2zM348 558h5l14 -7l17 2q17 -6 23 -15v-1l-7 -9v-8l5 -1l15 5q5 0 7 -14q5 0 5 -6l7 -3v-20l17 -16v-8 l-9 -1l-2 10l-2 -1h-2l2 -13v-7q5 0 5 -4l9 2l2 -2v-16l-12 -7l-4 -4q-32 8 -32 16l1 8q0 6 -12 9q-18 5 -18 9q12 12 18 12v4l-9 14v4q0 4 18 9v5l-22 4l-9 -9h-2l-12 11v1q5 8 5 15l-29 7l-3 7l5 4l2 -2zM105 540q10 -4 10 -7v-2q0 -5 -18 -7l-1 5zM142 522h2q11 -1 11 -5 l-2 -2h-7l-4 4v3zM92 506h2q3 0 3 -11h4l43 7v-1q0 -15 -21 -15q-8 -11 -18 -11h-2l-6 4h-1v-4l14 -14l-9 -7h-2q-4 1 -16 20q2 7 7 7v7q-23 2 -23 7v2q0 5 25 9zM52 477q29 -1 29 -7v-4q-3 -7 -11 -7v-5l8 -13l-11 -20l16 -19v-4l-11 -9q-4 -18 -14 -18l-9 -2q-7 0 -16 24 q-8 1 -8 7q5 14 13 23l7 11l6 16l-8 20q1 4 9 7zM279 452q7 -3 7 -5q0 -10 -5 -11h-2l-3 3v9zM94 416h3l4 -4v-3l-5 -6l-9 2v2zM443 411h2q6 0 12 -6h4q0 6 4 6h3l4 -4l-15 -13q-4 0 -14 15v2zM218 400h9q5 0 5 -7q-3 -17 -16 -17l-3 -3h3v-2l36 11h6l1 -2l2 2h2l4 -4v-5 q-17 -30 -17 -38v-2q0 -10 8 -16l-4 -9l2 -2v-2q-7 -18 -11 -18l-5 -5v-2q0 -15 16 -32l-13 -7q-4 0 -9 14h-3q-13 -16 -17 -16q-10 4 -10 7q8 13 19 13v1q0 4 -19 9l-4 9l5 20l-5 11v25l13 16l-9 18v4l5 2l-4 16q0 5 13 11zM466 385l2 -1v-2l-3 -7q14 -16 14 -20l-16 -22 v-3q18 -9 18 -18l2 -15q-3 -9 -6 -9h-7q-24 27 -34 27l-4 6v1q0 6 18 8l2 7l-4 16l8 4v9l-8 9v5q0 5 18 5zM25 362h11q10 -7 31 -9v-2l-2 -12l11 -9q0 -9 -25 -18v1l-11 11h-2l-2 -2h-2l-3 6l2 2q0 3 -22 19v2q0 4 14 11zM81 351h2v-3h-2v3zM51 335v-2l3 -3h4v3zM187 306 l6 -5l-2 -2h-4l-3 4zM29 301l13 -7l10 1l22 -19q-4 -26 -9 -26q-7 0 -18 11l-5 -2l-2 2v2l3 7q0 13 -25 22v3q2 6 11 6zM83 292h2l5 -6l-11 -10l-3 5q4 11 7 11zM461 245q14 -4 14 -11q-2 -7 -9 -11h-1q-15 8 -15 11v4q0 3 11 7zM22 240h5q12 -2 13 -6l20 6h1q5 -6 22 -8 l2 -1v-8l-4 -10l6 -15q-24 -3 -24 -9v-2l4 -5v-11l21 -12v-4q0 -11 -16 -22q-20 15 -20 20v4l8 11q0 3 -6 3l-2 -2h-1q-8 3 -11 9q1 14 5 18q-8 33 -30 33l-2 2v1zM252 223q15 -1 15 -12l-4 -13h-2l-12 16l-2 -1h-4l-3 3q3 7 12 7zM441 213h6q21 0 21 -8v-7q-1 -5 -14 -5 l9 -9v-6l-6 -18q20 -9 20 -12v-13l-3 -5v-2l7 -9l-6 -4q-9 0 -18 13l4 4v3l-5 2l-22 -9l2 -13l-4 -5l2 -9h-2l-2 2h-1q0 -7 -6 -7l-2 1v-7h4v-2q-10 -14 -31 -21q0 -4 -9 -4v-16q27 12 27 20l6 2q8 -4 9 -8v-1q-4 -6 -20 -11q-6 -16 -20 -29h-7l-25 11l-2 -2v-4l27 -23 q0 -3 9 -3l7 -4q25 -34 52 -34q0 -4 9 -4h2l9 8l9 -13v-2l-3 -5v-7h5q2 14 5 14l-1 2v2q0 5 16 9q7 -9 23 -9l2 -2v-4l-16 -18v-3q0 -38 -24 -49h-19v4h-2q-12 -15 -33 -15l-32 -2q0 6 -31 9q0 4 -14 13q-4 22 -16 22l-2 -2h-2q-21 11 -21 32q-15 12 -15 20l9 13q-5 7 -5 16 q0 14 -47 30h-2q0 -12 -41 -21q-20 7 -25 14l-2 -2h-2l-5 2v3q9 0 9 4v2l-15 -4h-2q-32 10 -32 27l-5 2l-9 -2q-26 8 -26 18q0 15 -5 15q-18 11 -18 16l2 2h12v5q0 3 -21 7l-2 18l5 4v-2l2 2h2l11 -7h5q5 7 22 7l9 2q11 34 29 34l18 2l3 -6v-7q-3 -20 -16 -20v-9l-2 -12l7 3 l22 -9h7l43 27h15q3 0 7 -11q22 0 22 -5q12 3 21 13h4l11 -13h3q4 0 4 5l2 2h9l7 -7v-4q-3 -9 -13 -9l-3 -9h1l8 -5h5l5 5l18 -1l15 1l21 -5h6v4q-7 0 -7 3v6q0 23 14 23h23q0 12 -10 20v3q7 15 32 15l2 2v1q0 26 -11 26q-8 3 -9 7v2zM189 195q7 -4 7 -11l-1 -2h-2 q-8 3 -9 7zM200 139h2l3 -4v-5h-5l-4 3v2zM105 88v-5h12q9 -7 25 -7v2l4 32l-7 5q-17 0 -34 -27zM457 101l4 -5l-9 -11h-2q-14 7 -14 11v3h2zM214 61v2q-10 -4 -10 -7v-2l1 2h4q9 -13 20 -20v-3h9v3l-15 16v6l4 3q31 -9 31 -27l7 -3q8 2 11 9l-4 3v4h2l9 -2l5 7l-16 20 q0 13 -18 22q-10 0 -32 -31zM160 87l-1 -8h5v8h-4zM321 74v-11l21 -3h4l7 7v2q-4 7 -11 10h-16zM144 74v-5l4 -4l3 4v1l-3 4h-4zM306 67l-3 -11h5l5 4q-2 7 -5 7h-2zM141 54v-3l12 1v4h-3zM177 54v-2l5 -1v3h-5zM393 6h3v-2h-3v2zM427 -12h2l3 -4v-3l-3 -4h-2l-6 4z" />
<glyph unicode="R" d="M360 601h6q12 -9 48 -20q18 -11 18 -24l-2 -1q26 -14 26 -27l10 -11v-4l-9 -7q0 -6 20 -13l2 -1v-4l-5 -7l1 -25l-7 -13q0 -5 6 -5l1 -2v-6q-8 -12 -14 -12l-2 -9v-2l6 -7q0 -9 -13 -9q-12 -15 -16 -31l-6 -2v-9q-13 -14 -21 -14l-2 2q0 -20 -27 -25v-2l7 -6l-5 -3l-27 5 h-6q-3 0 -7 -11l2 -1v-2l-2 -18q24 -6 24 -20q-11 -4 -11 -7q16 -9 16 -18l-2 -2v-2q1 -8 16 -16l2 -2v-9l-3 -5v-6q16 -2 16 -7l-4 -3l-2 1h-5q-1 -14 -4 -14q0 -5 15 -16v-11l-4 -14v-33l6 -5q0 5 3 5h4v-2q-6 -5 -6 -12h-1q2 -13 12 -13h6q0 11 3 11h2l2 -2l27 7 q22 -4 23 -9v-7q-11 -18 -18 -18q-3 0 -36 -29q-6 0 -18 -17l-7 -6h-2l-29 18l-28 40q-4 0 -4 14l-4 4h-1v7l3 14q0 10 -7 16v13l18 7v16l7 9v8q-23 4 -23 10q16 10 16 18l-13 11v4l4 5v4l-14 18h1l-1 2v3l1 2l-7 11l-2 -2h-1q-15 2 -15 7l2 15q-4 0 -5 7h-8l-19 -4h-4 l-13 11h-7l-30 -2v7h-15q-2 0 -5 -7l2 -9q-7 -9 -13 -9q-1 -20 -14 -20l-4 -10l2 -2v-4l-4 -3h-7l-7 5v-4l7 -14v-4q0 -3 -16 -5v-5q5 -7 5 -13l-9 -9l-11 4l-1 -2v-9l3 -6v-3q-1 -6 -14 -6l-13 -12v-9q20 -13 29 -13l4 4l10 -24q8 -4 26 -23v-13h3l6 2l9 -2l14 2l29 -9h3 l4 4v2q-8 0 -13 12v2q33 23 33 34q12 11 20 11h1l8 -5l7 1q8 0 11 -27l-9 -23l-6 2q-8 -2 -12 -13v-2l1 -1v-2l-1 -2h-2l-2 2q-3 -13 -18 -13l-25 -7l2 -2v-2q-13 -21 -42 -21l-11 3h-12l-42 29q-10 0 -19 20q-6 0 -6 4l-5 -2q-23 11 -25 20q-31 4 -31 30v4h-5q-10 0 -13 7 v14q30 21 31 26l-2 9q5 5 29 9q0 23 37 23v9l-3 5v2q3 0 3 9q11 4 11 13l-2 9l13 11l-4 18h2q33 7 33 14l-2 7h3v6l-3 5h2l-11 23q9 6 9 29q11 7 11 16v6l-9 3l1 2v2q0 5 -19 20v2l5 12l-5 9v13l1 2q-10 12 -14 34q-7 0 -7 3l-2 -1h-2l-5 5l5 7q0 8 -25 20q0 14 -5 14h-4v2 q-6 -1 -14 -11q-12 0 -35 9l-18 -1q-5 6 -5 16q9 1 27 30l5 2l11 -3q11 4 11 14q6 7 23 9l2 2h6l12 -9l7 5q23 0 31 -9l-2 -12q0 -10 9 -15l9 2h9l13 -13v-3q0 -6 -7 -6v-1l10 -11h2l9 7q7 -3 7 -5v-2l-3 -6q16 -7 20 -16q7 0 7 -3h-4v-4q4 0 7 -7v-16q-3 0 -16 -17l6 -9v-3 q0 -9 -6 -13l15 -16q-2 -32 -18 -32v-9l-4 -4l-5 2v-7h1l6 3q0 -5 7 -5l2 -2v-22l18 -12l21 2l20 -2q20 9 31 9l5 -6h4q10 14 25 18q0 6 22 6q5 5 5 14l25 18q6 13 6 24l-4 3v9l7 7h11v2q-2 16 -14 25v6l7 12l-4 11h-5l-15 -11l-3 6v2l7 12q-3 0 -23 31l-2 2l-9 -2 q-6 0 -18 18h-2q0 -11 -22 -16q0 -4 -16 -9q0 -14 -29 -20l-10 -7h-6l-3 3v7l3 4l6 -4h1q16 18 22 18v22q0 4 22 7h1l13 -2l5 6q0 12 -5 20v1l14 9h2l6 -3q8 20 12 20zM375 581v-6l7 -1l3 5v2l-5 2zM171 543l4 -4h2v6zM159 302l3 -6v-1h-3l-4 3zM355 188v-5h2v5h-2zM92 129 v-2l5 2v4h-1z" />
<glyph unicode="S" d="M305 595q1 -4 12 -9l9 2l9 -13v-1h2v3h2q0 -3 9 -7h2l18 2q7 -11 14 -11l18 13h11q4 -4 36 -9l5 -8v-7q-3 -11 -20 -11l-19 9q0 -3 -6 -3v-6l16 -16v-3q-3 -7 -10 -9q-5 0 -13 12h-4l-9 -2l-1 2h-2q-24 -14 -36 -14q0 6 -16 9l-4 -4h-2l-5 4h-6q-11 0 -23 -11l-5 2 l-13 -6h-2q-4 22 -12 22q-17 0 -22 -20q-19 0 -27 -11l-2 2h-2l-9 -7q0 -9 -19 -25l5 -15l-2 -1h-2l-9 1q-3 -7 -10 -7v2q-18 0 -20 -41q0 -9 -7 -26l1 -7l-3 -7q0 -7 14 -18h7l11 5l15 -3q0 8 10 12q8 -1 18 -16l31 4l9 -6q2 7 22 11h3q6 -5 16 -5v-2l2 2h2l9 -9v-9l-2 -2 v-2l6 -3h1l2 5l15 -5h9q11 14 19 14q0 -3 9 -5l2 1h2l9 -1l36 9l-2 -9q8 -4 9 -8q0 -5 -7 -14l5 -4l20 4q-2 13 -9 13v3q4 7 11 7q16 0 18 -23q9 -2 9 -7h2l2 2h1l6 -8v-5l-2 -9q4 0 13 -13v-1l-6 -9q0 -5 11 -8l9 -14l-5 -11l1 -11q0 -3 -5 -3l-4 -7q2 -19 8 -26v-1 q-8 -15 -18 -15v2q-9 -3 -9 -7q3 -9 10 -9v-4q-3 0 -7 -9q-5 0 -7 -16q-14 -23 -16 -34q-29 -16 -33 -27q-1 -7 -14 -13q-13 -15 -13 -34q-14 -6 -14 -18l-16 -14h-7l-11 5l-9 -5h-4l-14 5l-9 -5l-18 7l-4 -3l-18 1h-2l-39 -5h-4l-11 13l-1 1l-17 -7l-1 2h-2q-11 0 -18 -11 l-2 -2h-2l-34 11l-18 -3l-13 7l-19 -7l-13 1l-2 -1h-2l-18 10h-23q-14 11 -18 22q0 7 16 16q5 26 15 34q11 3 30 20l9 2l15 -8l34 2h11l10 2l27 -5l13 1l9 -9q10 0 38 13q12 0 12 -4q22 12 22 15l5 5h4q12 -12 20 -12l9 3l25 -3q3 0 16 18l7 3l11 -2q18 0 20 22q15 14 38 23 l16 35l13 5l5 -2v2l2 5q-9 0 -18 13l2 2h3l2 -2q8 3 9 7v4q-7 14 -20 14l-11 22h-1q-8 -6 -17 -6q0 6 -18 18h-27l-30 -1q0 5 -18 9h-7q-7 0 -20 -13h-6q-10 0 -10 13l-6 5q-15 -9 -32 -13l-11 4l-11 -5h-2l-10 9l-2 -2h-6l-5 5l-2 -2h-2l-5 2q-3 -7 -13 -7q-11 11 -45 11 l-9 -2q0 8 -25 14l-16 22l2 2l-2 2v3l2 2l-2 2v14q-23 3 -23 7v4q0 5 18 9l3 5q-3 9 -11 9v6q9 18 17 18v2q0 4 -9 5v7l25 24l3 5l-3 5v4q9 25 23 25l7 -2l6 2v15q12 10 21 28q5 0 20 26q14 0 20 7l2 -6l2 2h3l2 -2h2l3 6l-3 20q0 3 12 3l4 4h2l7 -6q10 2 22 17h5 q8 -15 18 -15l14 15l2 -2zM326 534l-2 -2v-2l2 -1h4v1z" />
<glyph unicode="T" d="M236 591q13 -13 20 -13h5l9 5l2 -1h2l14 3l23 -7l18 2l2 -6h4q6 5 32 9h4l3 -3v-2q-5 -12 -12 -20v-3h11l23 9h18q9 -5 9 -9h5l6 5v5l-4 4h-16l-4 4l13 10h11l12 -3v-6l-9 -9l9 -7l2 2q10 0 16 -9h2v-7l-11 -9h-1q-10 7 -17 7h-1l-31 -13l-11 2h-2q0 -7 -10 -11 q-7 -16 -18 -28l-2 -24l3 -3v-2l-3 -4h-4l-9 9h-2q-5 0 -5 -16l-9 -7v-2l5 -7v-6q-3 -4 -7 -25l4 -11l-2 -7q8 -3 9 -7q-5 -9 -5 -20l10 -14l-14 -15l2 -28v-4q7 -10 7 -16q-8 -4 -9 -7l4 -22q0 -8 -11 -13l2 -7h12l13 -14q10 0 12 -9l-1 -13q3 -18 9 -23v-2q-2 -4 -29 -16 l-16 3l-36 -14l1 -2v-2q-12 -21 -16 -21l-12 2q-17 -9 -17 -26q5 -27 13 -27h4l5 4q13 0 25 -14l2 1h14l2 -1l2 1h4l1 -1l6 1l7 -1l5 1l2 -1q5 18 11 18h16l11 -4q9 0 16 23q20 3 31 17q18 0 25 25l2 2q3 0 7 9l7 3h6l9 -9v-2l-4 -14q0 -15 11 -31l-20 -39q-23 -4 -23 -18 q0 -7 -31 -27h-7q-7 5 -13 5h-11v-9l-10 -12h-13l-7 9h-7l-20 -18l-9 -2q-7 0 -11 9l-20 -12h-2l-14 14h-4l-12 -9l-16 9l-11 -4h-4q-8 0 -16 9l-14 -5h-6q-10 10 -23 16q0 4 -11 11l-11 -2q-25 8 -25 27q-29 0 -38 32q-19 25 -38 60q-3 0 -9 12h-1v18q0 10 -13 25v20 q4 27 7 27q4 0 4 11l-7 13v1q0 8 9 18v4l-2 11l7 14l-2 7l13 17l-2 16v3q0 4 16 11q0 20 7 20l13 4l2 -2l2 2v5l-8 9v7q0 5 35 15l-2 1v2q1 13 9 13l2 -2h1q5 0 24 25l-2 7q2 9 5 9q22 -9 33 -9q2 9 5 9l4 -7q0 -16 -22 -20l-5 2v-2l2 -5l-13 -13h-7l-2 2h-2q0 -10 -16 -14 l5 -16h-1l-8 1h-7l9 -27v-1q-2 -7 -25 -15l-2 -9q0 -17 13 -25l2 -13l-13 -7l-7 2v-4h-2l4 -27h-2q0 -9 16 -9l7 -7v-5q0 -5 -18 -9l-3 3l-6 -5v-4l6 -12l-9 -18l5 -6h2l5 4h2q10 0 13 -9l-4 -11v-9l11 -21v-13q5 0 9 -7v-2l-4 -5v-4q2 -5 11 -5l5 5h8q5 0 12 -20l13 -9l2 2 q4 0 9 14l14 9h18q10 35 25 35q15 2 15 18q0 10 9 23v2l-13 14v2q0 4 9 4l2 1v6l-4 5v2q0 7 9 16v6l-9 12q0 10 16 20v9l2 18q-12 5 -12 14l12 15l-11 18l13 7v2l-5 7v4l7 9v3q0 6 -18 6q-4 8 -13 14l-16 -5v1q10 9 32 71h2l7 -13h8q13 10 27 13l7 7h16v3q0 5 -7 6v12 q0 6 -20 11h-4q-17 -9 -28 -9h-2l-15 4l-10 -4h-13l-5 -3h-4l-18 16h-5l-6 -7l-2 -2h-9l-1 2q-17 -7 -17 -20v-13h-1q-4 0 -9 13l-29 7l-7 -5l1 -18l-23 -9q0 -6 -18 -6q-2 -12 -9 -12l-2 1h-2l-5 -1v1q-7 -1 -23 -12h-4q-9 1 -9 5l5 7l-12 15v2l30 28q0 5 11 15q0 12 9 16 h20l9 -2l2 2v2l-4 11q0 9 11 9q0 5 22 10l9 -1h1q10 0 11 9h2q4 -8 9 -9q12 0 20 7l2 -2l9 5h5q7 -3 7 -9h7q16 0 18 15zM470 587h3l6 -5v-4l-7 -7h-9l-9 9q0 4 16 7zM335 558v-3h7v3h-7zM338 531v-9h2q4 0 6 9l-2 2zM101 513v-2h5v2h-5zM238 36v-2h3v2h-3z" />
<glyph unicode="U" d="M101 597h2l16 -14l13 7h9q9 -15 36 -15l5 -7v-3l-3 -6v-2l14 -32q7 0 7 -11l-2 -20l9 -9v-1l-9 -9v-6l4 -5v-2l-2 -16l9 -15v-5l-11 -13v-1l4 -17q0 -4 -16 -19v-4h2l10 5h2q7 -3 7 -12q-23 -7 -23 -15l9 -14l-9 -11v-7l2 -7l-11 -15v-3q0 -4 13 -6l3 -5v-4l-7 -16 q7 -8 22 -11l5 -14q0 -11 -31 -49l-7 -3h-9l-2 2q-34 -13 -34 -26v-1q0 -4 24 -22q13 -24 37 -41l2 1l4 -5l21 2h2l20 -2l5 4l-1 5h1q17 5 17 16q4 6 25 15q0 3 9 3q3 16 11 16l-2 2v2l7 5l11 -3l16 7v11q0 6 7 16l-2 2l4 25q-1 7 -18 14v8l4 3l3 -3h2q18 6 18 16v2l-18 28 v27q0 4 14 4l4 11h2q0 12 -18 18l-4 11v9q0 3 15 9l1 1q0 20 -18 29l-1 -2l-4 4q2 18 18 18q9 10 9 14q0 18 -16 18q-7 0 -15 15q-6 5 -12 5l-20 -9q-8 0 -13 -3h-9q0 4 -7 5l-9 14l2 17l-7 10v2q27 24 36 24v-2l5 2v1l-2 13q8 0 8 7l1 6q16 1 20 5h4l9 -2l11 2h5v4h11 l14 14q15 0 24 -14v-15q39 -5 39 -25l2 -11l-2 -2q10 -16 22 -16v-2q-1 -5 -25 -10l-8 -31l4 -11l-2 -9h-2l-5 4l-4 -6l8 -21q0 -7 -11 -20l7 -22l-2 -10l6 -9v-6q-8 -7 -8 -14q1 -9 4 -9l-2 -9v-24l-7 -12l2 -27l-2 -13l5 -5v-2q-5 -11 -10 -11v-12q7 0 7 -22q5 -4 5 -13 v-7q-7 0 -12 -27l10 -14l2 -2v-5q-3 0 -12 -17v-23q21 -5 21 -11l4 -18l-2 -16h11l3 4v1l-3 11q16 11 29 36l1 2h9l8 -7v-2l-4 -5v-13q0 -5 7 -5v-8l-20 -16q0 -7 -18 -11q-18 -26 -21 -26q-23 -16 -34 -16q-14 0 -20 12q-19 9 -31 11v5q11 11 11 18q-27 23 -27 27l4 13 l-6 3l-5 -5v-2q5 0 5 -4l-7 -7h-13q-6 0 -21 -14q-21 -8 -25 -13q-4 0 -4 -5q-13 -12 -32 -20q-11 -14 -20 -14h-4q-15 0 -23 16q-43 10 -43 23l-27 15q0 15 -26 21v2l-9 -2q-18 0 -18 18q-15 0 -21 13q-11 0 -11 29l2 7l-2 16q7 0 14 25q13 0 40 36q5 0 13 20q19 4 27 13 q-6 30 -17 30v2q15 14 15 20v9q0 21 -11 30v4q0 4 9 4l2 5l-2 18l2 16q-13 6 -13 11l13 14v2q-7 5 -11 36l-5 7v2h3v9l13 24v5q-27 0 -27 25q-5 6 -11 6l-14 -20l-20 -6l-2 2l2 7l-2 11l2 16q-6 2 -6 15t31 16l2 -2v4h-4v3q4 0 9 15h4q0 14 23 16zM337 502l5 -6h4v4l-4 3z M193 440v-9h4l-2 9h-2z" />
<glyph unicode="V" d="M329 581l21 -2h26q19 -6 19 -14l6 -9h12q5 0 17 -33q16 -3 30 -18q0 -3 -7 -3l-2 -2v-2l18 -14q0 -14 15 -29v-7q0 -4 -6 -4v-7q0 -8 13 -20l3 -20l-5 -16l5 -9v-5q0 -4 -5 -4l7 -23q0 -6 -9 -13v-7l4 -6v-3q-13 -9 -13 -24l-2 -7l-9 2h-7l-14 -5l-6 1v4l6 7q0 6 -15 20 q16 7 20 14q-4 0 -5 17l5 1v6q-3 9 -21 12l-2 2v4q11 9 14 18q-10 4 -18 21q-12 12 -12 24q-15 6 -15 18v3l4 6q-24 8 -24 25q-8 0 -30 25q-15 0 -20 -16l-2 -2h-2l-3 4h-2q-8 0 -27 -25l-54 -44q-21 0 -31 -25q0 -9 -3 -9l-6 2v-2l-1 -7l12 -20q-7 -27 -14 -27l3 -16 q-9 -5 -10 -11q0 -5 10 -5l6 -7v-4h-2l2 -13v-12l-9 -15q0 -4 11 -10l5 -17v-1q0 -5 -9 -6l-2 2l-2 -2v-7q0 -3 15 -11l3 -11v-9q0 -4 -18 -10q-9 -22 -41 -33l-7 -3l-11 1l-5 -1v-2q0 -13 23 -15q0 -4 20 -14q0 -4 39 -23l11 1h2l14 -10l6 1v8l3 10l15 -1l18 1q9 29 20 29 h1l2 -2q28 13 38 22l27 13v21l4 4l5 -2q25 0 25 13l-5 5v2l11 27q13 11 25 14l-2 2q1 13 4 13l-2 1v4l5 5q11 -9 22 -9l5 2l4 -5v-4q0 -5 -22 -9v-2l2 -10l-4 -15l4 -7q-13 -22 -25 -31l-6 -7v-2l6 -7v-3l-13 -18h4v-4q-33 -9 -34 -14q0 -22 -20 -22q-11 -10 -11 -27 q-45 -6 -45 -32l-22 -9l-21 -17q-4 0 -9 -12q-18 0 -18 -12q0 -8 -22 -8t-34 17q-21 15 -34 15q-11 9 -58 33l-34 20h-2q0 -6 -18 -6l-3 4l1 2q-9 0 -32 27v5q6 16 20 16l7 11q26 33 63 49q0 13 14 25l2 7l-2 7q9 6 9 13q0 5 -7 5l-2 2v7q8 11 24 11v5q-6 0 -18 15l3 16 l-3 4v7q0 5 11 5l1 9l-10 22l-17 -4v4q9 9 17 34v7l-9 11l7 13q-6 1 -6 10q15 8 15 11v2q-12 20 -24 20l8 11l-2 9q14 12 14 19q-4 11 -14 11h-2q-26 -20 -36 -20q-7 -5 -14 -5l-8 7l-16 -7q-12 6 -18 14v2q0 29 18 38q3 11 15 11l5 18l14 16l15 -2l21 4v12h22q4 0 4 -5l5 4 h4l10 -8l11 2l25 -14l-1 -9v-2l3 -4h2l5 4h6q16 0 16 -9q-3 0 -9 -22q2 -7 11 -7h2q7 0 32 15l2 -2q4 0 9 14q11 7 18 7q16 0 23 -7v7l-2 -1h-3v7q25 28 34 32l2 2v2zM268 512l1 -1h8l5 5v5h-2q-11 -4 -12 -9z" />
<glyph unicode="W" d="M97 584q4 0 20 -16q7 0 7 -3v-17q5 0 25 -25l-4 -11q0 -9 9 -9q4 8 9 8q8 0 22 -9v-6q-10 -1 -22 -25l-1 -2h-2l-4 4h-7q-11 -23 -11 -33l-2 -14q4 0 6 -11q0 -7 -9 -7v-2l2 -20l-4 -12q0 -4 11 -13q0 -3 -6 -3v-4l6 -7q-3 -7 -6 -7q-3 7 -12 7h-2l-2 -6l11 -10 q0 -6 -5 -13v-18q3 -3 5 -25l7 -9v-2q0 -4 -5 -4v-5q7 -7 7 -22l-2 -1h-2l-5 1l-5 -1v-8q12 0 14 -7l-4 -18q0 -10 13 -12l2 -6l-6 -7l-1 2h-2l-6 -2v4h-1v-26l-9 -10q0 -13 -27 -13q-11 -7 -11 -16q0 -7 18 -7l3 -8h2l2 2q9 0 9 -16q4 -13 23 -13q33 14 33 18v2q-7 0 -7 6 v1q0 3 25 11h3l2 -2h2l9 11h4l5 -3h2q4 0 5 9q-9 0 -11 12l6 4l5 -2l4 5v2l-6 7v4h8l10 -4q0 4 6 4l-2 2v2l4 3v4l-2 9h-15l-5 5v9l9 11l-4 11v5l8 9v2q0 3 -17 13q0 3 18 14v2l-5 14l5 7v2l-18 16v4q0 4 15 5l3 6v2q0 3 -18 16v2l9 9v1q-5 9 -16 9l-2 2v2q17 18 24 38 q-3 0 -7 11q-9 0 -18 9q0 14 16 14l9 4q-16 36 -24 36l-1 -2h-2l-2 2v5q9 14 13 14v4q0 15 3 23l-11 8l-5 -6h-4l-9 11l9 25q0 4 11 4l-2 2v10l11 9q4 -3 15 -3l1 -6l2 2h2l2 -2l2 2h12q1 -8 18 -21l11 3l4 -5v-2q-4 -4 -6 -20l2 -2q23 11 34 11q0 4 6 4l9 -2v11l3 3h4l5 -3 h4q0 11 16 11h4l1 -2l11 3h4l2 -1h1l-1 -13v-7q-6 0 -13 -6h-5q0 8 -9 9q-13 0 -22 -34q-5 0 -11 -5h-12l-8 -2l-10 4l-2 -2h-2l11 -20v-2q0 -18 -18 -18l-15 -11l2 -9v-7l-3 -5v-2h3l25 7l2 -2v-9q0 -3 -9 -3l-7 -7h-2l2 -9l-4 -9l2 -8q-1 -7 -5 -7v-11q7 0 7 -5l-2 -16 l2 -7l-4 -9l9 -13v-5l-5 -8l2 -16l-6 -14q0 -9 15 -25q-9 -25 -22 -38v-4q24 -6 24 -14l-13 -16l4 -11l-9 -15v-3q21 0 21 -13q-4 -18 -18 -18l-2 2h-3l-2 -18q0 -10 11 -13l18 6l7 -7h2q8 0 21 12v2q0 4 -12 7l-4 4v3q0 7 33 15l3 9l-2 5q9 10 36 15q3 8 18 25h18l4 -4v-3 q-20 -16 -20 -31l-5 -7v-7l3 -6v-7q0 -4 -10 -7q0 -35 -33 -40l-5 -2l2 -1q-22 -45 -35 -49l-27 -25q0 8 -18 14l-21 -3q-9 0 -9 12q-6 0 -11 13h-9q-10 0 -13 7v2q0 3 11 5l2 9l-20 7l-2 -1h-1l-11 3q-4 0 -6 -21q-11 -8 -23 -9v1q-20 -10 -20 -16q0 -8 -25 -14l-5 -5 l-8 12l-3 4l-15 -4q-23 17 -23 29q-18 2 -18 5l-2 -2q-14 0 -20 13v9l-18 -2q-9 0 -14 7v9l2 2l-2 2v9q41 32 41 47l6 3l16 -3q16 6 16 14q0 7 -12 13v2l5 5l5 -2l4 6l-4 16v3l2 11q0 6 -9 6q-7 10 -12 12q2 18 9 18h10l2 6l-2 10l4 4v2q0 3 -13 9l-3 11v5q5 11 14 11l2 7 l-9 22q-11 0 -16 9q5 14 12 19l-7 18l2 13l-7 11v2q11 0 20 25v5q-13 19 -17 34q-6 0 -10 9l1 2v2l-1 5l1 2q-23 13 -23 29v13q-13 3 -13 7v5q9 15 17 15l16 -2h3q3 0 6 7q3 0 5 11q7 0 13 7zM172 529h8q10 -2 10 -6l-3 -3h-7zM385 525h2l10 -9v-4q0 -3 -5 -3q-14 1 -14 5v4 zM424 521h2l4 -3v-2l-4 -4h-2l-3 4v2zM387 498h3q36 0 36 -14q24 -2 24 -11l1 -2l4 -11q4 0 5 -14l9 2l2 -2l2 2l4 -6v-11l-6 -5q-12 0 -12 13l-2 1h-4l-7 -7v-2q16 -19 20 -19v-6l3 -11l2 2h2l4 -3v-4q-10 -20 -20 -20l-2 -2v-1l9 -15l-4 -3q9 -15 15 -15l2 -2v-1l-6 -2 l-32 9h-15l-7 7q1 8 22 16l2 2v7q0 5 -8 6v1l-1 -1h-2l-6 1l-1 -1l-2 1v2q9 3 9 6v7l-15 12l8 38q-18 19 -18 29v5h-22l-9 2v4q8 14 13 16zM430 444v-2l3 -3h6v5l-4 4h-2zM126 372v-4h1v4h-1zM475 367l5 -2v-4l-7 -2l-2 2v2zM433 293q13 -7 13 -16h-2l-5 -2q-8 2 -15 16l2 2 h7zM446 277h2q9 0 12 -8l-3 -3h-2l-9 9v2zM432 257h9q11 0 16 -15l-6 -16v-2l2 -12l-5 -4h-6q-3 0 -5 11q-25 5 -25 11t20 23v4zM385 205h7l4 -4v-2l-8 -7l-7 7v2zM131 183v-4h5l-3 4h-2zM194 88l4 -4h5q-3 7 -5 7zM232 89v-5h2v5h-2zM207 82v-3l9 -2q0 3 -9 5zM225 73v-3h1 v3h-1zM257 30h4q3 0 3 5l2 2h2l9 -7l5 2v7h-7l-7 2q-11 -4 -11 -11z" />
<glyph unicode="X" d="M139 599h5q18 0 24 -24l7 -1l14 3v-2l2 2h4l-2 -2v-1q5 -2 5 -11v-13l8 -9l18 6h5l9 -11q0 -7 -7 -16v-2q5 -9 16 -9q7 -6 7 -11l-3 -16q1 -7 7 -7l12 3q7 -16 33 -23h2l5 5v2q0 4 -11 7l-5 24l2 1h14l5 24l-9 16v5l17 -1q8 0 12 12l-2 9v9q6 9 42 15h3q6 0 15 -8h18 q9 8 16 8h14v5h9q0 -7 26 -7q7 -10 7 -16q-16 -24 -25 -24l-2 -2h-4l-5 4h-18l-9 -9h-6q-2 14 -9 14l-3 -10l2 -2v-2q-3 -13 -9 -13l-6 2l-16 -5l-9 2l-5 -2v-20q-8 -23 -18 -27l-2 -2v-16q-5 -18 -13 -18v-13q0 -4 -16 -10v-13q0 -4 5 -4l2 -1v-8l-3 -3l-4 3l-5 -9l3 -18 l-7 -14q0 -14 22 -14l3 -4h2l2 7h9l11 -3l39 12q13 0 18 -23h-2q5 -12 9 -13h24q12 -4 21 -32q9 -10 9 -16q-3 0 -7 -17h-7l-18 -1q-43 3 -43 21q0 12 -16 15l-18 -11l-15 3q-25 0 -25 -16q0 -12 -9 -12v-2l13 -38l5 -5v-8l-5 -7q0 -9 12 -14l6 2l3 -6l-3 -14l10 -11v-13 q11 0 20 -12l-2 -2q0 -20 13 -20l2 -2q5 0 5 -3h15q0 5 9 5q5 25 25 25l11 8h1l2 -2l2 2h9q17 -11 22 -18v-36q-9 -14 -29 -22l-24 -20q0 -5 -7 -5l-16 2l-11 -17q0 -5 -14 -10q-19 5 -25 16q-9 9 -47 30q0 5 -18 24l3 7q0 12 -25 14q-4 8 -9 8q8 9 13 9v12q-18 21 -18 31 l2 7l-4 18h-2l-5 -4l2 -1v-4q-5 -9 -15 -9v-4l4 -5v-9h3v-4q-19 -21 -36 -50v-9q-12 0 -12 -9q-6 -8 -16 -11q0 -5 16 -11q-15 -14 -20 -28q-7 -4 -20 -4h-14l-15 -5l-14 5l-23 -2q-14 18 -27 18q-5 0 -29 -16q-18 0 -29 34q0 12 31 34q11 33 39 33l2 2h2l11 -2h3l11 7h7 l9 -5l2 1h2l14 -10q11 0 16 18l-1 7v2q0 3 27 16q4 20 16 20v5l-4 5v6q9 10 9 18v5l-2 11q0 5 17 11v21l3 6v5q-7 11 -18 11h-3l-13 -4l-18 6l-11 -4h-3q-5 4 -18 6l-11 -4h-2q-28 28 -34 43v2l9 7h5l20 -3l13 10q9 0 19 8l18 -8q33 9 33 27q0 11 9 20l2 6l-18 14l-4 4l2 14 q0 4 -24 23l-5 11l5 7q0 13 -21 29v2q4 0 7 7v7q-6 9 -18 13l-16 -4l-4 6q0 8 15 23q0 11 3 15v12l-5 6h-6l-5 -6v-16q0 -5 -23 -13q-7 0 -9 13q0 11 32 25v11q7 11 18 11zM62 541h30l9 -16v-2q0 -3 -14 -3q-10 -9 -40 -22h-16l-4 4l26 25q0 8 9 14zM330 309l3 -4h2l6 6 l-4 3zM274 185v-2h4v2h-4z" />
<glyph unicode="Y" d="M54 567h3l11 -9v-1q0 -3 -13 -6q-7 3 -7 6v5zM140 567q13 -13 32 -25q0 -13 24 -29l3 -7v-2q-16 -4 -16 -7v-3q9 -11 9 -18l-3 -4h-2q1 -9 21 -27l-5 -5h-2q-3 0 -3 5h-2q-11 -6 -13 -13l2 -14q0 -16 -13 -31q0 -5 -9 -12l4 -4l18 7l2 -1v-6q0 -10 -25 -32v-4q9 -9 9 -21 q15 -7 16 -11v-4q0 -5 -22 -12v-6l7 -7l2 2h4l5 -6q0 -3 -14 -9l-2 2h-2l-2 -5q0 -4 17 -13l5 -7v-2l-5 -5l5 -16v-2q-22 -7 -22 -18q8 -3 11 -9v-4q-2 -6 -14 -11l-25 2l-9 -2v-9q10 0 10 -10l-5 -4h-9l-11 2q-16 0 -16 -13q2 -10 27 -20q0 -9 22 -16q0 -14 43 -25h14l4 4 v7l-4 5l4 4h27q5 2 5 11v10q5 0 24 17l10 3q23 -16 27 -16v-7q-5 -13 -14 -13l-2 -2v-10h4l5 3h18l6 -5q0 -5 -9 -9l-15 3q-18 0 -25 -10l14 -18v-4l-3 -4h-4l-7 8l-2 -2l-9 2h-12q0 -7 -33 -17q0 -8 -25 -18q0 -16 -25 -16l-2 2h-2l-7 -2q-5 0 -23 11q-4 0 -13 11 q-18 0 -32 23q-33 11 -33 20q-15 14 -20 14q0 3 -21 13l-2 2v3q16 8 16 33q4 4 22 7l11 11l1 -2h2q12 22 25 22l2 7l-3 3v4q0 5 28 13v1q0 8 -9 18l2 2l-5 15v5q0 7 11 16q0 7 -9 16v4q0 22 23 29q5 1 9 9v3h-4q-6 -5 -12 -5q-11 5 -11 16q4 36 16 36v11q-6 0 -14 18l2 11v5 l-4 6v3l9 11l-4 14l2 8l-3 3v9l7 11q0 17 -25 40q-8 -1 -13 -17h-14l-22 -1l2 12v4l-11 16q0 12 13 18h9q14 -14 30 -14q12 -17 22 -17h2v9l-4 6v5q0 4 11 4l2 5q-4 9 -11 9q-7 9 -7 15h1l18 -2zM302 562l13 -9l18 5q5 0 18 -12q5 0 10 -18l18 3l6 -9v-1q0 -3 -13 -8v-9 l11 -10l7 12q48 -14 63 -39l-2 -9q0 -22 17 -45q-6 -11 -13 -11l-13 2l-14 -6q-8 1 -16 27q-4 6 -9 6v10l2 2q0 4 -26 16q0 21 -18 26q-7 21 -10 21l-15 -3h-2q-3 0 -12 19l5 4l15 -5h1l4 3v6l-5 7q-27 0 -36 -7q-17 9 -17 21q9 11 13 11zM160 521v-6h2l3 4l-2 2h-3z M356 515v-7l5 5l-1 2h-4zM363 508v-4h2v4h-2zM212 492h4l3 -4v-2l-3 -3h-4l-4 3v2zM388 485v-2l2 -9h13v2l-2 9h-13zM466 391q11 -4 12 -9l-7 -5h-7q-5 1 -5 10zM451 357q0 -4 6 -4l2 -2v-1l-4 -4v2q-5 0 -5 -6l-2 -1h-9l-6 5v2q1 3 18 9zM178 341l7 -4l11 2l7 -6v-1 q-8 -13 -18 -13h-2l-9 9v9zM451 330l2 -2v-2l2 2h4v-5q-2 -6 -11 -6h-7l-6 6v5h2l4 -4zM441 305h7q7 -3 7 -13v-4l-7 -7h-2q-18 4 -18 7v6q0 3 13 11zM426 278l16 -13l-7 -7q-12 0 -23 12q7 8 14 8zM424 242l4 -4l-11 -9l-3 4v3q1 6 10 6zM392 213h13l12 -4v-2 q-9 -10 -20 -14l-9 9v7zM381 180h2l5 -5v-2l-3 -3l-7 5v2zM383 161q4 0 5 -11q-3 -8 -7 -9h-5q-11 0 -18 11v1q0 4 11 6v-2zM343 128h26l5 -5q-11 -13 -11 -20l-2 -9q-9 0 -9 -14h-1l3 -9q-9 -9 -18 -9l-2 1v2l6 2l-4 7l7 31l-9 14v2zM320 49h4q7 -3 7 -13q0 -7 -9 -12 q-9 4 -16 14q5 11 14 11zM318 17h4q4 0 5 -9l-9 -11q15 -13 15 -23l-11 -11q0 -7 21 -7q15 -10 15 -18l-2 -2l16 -4q25 11 25 17h13v-4h7v4h6q23 -14 23 -26q0 -4 7 -5l7 2q6 0 6 -7q20 -9 20 -22v-16q0 -15 -22 -25q-5 -16 -14 -22h-15q0 -4 -7 -7h-5l-15 3l-47 -1 q-9 0 -37 30q-20 25 -24 25q0 6 -11 11v2l2 9l-9 45v2q16 10 16 34l17 18l-4 7q4 11 7 11z" />
<glyph unicode="Z" d="M186 605h7l13 -13q50 7 54 13h5q15 -13 22 -13l32 2l2 -2l9 6h18l5 -4h18l2 -2l2 2l14 -2l36 2l36 -16l9 -13v-3q-8 -38 -23 -38l-9 -14l2 -2v-2q-1 -6 -35 -23l-9 -4l-1 -2v-7l3 -5v-4q0 -4 -9 -4l-16 -5l-4 -7l2 -2v-2q0 -11 -34 -29q-4 -4 -4 -12q-32 -4 -32 -18 l-18 -15h-4l2 -12q-21 -22 -38 -31q-9 -13 -9 -18q4 -8 8 -9l12 11l6 -4l16 13h7q23 -7 34 -20q8 -18 20 -18l2 2h2l-4 14l2 2h2l16 -11l2 2h9q28 -15 28 -32h4v-2l2 2q12 0 21 -15q0 -13 22 -28q0 -7 16 -17l11 -34v-23q9 0 16 -24l-2 -1l2 -9v-9h4v-11l3 -15v-37 q0 -4 -10 -6l-2 -5q11 -6 11 -16l-8 -6h-1l-2 2h-2v-3h-2q7 -21 7 -34h-1q-9 0 -9 -13l3 -18q0 -8 -14 -20q0 -15 -9 -25t-9 -22q-18 -20 -18 -34l-15 -7q-1 -7 -14 -16q0 -13 -23 -24q0 -9 -27 -23q-24 0 -27 -13l-8 -3q-12 1 -12 9h-4l-12 -9l-13 3l-43 -10q-33 2 -33 18 h-9q0 -9 -5 -9q-9 0 -16 12l-13 -2h-7q-3 4 -31 9v2l2 2q-39 16 -39 31q0 7 -18 10q0 4 -18 15l-18 25l3 5l-2 18v17q-14 7 -14 23v2l7 9v2q-5 0 -5 3v9l7 11q0 6 -7 14v8q7 10 16 10v9h-4v2l-1 -2h-2l-4 4v5l18 13l-3 21q19 16 23 27q28 14 41 31l2 2h2l14 -13h2l11 4l-2 1 v2q4 10 16 18h9l13 -9h4v2q43 0 43 -16q0 -11 -16 -16l-17 10h-12l-18 -12l2 -2v-2q-9 -21 -35 -21l-1 -2v-7l5 -6q0 6 4 6l3 -4q-4 -9 -23 -9l-6 -5v-4l4 -5v-9q0 -3 -18 -11l-2 -2v-1l2 -15q-7 -5 -16 -5h-7v-2q3 -18 21 -18l7 -2l2 -2v-5l-5 -7v-9l-2 -16l16 -17v-3 l-14 -13l5 -9v-11l-2 -1q2 -13 15 -13q0 -5 11 -5v-4l-2 -13l2 -1h7v3h2l-2 2v2l2 5l-4 4v2h4q3 0 3 -8q40 -14 40 -28l11 -6l10 9h2q16 -3 16 -14h8l10 9h8l5 -4h4q10 15 19 15l11 -4h15l14 9q0 7 4 7l18 -2q23 9 23 15h13q28 12 30 25l4 4l-2 1v2q0 5 14 22q0 21 18 21 q0 6 6 6v21l-2 27l20 -5l5 7v13q-7 7 -7 14v4l7 30v2l-11 18v3h4v4q0 3 -18 18v4q1 4 14 9l2 5q-4 12 -9 13l2 1v4q-5 0 -5 11q-11 6 -11 20v9q-9 0 -16 10l3 8q-19 27 -34 27q0 4 -13 7q-12 23 -36 23q0 4 -16 7q-8 15 -21 15h-4l-22 -7q-9 8 -23 10l-7 -1l-18 3l-11 -3h-2 l-11 3q-9 0 -12 -16l-2 -2h-5l-6 4h-14q-6 0 -13 -6h-3q-5 0 -6 9l2 2v2l-4 9q8 12 8 22l7 3l18 -3l11 12l-8 11q0 16 11 23q1 18 13 18v-1l18 3l-2 7q0 12 25 20q0 15 20 15q22 2 22 19l-2 13l23 18l-2 2q0 10 9 16v2h8q14 0 19 18v12l4 4l2 -2h2q0 4 7 4v16l2 2v2l-6 3 h-11l-5 -3h-4q-13 0 -14 9l-13 -4l-1 2l-20 -11q-10 0 -18 14h-4q-16 -2 -16 -14q-9 13 -16 13h-18l-7 -6l-9 2l-15 -2q0 4 -21 11q-25 -4 -40 -22l-14 -5h-11v-5q3 -8 21 -17l2 -1v-2q0 -3 -9 -6q-16 4 -20 11q-13 0 -19 13v9q0 3 25 9v7l-4 5v8l9 9l-2 9v10q1 7 40 17 l22 27q18 0 43 14zM150 578l2 -9h9l1 7l-1 2h-11zM297 432v-3h2l2 1h2l-2 6zM299 427v-2h4v2h-4zM299 285h4v3zM245 283v-6h4v6h-4zM216 103q18 0 18 -13l2 -2h6q1 13 5 13l11 -11l-2 -2q2 -10 5 -10h2q0 7 4 7l11 -4l19 2q16 -3 38 -29l2 -2h4l9 2l-2 -9v-3l12 -15v-12 q5 0 8 -16v-7q9 0 9 -13v-4q-18 -19 -18 -30l1 -2v-2q-3 -19 -14 -25q-5 -7 -5 -14l3 -9q-20 -9 -20 -13h-12l-16 -18l-9 -4l-11 6h-9l-9 -9h-4q-11 0 -25 5l-16 -3l-6 7v5q0 6 17 16l7 -1l7 5l-2 2q25 12 25 16q18 6 18 11l-1 12q5 13 23 18v2l-2 2l-7 14q-9 0 -16 15 q2 9 11 18q0 3 -8 3v4q8 0 8 5v4q0 16 -31 41q-5 0 -7 16q-6 0 -6 7h-7q0 -9 -5 -9l-15 11l8 15l-8 3v4z" />
<glyph unicode="[" d="M319 589h1q11 0 26 -9h1l2 2h2q0 -7 20 -7l12 -9v-2q0 -4 -10 -5v1q-12 -10 -17 -10l-12 -2h-2l-2 2l-23 -11h-2v-13l-9 -11v-3q0 -6 16 -6l2 -1v-6q-17 -15 -18 -23l2 -2v-2l-15 -18q0 -4 13 -9l11 2h5v-4l-9 -9l-9 2q-10 -3 -12 -11v-1l16 -8v-1q0 -12 -20 -17 q0 -4 16 -9l16 2h8l3 -3q-7 -8 -25 -15q0 -24 -11 -32l4 -4q9 4 41 4l6 -2l-9 20v2q21 19 28 19h11v13q9 13 15 13l10 -2l11 3h2l2 -1h2l-2 -9v-4l5 -5l13 5q17 0 30 -11v-3l-7 -8l-7 6l-5 -2v-2q6 -14 14 -14v-2q0 -4 -7 -4v-9l7 -1l5 1l2 -1v-2l-2 -7l8 -15v-2l-9 -12 l5 -2l4 4h3l24 -18v-2q-21 -11 -31 -27v-6l22 -23v-2q-9 -10 -9 -18l3 -5v-7l-3 -15v-3q0 -6 10 -6v-2l2 2h4l9 -9l-18 -3l-6 1q-7 -8 -7 -12q0 -8 6 -16v-2q-2 -5 -24 -13q0 -5 -7 -9q-4 0 -13 15l-5 1l-5 -1v5q23 16 23 27l2 14l-4 13h2q0 13 -16 14v2q10 9 16 9v7 q0 4 -5 4l-2 2v5l9 11q0 6 -18 11l-2 2v5l7 9v2l-18 12q-9 0 -11 6v38l-23 -6l-5 6l3 12q-2 7 -5 7h-2q-4 0 -11 -19l-5 -2l-13 2q-10 0 -21 -24l-17 -16q-16 -4 -16 -9v-5l7 -2l9 5h6l3 -3v-8q0 -7 -27 -9l-1 2l-4 -11q0 -7 18 -7l2 -2v-1q-8 -5 -11 -13l2 -16 q0 -3 -13 -13q0 -9 13 -16l-7 -22l7 -7l2 2h7v-2q-15 -7 -15 -20v-5l4 -5v-2l-7 -11l2 -7h5q10 0 13 -7v-2q0 -10 -8 -13h-1q-9 0 -9 4l-6 -2q0 -8 11 -20q-11 -12 -16 -12l-9 1l-2 -1v-6h11l16 -7q5 12 9 13q7 -2 7 -8h9l6 4h7l5 -5q0 -4 -18 -4q-6 -13 -9 -13h-5q0 8 -4 8 h-2l-14 -4l-11 7l-16 -2l-23 31l5 7v2q0 3 -7 5l-2 2v4q18 11 18 14v6q-6 36 -20 36l-2 -2h-1l-9 9v2q3 7 9 7l10 -4q9 0 17 9v2q-11 12 -11 20l2 9l-20 14l16 18v4l-5 12l3 9q0 4 -14 15q7 11 12 11v14l-7 9l6 7v6l-9 1l-6 -5l-23 4q0 -6 -16 -6q-5 0 -17 18q-5 0 -16 13 l-2 2h-3l-16 -4l-11 4q0 -3 -13 -8l-11 2l-5 -2v-5l4 -5v-2q-1 -4 -27 -16v-2l3 -4v-7l-2 -2l2 -2v-1l-16 -15v-2l2 -12q-8 -4 -9 -7q0 -7 9 -17q-22 -19 -22 -25q6 0 6 -16q3 0 21 -23q0 -4 -5 -4v-11h12q9 -4 9 -14l-1 -9q10 0 16 -11l5 2l2 -2v-2l-4 -5v-6q0 -12 35 -21 q0 -31 25 -31q11 0 14 -3h2l2 5l-2 2v7q0 4 5 4q0 11 18 19l15 2l3 4l2 -2h2l5 5h2l4 -3v-4h-6l-1 2h-2l-7 -9v-7q10 -12 10 -20q-32 0 -32 -18q-25 -31 -36 -31q-7 0 -7 4l-2 -2h-13l-10 7l-2 -1h-4l-3 3l1 7q-20 0 -45 24h-3q0 7 -11 11q-2 9 -18 25l-20 29v21l-11 4l4 14 l-7 11v5l3 8l-5 23l11 14v2l-4 15l2 21l-2 6l18 16v16q1 15 29 49q0 8 18 25h4l5 -4q0 4 5 4v9q23 21 33 23q0 7 3 7l6 -3h7q9 3 25 20l4 -4l-6 -2v-2q5 -7 26 -16v-5l-2 -2q3 -8 12 -14h2l15 3l5 -3h4l3 3v4q-5 0 -5 3l3 4l2 -2q0 4 9 11q1 27 11 27v5q0 4 -13 8v3h-1l9 18 q-17 2 -17 7q0 4 13 6v3h2q-4 26 -25 54q9 13 36 20q0 11 19 11q8 0 24 20q20 0 29 14zM209 406h5v-4l-7 -4l-2 2v2zM194 398l2 -1v-2l-2 -2h-3v2zM392 373v-2l8 -1l1 1v2l-1 2h-2zM374 305v-6h-1l-4 4l2 2h3zM425 292v-2h5l6 2v4h-4zM65 254h21l4 -3l-4 -4h-10q-10 0 -11 6 v1zM304 182l4 -3l-2 -2h-5v2zM32 136v-2h9l-5 5zM500 116h2l4 -4l-6 -5h-1l-4 3zM450 109q9 -2 9 -11v-13l11 -7v-4q0 -4 -24 -9l-9 -12v-2l4 -5l-7 -6l-7 4q-11 -4 -11 -13l5 -23v-6l-3 -5v-3h5q11 -1 11 -6q0 -4 -9 -5l-13 4q-7 -15 -18 -22v-4q9 -1 9 -5v-5q-8 0 -25 -18 q-5 0 -5 -4v-4q0 -3 18 -3l1 -2v-2q-7 -7 -19 -7v-5l12 -6l13 2l2 -2q0 -3 9 -3l1 -2v-4h-7l-5 4h-4q-7 -7 -16 -9v-4q3 -11 13 -11h5q9 9 20 9q3 0 11 -14q10 5 34 5l3 -5v-4q-5 -9 -10 -9l1 -9l-7 -3q-6 0 -11 18l-7 5h-3l1 -9v-5l-3 -6q8 -2 12 -10q-5 -13 -18 -13l-23 2 l-7 -4q-23 10 -25 16l7 8l-2 5h-7q-10 0 -15 9v4l6 7q-2 7 -18 16l11 20l-13 11v3q2 6 11 6v-2q8 3 9 7v4l-11 16v2q11 10 13 23q27 6 27 11v7q0 10 -18 16l-2 2v1q0 6 34 15l5 7v4q0 4 -9 5l-5 -2l-2 2v2q36 11 36 18v2q-7 9 -7 16v2q9 25 31 25zM403 105h2l4 -4v-1l-6 -6 h-2l-1 2h-2q2 9 5 9zM389 103l7 -12l-5 -6h-2l-9 9v4q0 4 9 5zM367 82q11 0 16 -9q-4 -13 -14 -13q-8 0 -14 -5l-2 1v11q6 12 14 15zM238 33l1 -2h18v-2q0 -5 -7 -5l-14 2v3l2 2v2zM365 -136l2 -5h2v7l-2 -2h-2zM405 -141q0 -9 -4 -13l6 -3h11v1l-9 15h-4z" />
<glyph unicode="\" d="M14 749q9 0 39 -29q16 -34 27 -39l-3 -15q13 -4 14 -9v-9q4 0 13 -10q8 -33 12 -33q25 -38 36 -43l-2 -7q0 -7 13 -20v-16q1 -4 22 -18v-4l-2 -9q3 0 3 -5q13 -6 13 -25q26 -32 32 -33q6 -28 27 -48q0 -19 15 -26l-6 -5l9 -13l15 -7v-3l-2 -2q3 -9 14 -20v-2l-1 -2 q16 -18 19 -30v-2l6 2h2q0 -17 12 -27q4 -11 7 -11q6 -14 15 -14q0 -21 16 -35v-1l-2 -2l9 -11q24 -8 24 -22q20 -33 32 -64l14 -8l2 -1l-2 -8q0 -7 9 -7q3 -12 9 -12q12 0 17 -17l-4 -10l13 -23q16 -10 16 -15v-2l-2 -1l2 -2v-4l-2 -2q11 0 25 -25l-6 -47v-1l8 -11v-4 q-16 -29 -18 -29h-16l-9 8q-12 0 -27 19l3 8v3q0 4 -14 11h-5l-6 -4l-5 4l2 9q-15 22 -15 27v2l2 2q-14 15 -16 25q-18 9 -22 29v1l2 2v2l-2 1v2l2 2q-3 0 -11 14q-11 10 -11 15v2l2 1q-23 30 -23 35l3 3l-9 11q-21 35 -34 38v3l4 6v3q-19 13 -27 24q-5 18 -9 18 q0 23 -18 47q-16 6 -16 12l-17 9l4 15q0 16 -13 21l-7 -2h-3v4q5 0 5 4l5 -2h2l-2 2l2 5q0 3 -21 20v5l5 7v6q-25 9 -25 21l3 8v5l-3 5l-2 -1l-5 5v13q-6 25 -18 25l-29 30q0 4 9 6v3l-18 20v2l9 11h-2q0 9 -5 9q-26 5 -27 14l3 4q-14 15 -18 36q-5 0 -5 5q-22 15 -22 31 q-9 2 -20 11l2 9l-12 14q-7 14 -15 20v11l2 1h-2v4q-9 0 -9 4h-2l-1 -2l-4 3v4l2 2l9 -2v5q0 10 -15 13q-3 13 -10 13v3l1 2l2 -2h2l2 2q0 10 -6 18v4q18 30 35 30zM91 501h-4v3h4v-3z" />
<glyph unicode="]" d="M131 550q7 -10 27 -14v-2l-1 -2v-2q0 -6 12 -18v-5l-5 -5h-2l-2 1l-5 -1v-6l20 -14q0 -6 -24 -7v-9q6 0 16 -11q8 0 8 -4v-3l-4 -6v-2l4 -7l1 2h4l9 -7l2 2h9q14 -13 21 -13l9 2l2 -2v-5l-2 -2v-2q4 0 6 -11l2 -2l-2 -1q-20 -7 -20 -18q0 -17 -7 -17q-14 6 -24 6 q-1 -6 -10 -6h-17q0 -5 -5 -5l-2 -2v-21l-3 -6q5 -16 10 -16v-2q0 -5 -7 -5v-4h4v-3l-2 1h-2l-3 -18l1 -1h8l18 28q16 0 16 6l-2 7q1 8 29 18l2 -2v15h7q12 0 12 19l2 2h7l13 -3l2 1v9q-7 0 -11 8q17 13 43 21q6 20 18 20q22 -3 22 -11q3 -12 32 -12l13 -11l-4 -6v-7 q33 -8 33 -29q18 -11 18 -14q0 -10 16 -13l2 -1v-26l-2 -10l2 -6q-13 -3 -17 -11v-5l6 -7l-4 -4h-3l-11 9h-2l-5 -3h-13v-8l11 -3q0 -6 -15 -7q0 -3 -23 -11h-11v-2q0 -5 11 -9l16 4l4 -4v-4l-16 -14l3 -5l6 1q15 -7 32 -7q7 -19 25 -27l4 -5l-2 -7q7 0 18 -18q0 -5 -13 -13 v-2q0 -4 9 -5l8 2q10 -5 10 -13l-5 -14q11 -13 18 -36v-8l-25 -19v-6q0 -9 16 -14l11 -18v-3l-11 -9v-2l2 -2v-2q-1 -12 -9 -25l3 -7l-1 -20v-5q-2 -6 -15 -6l-3 -5l3 -6v-7q-3 -7 -11 -7v-11l-19 -25q-15 -2 -15 -16l-39 -24l-29 -9l-9 2l-15 -2q-12 0 -27 11l-12 -3 l-61 37l-20 35l2 18q-6 1 -6 10v2q6 7 6 16v4l-4 16q0 8 27 20q0 19 49 23l1 2l4 -3v-2l-2 -6q15 -10 20 -10l5 1l11 -1l15 3l1 -2v-14q-4 -8 -9 -9l18 -25q0 -18 -36 -18l-7 2l-5 -2v-2q1 -5 20 -13q2 -14 25 -14q8 0 16 5h4q9 0 9 -3q10 3 10 14l9 -2q4 0 4 6l2 2h3l8 -6 q6 0 10 18q8 0 8 15q6 9 12 9l-2 1v2l9 6v7l-12 11v3q0 4 16 13l2 2v1l-11 15v5q7 0 14 12l-16 15q0 3 11 5v11l-7 9l5 7q0 4 -18 6l-2 1v2l11 13v7q0 4 -5 4v3h5v2l-3 4l-29 -13q-20 1 -20 13q3 3 27 5v5l-18 11q-5 18 -31 18l-5 -2q-16 4 -22 9h-3q-8 -7 -13 -7l-20 2 l-18 -13l-5 -5l2 -9v-2q0 -3 -18 -5v-2q0 -7 7 -14q-9 -10 -9 -17v-9l4 -3l5 3l5 -5q-4 -4 -18 -5l-14 1h-2q0 -5 -9 -16l2 -2v-1q-4 -11 -13 -11l-1 2h-2q-7 0 -9 -15q-24 -10 -43 -10l-8 3l-5 -2q-17 11 -29 31l-7 3l-2 -1h-2q-16 0 -25 28q-13 0 -21 11l1 2l-1 2v3 q0 15 10 18l6 27l-6 9v4l11 11q-4 36 -14 36l-2 2v1l16 24v3l-3 15l1 9l-1 7l9 18q0 7 -13 20v2q7 9 7 16v3q-11 0 -11 4l6 4h9l2 9q-10 19 -24 19q-7 8 -41 17q-11 5 -11 9l5 7v11l-3 5v4q23 21 47 21l10 4q18 4 18 18v2l-3 16q20 11 20 21l-8 11l8 9l-9 7v11q28 15 28 29 q6 0 6 5l2 2h1zM189 516l2 -2v-2l-2 -1h-2l-2 1v2l2 2h2zM292 334v-3h9v1l-2 2v2zM436 336h3v-2h-3v2zM259 300l4 -4l-2 -1v-2l2 -2l-22 -14q-16 0 -21 -13v-4q9 -1 9 -5v-4l-4 -3h-2q-9 0 -16 5h-2q0 -7 -18 -12l-5 -11l9 -4v-3q-1 -6 -15 -6h-1l-6 4h-3q-5 0 -9 -33 l-15 -3v-7l-2 -11q8 -25 18 -25v-6l-10 -9l-2 2h-2l-4 -11l2 -2h4q0 6 3 6q4 0 9 -11q11 0 17 -18q7 0 7 -13l12 2h11v9q-9 0 -16 9v4l4 3h12q18 0 27 22v4q-6 0 -7 14q4 11 7 11l11 -2l7 5v2l-2 13q19 12 26 27l37 21l-5 8q5 10 20 10q16 13 23 13v9l7 7q2 11 8 11v7 l-24 25h-7q-6 0 -13 -5l-14 5h-5q-29 -10 -40 -10l-2 -2v-2zM353 259v-2l5 -6h4v4l-4 4h-5zM373 253v-3l9 1v2h-9zM283 201l-4 -7v-2h2q0 7 9 7v2h-7zM308 192v-7l3 3v4h-3zM412 152v-1h7l2 5h-5z" />
<glyph unicode="^" d="M403 479q0 -6 -6 -12.5t-12 -11.5q-4 0 -11.5 -2.5t-11.5 -2.5q-4 9 -6 11t-12 4v0q0 7 -7.5 7t-8.5 4l4 5v0q0 7 -16.5 25.5t-23.5 20.5q1 3 1 6q0 7 -8.5 14t-10.5 11q1 2 1 4q0 6 -10.5 19t-10.5 18h-5q0 -4 -14 -12.5t-14 -13.5q0 -2 1 -3q-2 -4 -10.5 -11.5 t-8.5 -13.5q0 -3 1 -6q-7 -2 -23.5 -20t-16.5 -26v0l4 -5q-1 -3 -8.5 -4t-7.5 -7q-10 -2 -12 -4t-7 -11q-4 0 -10.5 2.5t-9.5 2.5h-2q-6 5 -12 11.5t-6 12.5q0 7 4.5 20.5t4.5 20.5v4q1 2 9 2.5t8 3.5t-4 7t-4 7h1q1 0 5 -1t6 -1q3 0 5 2q-2 6 -2 10l3 6q12 0 14 8t3 8 q2 0 4 -1l9 2q0 3 3 7.5t3 6.5t-1 4q8 0 17 7l-2 5q6 0 12.5 5.5t10.5 6.5l13 -7l-3 10q7 1 9 16q6 5 13 10t14 5q3 0 7.5 -2.5t6.5 -2.5q3 0 5 2l16 -25l-3 -2l17 2q1 -2 1 -4t-2.5 -6.5t-2.5 -6.5l1 -1q5 0 11 -6t11 -6h1l-2 -5q1 -4 8 -5.5t9 -2.5q-1 -2 -1 -4 q0 -3 2.5 -6.5t3.5 -6.5l9 -2q2 1 4 1t3 -8.5t9 -8.5q2 0 5 1q3 -2 3 -6q0 -1 -2 -10q1 -2 4 -2h3q3 1 4 1h1l5 1q0 -2 -4 -6.5t-4 -7.5q0 -2 6 -3.5t11 -2.5q0 -2 -1 -5v-6t5 -14.5t5 -19.5z" />
<glyph unicode="_" d="M41 -81l10 -4h12v-5l30 2l17 -6q6 0 15 9h10q29 0 55 -14l24 -6h2q0 6 9 9l10 -1l5 3h9l5 -3h1l19 9h2l10 -4l29 5l7 -3l16 3q3 0 19 -14l8 -2l19 7q8 -3 9 -7l5 2q37 0 48 -14h10q0 7 7 10q15 -3 24 -10h7l5 3h2q29 -4 29 -16q0 -13 7 -13h1q0 -11 -8 -30l2 -7 q0 -6 -7 -6q0 -12 -11 -12q-1 -6 -10 -6l-12 6h-7l-5 -4l-17 13h-5q-20 -8 -31 -8l-2 -1l-13 5l-25 -9h-5l-13 4h-9q-6 -6 -15 -6l-24 7l-35 -3q-13 0 -24 9h-1l-6 -4h-13l-17 -2l-6 13h-10l-31 -14q-7 0 -17 7q-6 -6 -15 -6h-4v6h-12q0 -6 -3 -6l-10 2l-19 -9h-4l-5 4h-15 q-7 5 -12 5q-6 0 -12 -7l-14 5l-17 -1l-19 10l-20 27l-4 4l4 9l-2 13l9 37l15 11z" />
<glyph unicode="`" d="M408 508q0 -4 -7 -8.5t-8 -8.5q-9 -5 -9 -19v-6q0 -6 -1 -10q-3 3 -6 3q-4 0 -11 -3t-10 -3q-8 0 -10 12q-4 0 -12.5 4.5t-12.5 4.5q-6 0 -10 -6q-7 0 -21.5 8.5t-21.5 8.5q-8 0 -15 -7q-2 3 -39.5 22.5t-40.5 19.5q-8 0 -15 -5l-6 -10q-7 0 -10.5 10.5t-9.5 10.5 q-3 0 -6 -1q-9 15 -13 17q-11 1 -21 3q-4 5 -4 16v5.5v4.5q0 8 -1 12q7 15 14 29t27 14q4 0 10 3.5t10 3.5q3 0 9 -3.5t10 -3.5q1 0 4.5 1.5t4.5 1.5q5 8 14 8q5 0 8.5 -12.5t8.5 -12.5q3 0 9 6q1 16 10 17q1 -1 1 -5v-2.5v-2.5q1 -1 2 -8.5t7 -8.5q14 8 21 8q2 0 4 -1 q7 -18 10 -18l6 1.5t13 1.5t7 -9.5t8 -13.5h4q3 0 8 -1t7 -1q6 0 12 4q2 -2 7.5 -12t12.5 -10h1l6 6q2 -8 17.5 -16t15.5 -13q0 -4 -2.5 -10t-2.5 -9q0 -5 6 -9q4 4 7 4z" />
<glyph unicode="a" d="M311 424h6q9 -4 9 -15h16q4 0 4 -9q4 0 19 -21q8 0 11 -9l22 -11v-2h-6v-2l2 -2v-1l2 1h7l7 -1l8 1l10 -25q-2 -14 -10 -14v-2q1 -18 14 -18v-4q-14 -11 -14 -19l5 -6v-5q-9 -11 -9 -16l5 -15v-3l-5 -9l2 -17l-2 -7q0 -5 13 -11v-5q0 -6 -9 -16v-2l7 -16l-2 -7 q24 -15 31 -15h5l7 2l2 -2v-2q0 -3 -5 -3l9 -13v-3h-6v-4q0 -4 6 -4v-5l-4 -5v-8q7 0 7 -5q-4 0 -34 -40q-2 -27 -22 -27h-3q-6 7 -33 15q-14 29 -28 29q0 9 -13 19l5 8l-7 23q-7 -14 -23 -14q-11 -2 -11 -11l2 -13h-2q-8 0 -27 -32q-9 0 -25 -25l-22 -4q-33 7 -74 27 q-14 7 -14 14q-32 14 -32 17q-9 9 -9 16q-6 0 -33 50q-4 0 -9 24l-7 14v2l14 14l-7 20l9 11v9l-5 11l12 9v10q-7 0 -7 6v3q0 3 24 17q0 20 27 36q8 18 18 21q30 10 30 16l2 2l-2 2v4q4 0 4 5l38 9q0 9 37 20q7 0 20 16q15 12 40 18zM243 321l2 -9q-5 -5 -31 -14l-2 -2 q-6 0 -9 -20l-19 -11l-8 2q-10 -4 -10 -7v-4l1 -7l-7 -13l-9 2h-3v-5l12 -13q-3 -8 -7 -9l7 -11v-3l-7 -22l7 -5q2 5 11 5h2l7 -5l-2 -9l4 -9l-2 -6h2l2 -1l1 1h11q0 -7 9 -7q3 -8 16 -12q0 -22 13 -22l2 -2l7 2q0 10 45 22q0 6 32 18v-8h2q15 6 15 17q7 1 7 9l-4 3 q1 12 7 18l-3 15l5 10q-3 17 -11 17l4 10q5 0 5 4l-5 9l4 11v14q0 13 -13 13l-13 -4h-3l-15 11l2 2q-8 9 -32 12q-9 20 -20 20q-8 -3 -9 -7zM131 233v-4l9 -2l2 2v2q0 4 -5 4zM349 181v-2q1 -9 4 -9l5 2v5zM88 161q0 -4 15 -6l-2 6h-13zM445 116v-2l5 -2l5 2v2h-10zM439 82 l4 -4l3 4v3h-3z" />
<glyph unicode="b" d="M217 618q12 -4 14 -10v-8q-18 -28 -29 -28l-11 1q-1 -7 -9 -12q-8 -21 -16 -29l2 -9q-1 -14 -4 -14l2 -2v-4l-7 -27v-2l5 -12q-3 -1 -7 -9l6 -11v-14l-4 -6v-9l2 -2l16 -5v-2q0 -4 -22 -7q2 -8 11 -16q0 -11 -7 -18v-6l23 -21q6 0 20 9q13 0 13 11q7 0 45 25q0 13 18 16 q0 11 18 18l14 -5l6 5h1l-3 13q7 7 14 7h2q29 -23 50 -31l18 -18q0 -7 17 -14l1 -6l-1 -12q23 -25 23 -31q14 -26 22 -34l-2 -2l2 -2l-2 -12v-6q8 0 12 -7v-2l-12 -14v-9q5 0 5 -4v-1q0 -7 -9 -17v-3q0 -5 15 -9v-6l-8 -5l-5 5h-7l-2 -5l2 -2v-18q0 -12 -11 -18 q-8 -10 -13 -27q-8 -6 -27 -12q-18 -20 -18 -29q-6 -6 -23 -13l-9 -7l2 -2l-20 -12h-4l-5 3l-20 -12l-5 1q0 -4 -20 -9l-2 2l-59 -32l-15 2q-12 -9 -32 -9q-34 16 -34 27q0 13 -20 18q-16 6 -27 23q-9 0 -16 11v2l3 5l-3 11v3l3 11l-1 11l3 4v14l9 20v2l-5 14v5l5 8l-2 12 v13l2 11l-2 1v2l2 11q-1 19 -5 23l11 11l-6 18q11 15 11 22l-11 14l2 13l-4 3v6l11 39v4l-11 13v3q0 4 11 7v8l-3 14v14q-6 0 -6 4v2l9 7q0 5 6 11v5l-13 25l-18 31q-8 0 -9 16q8 1 20 16q10 0 20 11l9 -2h1q5 5 26 8q7 9 23 9l2 5l11 -5l7 1l-2 2v6h2l20 -4q14 23 18 23z M305 361v-5l18 -2h5v5q-2 7 -16 7h-2zM294 354q-8 -22 -22 -22q-1 -3 -27 -11l-5 -7l4 -5v-4l-6 -5l-7 2l-11 -8q0 5 -7 6l-27 -15q-17 0 -20 -12l6 -13q-15 -13 -15 -21l4 -24l-2 -2h-2q11 -11 11 -18q-11 -7 -11 -19l6 -15l-2 -5h2l10 -9v-7q-14 -11 -14 -20 q15 -11 18 -22q6 0 16 -16h7q13 0 17 13q9 0 21 9l40 -8q7 0 21 22l9 2l20 -2q10 25 29 25q0 4 7 4v14q0 3 20 13l-2 2v3l2 2l-2 2v3q0 4 9 4l2 2v7l-9 11q0 5 16 5l7 7h2l-7 22l7 20l-3 3q-3 -7 -17 -7q-11 5 -12 9v2q20 12 20 14v6q-14 12 -18 23q-14 5 -15 9v2l4 14v6h-4 v2l-2 -2h-7l-14 3l-31 -9q-10 0 -11 15h-5z" />
<glyph unicode="c" d="M261 439l17 -2l9 2q0 -5 14 -8h22q14 -18 27 -18q10 -1 10 -3l2 2h9l22 -8v2q0 7 23 22h9l7 -4l2 2h2q13 -6 22 -16v-6q0 -9 -18 -19q-6 -5 -11 -29h-2v2l-18 -9v-13q0 -4 -20 -5q-19 -22 -32 -22h-16q-10 0 -18 14q-36 3 -36 15q0 11 -18 21q0 6 -9 6h-4l2 -7 q-3 -11 -29 -11q0 -10 -22 -13q0 -14 -46 -25v-4l3 -5v-11q-18 -12 -32 -12v-2l3 -6v-10l-3 -6q9 -9 9 -23h-2l-2 -6h-2l6 -14l-2 -2v-2q8 -12 11 -28q5 -6 11 -6l7 2v-4q0 -3 -7 -3v-11q13 -15 23 -34l25 -13l15 9h3v-2q0 -3 -7 -3l-2 -2v-2q8 -12 20 -12h20l5 -4h9l6 4h5 l5 -6l-5 -7l11 -5l2 7l-2 5h2l32 13q0 16 27 20q0 4 14 12q0 17 24 22q0 3 23 12h13q11 -11 11 -19v-2l-2 -2l2 -2v-12q-9 -5 -9 -20q0 -7 -8 -7h-3l-6 1v-1q-4 -22 -10 -22h-4q0 -8 -31 -18q-3 -16 -14 -27q-16 -8 -23 -20q-15 -10 -44 -21l-10 5l-9 -5h-6l-9 5l-11 -2 l-1 2l-2 -2h-7q-34 16 -53 16l-27 27q-10 0 -23 18q-11 6 -22 24q-4 0 -18 18q-8 2 -18 36q5 0 6 16l-18 23l5 26q-3 8 -7 9l7 19l-2 11v2q9 6 9 25q13 11 13 29l20 32q3 0 7 9h4q0 6 12 6q21 25 40 25l18 22q10 10 29 14q8 7 9 13l28 14z" />
<glyph unicode="d" d="M182 609q20 -4 20 -18q-13 -16 -23 -16q-6 0 -6 5l-2 2h-3l-4 -4v-1q0 -6 11 -6q18 -18 22 -45l12 -11l2 2h2q11 -2 11 -5v-11l-2 -2q0 -11 27 -11q5 -4 5 -16q13 -6 33 -9l3 -5v-9l34 -18q6 -6 8 -16q24 -27 30 -27l6 1l1 -1v-2l-1 -15q10 0 21 -18q13 -7 13 -16 q18 0 20 -18l5 -5v-11l-2 -2l15 -20q0 -5 -8 -16l9 -7q-1 -11 -7 -18q6 0 9 -22v-10q7 -1 7 -6q-16 -8 -23 -18v-2q4 -4 5 -23l-10 -9q0 -8 12 -11v-3q0 -4 -21 -11v-4q1 -7 10 -7v-7l-28 -20q0 -17 -24 -27h-5l-2 2l-13 -7h-1l-22 1v-9l4 -12l-2 -2h-2l-2 2h-2 q-6 0 -39 -25q-11 -7 -45 -14q-14 9 -65 26q0 12 -29 22q-15 26 -32 32q-7 24 -16 24q-10 8 -27 64q-6 1 -11 18l5 15v5l-7 9v7q7 8 7 15l-2 7q1 8 11 16v11q8 0 16 49q8 0 8 12q16 7 23 18l-2 2v5q9 13 24 13l10 -2l4 7l-4 11v2q0 3 29 20l20 18v3q-23 5 -23 11l1 2v2 l-9 11q-3 0 -3 5q-15 0 -15 16q0 4 -19 20l-2 7l3 4v3l-7 9v11l4 13l-9 18l30 30l-1 2v2l3 4v-2l2 2h11q0 4 14 14zM254 384q0 -8 -7 -14h-7l-9 7q-7 0 -34 -15l3 -10q-7 -9 -21 -9h-4q0 -8 -5 -8l1 -1v-2q0 -10 -34 -16l-3 -11l3 -13q0 -8 -12 -14l1 -7h8q0 5 3 5h2 q4 0 4 -5q9 -1 9 -6l-2 -2h-4l-9 2q-3 -7 -11 -7v-2l11 -20l9 2h4l3 -3q-3 -8 -12 -8l-4 4l-7 -2v-9l9 -2v2l4 4l14 -15q0 -4 -20 -10l-2 -9q11 -3 11 -9l-2 -15l2 -2l2 2h2q7 -7 20 -7l5 -5v-2l-7 -6l-2 -1v-6q13 0 29 -16q3 -23 14 -23l18 3q7 0 11 -7l-7 -7l-6 2v-8 q0 -3 13 -7l9 4l16 -2l18 2l9 -4l7 6l8 -2q15 0 19 27q25 0 29 18q0 15 38 27v7l-2 -2h-2q-10 4 -10 15l5 3h13v9l-11 11v4l11 10v2q0 5 -15 7l-2 2v11l6 11q0 4 -11 9l-11 32q0 12 -27 18l-3 7l3 4v4q0 12 -14 19h-9l-6 -3q-10 12 -12 23l-7 4l-15 -6h-2q8 8 8 17h-2 q-11 0 -16 14h-6zM431 211v-3l5 -2l2 2v3l-4 4zM148 181l11 -2v-6h-7l-4 4v4z" />
<glyph unicode="e" d="M310 459h1l24 -21q0 -14 20 -18q0 -5 19 -18q0 -4 9 -11l2 2h7l29 -31l7 -11v-1l-5 -8q0 -3 9 -3q0 -3 22 -13v-2q-9 -10 -13 -10v-4q25 -3 27 -11v-3q0 -4 -20 -4v-2q6 0 6 -3l-2 -2l2 -2v-9q-13 -16 -18 -16l-2 2h-2q-10 -4 -22 -13q-14 0 -27 7q-18 -6 -18 -11l2 -1 v-2q-16 -7 -16 -11l-9 2l-4 -4l-1 2h-4q-12 0 -14 -16l-2 -2l3 -4q0 -3 -19 -12q0 -9 -8 -9l-18 5h-5q-16 -8 -16 -12l14 -13v-5q-6 0 -23 -13l-11 7h-4l2 -2v-3h-7l-11 2l-5 -2v-4q7 -23 23 -32q0 -13 42 -16q8 9 14 9q16 0 29 -13h2q32 32 32 40q5 0 18 18l14 3l18 -5 l15 3l3 -5q-5 -7 -5 -13q0 -7 9 -9v-7l-14 -14v-6q7 0 10 -7q-12 -12 -18 -12l-10 1q-11 -3 -11 -14q8 -4 9 -7l-6 -4h-12l-15 -3h-7l-2 1q-3 0 -14 -18l7 -7v-3q-12 -20 -41 -20l-9 -9h-6q-11 0 -19 9l-15 -2l-14 7l-20 -2q-4 4 -4 13l-46 29q-16 15 -44 27q-7 1 -23 29 q-2 25 -22 25l-1 2v5l7 9v4l-7 18l5 9l-5 12v22l-4 5v13l7 12v6l-3 5v2l14 23l-5 6l18 18l-8 14q22 7 22 13q12 15 16 29q29 13 29 28q21 11 27 11h13q3 0 3 16l22 17h5l25 -8h2q1 15 4 15l-2 2v7l11 -2q31 7 38 14zM281 357h-4l-11 3l-1 -1l-8 7q-9 0 -19 -18l1 -2v-2 q-6 -12 -14 -12v1l-11 -5h-3v4h-2q-20 -5 -20 -9v-8l18 6v-4q-8 -14 -11 -14l-5 3h-9l-11 -12v-2l4 -5v-4q0 -4 -24 -9h-3l-2 2l-6 -2v-7h8v-13q0 -3 -6 -3l-2 -2v-4q11 -8 11 -16v-4q-11 -6 -11 -16l17 -14v-7h7q0 10 3 10l-1 2v4q0 8 30 11l24 -2h3q8 0 13 9q11 0 23 14 q16 9 22 9v11l-13 5l-2 -1h-1l-4 3v2l2 2v2l9 -2h2q15 0 27 9v3q-9 2 -9 6q0 10 39 11v-2q11 0 16 9v2q-5 0 -18 19l-12 8l-2 -2h-2q-8 0 -18 11v5q11 10 11 14l-11 13q-3 0 -14 -16zM311 278h6l3 3v9h-3q-3 0 -6 -12zM432 281l-2 -2v-1l4 -4h7v5z" />
<glyph unicode="f" d="M282 637q2 -9 5 -9h4l14 4q36 -12 36 -18l-7 -11l7 -9l13 2l14 -2q18 2 18 12l-5 6q2 7 7 7l11 -5q8 0 11 14h30q20 -11 20 -14l-12 -17l5 -9q0 -12 -20 -16q0 -9 -18 -9q-14 -23 -14 -30q-6 -8 -24 -8q0 -10 -25 -18h-11q-15 0 -23 13q0 4 -9 7l-5 13l-13 -2q-7 2 -7 7 l2 13q-12 5 -29 5q0 -4 -20 -9v-2q13 -7 13 -10v-6q0 -3 -9 -3q0 -3 -24 -6l-2 -2l-10 2l-6 -2v-5q0 -6 6 -13v-3q-3 -7 -11 -7v-6q0 -6 21 -11q8 -21 24 -21q9 0 12 16h4q12 0 18 -7l9 2h7l4 -4l-4 -5l7 -2l2 2v1l-2 8l9 5q11 -1 11 -5v-4l-5 -7v-7h11q10 0 21 10h2 q12 -3 32 -16q9 0 9 -5v-15q14 0 17 -25l-6 -18q-8 0 -12 -3h-9l-6 3h-11q-18 -3 -18 -7v-4h-3l-4 4l4 4q-7 0 -7 7h-11q0 -8 -16 -25l-9 -26q0 -4 9 -14v-2q0 -3 -6 -3v-26q4 -3 4 -16l11 -12v-2l-15 -13v-7l4 -5q-6 -2 -6 -11q1 -13 6 -20v-4l-4 -5v-4l2 -16l-5 -23l1 -6 h-7l2 -18l-2 -1v-2l4 -18l-7 -11l1 -2v-5l-3 -6q4 0 7 -14v-38l4 -5l-6 -7q0 -4 18 -20l-16 -20v-3l7 -11l-2 -11v-5q11 -2 11 -6l-16 -19l13 -27q16 0 16 -6q0 -5 -22 -11l-14 -12v-4q5 -9 16 -9v-2l-18 -12q0 -7 -11 -15h-5q-34 23 -34 31q0 11 -6 25v13l-11 12l11 17 q-1 10 -5 16v3l7 40l-5 9q0 12 9 12v11q-6 0 -6 4v12q15 22 15 34q0 5 -17 17q4 15 11 27l-2 5l2 7l-11 25q0 8 18 13v11l-5 14l2 16v8h-4v3l-2 22q6 0 9 21l-9 17v1q0 9 6 9v22q-7 11 -13 11v16l2 7l-9 11l2 9q-3 0 -13 14q-6 0 -12 6h-11q-6 -6 -34 -6l-8 8l-27 -8h-5 q-9 8 -22 11q-5 9 -5 18l14 18l2 -2l9 4v2q-16 0 -16 3q0 4 22 6l12 14v4l-2 9l9 5v6q-7 9 -7 16q10 0 13 25l12 13l-1 16q10 7 10 18q0 12 17 18v3q5 0 7 9q30 11 30 15l4 3l-2 2v4l7 7h6l7 -5h4q0 10 16 14q8 9 25 9zM142 462v-3h7v3h-7zM268 453l3 -3h4l5 5l-3 4h-4z M233 291h4v-3h-4v3z" />
<glyph unicode="g" d="M292 446q34 -13 34 -34l-1 -2l12 2h2q9 0 18 -5l7 2l25 -11l-1 -2v-2l1 -5l-1 -2q15 0 25 -20q-11 -33 -15 -34l-3 -4v-9l12 -18l-5 -5l-2 2h-2l-10 -15q3 -4 3 -18l16 -10v-6q-16 -21 -16 -47q7 -3 9 -10l-5 -18l2 -6l-9 -16q1 -9 19 -16v-7l-3 -6v-5q0 -4 20 -4l3 -5 v-9l-2 -13q14 -5 40 -43q5 0 9 -7l-11 -4q7 -16 13 -16v-5l-11 -4q13 -18 13 -23v-2l-6 -5h-11l-1 -9v-2l5 -7v-4l-4 -3q-4 5 -10 5v2l-6 -2l9 -25v-4q-4 -5 -27 -12l-11 -17v-5l4 -5v-6q-8 -16 -16 -16l-4 5l-25 -14q-8 -10 -20 -14q-47 3 -57 7l-11 -7l-11 3l-14 -3h-17 l-5 -4h-4q-7 7 -14 7h-5l-27 -9h-15q-6 6 -12 6h-8q-9 0 -9 -6h-7q-32 14 -32 27l2 2q-13 4 -13 7v6q12 39 34 39q18 4 36 13l6 -2l18 5h7q15 -5 18 -10q6 -8 27 -8h7l14 4l17 -5q9 0 9 3l-2 6l5 1l15 -5h18l10 7h13q56 10 56 29l25 16v6q-11 10 -11 24q-5 0 -11 9v4l2 2 q-7 23 -16 23q-10 8 -14 20q-7 0 -27 18l-38 13l2 -2v-2q0 -5 -18 -7l-2 2q-4 -11 -9 -11v-6l3 -5v-2l-14 -14q-7 -16 -11 -16l-2 7h-5l-18 -18h-18l-23 -9q-7 5 -24 7q0 18 -16 18l-11 2q-21 22 -50 32q0 14 -24 31q-9 0 -9 12v13q-11 9 -16 34l-7 11v4l7 10v9q1 18 4 18 l-7 24q5 8 7 25l5 7v22q18 38 24 43q12 4 25 20q0 6 11 11l5 -2l22 9l1 -2q22 16 22 20q6 0 27 18l25 -2l27 18q18 0 31 16zM240 373l-2 1q0 -8 -39 -23v-2l1 -2v-1q-4 -6 -23 -8l-4 -3q-12 0 -12 3q-6 -1 -11 -10v-2l4 -6l-17 -18l-1 2l-18 -7v-16q0 -5 -18 -9 q-2 -9 -9 -16v-2h10q0 11 26 11l3 -6v-3q-4 0 -5 -8q-27 0 -27 -14l2 -13q-15 -6 -15 -12q13 -8 13 -11q0 -5 -7 -5q19 -20 23 -20v-9l-2 -2v-2l2 -2h2l12 2l22 -20v-10q9 0 32 -22l2 2h2q34 -7 34 -24l11 -5h2q8 0 38 20l9 9h14v2l-7 7q11 31 20 34q0 7 10 7h9v9l2 7l-3 13 q0 5 9 13l1 7v11q0 27 -23 27v3q23 0 23 15l-5 7l2 12l-18 18v2l3 4l17 -2v2l5 7v25q-5 13 -14 13l-2 2l-2 -2h-2q-5 0 -11 20l-12 10q-7 0 -20 17q-7 -6 -25 -8q-7 -6 -7 -18l-2 -1h-2zM271 389h5l4 -4q-2 -5 -11 -5l-2 2v3zM404 286h5q11 -1 11 -5q0 -5 -16 -7l-6 7z M112 209l7 -4l2 2l2 -2v-5q-3 -7 -13 -7h-3l-4 3q2 13 9 13zM339 -86l2 -2h5l2 2h2l-2 7h-2z" />
<glyph unicode="h" d="M236 620h7l27 -29q-6 -12 -22 -18q0 -5 -5 -5l-20 5q-11 -1 -11 -5q0 -3 13 -6v-1l-4 -4l-2 2l-34 -11l-2 -5l8 -8v-1l-18 -24l1 -2v-10q-5 -9 -10 -9v-11q17 -7 23 -15l-11 -5v-2l2 -9q-18 -9 -18 -14l4 -11l-4 -5v-6q10 0 11 -14l11 -4v-3q-15 -3 -15 -11l-2 -2h-1 q4 -29 19 -29q9 4 9 11q8 0 8 7q6 13 16 13h2l5 -4q7 0 18 11l14 -4l4 6v11l-4 5v2q0 4 15 9v-2q24 13 36 29h5l9 -2l11 2h5q10 -5 27 -27l2 2h2l16 -9q26 -47 38 -56l-5 -33l3 -12h2l2 2h2q18 -37 27 -42v-5l-4 -6v-19l-7 -11v-6q0 -6 5 -12q-7 -13 -14 -13v-2l3 -19 q0 -8 -14 -8l4 -5v-5l-8 -8h-1l-6 4v-5q8 0 9 -13l-2 -2l2 -9v-5q0 -17 -14 -24l2 -5q0 -3 -15 -16l-2 -2v-2l6 -9v-7q-16 -11 -16 -23l5 -6v-2l-2 -1q0 -4 -11 -4l-1 -7l3 -11q-30 -32 -30 -48l9 -9v-2l-17 -14v-2q0 -7 26 -29q0 -9 9 -9l27 -5h12l-2 9v1q2 6 11 6 q13 0 13 -11h9l25 -23v-2l-9 -9l-2 2h-2q-16 -15 -18 -33q0 -6 -63 -11q0 4 -9 6l-16 -2q-14 0 -21 20q-14 0 -22 47q-7 0 -7 23l-6 5v6q4 7 15 7l2 2v2q0 9 -6 16l7 12l-10 13v4l23 14l-7 18v1l16 20l-2 9l16 7q0 10 -9 20v2q0 4 9 4l6 5l-2 13v10l7 8l2 -2q7 2 18 12l7 9 q0 17 -14 17l-6 7v3q0 5 24 9l2 2q10 0 12 22q3 0 6 7l-2 2q7 2 7 16v9l-4 5l-1 -1h-2l-6 5v4l2 1q-2 21 -9 29q3 0 11 13v2q0 2 -18 12q0 16 -9 16l-9 -1q0 2 -14 10v6l7 9v2q-1 5 -36 16l-22 14l-27 -11q-3 -18 -7 -18l-18 2q0 -4 -16 -12q0 -12 -33 -31l-12 -2l-2 2 q-7 -18 -20 -18q-9 -1 -9 -5l4 -13q-2 -7 -7 -7v-7l7 -8h2l5 4h2l7 -7v-4q0 -3 -9 -5q-11 1 -11 3q-11 -1 -14 -7l3 -11l2 2h2q7 -4 7 -9l-5 -18l5 -12l-3 -4l-9 2l-8 -2v-2q0 -3 17 -3l5 -9v-9l-2 -2l2 -2v-5q0 -4 -5 -4v-9l3 -4h6l14 4l7 -5v-8q0 -3 -5 -3l-2 -2v-7h2 l14 3l7 -3l31 11q11 27 40 39l1 2l-1 2v5l1 2v2q27 -2 27 -9v-6l-1 -10l5 -9v-2q-5 -9 -14 -9l-2 -9v-6q7 0 7 -5v-4q0 -3 -13 -7l-1 2v2l3 3v6l-9 2q-22 -31 -32 -40q11 -2 11 -5q-7 -6 -17 -6l-12 2l-9 -18l2 -2l-2 -2l-2 2h-2l-23 -12l-16 -11h-8q-43 31 -68 38l-23 21 q-8 0 -13 27q7 0 14 34q4 0 6 20l2 2v7l-4 6v10l4 20v11q0 4 5 4v16q-7 0 -7 7q11 4 11 7v2l-4 13l2 18l-11 7v7q4 7 9 7v2q0 6 -5 13v10l5 13l-4 13l6 5v4q-4 3 -7 27l7 10l-4 11q12 6 13 11v5q-11 0 -20 24l2 7l-4 9q11 4 11 7l-2 7l4 9l-4 11v6l4 5v2l-4 3l-5 -5l-6 7 l2 13v5q-12 9 -12 27q14 7 14 15l13 9h5q12 -9 18 -9q5 0 7 9l-2 5q0 11 27 13q0 5 27 5v-2l2 2h2l2 -2h2l1 2l-1 2v5l5 6l4 -4h1q5 14 18 14q4 0 4 -5q12 0 22 9z" />
<glyph unicode="i" d="M282 635l3 -4l-3 -4v-1h3v-2l-1 -2v-2q17 -13 17 -47l-4 -5l1 -5l-8 -13l2 -2q-7 -3 -20 -39q-11 -1 -11 -4q-26 0 -26 23l2 9q-5 8 -7 44l-6 5q10 14 13 14v15l22 14l10 -2h5q3 0 3 6l2 2h3zM292 626h3v-4zM229 444q4 -9 9 -9l10 3h2l27 -23q7 0 7 -11q17 -4 17 -16 l4 -13q14 -6 14 -10v-6q0 -4 -22 -18v-5l17 -6l4 4l1 -2v-2q-21 -9 -26 -19l4 -17h-2q-6 0 -11 -10v-4q10 0 11 -5v-4q-6 -11 -11 -11v-7l5 -7v-24h9l5 -5l-11 -16v-2l6 -9v-5q0 -6 -6 -6v-9h3q2 -8 10 -16q-7 -2 -13 -13v-3q7 -24 21 -24l8 -7h5l-2 16h2q37 12 48 20h5 l15 -18l1 2l15 -22l-2 -1h-3l-5 3h-5l-3 -3l3 -17v-5l-3 -4h-2q-5 0 -11 6h-5l-5 -6l2 -5l-5 -11l2 -7q-3 0 -12 -18q-14 0 -14 -13q-12 -18 -19 -18h-18l-7 -10q-34 0 -50 25q-6 0 -11 11q-3 0 -3 9q-7 2 -13 25q-7 4 -12 16l2 7l-3 7l5 47q-9 15 -9 22q4 10 12 20v10 q-3 0 -5 35l8 23v2l-8 12v6q0 3 5 3l1 6l-1 2v3l3 13q-3 17 -29 30l-5 2q-12 -4 -21 -30l-16 -11h-3l-5 3l-23 -1q-8 0 -16 12q5 25 8 25l-2 9v2q0 8 15 20q0 7 6 7q1 4 23 27l2 11v4q14 0 30 32h2l13 -4z" />
<glyph unicode="j" d="M294 623q19 -10 20 -20q21 -17 21 -21v-6l-7 -11l2 -14l-11 -4l-2 -1q-5 0 -9 -13q-11 0 -12 -22l-15 -5h-5l-20 14l2 9l-2 8q9 12 9 18q0 7 -20 21v2l25 22q1 16 13 16zM229 438h7q27 -18 33 -18l12 1v-12l9 -9h4l12 2l2 -2v-2l-2 -5h2l2 -2q12 -11 34 -16l13 -8 q0 -8 11 -19v-9q0 -4 -15 -11q0 -10 -18 -11l-3 -5l5 -15l-5 -9v-18q7 0 10 -18l-5 -3l-7 7q-11 0 -11 -16l5 -2l6 5l2 -2h1l-5 -28v-4q0 -6 18 -7l-4 -4l-1 2q-11 -4 -11 -7l2 -11l-8 -4v-5l9 -14l-3 -6q0 -9 16 -9v-5l-18 -20l9 -9v-2l-14 -16q0 -5 9 -14l1 -8v-14l8 -9 l-9 -2v-11q0 -3 21 -10l2 -2v-2q-15 0 -25 -23l3 -14l-1 -8l1 -7l-1 -7q1 -14 18 -25l1 2q17 -3 17 -11l-2 -7q7 -21 21 -29l2 -2v-2q-11 -32 -43 -32l-25 -22l-7 -2l-6 2l-50 -27l-36 -11l-9 2l-38 -3q-50 16 -50 25v9q6 6 9 21q20 21 30 24q3 3 24 5q14 7 14 16h5v-3l9 3 v2l-3 6v1l21 26l-1 5l1 13l-5 21l7 20v14l4 5v15l2 12q-6 0 -6 4q4 1 7 9l-1 13l3 10v11q0 10 -12 15v1l5 18l2 2v25l-4 6v3q4 0 7 8v9l-3 14v23l7 11v6l-4 14v20q0 2 8 5l1 2v2q0 6 -12 23v2l9 11v5l-18 13v3l3 4q6 0 6 -9h2l1 13v3q-9 10 -9 31h-5q0 -18 -29 -20 q0 -4 -21 -20l-15 -7q-12 -20 -16 -20h-9q-15 11 -16 16l5 17q-7 2 -7 5q3 11 14 11l11 7q0 7 6 7v9q0 10 41 16q0 4 16 26q0 15 20 27zM335 79h4v-1h-4v1z" />
<glyph unicode="k" d="M287 600q23 -8 23 -12v-7q-5 -7 -7 -17h-4l-1 2q-6 0 -27 -18q-8 -2 -8 -9l4 -12h7q1 9 9 9l11 -2q6 0 16 18q33 5 33 14q7 7 7 13h2q12 0 36 -29l10 -11l-1 -2v-1q0 -7 16 -9q1 -11 9 -17v-1q0 -4 -6 -4l-1 -2v-7l7 -9v-4l-4 -5l2 -7q-4 -11 -7 -11l-2 2q-11 0 -11 -16 q-21 -7 -21 -18q1 -11 10 -11l11 2l7 -4l2 2h4q8 0 14 -9q7 0 11 -7v-8l-5 -19q-12 -23 -18 -26h-6l-12 6q-16 -7 -31 -7q-45 2 -45 9h-22q0 -6 -45 -9l-1 -2h-2v2q-11 -3 -13 -9v-17l-2 -1q0 -9 22 -13l4 -5v-2l-13 -15l4 -14l-4 -11l9 -12v-4q-2 -7 -18 -7l2 -13v-3 q5 0 5 -4l-3 -4l-2 2l-4 -9q0 -5 20 -9l7 -7v-2q0 -4 -14 -9v-2l3 -5l-7 -9l2 -2v-14q0 -11 14 -11l2 -2v-2l-2 -12l15 -15l-6 -3q0 -11 13 -11q11 11 16 11l7 2v-2q24 6 24 23l27 22h2q18 -15 18 -20l1 2h2q6 -7 6 -13v-2q-2 -5 -29 -23q0 -4 -20 -29q0 -7 -13 -12 q0 -4 -12 -17q0 -6 -25 -10q-23 -27 -40 -27q-19 0 -34 21q-16 0 -58 42q-7 0 -7 10q9 25 20 44q0 17 7 23v9l-4 14v2l6 11l-2 20v12l-7 13v2l7 9v7q-3 7 -7 7q0 4 5 4l2 2v9l-2 10l7 13q0 5 -16 13v5l9 13l-2 10l4 11q-13 16 -13 25h-12q-29 2 -29 18q0 22 23 38q4 0 4 7 q25 13 25 24l2 7l-2 22l6 9v3l-15 16v4l2 5h-2q-9 0 -14 31v2q0 14 25 16l11 -4q3 11 7 11h4l14 -5q4 0 13 12q19 6 27 18zM355 557l4 -3l3 3l-3 4zM326 507q0 -3 -10 -7l-13 3q-20 -16 -36 -20q-3 -23 -14 -23l-2 2l-9 -2l-20 2l4 -11v-27h3q7 3 7 13h4q10 -12 38 -24h3 l8 2l7 -2h3q7 1 13 25l9 6l2 -2h2q8 0 14 14q8 0 20 26l-2 1l-11 -3v2l7 9v1q0 8 -27 15zM346 480v-4h-3zM343 408v-6l3 -3l4 3v2l-4 4h-3z" />
<glyph unicode="l" d="M327 613h4q20 -20 20 -29l-18 -11h-4l-2 2l-27 -11q-7 -12 -11 -48q-5 0 -5 -6q-9 -2 -16 -10v-6l7 -16l5 -23v-4l-10 -29l1 -7h11l4 -4v-1q0 -11 -22 -40v-5q18 -16 18 -24q-14 -15 -14 -30l-4 -8l7 -7l2 2h2l5 -4q0 6 4 6v-20q-4 -7 -13 -13l-3 -7v-12l3 -15 q0 -9 -9 -34q0 -8 9 -13l13 4l2 -2v-2l-11 -14l2 -7q-9 -16 -9 -22v-2q16 -15 16 -19q0 -15 5 -15h4l11 2l7 -4q32 9 32 13l-1 18q6 0 27 16h1q5 0 17 -20q7 -3 7 -9l-4 -7l2 -16v-2q0 -4 -16 -9q0 -6 -33 -16l-5 -7l2 -6l-22 -19q0 -5 -9 -9q-12 0 -20 -24l-18 -8 q-27 6 -27 19q-25 0 -34 22q-4 4 -27 5q0 5 -27 11q-12 29 -14 29l-2 5q27 29 27 45q10 10 16 23v13l-2 7l2 7v6l-3 5v6l7 14v5l-4 6v9l7 9v7l-3 5v2l5 9l-5 11v9l5 11l-2 16q5 0 8 14l-2 2q0 4 -13 9v4q11 14 11 21v4l-4 5v8l4 5v2q-5 6 -5 12v2q10 13 10 22v7l-9 20l8 20 q-3 51 -20 63l-2 -2h-13l-3 3q0 15 14 29l6 -3q5 0 23 19h7q4 -3 13 -3v-2q18 5 27 22l38 12q14 -1 14 -3zM306 93q0 -4 -6 -4l-2 -5l8 -4l5 2v5z" />
<glyph unicode="m" d="M102 437q4 0 4 -6l-2 -5h2q7 0 14 5h6l12 -7h17l5 -5q0 -4 -18 -4l-4 -5v-2q0 -4 26 -20l10 -2v8q2 10 6 10h18q7 16 25 24h11q29 -7 34 -16q15 -6 20 -13l-2 -16l14 -6q12 8 29 11v7l-3 6v2q0 7 25 9q7 -3 7 -6l-2 -2h13l11 8l12 -4l16 4l6 -2l14 2l4 -13l-2 -2 q20 -10 25 -18v-9l-2 -2l4 -23l-2 -2h-2l-1 2h-2l-11 -7q-5 -15 -13 -15v-3q8 0 8 -11q6 0 9 -27q-13 -8 -13 -11v-3l2 -11l-2 -7q3 -1 13 -17q0 -10 -22 -18l-5 -18v-3q15 -11 23 -24q0 -9 -5 -10l-9 1l-2 -1v-11l3 -11l-1 -9l9 -4l1 2h6l9 -5l11 7h5q18 -12 18 -38 q-14 -24 -14 -41q-7 -9 -27 -9q-18 -25 -29 -25l-11 -4h-11q-5 4 -23 7l2 9q0 5 -15 18v9q1 9 4 9l-11 18l2 2v14q-9 2 -9 6v12l5 6l2 -2h2l7 11l-7 18l3 11v5h-9v7q0 11 8 11l9 -2l1 6l-12 18v7l3 5q0 4 -5 4l-2 2v10q0 4 15 6v7l-9 11q0 12 5 12v4q-9 0 -9 5v13q0 4 5 4 l2 -2h2l11 3v6q-17 12 -33 14l-30 -23v-6l-2 -16q0 -5 5 -5l2 -2v-5q0 -9 -16 -22v-4l4 -5v-4l-4 -5v-2q0 -10 9 -11q0 -3 5 -3l2 -2v-11q-4 -6 -18 -11l-2 -1v-4l15 -14l-2 -6l4 -11v-7q0 -9 -6 -16v-5q6 -7 6 -13v-4q0 -3 -17 -5v-5h13l4 -4v-9l-4 -4l-5 4h-4 q-2 -13 -5 -13l9 -12q-1 -9 -31 -34q0 -8 -9 -8l4 -5l-8 -3l-10 3l-13 -2q0 9 -16 13l-2 2v10q-23 6 -23 11l-2 9l2 2h1l9 -9l6 9q-3 12 -15 20l2 18v52l4 5v2l-4 6v32l7 22l-1 5q4 12 16 25q-12 5 -13 9l22 20v2l-4 5l-2 -2h-1l-6 2v4q14 11 15 16l-4 11l-2 -2h-11l-7 4v1 l15 15l3 -4h2l4 4v5l-4 4h-2q-3 -4 -36 -7l-16 -8v-5l7 -2q0 -10 -18 -25v-4l7 -1v-22l4 -5v-13h-2l-7 2q-9 -3 -9 -13q3 -8 16 -12l4 -11v-61l-6 -8l2 -1v-11q0 -4 -5 -4v-7q0 -4 9 -5v-20q0 -4 -9 -4v-9l-13 -23q-5 0 -5 -6l3 -16q0 -9 -32 -14q-34 0 -34 43l-6 7v2l4 5v4 q0 8 -7 22l5 9v1q-5 7 -5 17q9 9 9 16q0 5 -9 14l-2 7v2l4 6v3l-2 13q7 1 9 9l-4 56l7 9q-4 29 -10 36q9 15 9 21l-9 9v2l9 5h1v9l-19 6q0 -4 -17 -7l-5 1l-2 -1l-7 9v1q3 9 13 9l1 6l-1 18l30 16q0 22 15 22h10v5l-5 7zM156 379l4 -3h5l6 5l-2 2h-9zM81 367v-2l3 -4v6h-3z M201 340v-4h9l2 -2h2v4l-4 3zM191 228h3v-7h-3v7zM439 215h4v-3l-4 -4l-4 4zM423 116v-7l5 -9h6l-4 6l4 3v4l-4 3h-7z" />
<glyph unicode="n" d="M101 443h3q7 -5 13 -5h2l14 4q18 0 18 -17q0 -12 45 -21h13v-2q-2 -5 -11 -5l-7 1l-17 -7v-5l18 -9q1 -5 29 -16q4 0 13 9h2l-4 5v4q0 3 11 5v-2q9 0 16 16q4 0 7 15q14 14 25 20h4q7 -6 13 -6h5q0 9 9 15h9q0 -9 9 -9q7 0 13 -13l1 2h2l24 -15v-1h-4v-2q17 0 31 -22 l-4 -12q23 -7 23 -11q0 -10 -12 -16l-2 -6l4 -9l-6 -5v-2q13 0 13 -7q-11 -13 -11 -18l2 -6l-6 -5v-14l9 -18v-6q-3 -7 -9 -7v-13q6 0 6 -7q3 0 3 -7h6l-2 -11l4 -11q0 -2 -17 -7q2 -6 13 -18l2 -12q-5 0 -9 -9q3 0 3 -6l13 6q7 -3 11 -9v-4h-2l-9 2v-6l9 -14q11 7 16 7 q24 -1 24 -9q0 -3 -6 -3l15 -20l-2 -16l2 -9q-18 -15 -18 -31q-29 -25 -53 -25q-3 -7 -12 -7h-4q-27 0 -47 30q-2 0 -9 13l2 2q-4 18 -21 34q-8 0 -13 11q7 7 14 7l9 29l-1 18q0 7 7 7v2l-4 5l9 13l-5 12q3 15 7 20v11q-7 0 -9 11l2 10l-7 24l1 2v1l-1 8l3 14l-2 16l4 4v2 q-11 11 -16 25l2 2h1q4 0 4 -11l5 5v6l-3 5l-2 -2h-5l-2 2l-13 -7h-2q-6 0 -12 5q-27 -7 -27 -12q0 -23 -36 -27q-2 -13 -11 -20q0 -4 -22 -16l-1 -8q10 -2 10 -5l-10 -7v-6q9 0 9 -3l-13 -11l-2 2h-2l-7 -11v-7q6 0 11 -9v-4l-2 2h-2l-7 -9v-7q6 0 13 -7l2 1h7v-3l-2 -2v-2 l-2 2h-7l-5 -7l9 -13l1 -12l2 1h6l3 -3v-15h-3q0 -5 -4 -5l-2 5q-2 0 -5 -7l2 -7q0 -4 -6 -4l-2 -1v-4l6 -7v-11q-16 -10 -16 -16l1 -15q-7 -10 -7 -16l6 -7v-4q0 -6 -27 -10l-4 -4h-29q-3 0 -9 13l2 1q0 6 -18 22v5q5 7 5 13q0 10 -7 18v4l6 7v12l-4 6l4 3q0 17 -18 24h-2 v3q23 18 23 27l-2 15l2 7l-2 5l6 11v6l-11 14v2l5 9l-1 12v9l3 6v5l-3 15v3l3 6v5l-2 13l6 5v2q-8 23 -20 23l-2 -2l2 -9v-7q7 0 7 -3v-2l-3 -4l-24 6l-5 -6h-6l-5 6v18l2 10l-9 13l-2 7q0 6 16 24q0 21 13 21q5 3 5 16q10 18 24 18zM185 366l-3 -5v-6h1l9 2v7zM297 350 q11 -7 16 -7h4v3q-5 0 -11 9h-4zM297 346v-3h2v3h-2zM288 317h3l4 -3l-4 -4h-3l-4 4zM189 242v-6h7v6h-7zM255 148l2 -2v-1l-2 -2h-1l-2 2v1l2 2h1zM439 110v-3h4z" />
<glyph unicode="o" d="M245 446l9 -2l5 2q5 0 18 -18h13q0 9 5 9h5q11 0 18 -14l6 -2l7 2q32 -20 32 -29q9 -7 27 -9l4 -6l-4 -5v-9q0 -5 8 -5v-2l1 2h2q9 -3 9 -6q-10 -4 -11 -11l4 -9h13l10 -10l-1 -9q0 -12 27 -29h1v-4q-5 0 -10 -23l1 -2h6l9 2l3 -6v-3l-3 -6v-21l-2 -7l5 -15v-9l-9 -11v-1 q0 -3 9 -6l4 4h2q9 -6 9 -13l-7 -5l-2 2h-9q-22 -17 -22 -26l6 -5v-2q0 -8 -13 -21v-2l4 -6v-7l-8 -7h-10l-8 5q-6 0 -14 -14q-15 0 -22 -9q-11 0 -12 -5l2 -2q-4 0 -8 -11q-3 0 -3 -7l-20 -11h-2l-27 2q-9 -8 -9 -15v-3h13l3 -4q0 -3 -9 -5l-12 5q-26 -8 -33 -16h-9 q-22 9 -41 11q0 4 -27 11q-8 18 -32 18q-12 8 -24 25q-10 0 -20 23q-18 12 -18 20h2q0 12 -14 18q-7 11 -11 11v14l-5 18q0 3 21 7l4 11q0 8 -9 11l-20 -2l5 16l-3 17q7 9 7 16v16h4v7h-4v7q3 10 20 24l2 5l-2 6q15 5 25 28q5 16 31 29q18 24 32 24q17 0 27 18q14 12 29 18 q0 15 20 23zM259 352l-22 4q-11 0 -23 -13l4 -3q-6 -7 -26 -11q0 -11 -16 -18l-3 4q-16 -21 -36 -24l1 -18q-8 0 -14 -5q1 -17 9 -25v-2l-9 -25q5 -7 7 -27q12 0 16 -9l-1 -9v-2q2 -6 12 -13q0 4 6 4q27 -7 27 -29q8 -8 27 -13q3 -4 3 -12l24 -11l5 4l27 -2h9q13 0 20 14 q17 10 23 18q13 3 13 13q0 7 5 7l9 -2q18 17 18 24v5l-9 2v2l9 7l7 -2q15 0 15 11q-1 5 -9 7l3 16q-12 8 -12 18q9 1 9 6v1l-16 17q1 10 3 10q0 4 -21 13l1 9v16h-19q-22 5 -22 18q0 6 -9 6h-7v1l2 2v2q-18 2 -18 16l-8 4h-5zM137 210h3v-2h-3v2zM461 144l1 -2v-2l-3 -4 l-9 2v4z" />
<glyph unicode="p" d="M110 437h9q8 0 32 -14q18 0 24 -22v-10l20 -8v-5q-15 -16 -17 -38l-9 -9v-3h4q8 0 25 19l18 4l2 -2q5 8 40 27q0 13 32 27h9q4 -3 25 -7q0 16 16 20q0 4 8 9l9 -2l7 2q13 0 20 -13q14 -9 39 -18v-5q-3 -9 -7 -9v-4q16 0 18 -21q7 -3 7 -13l13 2h5l4 -4v-7l-4 -5v-8 l11 -37q-2 -8 -7 -8v-10l12 -22v-11q-6 0 -12 -34q-10 0 -16 -27q0 -5 -17 -20q0 -4 -19 -21q-3 -8 -13 -8h-2l-7 4q-22 -9 -22 -25q-3 0 -3 -6q-13 3 -13 22q5 0 9 14h2v-1q23 9 23 23l-3 11l2 2h1l2 -2h2q7 0 7 7l24 9v4l-9 12l12 11q4 4 4 13h2l-6 12v15q6 0 6 9t-9 18 l-2 9l2 1l-20 24v9l7 9v3l-9 2h-23l-4 4l4 5q0 3 -26 20q0 11 -23 14q-32 -10 -32 -25l-27 -16l-6 2q-22 -29 -43 -29l-5 -2l-22 2l-4 -5l2 -8q-1 -6 -11 -14l9 -11l-7 -11l2 -27l-11 -10q9 -7 9 -11l-9 -13v-2l9 -12v-6l-5 -14l2 -5l-6 -4q-22 0 -29 22q4 0 8 18l-20 27 l2 5l-2 16v7l-11 15q2 4 25 16l2 2v7l-9 7l-13 -3l-1 1v2l3 4q-18 14 -18 18q0 12 25 14v2q-5 14 -16 14l-21 35h-6q-14 -7 -14 -11q12 -7 12 -18l6 -6v-1l-4 -4l-18 5l-5 9l-31 -7l-3 7q3 31 12 31h9l11 -2l5 2v5l-7 11v2q21 18 40 25zM371 394v-2l7 -3h4l-2 5h-9zM353 389 v-2l4 -4h3l-2 8zM155 317l2 -6h2v6h-4zM81 185h4l5 -5v-2q-7 -8 -7 -12h5l8 5q6 0 12 -5h16q5 0 8 -13l-4 -4q14 -9 14 -12h4l20 5q11 -4 11 -14l-2 -2q16 -15 16 -27l-2 -5h2q5 0 13 7h5q6 -8 29 -16q0 -22 5 -22h7v4h4q0 -8 20 -8l11 8l10 -4l2 2h2q7 -3 7 -6v-1 q0 -4 -11 -9q0 -6 -3 -6l-6 4h-5l-9 -4v-3l2 -11q-8 -18 -22 -18q-5 0 -12 9q-19 0 -33 12l-12 -1h-2l-13 1l-3 -5l7 -23l-6 -23q13 -5 13 -8q-9 -9 -9 -18q0 -17 13 -21q12 -2 12 -6v-1q0 -14 -25 -47l-18 -9l-7 2q-25 -23 -45 -33l-13 2l-16 -9q-5 4 -27 5q-17 12 -27 24 v20l4 5l14 -4l2 2l-2 2v2q18 18 38 18q12 6 12 29l-5 9v3q0 5 14 7l2 2v20l4 14v13q5 0 5 7h2q-2 13 -9 20q2 30 7 30l-2 2l2 9v4l-16 34v5l4 6v3l-9 9h-4v-3l4 -6v-7h-13l-7 7v6l2 7l-11 16v5q14 22 14 27zM204 108h1l6 -2v-3l-7 1v4z" />
<glyph unicode="q" d="M317 440q34 -13 34 -34l-1 -2l12 2h2q9 0 18 -6l7 2l25 -11l-1 -2v-1l1 -6l-1 -2q15 0 25 -19q-11 -33 -15 -35l-3 -3v-9l12 -18l-5 -6l-2 2h-2q-10 -11 -10 -14q3 -5 3 -18l16 -11v-5q-16 -22 -16 -47q7 -4 9 -11l-5 -18l2 -5q-5 -14 -51 -51q-20 -19 -20 -29h-1l-11 4 l2 -2v-2q0 -4 -18 -7l-2 2q-4 -11 -9 -11v-5l3 -6v-1l-14 -15q-7 -16 -11 -16l-2 7h-5l-18 -18h-18l-23 -9q-7 5 -24 7q0 18 -16 18l-11 2q-21 22 -50 33q0 14 -24 30q-9 0 -9 13v12q-11 9 -16 35l-7 10v4l7 11v9q1 18 4 18l-7 23q5 8 7 25l5 8v21q18 39 24 43q12 5 25 20 q0 7 11 11l5 -2l22 9l1 -2q22 16 22 20q6 0 27 18l25 -2l27 18q18 0 31 17zM265 366l-2 2q0 -9 -39 -24v-1l1 -2v-2q-4 -5 -23 -7l-4 -4q-12 0 -12 4q-6 -2 -11 -11v-2l4 -5l-17 -18l-1 2l-18 -8v-16q0 -4 -18 -9q-2 -8 -9 -16v-2h10q0 11 26 11l3 -5v-4q-4 0 -5 -7 q-27 0 -27 -15l2 -12q-15 -6 -15 -13q13 -7 13 -11q0 -5 -7 -5q19 -20 23 -20v-9l-2 -2v-1l2 -2h2l12 2l22 -20v-11q9 0 32 -22l2 2h2q34 -6 34 -23l11 -6h2q8 0 38 20l9 9h14v2l-7 7q11 31 20 34q0 8 10 8h9v9l2 7l-3 12q0 6 9 13l1 7v11q0 27 -23 27v4q23 0 23 14l-5 7 l2 13l-18 18v2l3 3l17 -2v2l5 7v26q-5 12 -14 12l-2 2l-2 -2h-2q-5 0 -11 20l-12 11q-7 0 -20 16q-7 -5 -25 -7q-7 -6 -7 -18l-2 -2h-2zM296 382h5l4 -3q-2 -6 -11 -6l-2 2v4zM429 280h5q11 -2 11 -6t-16 -7l-6 7zM137 202l7 -3l2 1l2 -1v-6q-3 -7 -13 -7h-3l-4 4q2 12 9 12 zM413 171q0 -6 12 -7l-3 -4l-1 2q-7 -4 -7 -7l1 -11l-5 -4v-5l6 -14l-2 -6q0 -9 11 -9v-5l-12 -20l6 -9v-2l-10 -16q0 -5 6 -14l1 -8v-14l5 -9l-6 -2v-10q0 -3 15 -11l1 -2v-2q-10 0 -17 -23l2 -14l-1 -8l1 -7l-1 -7q1 -14 12 -25l2 2q10 -3 10 -11l-1 -7q5 -21 15 -29l1 -2 v-2q-7 -32 -29 -32l-17 -22l-5 -2l-4 2l-34 -27l-24 -11l-6 2l-25 -3q-34 16 -34 25v9q4 6 6 21q14 21 20 24q2 3 16 5q10 7 10 16h3v-3l6 3v2l-2 6v1l15 26l-2 5l2 13l-4 21l5 20v14l2 6v14l1 13q-3 0 -3 3q2 1 5 9l-2 13l3 10v11q0 10 -9 15v1l4 18l1 2v25l-2 6v3q3 0 5 8 v9l-3 14v23z" />
<glyph unicode="r" d="M169 439h7q13 0 21 -13v-3q0 -3 -7 -6l2 -5h1l12 2q0 -11 32 -15l2 -2v-7l-5 -5q10 -14 10 -20q-5 0 -5 -4v-1q16 -10 16 -18l-7 -4v-2l22 -3q11 10 12 21q12 0 18 9h13q6 26 26 40q2 16 7 16h8q0 7 11 7l8 -2v-1l-1 -2v-2q11 -4 11 -7v-4l-5 -7v-5q7 0 7 -13l-2 -5l8 -9 h8l2 9l-2 7q0 11 13 11q0 7 18 7q8 25 13 25h6q3 0 12 -18l-2 -11v-3l3 -6v-5l-5 -7l5 -9v-6l-3 -3h-8q0 -14 -16 -26q0 -7 -12 -7q0 -5 -9 -11l-17 -14q0 -4 -4 -4l-2 -1q-5 0 -5 -6h-11l-15 13h-3l-18 -4q0 8 -23 15h-1l-8 -11v-9q6 -1 6 -6q-6 -10 -19 -10v1l-5 -1l-2 1 h-1q-13 -7 -15 -12v-4l3 -5v-4l-16 -7v2l-5 -2v-5l2 -13q-7 -3 -7 -13l2 -9q-10 0 -10 -18l-1 -1l3 -9l2 1h1l2 -5l-8 -14q3 -9 11 -9l7 7q21 -2 21 -11q-4 -13 -13 -13q-11 0 -15 9l-18 -9v-1l2 -17l-2 -7l18 -16h8q20 9 37 23q4 0 13 13l8 2q20 -10 20 -27v-4q5 0 5 -3v-4 q-16 -10 -28 -36q-23 -29 -29 -29q-7 0 -26 -14l-37 -15q-6 0 -26 29q-11 0 -16 9q-26 6 -26 18q0 6 -13 16q0 5 -7 13v5q7 22 26 44v10q-8 2 -8 6v3q12 13 12 18h3v8l3 10l-6 20v13l4 9l-1 2v16l3 5v13l-10 11v5q7 13 7 23h1q-2 13 -16 26q0 9 12 19v2q-7 22 -17 22l-6 2 q0 -24 -16 -36q0 -20 -31 -27l-5 -2h-6q-9 0 -15 11v3q0 10 11 27q0 14 21 27v-2q12 4 23 22q16 0 26 22q13 2 21 16zM266 374h4v-2l-4 -3v5zM339 270h3l4 -4v-4l-4 -3h-3l-3 3v4zM271 212l3 -5v-6q-2 -7 -11 -7h-2l-4 5v2q6 11 14 11zM250 178h5v-6l-3 -3zM351 122h3l5 -5 l-5 -6l-7 7z" />
<glyph unicode="s" d="M295 644l11 -2l5 2q19 -4 61 -38l13 -3l7 12l-2 6q4 0 4 5l2 2h3q6 0 6 -7h3l31 14h5l13 -25v-2l-7 -4v-10q0 -14 -7 -17l-18 6h-2q-5 0 -9 -31q-19 -27 -52 -27q-5 -5 -13 -5q-22 4 -22 7q0 12 -34 18l-2 2q-3 0 -7 12l-9 2q-24 -19 -29 -30v-2q6 0 6 -4q-11 -2 -11 -5 v-9q7 -8 7 -13l-16 -12q12 -27 25 -33v-3l-2 -2v-2l2 -5l2 1h4q0 -12 23 -25q4 -4 4 -12q9 0 16 -11q12 0 12 -6v-1l-10 -15v-2l10 -12q-5 -7 -5 -13q0 -5 9 -14l-7 -13v-5q4 0 14 -13l-11 -7v-23l-7 -9q0 -11 27 -13v-2l-2 -2h-1l-6 2v-2q0 -2 -18 -12v-6l6 -14 q0 -4 -13 -16v-4q0 -3 11 -5v2l5 5q8 -3 9 -7q0 -4 -16 -6l-5 -10l3 -6v-3q-3 0 -12 -18v-8l12 -14q0 -16 -11 -16q-3 0 -3 -9v-6q0 -3 5 -3l2 -2v-4l-2 -7l4 -7l-6 -9l4 -5v-6q-7 -5 -7 -21v-6l3 -14l-3 -11l7 -9v-7l-7 -12q0 -9 9 -9q9 -5 9 -15q0 -3 -16 -9l-2 -7v-5 l12 1h2l20 -10q0 -4 -20 -4q-12 -5 -12 -16l1 -2l18 4q9 -3 9 -6v-3l-7 -8l-20 9v-19q0 -3 -10 -8q0 5 -9 6q0 -5 -15 -15q-29 0 -29 15q-14 11 -14 20q5 9 5 18v1l-12 15v2q20 10 20 46l-15 6l-2 -2v4q15 16 15 28l3 9l2 2v3q0 5 -14 9v9q11 13 11 17l-2 14l2 11l-13 14v2 q0 7 11 18q0 7 7 20v2l-14 19v4l12 13q-7 11 -7 18l7 7q0 8 -9 14l-2 -2h-1q-9 3 -9 6l19 14l2 11q0 22 -9 29l6 7l-2 2v12l3 6l-3 3v2l3 6v5l-7 14l-2 -1h-1l-4 3v4l4 3l1 -7h2l2 9q0 10 -18 15q0 6 -23 16q0 7 -11 7h-4l-20 -4q-14 0 -14 33v3q0 4 23 26l2 12q0 6 -5 6v5 h3v7h-3v11q5 0 9 11l-11 12v4l9 11l-2 20q14 0 25 34q6 0 22 25q10 0 31 27l10 4l9 -2l4 3l-2 2v2q10 11 24 11q2 7 5 7zM273 540l4 -4v-4l-11 -10h-5l-6 5zM324 360h3v-2h-3v2zM335 223h1l4 -4l-5 -5l-4 5zM329 160h2v-4h-2v4zM324 133h9l3 -4v-2l-10 -1l-6 1v2z" />
<glyph unicode="t" d="M243 501h6q3 0 5 -18l9 2h2l20 -22q-13 -16 -13 -21q0 -7 5 -7v-2l-3 -6v-3q24 0 50 -29h4q5 2 12 16h8q7 0 28 -27v-2q-11 0 -19 -19l-9 -8h-8l-9 8h-1q-7 0 -15 -8h-12v4h-8l-7 -7l2 -2v-2q-8 -14 -16 -14l-2 -7l2 -8l-4 -12v-9h4v-2l2 2h1l9 -7v-2l-12 -16v-8 q7 -9 12 -30v-11q-7 0 -7 -11v-12q0 -4 11 -8v-21l-9 -25v-22q6 -23 25 -23q8 0 15 -6h5q0 9 20 15h2q0 -6 5 -6l2 2l-2 5q2 8 9 11l5 -3l11 7h2q11 -6 18 -18v-20q-11 -10 -11 -16q-11 -8 -11 -16q-7 0 -16 -18h-3l-13 1q-3 -8 -7 -9l2 -1v-2q0 -6 -15 -7l-2 1l-10 -10h-8 l-5 3h-4q0 -16 -25 -16l-23 16q-25 6 -25 24q-3 3 -24 5q0 4 -14 7l-22 25l-2 8v9q4 2 17 37l16 -3l5 3l-2 18l2 20h-2q-5 0 -10 11q2 5 16 13v3q0 31 -11 38q0 8 7 11q0 5 7 12v17q-7 10 -7 16q5 1 16 30h-1q-3 0 -6 11l-2 -2h-3q-17 0 -36 15q-24 0 -38 21v13q6 27 18 27 h25q13 14 42 14q3 6 10 6v5q0 7 11 18v4l-3 5v6q14 9 14 12q0 11 -7 18v4zM277 319q11 -3 11 -7v-5l-3 -4l-8 6l-1 1v6l1 2v1zM315 93v-2l4 -4l5 6l-2 1zM295 91v-6l4 -3l2 2h2l-2 7h-6z" />
<glyph unicode="u" d="M129 440h9q3 0 7 -16q8 0 22 -20q8 0 11 -7l-2 -2q0 -7 25 -15q0 -21 16 -21q7 0 11 -7q0 -7 -29 -17v-10q7 -1 7 -6l-7 -7v-5q0 -4 22 -11l2 -2v-9q-1 -3 -24 -11v-2l11 -10l-14 -15v-3h1l8 1q18 -8 18 -12v-4q0 -5 -26 -7l-1 -2v-7q0 -4 10 -4l6 -7l-4 -3l-2 1 q0 -3 -10 -12v-6l3 -5l-5 -9l5 -27q-11 -5 -11 -13h9q4 0 15 17h2q2 -1 12 -18l-11 -18v-6l9 -2h2q13 0 13 13q17 7 30 27l42 52l23 6l-9 7l-2 9q17 13 17 21l3 17v1l-16 17v3l9 4l2 -2h2l3 5v31q-7 8 -7 13q16 9 16 12q0 14 -7 16h-20l-23 -14q0 -4 -13 -7l-7 -7h-4 q-9 0 -9 3q-10 -9 -16 -9l-5 2v2l2 2l-2 1v4q8 29 14 31q9 0 11 12q13 0 18 15q1 7 5 7h15q0 8 7 12l7 -1q0 3 6 3v2l-2 2v2q8 7 21 9l6 7q13 0 23 -25l-2 -6q18 -14 18 -23q10 -8 11 -18q-1 -11 -7 -11v-4l2 2q21 -7 21 -12l-10 -17l3 -12q-3 0 -5 -9q0 -6 21 -13v-5l-9 -9 v-2l15 -13v-1q-15 -15 -29 -15l-2 2l-2 -2v-2q0 -5 11 -5q13 -5 13 -9v-9q-8 -10 -13 -36l16 -13v-7l-7 -9q0 -5 16 -11q0 -19 17 -19q6 1 12 14h2l20 -23v-8q-8 -11 -29 -18l-11 -34l-16 -20h-9q0 -6 -20 -16q0 -6 -11 -11l-14 6h-2l-5 -4h-4q-12 0 -12 9h-11l2 -2v-1 l-4 -4h-2q-4 0 -11 16q-4 0 -12 11v5l7 13l-2 5h-3l-9 -1l-11 1h-7q-14 -8 -31 -12v-7l9 -4l2 2v-4l-6 -5h-5l-2 2h-2q0 -4 -32 -11q-4 -8 -36 -13q-36 9 -45 27q-13 0 -34 36q-19 0 -25 16v6q12 21 18 39l1 2v2l-3 13q14 10 14 16l-3 16v2l3 14l-3 7l3 17v1l-3 15q9 7 9 16 q0 10 -8 13l2 9v9q0 15 -11 21h-5q-4 0 -4 -5l-1 -2h-9l-18 14v6l5 7v7q-9 10 -9 15l4 10l-4 11v9l16 27l-2 2v2q5 8 13 11l7 -2l11 3h7q4 15 15 15l1 2v1l-9 2zM106 353l1 -1h2l9 1v8l-5 1q-5 0 -7 -9zM104 330l-2 -2v-3h7v3zM424 308h4v-1h-4v1zM203 184h3v-5l-3 3v2z M127 107v-6l7 -7h4l4 4v3l-6 6h-9zM307 85v-2l2 -5h4l1 7h-7zM322 82l-2 -2v-2l5 -5h2v7z" />
<glyph unicode="v" d="M119 441q18 -11 18 -29q31 -8 31 -13v-7l-4 -5v-4q4 -8 9 -9l20 4q8 -4 9 -7q0 -8 -7 -13l3 -5q5 0 31 16q20 9 31 9l10 11h6l11 -9q5 13 7 32q5 5 27 9l7 -2l11 2h3q12 -5 27 -20l-1 -2v-1l3 -4l4 4l-2 1v2l11 7l5 -5l-2 -14h2q15 -6 15 -9l-2 -11q0 -6 20 -18 q0 -4 18 -7l12 -17v-5l-3 -5v-4l7 -13v-7l-4 -5v-7l15 -22l-6 -7v-7l4 -6v-3q-7 -6 -11 -38q-8 0 -9 -36v-11q-13 -17 -34 -23q-3 -18 -16 -18q-10 -8 -22 -13q0 -19 -34 -25q-15 -4 -15 -15l-5 -5l-11 4h-5q-30 -16 -33 -20q-6 -8 -34 -15q-2 -6 -27 -12q-2 -6 -11 -6h-1 q-18 0 -31 20q-8 4 -29 27q-20 6 -43 31q-10 0 -14 23q3 4 3 24q5 0 7 18l-3 14q11 6 14 16q-2 10 -11 18l9 16l-1 2v2l5 13v32l4 14v18l-4 6v12l4 6v12l-11 11l2 16l-13 9h-7q-10 -10 -29 -10h-5l-4 3v4q1 3 14 9l-5 16q0 5 25 18v4q5 0 11 10h2v4h-4v5q18 13 24 13z M312 378q0 -11 -11 -11l-2 2q-8 -24 -32 -24q-3 -10 -24 -19q-1 -8 -23 -13q-3 -22 -36 -23l-11 -35q3 -3 6 -41q-4 -11 -8 -11l6 -9l-2 -9l11 -27v-2q-7 -7 -7 -14v-2q18 -2 18 -7v-4q0 -5 -9 -5v-11q5 0 5 -5h4l25 9h9l12 -4v-2l-1 -1v-2h7q0 3 14 12h4l11 -7l32 13 q0 5 25 7q7 12 40 27l9 14l-2 2l27 18v18q0 6 -5 13v9q16 4 16 9v7l-7 9v2l3 5v7q-16 18 -16 26l4 3v4l-4 18l14 9q-1 6 -14 12h-7q0 -9 -13 -9h-3q-4 0 -8 11l2 11v5l-7 2l-16 -5q-26 18 -33 18h-3zM171 363v-5q6 0 6 -5h2l3 3v7h-11z" />
<glyph unicode="w" d="M230 426q7 0 7 -9h11q19 0 19 -18l2 -2h2l9 2l16 -11v-3l-11 -11v-9q0 -14 20 -14q1 -8 13 -8l2 2l-2 11q0 18 23 25h11q0 18 32 24h13q5 -5 22 -8l1 -1v-2l-7 -7v-6h11l13 -2v-1q0 -17 -8 -24v-2h2q8 9 18 9l18 -12l2 -2v-5l-4 -6v-9l4 -5v-2l-4 -5v-11q6 0 13 -11v-9 l-9 -9v-4l4 -14q0 -4 -8 -4v-1l20 -24v-3q-5 -9 -14 -9q-5 0 -7 -38l7 -13q0 -12 -16 -14q0 -4 -6 -4v-7q0 -4 11 -4q0 -3 11 -7v-2q0 -14 -15 -23h-1l-15 4h-2l-3 -9l2 -15l-13 -5l-11 5h-5q-4 0 -9 -20q-6 0 -6 -5q-18 0 -37 -18l-24 -9h-5q-3 0 -6 11l2 7q-14 16 -23 16 v-2q0 -3 5 -3v-4q-4 -10 -34 -21l-2 -2h-12q-20 5 -33 21l-7 2q-9 0 -13 -14q-7 -8 -25 -15q0 -14 -43 -30q-27 13 -38 32q-15 0 -30 25q-16 13 -20 31q5 7 9 32l9 11l-2 9l4 29v4l-8 46q0 9 4 9l-2 6l6 14q-9 7 -9 18q9 13 9 38l-11 13v1q0 4 16 17v5l-13 11l8 11v3h-4v2 q-14 -3 -14 -11h-17l-1 2h-2q-2 -20 -6 -20h-1l-13 16q14 5 14 8l-3 16l27 16q23 0 32 25l6 2q9 0 9 -4l1 2h11l13 -12v-18h5q16 -4 16 -8l-3 -10l3 -4l2 2l13 -2h2q16 9 16 27q34 13 36 18v2l-4 5v2q0 4 24 7zM375 370l2 -10v-2l-3 -4l-2 2h-2q-12 0 -25 -20q-15 0 -20 -12 q-9 -9 -9 -17l5 -10v-2q-18 0 -18 -7q9 -11 9 -17v-3q0 -4 -7 -4q0 -5 -3 -5l-2 2h-2l-4 -11l17 -11l-9 -11v-2q0 -5 19 -5l2 -2v-2q-3 -8 -11 -12h-3l-2 2q-16 -5 -18 -9l-2 -27q10 -4 25 -4v-2l-9 -29l4 -10l-2 -2h-2q0 -7 20 -15l7 -7v-2h-3v-1h2q5 0 5 5h18q4 2 16 23 q15 0 16 13l8 4v9l-6 7v2q5 9 16 9l2 -2h2q22 9 22 12l-2 17v1l12 17v7q-5 12 -19 27v2q0 3 12 10l2 8l-2 18h2q-1 12 -18 12l-4 7l2 11v4q-4 0 -12 9l12 11q-6 4 -9 14l2 2v2q0 12 -7 25h-9q-14 -8 -15 -15zM201 336l-11 2l-20 -11l2 -2v-3q0 -9 -11 -16q0 -9 -9 -9v-13 q9 -5 9 -16v-6q-14 -14 -14 -21q2 0 14 -25q0 -29 -12 -29l-4 -4q1 -16 20 -30q-2 -24 -6 -24h-1l-6 4l-3 -4q1 -13 5 -18q8 0 13 13l18 -4q2 10 25 20l2 9l-4 4v3q0 5 22 9q7 6 7 18v9q-5 13 -22 18v4l15 11q-9 9 -9 18l3 5q0 4 -11 11l-1 -2h-2q-5 0 -6 18l20 11 q0 23 4 23q0 9 -25 13l-2 2v10h2q21 0 21 8q-2 7 -9 7zM57 349l2 -2v-4h-6v2zM294 113l2 -2h2l2 2v5z" />
<glyph unicode="x" d="M175 439q20 0 27 -11q6 0 25 -16q22 -10 25 -18l-5 -7q7 0 18 -15l-4 -5v-11l6 -9l-2 -11v-3q4 0 18 -15h9q0 8 27 15l4 11q-13 3 -13 7v2l2 1v2l23 -5q8 12 34 12l11 11h6q3 0 3 -7l6 -2l1 2h15q20 -10 27 -20v-16q-11 -16 -16 -16l-8 -2q-7 0 -12 14q7 10 7 17v1h-5 l-13 -9v-1h-5q0 4 -9 5l-2 2h-4q-9 0 -14 -16q-4 0 -16 -13q-15 -4 -15 -18q0 -9 -25 -13l-14 -12l-6 3l-2 -9l2 -1v-2q0 -7 -23 -13q0 -7 -4 -7q3 -14 7 -14v-9l-3 -6v-9q5 0 11 -9v-3l-8 -9l-1 1h-2l-4 -3q2 -43 15 -43l-8 -26q8 -14 33 -21l5 -2q11 0 11 20q38 28 45 41 q7 6 13 6h1q13 -6 22 -38q-12 -15 -29 -20q-8 -13 -34 -32l-9 -24q-19 -5 -25 -12q-6 0 -24 -17h-1q-5 0 -20 22l-15 -5h-3q-6 5 -16 7l-9 18h-8l-5 -4l-13 2q-10 0 -16 -22q-14 -10 -29 -14q-8 -8 -16 -30v-22l2 -11l-2 -1v-2q0 -10 33 -20q0 -7 36 -20l5 2v-2l2 2h2 q21 -11 37 -11h9q0 7 8 7q12 -10 18 -10l16 1l11 -1l16 9h16v-2l-2 -2v-2l2 -2h2l16 24h16l2 9q-3 34 -14 34l-2 -2h-2l-7 6q0 4 20 10q5 38 14 38h11l36 -23q18 0 36 -33l-7 -3v-4q0 -3 7 -3v-11l-7 -9v-6q12 -2 12 -12l-5 -4l-4 4h-7q-9 -10 -27 -22q-10 -10 -18 -27 q-12 0 -45 -20q-10 0 -14 -12h-4l-14 2q-37 -2 -60 -8l-39 11l-17 -3q-10 13 -23 14l-16 -2l-18 9l-2 -2h-2q-6 0 -18 18q-39 12 -48 31q-12 7 -22 50v4l4 5l-2 9l2 2l-4 4q16 14 16 43h2l-2 1v8l22 18q3 12 16 12q8 15 22 20q2 11 19 11q8 0 18 18q12 0 18 11l-12 19v4 q8 0 12 9v5l-3 6v9q5 7 5 16q0 5 -5 5v4q4 0 7 7v54l4 6v19l3 20l-7 7q11 5 11 15l-6 16l2 13q-2 9 -12 9l-11 -4h-2q-9 0 -16 11l-2 2h-2q-7 0 -29 -18h-14l-7 7q3 7 21 14q0 29 27 33q14 32 22 32zM495 398h8l1 -6q0 -12 -10 -18q-8 3 -8 13v2zM422 387l3 -4l-3 -3l-4 3z M384 380h2v-4h-2v4zM492 369l11 -11l-20 -11q-17 0 -27 -16q-6 0 -9 16q0 3 21 16l11 -5zM121 342l4 -6v-3h-6l-3 3zM101 336l4 -3v-4q-2 -5 -11 -5l-5 5v6z" />
<glyph unicode="y" d="M115 438h13l13 -14l7 -15l9 -7l2 2q1 -18 9 -25v-8l-13 -12q-18 0 -18 14l-2 2h-2l-1 -2q0 8 -29 18l-2 7l5 9l-1 9v11zM384 411h1q18 -9 20 -20q40 -17 40 -20l-4 -3q-11 0 -11 7h-5l-2 -5q2 -17 9 -29q-2 0 -5 -7l-2 -2h-13q-8 4 -16 16v2l4 5v9l-25 4h-2q0 4 -11 7 l-2 9v13q6 12 22 12zM319 384h3q10 0 15 -9q-1 -5 -27 -11v2l-20 -11l-5 7v2q0 7 27 15zM171 359q0 -6 20 -15l-4 -14v-2l9 -11v-9q4 0 8 -9v-1l-2 -2l11 -25l1 1h2q1 -5 13 -10l-2 -13v-2q0 -6 5 -12l-3 -4v-4q18 0 21 -32q3 -6 26 -18l3 -5v-2l-5 -7l-13 3l-2 -2v-3 q6 -9 11 -9q8 2 15 11q14 0 14 16q6 5 22 11v3q-6 7 -6 13q0 5 22 5l2 2v2l-6 14v2l33 32h3q1 11 4 11l-2 2v11l25 18l-3 3v8q4 6 14 12h2q3 0 11 -12v-4q-9 -11 -20 -11q5 -7 5 -18q-12 -3 -12 -11q0 -15 -24 -32l-2 -2v-2l2 -7q-9 -14 -12 -30l-4 -4l4 -5v-2 q0 -24 -24 -24l-2 -1v-4l4 -14l-7 -18l5 -17q0 -3 -16 -5q-5 -16 -13 -25l-9 -31l2 -5q-3 0 -7 -11l2 -25q0 -13 -25 -21q0 -6 -6 -6v-2l4 -5v-4l-4 -10q1 -6 7 -8l15 6l3 -6v-3l-5 -7v-6l5 -5h9q12 12 31 12q17 0 34 -25l7 -9h4v-2l2 -23l-2 -7l4 -18q0 -15 -26 -40 q-12 -8 -46 -12h-6l-5 3h-24q-16 0 -36 24q-23 5 -23 16q-6 1 -29 32l-11 40l9 12l-3 13l11 11v7q5 45 14 45q15 0 20 25v3h2q-2 17 -11 35l2 32q-8 0 -20 49q-9 4 -9 14q4 0 5 13q-5 7 -7 27q-11 12 -11 18l4 16v2q-11 7 -11 25l-2 2l-3 7l1 9l-5 18v3l9 17l-2 5l-9 -2v9 q8 7 13 22h5zM279 355h4q3 0 9 -12v-2l-6 -6h-10l-8 8v1z" />
<glyph unicode="z" d="M224 434q47 -15 47 -25q19 -10 38 -33q19 0 32 -21l20 -24l7 -9v-5l-3 -6q5 -1 5 -10q-3 -15 -16 -24q0 -20 -31 -23l-3 -13l1 -7l-14 -13v-1q0 -9 9 -15l2 2l5 -2l16 2h4l13 -16l1 2h2q8 -4 13 -18q10 0 27 -31l3 -18q15 -11 15 -16l-4 -16v-2q9 -17 9 -24l-2 -5 q6 0 8 -31l-2 -7v-3l9 -11v-2l-9 -25v-9q0 -11 11 -25v-4l-4 -3l-14 3h-2l2 -21v-9q-9 -24 -20 -40l2 -2q-13 -18 -29 -28q0 -17 -25 -27q-3 -6 -26 -13l-7 2h-3q-18 -20 -45 -20q-3 -5 -18 -5l-13 5h-13q-8 0 -14 9l-14 4h-2l-6 -4h-7q-5 0 -30 20q-31 5 -31 16l2 2v2l-4 3 q0 7 -23 13l-4 7q0 9 4 9l-9 20l5 7v11q-7 0 -7 3v15q18 14 18 41l7 11l9 4l2 -2l13 9l7 -6l16 2h2q0 7 3 7q18 0 31 -19q23 -8 32 -22q-14 -13 -14 -18l2 -20v-7q-5 -9 -15 -9l-10 5h-22l-13 8q-10 -5 -10 -8l5 -7v-7l-4 -5q4 0 9 -18h6l7 5h5q8 -4 11 -14l22 -8q7 6 27 9 l12 -7h8q8 4 16 13h18q9 9 18 9q9 16 29 32q0 7 18 18l-2 11q12 0 12 25q3 0 9 36l6 6l-15 19l2 2l-14 20v1q0 4 5 4q-21 52 -41 52q-13 22 -16 22q-24 18 -35 18h-3q-10 -11 -22 -11q-7 0 -16 -7h-5l-20 -2q-19 4 -34 25q-3 0 -6 9q0 4 24 22q9 22 23 30q0 10 18 15 q0 14 22 25q0 4 12 14q1 13 20 33v7q0 9 -40 22q-8 0 -18 10l-10 2h-2q-16 0 -16 -16q-6 0 -44 -34l-36 -4q0 21 -14 33q20 20 20 25q0 22 39 38q4 10 11 10l25 17q9 27 15 27q13 7 23 7z" />
<glyph unicode="{" d="M333 607l20 -7l13 2h25l11 -7l19 7q13 -5 17 -13l-11 -3h-24l-3 -8v-1l3 -4h20l11 5l9 -1l2 1h2q5 -3 37 -5l4 -5v-2q0 -4 -14 -6l1 -5l22 2q4 -5 20 -11l2 -2v-2l-6 -7v-5l11 -11l-9 -9h-2q-3 0 -9 13l2 1h-7l2 -1v-2q-5 0 -6 -7q0 -16 25 -26q4 0 4 -5q0 -8 -20 -11 q-9 -7 -9 -21l-7 -6l-5 4q-4 -9 -8 -9v-4q6 0 6 -5q14 -3 14 -7v-2l-3 -6v-5q3 -11 12 -11q7 0 7 -3v-8l-3 -5v-2q7 -8 7 -12q-9 -9 -40 -17l-16 -16l-18 13h-2l-18 -6h-3l-16 13h-11l-20 4h-2l-2 -6l4 -3q0 -4 -14 -6l-13 -23l5 -6v-1l-5 -2l-2 2h-3v-6l1 2h4l4 -4l5 -7 q-9 -11 -14 -11v-7l12 -2h9v-5q-21 0 -25 -11v-9q8 -14 16 -14v-2l-7 -9l4 -13q-4 0 -11 -14q14 0 14 -13v-10l-5 -8l14 -10v-4l-7 -7l2 -11l-2 -13l7 -16h6q0 13 10 13l15 -7q45 11 45 25h3q26 -2 26 -25q0 -10 9 -11l5 -7v-2l-27 -24q-6 -19 -13 -21l-1 2h-2q0 -3 -18 -15 q-6 -23 -22 -23l-20 -13q-3 0 -9 -12l-12 -4h-2l-9 8l-5 -4h-8q-3 0 -10 14h-24q-11 5 -20 25q-6 6 -12 6q0 -8 -11 -15h-29q0 -8 -21 -9q-19 -17 -40 -17q-21 10 -34 10q-24 23 -29 23q-13 0 -13 9q-7 0 -9 11h2q0 4 -23 22l-16 39l1 6l-1 2q-9 4 -9 9l1 1v2q-4 14 -10 22 v2l3 19v2q-14 14 -14 40l-2 5l11 13l-7 12v4l3 14v22q4 0 18 18q-3 7 -3 20l9 11l-8 12q3 7 22 16q13 36 16 36l27 22q33 7 33 23q10 13 14 13q32 -7 32 -13q17 0 27 -16h8l10 9h6l20 -16h3q10 0 11 5q-5 0 -5 4t5 4v7q-5 0 -16 12v4l23 27q-4 0 -7 14v6q-10 0 -14 7v4 q6 8 32 19v2l-4 4h-5l-9 -7q-4 12 -22 12v4q8 0 8 5q0 4 16 20l34 -5q5 0 13 7h1l6 -6l7 2v6q-7 0 -7 5v18q0 5 14 7zM355 568v-6l5 -2l2 2v6h-7zM418 560v-1h7v1h-7zM418 508l-9 2l-2 -2l2 -2q-2 -21 -40 -21l2 -18v-13l5 -2l9 2l15 -5q18 10 18 14l-11 7v8q2 7 16 7v14 l2 13h-2zM472 487l3 -4h4l2 5l-2 2h-4zM270 443v-3l9 -4v6l-3 3zM506 433l4 -4l-2 -2h-4l-3 4l1 2h4zM128 350q-10 -19 -22 -33h-5l-2 2l-2 -2h-1l-6 2l-2 -2l6 -18l-2 -1v-2q0 -6 14 -9q10 32 24 32q1 7 5 7h4l3 -3v-4q-10 -7 -10 -12l-6 -4h-9l2 -13v-5q-13 0 -18 -13 q-9 0 -14 -10q-11 0 -11 -22q3 -8 7 -9l4 4h1q10 0 13 -8q-7 -3 -7 -9l2 -16l-8 -11v-1l17 -15v-7l-6 -7v-4q2 -5 11 -5l2 2l11 -8v-9l-2 -1q0 -8 38 -17l27 -12q9 2 30 18l7 2l18 -4l4 4l-2 1v2l9 11q0 6 -7 14v6q5 0 5 3v6q-10 0 -10 9l-2 -2h-2l-4 4l2 1h2l2 -1h2 q11 9 27 14v2q0 5 -18 12l-2 2v4l3 5v2l-16 13v1l24 17v3q-6 7 -6 13l2 9q-18 3 -18 16q0 6 22 22v9h-2q-13 0 -18 -18h-9q-3 3 -22 3q-15 15 -34 15q-21 13 -25 21zM353 254h2v-5l-4 -4h-2v6zM369 134l2 -2v-2l-11 -7h-2q0 11 11 11zM348 -30h5l4 -3l-4 -4h-5l-4 4z M308 -46h5l6 -5q-2 -6 -11 -6h-5l-4 4zM369 -48h6v-5h-2l-4 4v1z" />
<glyph unicode="}" d="M165 599q8 -3 9 -7v-14h2l5 3h15q20 0 32 -11q12 0 20 -12v-2l-2 -2v-2l2 -1h2l7 1l7 -1v3l-7 11v4l16 5q0 -4 9 -5l38 9q12 0 12 -24l2 -2q0 -3 6 -3l1 2h2q13 -5 13 -8v-1q0 -7 -20 -9q-5 -24 -7 -24l-7 7l-11 -12q-11 0 -15 -18l-7 -7l-14 1l-15 -5v2l-21 -7l-18 7 l-20 -4h-2q-16 8 -16 15q0 10 -5 16q-14 -12 -27 -15l-6 2q-20 -21 -32 -21l-9 1l-2 -5l11 -4l7 2l9 -12l9 1h2q13 0 14 -5v-5l-12 -15v-3q45 -6 45 -9l-11 -9v-6q0 -8 34 -12v-6q0 -3 -11 -5v-11l4 -5v-4q-11 -12 -11 -16l9 2q20 -5 20 -9l-11 -18v-27l-2 -13q7 -3 7 -5v-4 q0 -3 -14 -14l2 -9l-9 -9v-6q7 -6 7 -16q18 -5 18 -7v-2q-9 -14 -13 -14l-5 1l-7 -25v-7q18 -1 18 -7q0 -4 -22 -18v-2l6 -7l-6 -22q0 -5 22 -5l2 -2v-2q0 -4 -13 -7q-9 -14 -9 -25q4 0 9 -18q11 -4 11 -7v-4q0 -3 -20 -7l-2 -7l4 -15q-8 -3 -9 -7v-3q0 -6 7 -6l13 2l3 -5 v-4q-3 -7 -11 -7l-1 2l-11 -11l5 -13l-5 -9v-7q0 -3 14 -9v-2q0 -5 -11 -5q0 -4 -7 -4l-2 -7q0 -7 9 -7v-2l2 2h2l9 -7q-2 -5 -16 -13v-3q0 -4 11 -8v-1q-18 -13 -18 -38q-12 -3 -22 -22h-4q-28 14 -28 31l1 9l-5 14l7 11l-7 14v11l2 20l-2 7q7 3 7 13v3l-7 13v20q-7 0 -7 5 q16 10 16 13l-5 14l1 16l-3 11l9 7v5l-7 20q0 4 5 4l2 5l-2 13l5 14q0 9 -7 22q4 7 4 20l-2 1h-2l-5 -1l-2 1v2q11 3 11 6v7q0 6 -6 12v6q8 8 8 12l-8 6l-1 -2l-2 2v2q4 5 18 10q0 17 -13 44l7 12v9l-5 2l2 13l-6 21l4 9l-7 24l-7 -2q-9 1 -18 11h-18q-15 5 -20 18v5l-2 31 q9 2 9 18v1l-2 22q2 25 7 31l-3 10q0 11 25 45v4q-5 0 -5 4v3q0 4 7 4q0 14 27 23l14 -2q0 24 15 24q0 3 14 5zM377 531h6q18 -11 18 -20l27 -13q5 -14 14 -23v-7q0 -6 -18 -6l-9 -7v-5q5 0 9 -7v-11q0 -4 -5 -4v-7l12 -14v-4h-5q-14 13 -22 13q0 -4 -5 -4l13 -22l9 -5 q0 5 3 5q8 -14 15 -14l9 9h14l11 2q7 0 14 -13v-2l-20 -23v-5l4 -6v-3l-9 -9h-9l-11 7h-2q-9 0 -25 -24q-14 -4 -14 -12l2 -13l-2 -2h-2l-5 2v-3l10 -11l4 3h2l5 -5l-7 -4l-5 2l1 -2v-5q0 -9 -9 -14v-4h-1l1 -9v-4l-14 -18q0 -4 13 -7v-7l-9 -7v-6q10 -7 10 -32l2 2h9l2 -2 h2q0 -17 -15 -27l6 -5q-13 -6 -13 -18l7 -6l2 2h4l7 -7l-4 -13l8 -5l30 9h2q20 -6 20 -24q0 -5 3 -5l8 2l10 -15q-48 -22 -48 -34l-7 -5h-6l-3 3l-11 -6h-7l-6 5l4 3l-9 2l-2 -2h-2q-4 0 -29 20l-9 4h-5q-6 0 -13 -8l-3 4q9 5 9 13l-9 23q-19 0 -27 13v3l3 20l-1 2v2l10 9 q8 -9 15 -9l9 21q0 7 -18 7l-2 2v4q0 2 25 9v9q-14 0 -14 36l7 12l-7 13l2 9v13l-11 9v5q14 5 14 9l-2 14l2 2v2q-8 11 -16 29l-2 -2h-3v2q4 6 21 14l2 9l-25 7l-4 -3q-6 12 -9 12q-6 0 -30 -14h-4l-5 7v15q14 10 14 23l2 5q9 0 9 8l18 -2q23 0 29 21l14 2l9 -2v15l5 7v4 q-14 0 -21 12v4q2 6 21 20v9q-13 0 -14 32l13 14zM127 509h6v4h-2zM219 495v-2h11v4h-2zM410 479l7 -4l7 2v7h-9zM439 394h1l4 -4l-2 -1h-2l-1 1v4zM440 371v-4h4v4h-4zM419 353v-4h7v4h-7zM187 340l-2 -7l5 5v2h-3zM390 335v-2l4 -4l5 2v4l-4 3h-1zM415 333l-14 -15l2 -1h7 l11 10zM347 313v-4q0 -4 12 -5v9h-12z" />
<glyph unicode="~" d="M387 565q-1 -2 -1 -3q-9 -4 -10 -5.5t-3 -10.5q-6 0 -6 -6.5t-3 -7.5l-5 4h-4q-3 0 -19 -16.5t-18 -20.5q-3 2 -6 2q-5 0 -11.5 -7.5t-9.5 -9.5q-2 2 -4 2q-3 0 -7 -4.5t-6 -5.5q1 -1 1 -3q0 -3 -6.5 -4t-11.5 -2q-2 6 -11 14q-5 1 -10 6l5 1l2 3q0 2 -3 5.5t-3 5.5v2 q-10 7 -10 11.5t-7.5 8t-8.5 7.5q3 1 3 5q0 2 -1 4v4q-10 -6 -22 -23q-2 2 -5 2q-4 0 -12 -8l-9 -9q-4 2 -6 2q-3 0 -6 -4.5t-5 -5.5q0 -6 -6 -7l-12 -2q-2 7 -11 14q-4 0 -10 6l6 1q1 1 1 3t-3 5.5t-3 5.5q0 4 5.5 9.5t5.5 9.5v1l4 -2q4 1 5 7.5t3 7t7 2.5t8 2q1 7 1 12 q0 2 7 3t7 8q0 2 -1 5q2 2 6 2q1 0 4 -1h4q3 1 3 3q0 1 -1 3v3v1q-2 2 -2 5q5 0 9 -7h3q6 0 6 14q2 0 6 -1h5t12.5 4.5t16.5 4.5t11 -5.5t10 -10.5q0 -6 5 -15.5t10 -9.5t9 -6l6 -10v-8q5 1 5 7q0 2 -1 5q2 2 6 2q1 0 4 -1h4q3 1 3 3q0 1 -1 3v3v1q-1 1 -2 4l1 1q3 -3 8 -7 q2 -1 3 -1q3 0 4 5.5t2 9.5q2 0 5 -1h6t12.5 4.5t16.5 4.5q2 0 21 -16q0 -3 2.5 -9t2.5 -8z" />
<glyph unicode="&#xa0;" />
<glyph unicode="&#xa1;" d="M302 182v-11l-5 -9l2 -3h1v-27h-5l-3 -3v-8l3 -12l-2 -14l-6 -6l-3 -7l-1 -26l-5 -3l-5 -28l-4 2l-3 -4v-10l-2 -8l-7 -5h-7v5l-5 11h-2l-3 1l-4 -4h-5l-4 3l-12 13l-4 14l2 4l-3 5l-9 8l-3 16l-4 10v9l4 12l7 -3l2 5v9l-9 11l1 20l-2 4v5l1 6l8 12v5l-1 6l-3 4v17l4 3 l4 13l-6 13h-2v9l4 3l1 12l-5 2v6l6 6v19l-6 9l2 10l2 5v42l4 32l8 14h3l2 -3l5 6v11l3 8l3 -5l7 -1l8 4h7l3 -6v-5l-2 -4h-3l-7 1l-3 -4v-10l4 -6l6 -2l5 5l2 6l3 5l10 -10v-14l3 -6l6 -1v-9l11 -20v-4l-4 -16l3 -3h1v-4l-4 -6l-2 -19l7 -9v-5l1 -13l4 -6v-12l-10 -13 l-2 -17l2 -5h2v-8l-5 -8v-7l3 -7l6 2l8 -3zM323 561l2 -14l-2 -2l-3 -2l-1 -7l8 -17l-4 -4l-3 -1l-7 10l-4 1l-4 -3l-3 -12l-2 -2h-12l-3 -2l-4 -6h-3l-14 2l-11 -10l-23 -1l-11 -4l-2 2v13l-9 8h-6l-2 2l1 2v3l-11 12v6l2 1v4l-11 6v4l5 7v2l-4 9v21h8l6 5v7l-2 2v5l5 4 l14 1l2 3l2 13h5l3 -2l5 -3l17 3l12 2l15 -2l8 6l5 -6h10v-10l7 -7v-15l4 -4h5l5 1l3 -2l2 -16l4 -6zM204 156l-2 -2l2 -6h1l3 4v2zM233 315v3v-3zM266 378l-6 -2v-6h5l2 3z" />
<glyph unicode="&#xa4;" d="M349 294q0 -6 -3 -11v-2q0 -4 -5.5 -11t-5.5 -11q5 -10 5 -14q0 -3 -3 -4q-2 0 -4.5 2t-4.5 2q-6 0 -7.5 -9.5t-10.5 -9.5q-3 0 -7.5 -5.5t-8.5 -6.5q-3 2 -5 2q-5 0 -10.5 -5t-8.5 -5t-6 3q-5 0 -11 -3.5t-9 -3.5q-2 0 -6 3t-6 3t-6 -2t-6 -2q1 0 -13 9t-40 10l-2 1 q-2 8 -10.5 26t-8.5 29q0 4 -3 9.5t-3 8.5l3 6q-1 1 -1 7q0 -1 1 18q2 2 9.5 18.5t7.5 20.5v1q2 4 11 8.5t9 10.5q4 2 10 2q5 0 12 -2q6 3 15 14q2 1 4 1t8 -2l5 -7q4 3 19 3q8 0 11 -1q5 -5 8 -5q1 0 4 1.5t6 1.5h1l11 -1l-1 -3q1 0 3.5 -1t3.5 -1h1q5 -4 14 -13l-1 -1 q0 -3 4 -6.5t4 -10.5q0 2 8 -13q15 -5 15 -6t-1 -5v-8q0 -5 4 -9q-1 -3 -1 -6q0 -2 1 -7t1 -8zM310 307q0 6 -8 13l1 2q-1 2 -3 7q-3 2 -21.5 8t-22.5 6q-4 -4 -8 -4q-2 0 -6.5 2t-7.5 2q-2 0 -4.5 -3t-5.5 -3q-1 0 -5 1t-7 1q-6 0 -8 -7q-8 -6 -11 -6h-2q-15 -8 -15 -38v-5 q0 -3 3 -9.5t3 -9.5q4 -2 12 -12t17 -10q2 0 3.5 3t3.5 3q3 0 4 -6t8 -6t14 5l-1 5q2 2 5 2t3 -4l-1 -3q0 -9 12 -9q5 0 7 9.5t5 9.5q2 0 6 -2t6 -2t8 6t6 8t-4 5.5t-4 6.5q0 5 6 5q2 0 2 -4v-5l-1 -3q9 0 9 7q0 6 -6 14q1 4 4.5 10.5t3.5 9.5z" />
<glyph unicode="&#xa6;" />
<glyph unicode="&#xa7;" d="M275 673q30 -10 36 -20h18q29 -14 29 -36q6 0 18 -18q-3 -9 -9 -9v-16h3v-14q0 -8 9 -15v-1q-1 -6 -14 -6h-22l-14 -11h-6l-39 11l-6 7q6 0 6 9q0 5 -9 13v2q6 11 16 11v7q-15 0 -18 14q-7 0 -7 6l3 3l24 -3l3 3q0 7 -21 7l-6 6h-3q0 -13 -24 -13q-26 -12 -32 -30 q-20 0 -20 -8l-2 -12q4 -9 27 -20q0 -7 -21 -14l-7 -8v-9h3v-1l2 1h11l11 -1l14 5h7l4 -4q0 -6 -13 -12v-13l7 -2l2 2l2 -2v-7l-2 -2v-1l2 -2h2l2 2q20 0 28 -13q11 0 18 -13q8 0 8 -7q25 -20 39 -20q15 -5 15 -28q25 -13 30 -29q13 -3 13 -7l-2 -17q6 0 11 -34q11 -4 11 -7 v-4q0 -3 -6 -3v-2q0 -7 11 -18l-2 -2h-2l-7 2l-5 -2v-2q0 -10 12 -23q0 -6 -5 -13v-9l4 -5l-13 -14v-4q0 -6 5 -13v-7q-12 -14 -12 -23q3 0 3 -6q-14 -17 -14 -23l2 -7q0 -10 -24 -18v-2l6 -5v-13l-7 -9v-2l12 -20l6 -5v-27q0 -9 -6 -11l-2 2l-5 -19l4 -11q-4 0 -11 -13 q-10 0 -15 -27q11 0 11 -3q-9 -12 -23 -18l-4 -4h-2l-1 2h-2l-7 -11v-7l12 9h4l3 -4v-3q0 -6 -34 -15l-2 2q-8 -1 -14 -9q-8 0 -31 -11h-3l-18 4l-7 -2q-11 2 -18 9h-13q-25 4 -25 13q0 12 -27 21l-6 15v1l9 11v2l-9 11v5q1 4 18 11q17 17 17 25l-2 2l2 2h1l2 -2q0 10 40 21 q7 0 7 -11q22 -2 22 -17l9 -9l1 2l2 -2v-2l-2 -2q6 0 6 -3l2 1l9 -1l10 1l22 -12h5q11 7 15 16v4l-9 10v2q0 4 5 4v5l2 11l-11 16h-14l-2 -2h-2l-2 2v2l9 3v16l-7 6l-11 -9h-3l-13 9v3q7 0 7 15q0 13 -32 16q-9 3 -9 16q-23 5 -23 20q-7 0 -11 9h-4v2l-9 -2h-3l-8 5l2 9v2 q-13 3 -36 40q-14 0 -14 11h2q0 5 -18 23q0 5 7 16l-11 13v2q3 8 23 14v4h-10q-10 0 -13 7v7l9 13v1l-5 15l5 7l2 -2q10 2 16 7q0 4 -13 15v5q2 8 26 15v5l-4 7q0 13 11 25l-7 13q13 9 19 9h4l5 -4l8 6q0 4 -15 20q0 10 7 10v8l4 19v2l-25 -3l-7 10v6l12 12v20l4 4l2 -2 q8 3 9 7v4h-6l-5 -4h-7l-9 11v7l1 2q13 7 13 14v13q7 6 9 16l11 4h5v9l-9 9v2q6 0 25 16q7 0 15 5l5 -3q8 0 22 18q14 9 23 9h2l2 -2zM248 569l3 -4l-3 -3h-6v1zM262 448v-2l4 -3v5h-4zM181 383l2 -12v-2q0 -5 -25 -7l-2 -2v-2q9 -10 9 -16l-7 -23q-3 -17 -20 -17v-3l7 -4 l-2 -2v-7q7 0 33 -23q17 -4 29 -15l1 -12l-1 -6q4 -4 25 -7q8 -18 25 -32l14 3h4l5 -3l-1 -9v-4q9 -14 18 -14q10 0 32 11q25 4 25 14l-3 11v5q10 10 10 18v15q0 7 -18 7v2l-1 -2h-4l-4 3v2q0 3 9 6l2 12q-2 8 -12 13h-15v18q-11 10 -11 18h-16l-2 2h-1q0 16 9 25l-2 2h-2 l-7 -2q-1 5 -13 5l-14 -2l-4 4l2 9v4q-5 9 -11 9l-11 -2q-11 0 -12 18l-13 5q-21 -3 -27 -11zM196 371h7l5 -6l-16 -5v7zM205 311v-5h-2l-4 4l2 1h4zM122 304v-3l3 -4l6 5l-2 2h-7zM181 301h4v-4h-4v4zM322 160l-2 -9l3 -3l9 1v8l-3 3h-7zM386 63h8v-2l-4 -3h-4v5zM248 2h7 l5 -5l-3 -4h-4l-5 6v3z" />
<glyph unicode="&#xa8;" d="M378 570q-1 -3 -3 -34q-2 -21 -16.5 -26t-19.5 -5t-11.5 -5.5t-12.5 -5.5q-4 4 -10 4q-4 0 -9.5 -2.5l-5.5 -2.5q-13 0 -13 21q0 6 -10.5 13t-10.5 13q8 5 8 12q0 3 -1.5 9t-1.5 9q0 14 19 27q15 11 30 21q4 -1 11 -4t11 -3q6 0 11 5q5 -1 7 -9t5 -9q13 -5 15 -11 q5 -13 8 -17zM230 545q0 -9 -7 -16t-7 -9t-7.5 -3.5t-12.5 -10t-10 -9.5q-3 2 -6 2q-6 0 -12 -6l-6 -6q-9 0 -16 9.5t-9 11.5q-10 2 -22 13q3 3 3 8t-5 14.5t-5 13.5q0 13 12 29q16 20 18 26h4.5h6h4.5q13 0 17 9q6 0 10 -5.5t12 -5.5t15 -8q10 -11 12 -12q0 -8 5.5 -22.5 t5.5 -22.5z" />
<glyph unicode="&#xaa;" />
<glyph unicode="&#xac;" />
<glyph unicode="&#xad;" />
<glyph unicode="&#xb0;" d="M359 504q0 -6 -3 -11v-2q0 -4 -5.5 -11t-5.5 -11q5 -10 5 -14q0 -3 -3 -4q-2 0 -4.5 2t-4.5 2q-6 0 -7.5 -9.5t-10.5 -9.5q-3 0 -7.5 -5.5t-8.5 -6.5q-3 2 -5 2q-5 0 -10.5 -5t-8.5 -5t-6 3q-5 0 -11 -3.5t-9 -3.5q-2 0 -6 3t-6 3t-6 -2t-6 -2q1 0 -13 9t-40 10l-2 1 q-2 8 -10.5 26t-8.5 29q0 4 -3 9.5t-3 8.5l3 6q-1 1 -1 7q0 -1 1 18q2 2 9.5 18.5t7.5 20.5v1q2 4 11 8.5t9 10.5q4 2 10 2q5 0 12 -2q6 3 15 14q2 1 4 1t8 -2l5 -7q4 3 19 3q8 0 11 -1q5 -5 8 -5q1 0 4 1.5t6 1.5h1l11 -1l-1 -3q1 0 3.5 -1t3.5 -1h1q5 -4 14 -13l-1 -1 q0 -3 4 -6.5t4 -10.5q0 2 8 -13q15 -5 15 -6t-1 -5v-8q0 -5 4 -9q-1 -3 -1 -6q0 -2 1 -7t1 -8zM320 517q0 6 -8 13l1 2q-1 2 -3 7q-3 2 -21.5 8t-22.5 6q-4 -4 -8 -4q-2 0 -6.5 2t-7.5 2q-2 0 -4.5 -3t-5.5 -3q-1 0 -5 1t-7 1q-6 0 -8 -7q-8 -6 -11 -6h-2q-15 -8 -15 -38v-5 q0 -3 3 -9.5t3 -9.5q4 -2 12 -12t17 -10q2 0 3.5 3t3.5 3q3 0 4 -6t8 -6t14 5l-1 5q2 2 5 2t3 -4l-1 -3q0 -9 12 -9q5 0 7 9.5t5 9.5q2 0 6 -2t6 -2t8 6t6 8t-4 5.5t-4 6.5q0 5 6 5q2 0 2 -4v-5l-1 -3q9 0 9 7q0 6 -6 14q1 4 4.5 10.5t3.5 9.5z" />
<glyph unicode="&#xb1;" />
<glyph unicode="&#xb2;" />
<glyph unicode="&#xb3;" />
<glyph unicode="&#xb5;" />
<glyph unicode="&#xb9;" />
<glyph unicode="&#xba;" />
<glyph unicode="&#xbf;" d="M282 0l-5 6l4 3l5 -5zM347 4h-2v3h2v-3zM394 16q-10 4 -18 15l-11 -4q-23 0 -23 18h-11q-2 -21 -11 -21l-5 1l-16 -5q-8 2 -8 7h-3l-7 -5l-15 3l-9 -1l-11 1l-3 -3h-22q-4 0 -12 16q-12 0 -29 11q-7 0 -22 16q-21 7 -21 14t-18 20q0 29 -15 29l-3 5v2l10 2v9 q-14 0 -18 13q-6 0 -10 10q0 10 9 15l1 -11h2l4 4v1l-4 15v21q-16 5 -16 8v5q11 11 11 23q7 0 14 22l2 2h2l2 -2h1v5l-9 4h-9v4l9 7q0 4 20 9l4 9q-12 0 -20 12v4q2 5 11 5l2 -5h7q7 7 25 11v7q-9 1 -9 5q0 33 14 33h2l6 -11h10l4 11l2 -2h3q7 0 11 27l2 -2h5q6 0 13 6 q10 -4 18 -13h5q9 13 18 14l11 -3l15 5l-2 2v5l9 9q0 4 -7 4v5q9 0 12 9l-2 2l6 4l9 -7h5q7 5 25 9l4 -4v-2l-4 -14q0 -6 15 -27v-6h-4v-3l16 -33q8 0 15 -34l7 -5v-4l-5 -5l3 -11v-4q0 -3 -18 -10l-7 -20l4 -4l-4 -3l-2 1h-2l-14 -7h-4l-7 11q-17 0 -25 13q-15 0 -18 28 l-13 31l-5 4h-2l-11 -9q-8 0 -21 10l-6 -1l2 -2v-4q-22 -16 -27 -16v-4l4 -5q0 -11 -20 -14l-2 -2v-2l4 -5v-6q-4 -9 -18 -9v-5l9 -13l-9 -14v-2l7 -11q-7 -11 -7 -16v-4q0 -2 7 -5q3 8 7 9l6 -5l-11 -13v-4l9 -9l2 2l1 -5l-1 -15q0 -8 18 -21v-2l-4 -5l5 -4h4l5 2v-2 q17 -10 17 -20q12 0 12 -7h6v4h3q6 0 11 -22l11 -2q12 9 20 9l14 -20h14q11 0 17 15h1l11 -13q9 0 16 27l6 4h3l9 -6l11 6q9 -4 9 -11l7 -5h6l14 7l9 -4v2q0 4 -9 4l-2 5q2 7 15 7q7 -2 7 -5v-4l-9 -9q4 -3 5 -27q0 -5 -16 -14q0 -16 -43 -42zM313 92h-2l-2 9l2 2h6l3 -4z M101 141h-4v3zM124 348h-2v3h2v-3zM261 353v2l-2 2l-5 1v2l-6 -2q2 -5 11 -5h2zM111 402h-3v3h3v-3zM207 412q-16 3 -16 8v1l3 4h9l6 -5zM155 443h-4v4zM336 513h-5q-9 4 -9 11h-4l-27 9q-12 22 -12 29l-2 -2h-2l-7 7q-13 5 -13 7q0 4 11 8v1l-2 11q3 6 38 15q0 4 18 8 q9 -5 25 -7l22 -21v-20l4 -14q-16 -20 -29 -20zM176 531l-2 2v2l4 3h2v-3zM273 537h-1q-9 9 -13 9v5l4 4q2 -9 12 -9l4 -6z" />
<glyph unicode="&#xc0;" d="M441 593q13 0 25 -22q0 -6 -14 -16l1 -5l9 2l2 -2v-2q0 -3 -9 -5v-4h-11l2 -2v-2q0 -9 -23 -30l-16 3v-1l3 -6l-5 -9q0 -17 11 -25v-7q0 -12 -17 -20l-1 -7l1 -6l-9 -10l2 -2l-7 -9l7 -6l2 2h2q16 -4 16 -9q-5 -9 -14 -14h-2l-2 2h-2l-2 -6l2 -14l-7 -4v-7q21 -14 36 -14 v-4l-5 -5h-24l-5 -6l3 -12h9q14 -3 15 -8v-1q-11 -11 -11 -18q0 -4 20 -4l2 -2v-5q-2 -7 -18 -7l-13 5q-7 -6 -7 -11q8 -3 20 -20v-1q-17 -27 -22 -27q0 -7 13 -18q0 -15 7 -20l-4 -6v-3l6 -6h1l6 4h3l13 -13q0 -8 -29 -16v-12l4 -6l-7 -9v-3q1 -6 10 -6q2 6 13 9 q14 -22 40 -30q0 -4 14 -11v-6q-38 -55 -52 -55l-22 -5q-8 6 -41 12l-9 25v4l3 12q-5 6 -36 16v2q0 4 29 9l2 -2v4h-4v16q-6 14 -12 16h-6q-16 -5 -16 -18q-7 -1 -7 -10q-9 0 -32 -26l-22 -16v-5h9l5 -6v-5l-5 -5h-5l-6 7l2 7h-2q-5 0 -14 -18v-2l2 -2v-1q-8 -6 -47 -6 q-1 4 -9 7v-3l2 -9l-6 -3h-5l-9 8v7l2 2v2l-2 2h-9l-11 -2q-4 0 -18 20q-23 6 -23 12v2l3 6v5q0 4 -16 9q0 3 -13 9h-5l-7 -5h-6q0 17 -27 21l-5 9q7 6 13 6l9 -4q7 2 7 9q-10 0 -24 16v6q6 7 20 12v2h2q0 -4 7 -4q0 -3 20 -9l2 -1v3h-4v2l7 11v3l-12 15v3q4 6 14 9l7 -1 q15 0 15 7l-2 2v1q13 33 25 33l20 -2v7l7 22q-11 0 -12 5v4q30 7 45 7q23 -5 23 -9q-23 -13 -23 -27l-2 -23h-2l-13 9q-18 -4 -18 -17l4 -10l-7 -17l2 -5l-2 -2h-2l-4 4l2 2v1l-9 9q-9 0 -18 -19q-3 0 -16 -13l-9 -2v-7l9 -2l5 4l6 -2l20 2h5l18 -27l7 2l16 -4v-5 q-10 -2 -10 -6q18 0 18 -16q-9 -3 -9 -7h3l13 5l7 -2q4 0 20 13h3q0 6 13 9l7 -2q0 4 6 4l-2 2q0 13 21 21l2 -2q7 0 18 17v7l-3 5q0 8 36 20v4h-4v5q5 0 5 5q18 0 18 20l-3 4q1 5 14 5l2 -2l4 9l-24 9q-11 2 -11 6q0 18 22 18l5 5l2 -2h2q0 6 7 15v2l-9 7h-5l-7 -4 q-5 0 -17 16l8 13l-2 13l20 12l5 -2l2 2v2q-11 0 -18 9q-11 0 -16 9v5l3 4q1 -5 15 -5h1l4 3v7q0 13 -11 24l2 2h5q11 -7 11 -13h6l7 7v7q0 6 -24 6h-3l-6 -4h-1l-11 9v6q0 6 21 12l6 6q0 3 -11 5q-4 13 -11 13l-5 12v7l2 2l-2 2v2l2 2q0 10 -17 10l-5 6v12l9 2h13v6l-8 9v3 l6 6h11l5 -4h4v4l-4 7q4 11 13 11l9 -2v3l12 -3q7 2 7 9l-1 2h-6l-7 -2l-5 2v1q0 4 7 4q5 16 16 16l4 -12h16l5 -4l24 25zM126 579q19 -6 21 -15v-7h-3v-4l2 2h1l13 -23q-17 -27 -20 -27q-11 5 -11 12h-3l-7 -5h-4q-4 0 -5 16h18l1 7l-9 15l2 7h-11l-9 -2l2 2l-2 2v2 q17 18 24 18zM173 550h3v-4h-3v4zM95 537l9 -7q-14 -11 -20 -11l-1 2v2l9 7q0 7 3 7zM174 526l29 -9q-5 -9 -11 -9v-1q0 -6 24 -11q6 0 9 -29l-6 -11v-12h4l5 3q13 -8 13 -20q-8 -20 -13 -23l-12 -2v-5q5 -14 14 -22q-1 -5 -14 -5l-4 -6q11 -10 11 -16h2l2 2h1l2 -2v-3 l-3 -4l-2 2l-2 -9l5 -11v-2l-16 -14v-4q6 0 31 18h5v-3l-12 -11q0 -18 -27 -25l-9 -9h-2q-13 5 -18 16q0 3 18 14l2 2v2q-9 7 -9 16l1 13l-3 14q11 5 12 9l-1 16l3 6v5l-9 11v2q6 0 6 3q-11 21 -11 27l2 6q-18 5 -18 21q0 5 -13 16l-11 15v2q9 4 9 23q0 3 13 7q0 7 3 7z M36 525h3v-2h-3v2zM70 523l2 -2v-4l-4 -3h-3l-4 3zM421 496h2v-4h-2v4zM200 463v-5l9 -2v4l-4 3h-5zM317 391h9l3 -3q0 -5 -16 -7l-2 1v2zM311 336h4l3 -4l-3 -4h-7v4zM142 166h5v-1l-3 -4h-2v5zM383 147l-5 -9l7 -4l7 5v2q0 4 -9 6zM57 123v-5l4 -4l18 20h-2q-13 0 -16 -11 h-4zM196 112h4l5 -5l-4 -4h-5l-4 4v2zM155 100l-2 -7h2l5 5v2h-5zM86 89l2 -2h2l5 2l-3 4h-2zM378 78v-2h7v6h-4zM414 708q0 -4 -7 -8.5t-8 -8.5q-9 -5 -9 -19v-6q0 -6 -1 -10q-3 3 -6 3q-4 0 -11 -3t-10 -3q-8 0 -10 12q-4 0 -12.5 4.5t-12.5 4.5q-6 0 -10 -6 q-7 0 -21.5 8.5t-21.5 8.5q-8 0 -15 -7q-2 3 -39.5 22.5t-40.5 19.5q-8 0 -15 -5l-6 -10q-7 0 -10.5 10.5t-9.5 10.5q-3 0 -6 -1q-9 15 -13 17q-11 1 -21 3q-4 5 -4 16v5.5v4.5q0 8 -1 12q7 15 14 29t27 14q4 0 10 3.5t10 3.5q3 0 9 -3.5t10 -3.5q1 0 4.5 1.5t4.5 1.5 q5 8 14 8q5 0 8.5 -12.5t8.5 -12.5q3 0 9 6q1 16 10 17q1 -1 1 -5v-2.5v-2.5q1 -1 2 -8.5t7 -8.5q14 8 21 8q2 0 4 -1q7 -18 10 -18l6 1.5t13 1.5t7 -9.5t8 -13.5h4q3 0 8 -1t7 -1q6 0 12 4q2 -2 7.5 -12t12.5 -10h1l6 6q2 -8 17.5 -16t15.5 -13q0 -4 -2.5 -10t-2.5 -9 q0 -5 6 -9q4 4 7 4z" />
<glyph unicode="&#xc1;" d="M424 793q-3 -5 -3 -10q0 -2 1 -7t1 -8q0 -7 -4 -13q-11 -2 -21 -3q-3 -2 -13 -17q-3 1 -5 1q-8 0 -11 -10t-10 -11l-6 10q-6 5 -12 5q-4 0 -12 -3q-8 -12 -35.5 -19t-35.5 -20q-7 7 -15 7q-7 0 -21.5 -8.5t-21.5 -8.5q-6 6 -12 6q-3 0 -10.5 -4t-12.5 -5q0 -11 -6 -11 q-4 0 -12.5 4t-12.5 4q-3 0 -5 -2q-1 2 -3 17q-1 10 -8 14q-1 4 -8 8.5t-7 8.5q2 1 4 1q4 0 7 -3q6 3 6 9q0 3 -2.5 9.5t-2.5 9.5q0 5 15.5 13t17.5 16l6 -6h1q7 0 12.5 10t7.5 12q6 -4 11 -4q3 0 8.5 1t8.5 1h3q8 4 8 15v1q0 7 7 7q4 0 10 -1.5t8 -1.5q5 0 8 9t4 9.5t3 0.5 q4 0 21 -8q9 1 9 17q0 7 0 5q0 5 1 5q4 -5 11 -17q5 -6 9 -6t7.5 12.5t8.5 12.5t12 -5.5t10 -5.5h1q18 7 19 7q4 0 12.5 -3.5t14.5 -3.5q13 0 22 -16q6 -14 12 -27zM441 593q13 0 25 -22q0 -6 -14 -16l1 -5l9 2l2 -2v-2q0 -3 -9 -5v-4h-11l2 -2v-2q0 -9 -23 -30l-16 3v-1 l3 -6l-5 -9q0 -17 11 -25v-7q0 -12 -17 -20l-1 -7l1 -6l-9 -10l2 -2l-7 -9l7 -6l2 2h2q16 -4 16 -9q-5 -9 -14 -14h-2l-2 2h-2l-2 -6l2 -14l-7 -4v-7q21 -14 36 -14v-4l-5 -5h-24l-5 -6l3 -12h9q14 -3 15 -8v-1q-11 -11 -11 -18q0 -4 20 -4l2 -2v-5q-2 -7 -18 -7l-13 5 q-7 -6 -7 -11q8 -3 20 -20v-1q-17 -27 -22 -27q0 -7 13 -18q0 -15 7 -20l-4 -6v-3l6 -6h1l6 4h3l13 -13q0 -8 -29 -16v-12l4 -6l-7 -9v-3q1 -6 10 -6q2 6 13 9q14 -22 40 -30q0 -4 14 -11v-6q-38 -55 -52 -55l-22 -5q-8 6 -41 12l-9 25v4l3 12q-5 6 -36 16v2q0 4 29 9l2 -2 v4h-4v16q-6 14 -12 16h-6q-16 -5 -16 -18q-7 -1 -7 -10q-9 0 -32 -26l-22 -16v-5h9l5 -6v-5l-5 -5h-5l-6 7l2 7h-2q-5 0 -14 -18v-2l2 -2v-1q-8 -6 -47 -6q-1 4 -9 7v-3l2 -9l-6 -3h-5l-9 8v7l2 2v2l-2 2h-9l-11 -2q-4 0 -18 20q-23 6 -23 12v2l3 6v5q0 4 -16 9q0 3 -13 9 h-5l-7 -5h-6q0 17 -27 21l-5 9q7 6 13 6l9 -4q7 2 7 9q-10 0 -24 16v6q6 7 20 12v2h2q0 -4 7 -4q0 -3 20 -9l2 -1v3h-4v2l7 11v3l-12 15v3q4 6 14 9l7 -1q15 0 15 7l-2 2v1q13 33 25 33l20 -2v7l7 22q-11 0 -12 5v4q30 7 45 7q23 -5 23 -9q-23 -13 -23 -27l-2 -23h-2l-13 9 q-18 -4 -18 -17l4 -10l-7 -17l2 -5l-2 -2h-2l-4 4l2 2v1l-9 9q-9 0 -18 -19q-3 0 -16 -13l-9 -2v-7l9 -2l5 4l6 -2l20 2h5l18 -27l7 2l16 -4v-5q-10 -2 -10 -6q18 0 18 -16q-9 -3 -9 -7h3l13 5l7 -2q4 0 20 13h3q0 6 13 9l7 -2q0 4 6 4l-2 2q0 13 21 21l2 -2q7 0 18 17v7 l-3 5q0 8 36 20v4h-4v5q5 0 5 5q18 0 18 20l-3 4q1 5 14 5l2 -2l4 9l-24 9q-11 2 -11 6q0 18 22 18l5 5l2 -2h2q0 6 7 15v2l-9 7h-5l-7 -4q-5 0 -17 16l8 13l-2 13l20 12l5 -2l2 2v2q-11 0 -18 9q-11 0 -16 9v5l3 4q1 -5 15 -5h1l4 3v7q0 13 -11 24l2 2h5q11 -7 11 -13h6 l7 7v7q0 6 -24 6h-3l-6 -4h-1l-11 9v6q0 6 21 12l6 6q0 3 -11 5q-4 13 -11 13l-5 12v7l2 2l-2 2v2l2 2q0 10 -17 10l-5 6v12l9 2h13v6l-8 9v3l6 6h11l5 -4h4v4l-4 7q4 11 13 11l9 -2v3l12 -3q7 2 7 9l-1 2h-6l-7 -2l-5 2v1q0 4 7 4q5 16 16 16l4 -12h16l5 -4l24 25zM126 579 q19 -6 21 -15v-7h-3v-4l2 2h1l13 -23q-17 -27 -20 -27q-11 5 -11 12h-3l-7 -5h-4q-4 0 -5 16h18l1 7l-9 15l2 7h-11l-9 -2l2 2l-2 2v2q17 18 24 18zM173 550h3v-4h-3v4zM95 537l9 -7q-14 -11 -20 -11l-1 2v2l9 7q0 7 3 7zM174 526l29 -9q-5 -9 -11 -9v-1q0 -6 24 -11 q6 0 9 -29l-6 -11v-12h4l5 3q13 -8 13 -20q-8 -20 -13 -23l-12 -2v-5q5 -14 14 -22q-1 -5 -14 -5l-4 -6q11 -10 11 -16h2l2 2h1l2 -2v-3l-3 -4l-2 2l-2 -9l5 -11v-2l-16 -14v-4q6 0 31 18h5v-3l-12 -11q0 -18 -27 -25l-9 -9h-2q-13 5 -18 16q0 3 18 14l2 2v2q-9 7 -9 16 l1 13l-3 14q11 5 12 9l-1 16l3 6v5l-9 11v2q6 0 6 3q-11 21 -11 27l2 6q-18 5 -18 21q0 5 -13 16l-11 15v2q9 4 9 23q0 3 13 7q0 7 3 7zM36 525h3v-2h-3v2zM70 523l2 -2v-4l-4 -3h-3l-4 3zM421 496h2v-4h-2v4zM200 463v-5l9 -2v4l-4 3h-5zM317 391h9l3 -3q0 -5 -16 -7l-2 1 v2zM311 336h4l3 -4l-3 -4h-7v4zM142 166h5v-1l-3 -4h-2v5zM383 147l-5 -9l7 -4l7 5v2q0 4 -9 6zM57 123v-5l4 -4l18 20h-2q-13 0 -16 -11h-4zM196 112h4l5 -5l-4 -4h-5l-4 4v2zM155 100l-2 -7h2l5 5v2h-5zM86 89l2 -2h2l5 2l-3 4h-2zM378 78v-2h7v6h-4z" />
<glyph unicode="&#xc2;" d="M441 593q13 0 25 -22q0 -6 -14 -16l1 -5l9 2l2 -2v-2q0 -3 -9 -5v-4h-11l2 -2v-2q0 -9 -23 -30l-16 3v-1l3 -6l-5 -9q0 -17 11 -25v-7q0 -12 -17 -20l-1 -7l1 -6l-9 -10l2 -2l-7 -9l7 -6l2 2h2q16 -4 16 -9q-5 -9 -14 -14h-2l-2 2h-2l-2 -6l2 -14l-7 -4v-7q21 -14 36 -14 v-4l-5 -5h-24l-5 -6l3 -12h9q14 -3 15 -8v-1q-11 -11 -11 -18q0 -4 20 -4l2 -2v-5q-2 -7 -18 -7l-13 5q-7 -6 -7 -11q8 -3 20 -20v-1q-17 -27 -22 -27q0 -7 13 -18q0 -15 7 -20l-4 -6v-3l6 -6h1l6 4h3l13 -13q0 -8 -29 -16v-12l4 -6l-7 -9v-3q1 -6 10 -6q2 6 13 9 q14 -22 40 -30q0 -4 14 -11v-6q-38 -55 -52 -55l-22 -5q-8 6 -41 12l-9 25v4l3 12q-5 6 -36 16v2q0 4 29 9l2 -2v4h-4v16q-6 14 -12 16h-6q-16 -5 -16 -18q-7 -1 -7 -10q-9 0 -32 -26l-22 -16v-5h9l5 -6v-5l-5 -5h-5l-6 7l2 7h-2q-5 0 -14 -18v-2l2 -2v-1q-8 -6 -47 -6 q-1 4 -9 7v-3l2 -9l-6 -3h-5l-9 8v7l2 2v2l-2 2h-9l-11 -2q-4 0 -18 20q-23 6 -23 12v2l3 6v5q0 4 -16 9q0 3 -13 9h-5l-7 -5h-6q0 17 -27 21l-5 9q7 6 13 6l9 -4q7 2 7 9q-10 0 -24 16v6q6 7 20 12v2h2q0 -4 7 -4q0 -3 20 -9l2 -1v3h-4v2l7 11v3l-12 15v3q4 6 14 9l7 -1 q15 0 15 7l-2 2v1q13 33 25 33l20 -2v7l7 22q-11 0 -12 5v4q30 7 45 7q23 -5 23 -9q-23 -13 -23 -27l-2 -23h-2l-13 9q-18 -4 -18 -17l4 -10l-7 -17l2 -5l-2 -2h-2l-4 4l2 2v1l-9 9q-9 0 -18 -19q-3 0 -16 -13l-9 -2v-7l9 -2l5 4l6 -2l20 2h5l18 -27l7 2l16 -4v-5 q-10 -2 -10 -6q18 0 18 -16q-9 -3 -9 -7h3l13 5l7 -2q4 0 20 13h3q0 6 13 9l7 -2q0 4 6 4l-2 2q0 13 21 21l2 -2q7 0 18 17v7l-3 5q0 8 36 20v4h-4v5q5 0 5 5q18 0 18 20l-3 4q1 5 14 5l2 -2l4 9l-24 9q-11 2 -11 6q0 18 22 18l5 5l2 -2h2q0 6 7 15v2l-9 7h-5l-7 -4 q-5 0 -17 16l8 13l-2 13l20 12l5 -2l2 2v2q-11 0 -18 9q-11 0 -16 9v5l3 4q1 -5 15 -5h1l4 3v7q0 13 -11 24l2 2h5q11 -7 11 -13h6l7 7v7q0 6 -24 6h-3l-6 -4h-1l-11 9v6q0 6 21 12l6 6q0 3 -11 5q-4 13 -11 13l-5 12v7l2 2l-2 2v2l2 2q0 10 -17 10l-5 6v12l9 2h13v6l-8 9v3 l6 6h11l5 -4h4v4l-4 7q4 11 13 11l9 -2v3l12 -3q7 2 7 9l-1 2h-6l-7 -2l-5 2v1q0 4 7 4q5 16 16 16l4 -12h16l5 -4l24 25zM126 579q19 -6 21 -15v-7h-3v-4l2 2h1l13 -23q-17 -27 -20 -27q-11 5 -11 12h-3l-7 -5h-4q-4 0 -5 16h18l1 7l-9 15l2 7h-11l-9 -2l2 2l-2 2v2 q17 18 24 18zM173 550h3v-4h-3v4zM95 537l9 -7q-14 -11 -20 -11l-1 2v2l9 7q0 7 3 7zM174 526l29 -9q-5 -9 -11 -9v-1q0 -6 24 -11q6 0 9 -29l-6 -11v-12h4l5 3q13 -8 13 -20q-8 -20 -13 -23l-12 -2v-5q5 -14 14 -22q-1 -5 -14 -5l-4 -6q11 -10 11 -16h2l2 2h1l2 -2v-3 l-3 -4l-2 2l-2 -9l5 -11v-2l-16 -14v-4q6 0 31 18h5v-3l-12 -11q0 -18 -27 -25l-9 -9h-2q-13 5 -18 16q0 3 18 14l2 2v2q-9 7 -9 16l1 13l-3 14q11 5 12 9l-1 16l3 6v5l-9 11v2q6 0 6 3q-11 21 -11 27l2 6q-18 5 -18 21q0 5 -13 16l-11 15v2q9 4 9 23q0 3 13 7q0 7 3 7z M36 525h3v-2h-3v2zM70 523l2 -2v-4l-4 -3h-3l-4 3zM421 496h2v-4h-2v4zM200 463v-5l9 -2v4l-4 3h-5zM317 391h9l3 -3q0 -5 -16 -7l-2 1v2zM311 336h4l3 -4l-3 -4h-7v4zM142 166h5v-1l-3 -4h-2v5zM383 147l-5 -9l7 -4l7 5v2q0 4 -9 6zM57 123v-5l4 -4l18 20h-2q-13 0 -16 -11 h-4zM196 112h4l5 -5l-4 -4h-5l-4 4v2zM155 100l-2 -7h2l5 5v2h-5zM86 89l2 -2h2l5 2l-3 4h-2zM378 78v-2h7v6h-4zM409 679q0 -6 -6 -12.5t-12 -11.5q-4 0 -11.5 -2.5t-11.5 -2.5q-4 9 -6 11t-12 4v0q0 7 -7.5 7t-8.5 4l4 5v0q0 7 -16.5 25.5t-23.5 20.5q1 3 1 6q0 7 -8.5 14 t-10.5 11q1 2 1 4q0 6 -10.5 19t-10.5 18h-5q0 -4 -14 -12.5t-14 -13.5q0 -2 1 -3q-2 -4 -10.5 -11.5t-8.5 -13.5q0 -3 1 -6q-7 -2 -23.5 -20t-16.5 -26v0l4 -5q-1 -3 -8.5 -4t-7.5 -7q-10 -2 -12 -4t-7 -11q-4 0 -10.5 2.5t-9.5 2.5h-2q-6 5 -12 11.5t-6 12.5q0 7 4.5 20.5 t4.5 20.5v4q1 2 9 2.5t8 3.5t-4 7t-4 7h1q1 0 5 -1t6 -1q3 0 5 2q-2 6 -2 10l3 6q12 0 14 8t3 8q2 0 4 -1l9 2q0 3 3 7.5t3 6.5t-1 4q8 0 17 7l-2 5q6 0 12.5 5.5t10.5 6.5l13 -7l-3 10q7 1 9 16q6 5 13 10t14 5q3 0 7.5 -2.5t6.5 -2.5q3 0 5 2l16 -25l-3 -2l17 2q1 -2 1 -4 t-2.5 -6.5t-2.5 -6.5l1 -1q5 0 11 -6t11 -6h1l-2 -5q1 -4 8 -5.5t9 -2.5q-1 -2 -1 -4q0 -3 2.5 -6.5t3.5 -6.5l9 -2q2 1 4 1t3 -8.5t9 -8.5q2 0 5 1q3 -2 3 -6q0 -1 -2 -10q1 -2 4 -2h3q3 1 4 1h1l5 1q0 -2 -4 -6.5t-4 -7.5q0 -2 6 -3.5t11 -2.5q0 -2 -1 -5v-6t5 -14.5 t5 -19.5z" />
<glyph unicode="&#xc3;" d="M393 765q-1 -2 -1 -3q-9 -4 -10 -5.5t-3 -10.5q-6 0 -6 -6.5t-3 -7.5l-5 4h-4q-3 0 -19 -16.5t-18 -20.5q-3 2 -6 2q-5 0 -11.5 -7.5t-9.5 -9.5q-2 2 -4 2q-3 0 -7 -4.5t-6 -5.5q1 -1 1 -3q0 -3 -6.5 -4t-11.5 -2q-2 6 -11 14q-5 1 -10 6l5 1l2 3q0 2 -3 5.5t-3 5.5v2 q-10 7 -10 11.5t-7.5 8t-8.5 7.5q3 1 3 5q0 2 -1 4v4q-10 -6 -22 -23q-2 2 -5 2q-4 0 -12 -8l-9 -9q-4 2 -6 2q-3 0 -6 -4.5t-5 -5.5q0 -6 -6 -7l-12 -2q-2 7 -11 14q-4 0 -10 6l6 1q1 1 1 3t-3 5.5t-3 5.5q0 4 5.5 9.5t5.5 9.5v1l4 -2q4 1 5 7.5t3 7t7 2.5t8 2q1 7 1 12 q0 2 7 3t7 8q0 2 -1 5q2 2 6 2q1 0 4 -1h4q3 1 3 3q0 1 -1 3v3v1q-2 2 -2 5q5 0 9 -7h3q6 0 6 14q2 0 6 -1h5t12.5 4.5t16.5 4.5t11 -5.5t10 -10.5q0 -6 5 -15.5t10 -9.5t9 -6l6 -10v-8q5 1 5 7q0 2 -1 5q2 2 6 2q1 0 4 -1h4q3 1 3 3q0 1 -1 3v3v1q-1 1 -2 4l1 1q3 -3 8 -7 q2 -1 3 -1q3 0 4 5.5t2 9.5q2 0 5 -1h6t12.5 4.5t16.5 4.5q2 0 21 -16q0 -3 2.5 -9t2.5 -8zM441 593q13 0 25 -22q0 -6 -14 -16l1 -5l9 2l2 -2v-2q0 -3 -9 -5v-4h-11l2 -2v-2q0 -9 -23 -30l-16 3v-1l3 -6l-5 -9q0 -17 11 -25v-7q0 -12 -17 -20l-1 -7l1 -6l-9 -10l2 -2l-7 -9 l7 -6l2 2h2q16 -4 16 -9q-5 -9 -14 -14h-2l-2 2h-2l-2 -6l2 -14l-7 -4v-7q21 -14 36 -14v-4l-5 -5h-24l-5 -6l3 -12h9q14 -3 15 -8v-1q-11 -11 -11 -18q0 -4 20 -4l2 -2v-5q-2 -7 -18 -7l-13 5q-7 -6 -7 -11q8 -3 20 -20v-1q-17 -27 -22 -27q0 -7 13 -18q0 -15 7 -20l-4 -6 v-3l6 -6h1l6 4h3l13 -13q0 -8 -29 -16v-12l4 -6l-7 -9v-3q1 -6 10 -6q2 6 13 9q14 -22 40 -30q0 -4 14 -11v-6q-38 -55 -52 -55l-22 -5q-8 6 -41 12l-9 25v4l3 12q-5 6 -36 16v2q0 4 29 9l2 -2v4h-4v16q-6 14 -12 16h-6q-16 -5 -16 -18q-7 -1 -7 -10q-9 0 -32 -26l-22 -16 v-5h9l5 -6v-5l-5 -5h-5l-6 7l2 7h-2q-5 0 -14 -18v-2l2 -2v-1q-8 -6 -47 -6q-1 4 -9 7v-3l2 -9l-6 -3h-5l-9 8v7l2 2v2l-2 2h-9l-11 -2q-4 0 -18 20q-23 6 -23 12v2l3 6v5q0 4 -16 9q0 3 -13 9h-5l-7 -5h-6q0 17 -27 21l-5 9q7 6 13 6l9 -4q7 2 7 9q-10 0 -24 16v6 q6 7 20 12v2h2q0 -4 7 -4q0 -3 20 -9l2 -1v3h-4v2l7 11v3l-12 15v3q4 6 14 9l7 -1q15 0 15 7l-2 2v1q13 33 25 33l20 -2v7l7 22q-11 0 -12 5v4q30 7 45 7q23 -5 23 -9q-23 -13 -23 -27l-2 -23h-2l-13 9q-18 -4 -18 -17l4 -10l-7 -17l2 -5l-2 -2h-2l-4 4l2 2v1l-9 9 q-9 0 -18 -19q-3 0 -16 -13l-9 -2v-7l9 -2l5 4l6 -2l20 2h5l18 -27l7 2l16 -4v-5q-10 -2 -10 -6q18 0 18 -16q-9 -3 -9 -7h3l13 5l7 -2q4 0 20 13h3q0 6 13 9l7 -2q0 4 6 4l-2 2q0 13 21 21l2 -2q7 0 18 17v7l-3 5q0 8 36 20v4h-4v5q5 0 5 5q18 0 18 20l-3 4q1 5 14 5l2 -2 l4 9l-24 9q-11 2 -11 6q0 18 22 18l5 5l2 -2h2q0 6 7 15v2l-9 7h-5l-7 -4q-5 0 -17 16l8 13l-2 13l20 12l5 -2l2 2v2q-11 0 -18 9q-11 0 -16 9v5l3 4q1 -5 15 -5h1l4 3v7q0 13 -11 24l2 2h5q11 -7 11 -13h6l7 7v7q0 6 -24 6h-3l-6 -4h-1l-11 9v6q0 6 21 12l6 6q0 3 -11 5 q-4 13 -11 13l-5 12v7l2 2l-2 2v2l2 2q0 10 -17 10l-5 6v12l9 2h13v6l-8 9v3l6 6h11l5 -4h4v4l-4 7q4 11 13 11l9 -2v3l12 -3q7 2 7 9l-1 2h-6l-7 -2l-5 2v1q0 4 7 4q5 16 16 16l4 -12h16l5 -4l24 25zM126 579q19 -6 21 -15v-7h-3v-4l2 2h1l13 -23q-17 -27 -20 -27 q-11 5 -11 12h-3l-7 -5h-4q-4 0 -5 16h18l1 7l-9 15l2 7h-11l-9 -2l2 2l-2 2v2q17 18 24 18zM173 550h3v-4h-3v4zM95 537l9 -7q-14 -11 -20 -11l-1 2v2l9 7q0 7 3 7zM174 526l29 -9q-5 -9 -11 -9v-1q0 -6 24 -11q6 0 9 -29l-6 -11v-12h4l5 3q13 -8 13 -20q-8 -20 -13 -23 l-12 -2v-5q5 -14 14 -22q-1 -5 -14 -5l-4 -6q11 -10 11 -16h2l2 2h1l2 -2v-3l-3 -4l-2 2l-2 -9l5 -11v-2l-16 -14v-4q6 0 31 18h5v-3l-12 -11q0 -18 -27 -25l-9 -9h-2q-13 5 -18 16q0 3 18 14l2 2v2q-9 7 -9 16l1 13l-3 14q11 5 12 9l-1 16l3 6v5l-9 11v2q6 0 6 3 q-11 21 -11 27l2 6q-18 5 -18 21q0 5 -13 16l-11 15v2q9 4 9 23q0 3 13 7q0 7 3 7zM36 525h3v-2h-3v2zM70 523l2 -2v-4l-4 -3h-3l-4 3zM421 496h2v-4h-2v4zM200 463v-5l9 -2v4l-4 3h-5zM317 391h9l3 -3q0 -5 -16 -7l-2 1v2zM311 336h4l3 -4l-3 -4h-7v4zM142 166h5v-1l-3 -4 h-2v5zM383 147l-5 -9l7 -4l7 5v2q0 4 -9 6zM57 123v-5l4 -4l18 20h-2q-13 0 -16 -11h-4zM196 112h4l5 -5l-4 -4h-5l-4 4v2zM155 100l-2 -7h2l5 5v2h-5zM86 89l2 -2h2l5 2l-3 4h-2zM378 78v-2h7v6h-4z" />
<glyph unicode="&#xc4;" d="M147 779h2q21 -18 21 -27v-6l31 -5l2 -7q-3 0 -16 -18q-9 -2 -9 -11q-8 -1 -8 -11l-9 -4l-1 2h-2q-11 0 -11 -18l-9 -12q-25 9 -25 23q-5 0 -7 14v15q-18 9 -18 21v4q0 5 10 5l15 17q7 0 21 14zM372 771l23 -12h17l3 -4l-11 -3l8 -20l-9 -20v-9l3 -5v-4q-7 -13 -11 -13 l-3 4q-9 -3 -9 -11l2 -5l-9 -7h-6q-3 0 -3 5h-6q-7 0 -23 14l-6 -3q-8 21 -14 21v4h5l6 -4h2l7 6l-4 9h-11l-5 -4l-9 13l13 20q0 6 19 23l11 4l2 -2h2zM194 761h3v-8l-3 -3l-2 5zM421 705l1 -2v-2l-1 -2v-1l-11 1v2zM118 575l13 -3q0 -10 -9 -15q-6 9 -15 9v4q2 5 11 5z M440 573h9q10 0 13 -7v-3q-2 -5 -23 -15q0 -7 -8 -7v-7h4q-3 -11 -13 -11l-16 -5v-15q-11 -12 -11 -20v-18q0 -3 -5 -3v-9l5 -7v-4l-5 -9l9 -13v-5l-9 -13v-7l5 -7v-16q0 -10 -14 -18v-6l13 -23l1 -2v-2l-3 -7l3 -12q-3 0 -3 -6l-2 -2h-2l-7 2q-2 -16 -5 -20v-7q21 0 21 -18 q0 -6 -25 -18v-2q0 -6 11 -18q9 0 9 -10v-13q0 -10 -15 -16l-3 -7q0 -5 16 -9q0 -4 5 -4l2 -2v-3l-5 -8v-10q7 0 12 -9v-9l-9 -11v-4q1 -9 4 -9l23 -2v2l-5 15q3 8 7 9h7l4 -4l-2 -14q17 -31 25 -38l4 -9l2 -2l-6 -5l-1 1q0 -13 -26 -21q0 -11 -19 -23h-4l-11 7h-21 q0 4 -11 7q-10 0 -20 20q0 12 -22 21l8 22l-6 3h-2q-25 -4 -25 -10l-7 -4l-18 4q-11 0 -14 -20l-2 -2l-4 -5l2 -2v-2l-4 -4q-10 0 -10 8h-11l2 -2v-4l-6 -14l2 -11v-2l-4 -3h-5l-11 12h-3q0 -7 -6 -7l-11 2q-2 0 -9 -12h-1q-9 0 -35 30v12h-3l-16 2l-6 -2q-4 0 -21 24 q-8 2 -29 21q-9 0 -18 18l-16 18l5 11v9l-9 11l5 5h4q18 -1 18 -14l2 -2h2l14 4q18 0 18 -11q0 -16 11 -16l16 -7q1 9 5 9h2q3 0 6 -9l-2 -6q8 -18 25 -18q3 -9 14 -12v-4q13 3 33 23v-1q11 2 11 18q9 3 18 19q4 11 23 18q23 29 40 29q13 9 19 9l20 -3l6 7q-4 0 -4 5h-16 l-4 4v9l9 7v5q-8 4 -9 8q0 3 9 3q0 7 11 15h2v-4h5l9 9v2l-12 14l-2 -2h-2l-5 6q0 -6 -4 -6h-2v4l6 5l1 -1q0 25 15 25l7 5l2 2v9q-20 6 -20 20v2l4 3l-2 2q0 13 12 22l2 7q-20 6 -20 12l-1 6l5 5l-2 9v2l13 7v4h2q0 8 -18 21v2q11 34 16 34v13q-5 0 -16 14v2l10 11 q0 -3 11 -9q18 7 18 11v3q-23 5 -23 8v9q0 3 5 3l2 -2h2q16 13 29 13l19 -4l-5 8v9l7 7h7l6 -4h2zM406 548q0 -4 18 -9l2 7l-5 4h-2zM80 548h11l13 -12h5q0 4 11 10h5q8 -7 15 -7q3 0 5 7l2 2h13l3 -3v-6q0 -3 -5 -3v-4q2 -7 25 -20q18 15 25 15l4 -4l-6 -23v-9l15 -4l9 4 l3 -11v-2q-5 -7 -5 -16q0 -12 22 -24v-1l-8 -8l-1 2q-7 0 -11 -36l-18 -9l-18 22q0 6 -11 21l-2 11l2 2v2l-2 7l7 11q-2 16 -9 16l-18 -4q-3 18 -14 27l-29 9q-9 22 -16 24q0 -6 -9 -11h-4q-3 0 -3 5l-2 2h-2q-6 0 -18 -9q-14 5 -14 16zM46 528h2v-5h-5v2zM194 476v-2h3v2 h-3zM354 388v-2l4 -3h5l4 7v14h-4q-9 -7 -9 -16zM228 375l2 -1v-2l-6 -6h-1l-4 4q0 4 9 5zM219 354h5q6 -2 6 -11l-11 -22l4 -14q0 -16 -11 -22h-4q-11 5 -11 15l-5 20l22 14v4l-8 9zM178 267h7q5 0 5 -12q6 0 6 -4l-2 -2v-1l2 -2h-2l-6 2l-12 -24l2 -2v-1q-2 -11 -6 -11h-2 q-17 14 -21 14v4q0 3 9 3l18 18l-2 9v6zM120 257l2 -2h2l9 2l3 -11l-3 -4l-9 4l-6 -6l-7 8v1q1 4 9 8zM71 195l2 -1v-8h-3l-4 4zM115 194q19 0 19 -20v-2q0 -3 -25 -7l-7 -2l-2 -9h-11l-14 13v10l4 4l3 -4l7 4l-1 5q7 8 27 8zM406 174v-4h-3zM365 167v-6l3 -3h2l2 7l-2 2h-5 zM264 122q0 -8 -4 -8q3 -7 9 -10h2q6 1 6 10q-2 8 -11 8h-2zM304 100v-2q0 -10 9 -14l3 3v13h-12zM228 86v-2q1 -4 9 -7l2 1v4l-4 5zM469 73v-5q-2 -6 -11 -6l-1 2v2q8 7 12 7zM433 62v-5l9 -2l2 2v2l-2 9h-3zM181 64l-2 -2v-2q8 -9 15 -9l2 2v4q0 5 -15 7zM318 59h4v-4z M203 55v-2l3 -3h2v5h-5z" />
<glyph unicode="&#xc5;" d="M365 744q0 -6 -3 -11v-2q0 -4 -5.5 -11t-5.5 -11q5 -10 5 -14q0 -3 -3 -4q-2 0 -4.5 2t-4.5 2q-6 0 -7.5 -9.5t-10.5 -9.5q-3 0 -7.5 -5.5t-8.5 -6.5q-3 2 -5 2q-5 0 -10.5 -5t-8.5 -5t-6 3q-5 0 -11 -3.5t-9 -3.5q-2 0 -6 3t-6 3t-6 -2t-6 -2q1 0 -13 9t-40 10l-2 1 q-2 8 -10.5 26t-8.5 29q0 4 -3 9.5t-3 8.5l3 6q-1 1 -1 7q0 -1 1 18q2 2 9.5 18.5t7.5 20.5v1q2 4 11 8.5t9 10.5q4 2 10 2q5 0 12 -2q6 3 15 14q2 1 4 1t8 -2l5 -7q4 3 19 3q8 0 11 -1q5 -5 8 -5q1 0 4 1.5t6 1.5h1l11 -1l-1 -3q1 0 3.5 -1t3.5 -1h1q5 -4 14 -13l-1 -1 q0 -3 4 -6.5t4 -10.5q0 2 8 -13q15 -5 15 -6t-1 -5v-8q0 -5 4 -9q-1 -3 -1 -6q0 -2 1 -7t1 -8zM326 757q0 6 -8 13l1 2q-1 2 -3 7q-3 2 -21.5 8t-22.5 6q-4 -4 -8 -4q-2 0 -6.5 2t-7.5 2q-2 0 -4.5 -3t-5.5 -3q-1 0 -5 1t-7 1q-6 0 -8 -7q-8 -6 -11 -6h-2q-15 -8 -15 -38v-5 q0 -3 3 -9.5t3 -9.5q4 -2 12 -12t17 -10q2 0 3.5 3t3.5 3q3 0 4 -6t8 -6t14 5l-1 5q2 2 5 2t3 -4l-1 -3q0 -9 12 -9q5 0 7 9.5t5 9.5q2 0 6 -2t6 -2t8 6t6 8t-4 5.5t-4 6.5q0 5 6 5q2 0 2 -4v-5l-1 -3q9 0 9 7q0 6 -6 14q1 4 4.5 10.5t3.5 9.5zM441 593q13 0 25 -22 q0 -6 -14 -16l1 -5l9 2l2 -2v-2q0 -3 -9 -5v-4h-11l2 -2v-2q0 -9 -23 -30l-16 3v-1l3 -6l-5 -9q0 -17 11 -25v-7q0 -12 -17 -20l-1 -7l1 -6l-9 -10l2 -2l-7 -9l7 -6l2 2h2q16 -4 16 -9q-5 -9 -14 -14h-2l-2 2h-2l-2 -6l2 -14l-7 -4v-7q21 -14 36 -14v-4l-5 -5h-24l-5 -6 l3 -12h9q14 -3 15 -8v-1q-11 -11 -11 -18q0 -4 20 -4l2 -2v-5q-2 -7 -18 -7l-13 5q-7 -6 -7 -11q8 -3 20 -20v-1q-17 -27 -22 -27q0 -7 13 -18q0 -15 7 -20l-4 -6v-3l6 -6h1l6 4h3l13 -13q0 -8 -29 -16v-12l4 -6l-7 -9v-3q1 -6 10 -6q2 6 13 9q14 -22 40 -30q0 -4 14 -11v-6 q-38 -55 -52 -55l-22 -5q-8 6 -41 12l-9 25v4l3 12q-5 6 -36 16v2q0 4 29 9l2 -2v4h-4v16q-6 14 -12 16h-6q-16 -5 -16 -18q-7 -1 -7 -10q-9 0 -32 -26l-22 -16v-5h9l5 -6v-5l-5 -5h-5l-6 7l2 7h-2q-5 0 -14 -18v-2l2 -2v-1q-8 -6 -47 -6q-1 4 -9 7v-3l2 -9l-6 -3h-5l-9 8v7 l2 2v2l-2 2h-9l-11 -2q-4 0 -18 20q-23 6 -23 12v2l3 6v5q0 4 -16 9q0 3 -13 9h-5l-7 -5h-6q0 17 -27 21l-5 9q7 6 13 6l9 -4q7 2 7 9q-10 0 -24 16v6q6 7 20 12v2h2q0 -4 7 -4q0 -3 20 -9l2 -1v3h-4v2l7 11v3l-12 15v3q4 6 14 9l7 -1q15 0 15 7l-2 2v1q13 33 25 33l20 -2v7 l7 22q-11 0 -12 5v4q30 7 45 7q23 -5 23 -9q-23 -13 -23 -27l-2 -23h-2l-13 9q-18 -4 -18 -17l4 -10l-7 -17l2 -5l-2 -2h-2l-4 4l2 2v1l-9 9q-9 0 -18 -19q-3 0 -16 -13l-9 -2v-7l9 -2l5 4l6 -2l20 2h5l18 -27l7 2l16 -4v-5q-10 -2 -10 -6q18 0 18 -16q-9 -3 -9 -7h3l13 5 l7 -2q4 0 20 13h3q0 6 13 9l7 -2q0 4 6 4l-2 2q0 13 21 21l2 -2q7 0 18 17v7l-3 5q0 8 36 20v4h-4v5q5 0 5 5q18 0 18 20l-3 4q1 5 14 5l2 -2l4 9l-24 9q-11 2 -11 6q0 18 22 18l5 5l2 -2h2q0 6 7 15v2l-9 7h-5l-7 -4q-5 0 -17 16l8 13l-2 13l20 12l5 -2l2 2v2q-11 0 -18 9 q-11 0 -16 9v5l3 4q1 -5 15 -5h1l4 3v7q0 13 -11 24l2 2h5q11 -7 11 -13h6l7 7v7q0 6 -24 6h-3l-6 -4h-1l-11 9v6q0 6 21 12l6 6q0 3 -11 5q-4 13 -11 13l-5 12v7l2 2l-2 2v2l2 2q0 10 -17 10l-5 6v12l9 2h13v6l-8 9v3l6 6h11l5 -4h4v4l-4 7q4 11 13 11l9 -2v3l12 -3 q7 2 7 9l-1 2h-6l-7 -2l-5 2v1q0 4 7 4q5 16 16 16l4 -12h16l5 -4l24 25zM126 579q19 -6 21 -15v-7h-3v-4l2 2h1l13 -23q-17 -27 -20 -27q-11 5 -11 12h-3l-7 -5h-4q-4 0 -5 16h18l1 7l-9 15l2 7h-11l-9 -2l2 2l-2 2v2q17 18 24 18zM173 550h3v-4h-3v4zM95 537l9 -7 q-14 -11 -20 -11l-1 2v2l9 7q0 7 3 7zM174 526l29 -9q-5 -9 -11 -9v-1q0 -6 24 -11q6 0 9 -29l-6 -11v-12h4l5 3q13 -8 13 -20q-8 -20 -13 -23l-12 -2v-5q5 -14 14 -22q-1 -5 -14 -5l-4 -6q11 -10 11 -16h2l2 2h1l2 -2v-3l-3 -4l-2 2l-2 -9l5 -11v-2l-16 -14v-4q6 0 31 18h5 v-3l-12 -11q0 -18 -27 -25l-9 -9h-2q-13 5 -18 16q0 3 18 14l2 2v2q-9 7 -9 16l1 13l-3 14q11 5 12 9l-1 16l3 6v5l-9 11v2q6 0 6 3q-11 21 -11 27l2 6q-18 5 -18 21q0 5 -13 16l-11 15v2q9 4 9 23q0 3 13 7q0 7 3 7zM36 525h3v-2h-3v2zM70 523l2 -2v-4l-4 -3h-3l-4 3z M421 496h2v-4h-2v4zM200 463v-5l9 -2v4l-4 3h-5zM317 391h9l3 -3q0 -5 -16 -7l-2 1v2zM311 336h4l3 -4l-3 -4h-7v4zM142 166h5v-1l-3 -4h-2v5zM383 147l-5 -9l7 -4l7 5v2q0 4 -9 6zM57 123v-5l4 -4l18 20h-2q-13 0 -16 -11h-4zM196 112h4l5 -5l-4 -4h-5l-4 4v2zM155 100 l-2 -7h2l5 5v2h-5zM86 89l2 -2h2l5 2l-3 4h-2zM378 78v-2h7v6h-4z" />
<glyph unicode="&#xc6;" />
<glyph unicode="&#xc7;" d="M319 -152q0 -7 -11 -11q-11 -28 -38 -45t-27 -21q-30 -9 -50 -9q-10 0 -18 2q-2 -1 -4 -1q-19 0 -40 31q4 8 8.5 17.5t11.5 9.5q2 0 20.5 -1.5t19.5 -1.5h11q65 0 65 32q0 29 -27 52q-7 7 -18 7q-7 0 -17 -2.5t-12 -2.5q-4 0 -5 2q5 38 29 102q26 -4 44 -4t24 4t8 4 q3 0 3 -2q0 -6 -20 -26.5t-20 -27.5q0 -3 3 -3l46 -54q-2 -4 -2 -9q0 -8 8 -22.5t8 -19.5zM244 611q18 0 38 -10l9 1l11 -1l34 7q45 -8 50 -13h9l11 9l9 -2l11 2l2 -2v-1l-2 -2l30 -9l2 2h2q5 0 7 -18q0 -9 -14 -15q0 -5 -22 -11q0 -6 -11 -12h-5l-11 2l-5 -2q0 3 -7 3l-4 8 h-9l-20 -8h-14q0 -7 -6 -7l-1 2l-2 -2h-2l-2 2l-5 -2q-7 2 -7 7h-11l-2 2l-20 -5h-2l-18 5h-7l-20 -14q-6 0 -14 7h-4l-5 -5l29 -40q12 0 12 -23l9 -13l-7 -11v-11l9 -12v-2l-2 -2l17 -20q0 -15 12 -23v-2l-3 -5q0 -7 18 -25v-4l-2 -2q1 -12 16 -29v-3l-4 -13l4 -3v-2l-4 -6 v-3q6 -6 8 -16h16l7 1q9 0 14 -9v-23q-12 -18 -21 -18t-9 7l-6 -2v-3q0 -7 8 -16q-1 -4 -17 -11q0 -7 -10 -15q-17 -36 -44 -45q-8 0 -18 -18l-12 -12l-2 2h-2v-8q0 -14 24 -19l3 -18q-9 0 -9 -9l-5 -4l-2 2h-2v-7q9 0 15 -9l5 3l-2 2v2l6 11v1l-4 6v3l18 9q6 0 18 -9l16 4 h4q12 -2 12 -5l2 1h13l7 -1q28 12 36 12q20 9 20 13v2l-6 5l2 2h6q10 -1 10 -6l-1 -1h3q1 7 16 7l9 20q0 14 15 14l2 2l16 -31l-15 -21q0 -16 -41 -44h-11l-14 11h-9v-5q5 0 14 -15h2v-3l-5 -2l-13 2l-18 -2l-5 2q-20 -11 -29 -11l-2 7h-4l-12 -2q-4 5 -9 22l5 2v3 q-8 0 -12 -9v-1l3 -6q-3 0 -3 -7l-2 -2h-9l-20 2q-15 -9 -23 -9q-5 0 -18 16l-6 2l-14 -5h-13l-14 3l-2 -2h-2q-17 0 -45 27q0 17 -5 17l-13 5l-2 -2h-1q-18 4 -18 27h-2l-4 -3l-23 12q-6 0 -6 4v3q0 5 9 6v5q-7 7 -12 25q-16 0 -27 36l9 8v3l-7 6l-2 1v6q0 4 7 5v7l-11 15 l2 2v1l-9 15v20q12 0 18 23q-7 8 -7 14v6q0 9 7 18l16 59q7 0 15 11l-4 14q4 10 14 15l4 18l-2 2v1q0 3 13 11q0 12 16 16q4 18 14 27q0 7 9 13q8 7 8 14l19 17q7 0 8 14q23 16 23 29q3 6 25 16h13zM143 455v-11q-13 -20 -20 -20l-5 2l-2 -2q0 -3 -11 -3l-5 -27 q23 -6 23 -13q0 -3 -36 -11l2 -16q-11 -16 -11 -25v-13q0 -3 -5 -3l-2 -2v-6q5 0 15 -14v-7q-9 0 -9 -16l-6 -4q0 -7 15 -11v-2q0 -3 -6 -3v-6q9 0 9 -5v-2l-3 -14v-7q8 0 16 -9v-6q-7 -9 -7 -16v-4l7 -9q-6 0 -11 -18q8 -2 23 -21q17 0 24 -20v-5q7 -1 7 -4l2 2h3l8 -7 l-4 -4v-2l7 -2q15 0 25 17q35 12 40 25q9 0 16 5h9l2 -2h2l3 6v12q0 14 22 26l9 -2q5 6 9 34v4l-9 1h-14l-6 6v3l13 8v1l-9 11q0 12 -16 31q-4 20 -20 20q-12 4 -13 9l11 10l-7 15v5l7 15q-16 5 -18 10v6l5 7v4q0 6 -25 9l-2 1q-5 0 -5 4l11 11q-3 17 -16 29q-13 0 -13 5v5 l2 11q0 7 -11 9zM330 248v-7l4 -4h2l5 5v4l-9 2h-2zM174 79v-4h3v4h-3zM415 25l4 -4l-2 -2h-6v2z" />
</font>
</defs>
</svg>
