<?xml version="1.0" standalone="no"?>
<!DOCTYPE svg PUBLIC "-//W3C//DTD SVG 1.1//EN" "http://www.w3.org/Graphics/SVG/1.1/DTD/svg11.dtd" >
<svg xmlns="http://www.w3.org/2000/svg">
<metadata></metadata>
<defs>
<font id="l.c._smith_5_typewriterRg" horiz-adv-x="1478" >
<font-face units-per-em="2048" ascent="1638" descent="-410" />
<missing-glyph horiz-adv-x="819" />
<glyph horiz-adv-x="0" />
<glyph unicode="&#xd;" horiz-adv-x="550" />
<glyph unicode=" "  horiz-adv-x="819" />
<glyph unicode="&#x09;" horiz-adv-x="819" />
<glyph unicode="&#xa0;" horiz-adv-x="819" />
<glyph unicode="!" horiz-adv-x="714" d="M294 1848q233 0 233 -319q43 0 43 -85q0 -21 -21 -21l42 -361q-37 -160 -106 -191l21 -43q0 -101 -191 -148h-43q-148 110 -148 148h63v64h-42l42 149l-63 -43q-43 0 -43 43q43 0 43 42l-22 107q22 0 22 21q-43 0 -43 42v21h43l42 -21v21q-85 32 -85 64l43 64l-43 64 q43 69 43 127l-43 64q44 127 213 191zM145 1211q21 -41 21 -64h21v64h-42zM230 531h170q21 0 21 -21l43 21q106 0 170 -340q0 -204 -170 -318h-213q-191 106 -191 361v21q7 42 42 42l-21 43q60 146 149 191z" />
<glyph unicode="&#x22;" horiz-adv-x="947" d="M634 1848q54 0 233 -64v-42q0 -48 -21 -85l21 -43q0 -21 -21 -21l21 -106v-43q-42 -64 -64 -148q43 -200 64 -383q-106 -35 -106 -106h-127q-59 0 -128 276q43 0 43 43q-22 37 -22 85h22l-43 85l21 127h-63q-43 0 -64 -170l21 -127v-43q0 -21 -21 -21l21 -42v-22 q0 -212 -191 -212q-58 0 -106 234h-22q0 55 43 254q-85 170 -85 234v128q62 0 106 191h106q73 0 213 -128h21q94 149 128 149zM506 1657q0 -33 -42 -85q85 32 85 64v21h-43zM464 1529v-63h42v21q0 42 -42 42z" />
<glyph unicode="$" horiz-adv-x="1436" d="M442 1890h170v-127l-42 21l21 43l-21 42l-43 -21h-85v42zM634 1742q30 0 63 -64v-21l-106 -21l-21 42q0 31 64 64zM718 1614l22 -42q0 -43 -64 -43l42 -127q-21 -41 -21 -64q43 0 43 -64l-22 -42q22 -37 22 -85h-22l22 -42v-22l-22 -42q38 0 128 -64l127 -42v-22 q-63 -81 -63 -191v-21h21q0 64 42 64q52 -43 213 -64q6 42 42 42l128 -85v-63q0 -32 -128 -106h-255q-21 0 -21 21q-32 -21 -127 -21v-22q0 -26 127 -106q37 21 85 21q0 -83 128 -233q-22 -41 -22 -64q22 -41 22 -64q-39 0 -64 -191q-187 -155 -467 -212q-34 0 -85 -85 q21 0 21 21q127 -15 127 -43q152 43 361 43q0 -32 107 -128q-83 -214 -149 -233h-21q-88 0 -170 21q-83 -21 -170 -21h-21l-64 42q-16 0 -128 -21q-69 43 -127 43h-85l-21 106h21l-21 42v43h42l-21 106h42v106q85 96 85 149h64l43 -21q0 29 127 127l43 -21q0 53 212 106 l21 106v21q-36 0 -106 64q-41 -21 -64 -21q0 42 -42 42h-149l21 -42q-21 0 -21 -21l-42 21h-22v-43q64 0 64 -42v-43q-29 0 -106 -84h-21q-128 79 -128 106q79 340 298 340v21h106q0 21 21 21l106 -21v21q0 43 -42 43q-117 -22 -170 -22q-149 69 -149 170q21 41 21 64h43 l42 -21l22 85q-22 0 -22 21l-42 -21l-128 21v64q31 0 85 85q170 69 170 276v42q-42 0 -42 43v21l42 64l-21 106q43 0 43 42q-43 0 -43 43v21q112 21 127 21zM591 722l43 -21h63l64 42l85 -42l21 42v22q-71 0 -106 21q-170 -21 -170 -64zM145 701h42v-43h149q0 -47 21 -84 q-21 -42 -21 -64h-42l-43 21v-42h-85l-106 21v21q60 170 85 170z" />
<glyph unicode="%" horiz-adv-x="1712" d="M1228 2167q203 0 234 -107l-21 -42l21 -43q0 -31 -191 -467q-319 -774 -319 -871q-21 0 -21 -21q42 -7 42 -42h-21l-42 21q0 -87 -128 -298q21 -41 21 -63q-63 -55 -127 -319q-34 0 -64 -191h-42l21 -43v-21q0 -16 -64 -64v-63q-37 -22 -85 -22q-42 0 -42 43l42 64 q-42 51 -42 85v63h-21v64q54 0 63 106q63 0 107 85l-22 43q0 123 107 170l-22 42v64q65 0 128 85q-22 41 -22 64l22 42l-22 43q32 84 64 84l-21 107v63q28 0 149 149l-85 64q0 -85 -85 -85l21 -43q-125 -162 -276 -212q-242 0 -340 276q-85 0 -85 43q106 35 106 106h64v127 q0 49 64 149q0 110 127 127q0 86 319 192q132 -43 170 -149q21 0 21 -21v-22h-64q7 -42 43 -42h42q72 0 213 595q63 0 63 85zM867 1466v-85q33 0 85 -43v85q-42 0 -42 43h-43zM442 1232l-42 -212h85q37 0 106 191h-106zM1334 828h22q42 -6 42 -42v-21h-21q-43 0 -43 42v21z M1271 743l42 -63v-43q-148 0 -148 -127q-16 -85 -85 -85v-21q53 -107 191 -107v-85h-64q0 85 -42 85l-85 -63h-85q0 47 21 85q-21 41 -21 63q42 0 42 43l-42 64v21q106 82 106 127h21l-21 43v42q53 0 170 21zM1483 722h43v-64h-43q-42 0 -42 43zM1589 616q43 -7 43 -42 l-43 -22h-42v22q7 42 42 42zM1398 319h21v-192q0 -66 -233 -148h-21q-170 80 -170 170q87 42 127 42l21 -42l-42 -64h21q234 58 234 127q-22 42 -22 64zM591 170l-21 -43v-21h21q43 0 43 43z" />
<glyph unicode="&#x26;" horiz-adv-x="1457" d="M718 1593q152 0 255 -234q43 -6 43 -42q-21 -41 -21 -64l21 -42q-28 -208 -213 -425q0 -23 -21 -64q43 0 85 -127h43q0 42 276 191q79 -16 191 -149q0 -161 -149 -233q-37 42 -170 42q0 -24 -106 -85q0 -27 106 -106v-64l43 21h64v-42l-22 -43q49 -42 128 -42v-43 q-77 0 -170 -63q-170 21 -170 63q21 42 21 64l-64 -42q-42 0 -42 63h-21q0 -42 -85 -85q0 -63 -43 -63q0 21 -21 21q0 -39 -191 -106q-202 76 -361 191l21 42v22q-64 0 -64 42l21 43q-42 0 -42 42q0 48 21 85q-21 41 -21 64l42 21l-21 43v21q48 139 149 191q0 76 191 170v42 q-127 179 -127 425q37 0 127 170q214 85 297 85zM591 1274v-21q21 -41 21 -63l-42 -22q64 -128 64 -148h42l64 85l21 42q-43 87 -43 127h-127zM442 680q-37 -111 -148 -128q-64 -170 -107 -170v-42h64l-21 -106q33 0 85 -85l42 21h43l42 -21q7 42 43 42l106 -21q0 29 170 85 v21q-43 0 -43 43h43q0 195 -191 276q0 85 -128 85zM1356 106h21v-42q0 -43 -43 -43h-21v43q7 42 43 42z" />
<glyph unicode="'" horiz-adv-x="628" d="M272 1848q234 0 234 -319q43 0 43 -85q0 -21 -22 -21l22 -106v-297q-43 -128 -85 -128v-21l21 -43q-6 -65 -149 -148h-85q-149 95 -149 170l43 -22v22l-21 85q42 69 42 106h-42v-43h-22q-42 0 -42 43q7 42 42 42q0 39 -42 170l21 43q-21 41 -21 63q42 0 42 43l-42 64 q42 77 42 170h-42v21q77 160 212 191zM124 1211q21 -41 21 -64h21v64h-42z" />
<glyph unicode="(" horiz-adv-x="819" d="M527 1869h85q28 0 128 -170v-21q-58 -69 -106 -234q-78 0 -170 -254q-63 -192 -107 -192q0 -21 22 -21q-43 -212 -43 -425q0 -21 -21 -21l21 -42v-170h43v-43l-22 -42q43 0 85 -234h43v-21q0 -21 -21 -21l212 -298q21 -84 21 -149q0 -72 -106 -148h-85q0 31 -212 340 l-192 361l22 106v21q-64 258 -64 319q42 0 42 42l-42 64l42 64l-21 42l21 43q-21 37 -21 85q7 42 43 42l-22 43q17 242 234 573l-21 43q87 142 212 255v63z" />
<glyph unicode=")" horiz-adv-x="862" d="M272 1869h107l170 -233q13 -92 85 -128q106 -228 148 -488q-27 -107 -64 -107q22 -41 22 -63l-22 -43q43 -98 43 -191l-21 -42l21 -43l-21 -42l21 -43q-11 -234 -85 -234v-127q-115 -359 -234 -552q-148 -126 -148 -149q-170 0 -170 127q-64 0 -64 43q127 116 127 212h22 v-42h21v64q-21 41 -21 63h21q41 -21 64 -21l-22 43l43 21q0 -21 21 -21q0 85 43 85l-22 42q72 55 128 382l-21 43l42 64v85l-21 106q21 0 21 21q-42 0 -42 42l21 43l-21 42l21 107q-28 0 -191 403q-72 0 -192 319q-42 0 -42 42q64 78 64 149l106 -21h64z" />
<glyph unicode="*" horiz-adv-x="1159" d="M570 1806q127 -44 127 -85q-21 -38 -21 -85l64 -43h21q107 85 127 85q99 0 128 -106q64 0 64 -149q-128 -124 -128 -149v-42q106 -102 106 -234q-20 0 -127 -85h-21q-71 0 -149 64h-21q-43 0 -64 -234q-101 0 -212 -21q-43 108 -43 149h21q-43 127 -85 127h-63 q-110 -106 -192 -106q-42 85 -42 149q99 149 149 149v106q-149 105 -149 127q21 149 64 149q127 -13 127 -64q191 49 191 255z" />
<glyph unicode="+" horiz-adv-x="1500" d="M782 1699q0 -42 85 -42l-21 -43l64 -85v-21h-43l43 -255q-22 0 -22 -21q67 -31 298 -64q107 43 148 43q0 -29 85 -106q-42 0 -42 -64q42 -70 42 -128q0 -85 -509 -85v-42l21 -43h-43v-63q7 -43 43 -43q-57 -340 -106 -340h-22q-110 0 -191 64l43 255q0 149 -85 149v21 l42 64h-191l-127 -22q-59 0 -234 85v22q79 214 170 297q42 -7 42 -42l-21 -43l43 -21q0 85 21 85q41 -21 64 -21l-22 -43v-21h22q0 54 255 85l-43 255l43 85q-43 0 -43 42v21q0 43 64 43q41 -21 63 -21q0 30 64 63z" />
<glyph unicode="," horiz-adv-x="713" d="M315 446q228 0 276 -170l43 -149q-128 -552 -510 -552l-64 85q21 41 21 64l-21 42l42 85h-42v43h42l43 -21l106 127v21q-72 0 -106 149q21 115 21 191v21q49 0 149 64z" />
<glyph unicode="-" horiz-adv-x="1287" d="M888 1296q298 -101 298 -170l-21 -43q42 -69 42 -127q0 -80 -127 -191q0 -58 -277 -107q-722 0 -722 213l21 42q-21 64 -42 64l21 85v149q85 32 85 63q159 -42 489 -42v21l106 -21q21 64 127 64z" />
<glyph unicode="." horiz-adv-x="735" d="M272 637q340 0 340 -212q43 0 43 -149q0 -161 -170 -297h-234q-149 108 -149 127l22 43q-64 124 -64 212q38 0 85 191q100 85 127 85z" />
<glyph unicode="/" horiz-adv-x="1266" d="M1101 2528q0 -31 85 -85v-21l-43 21h-21l21 -106q0 -22 -255 -765q-94 -308 -170 -382q22 -42 22 -64q-36 0 -128 -255h-42l21 -106q-68 -82 -149 -361h-21l21 -43q-179 -425 -318 -425q0 49 -64 128q21 41 21 63l-21 43q149 318 382 935q74 311 170 446l-21 42 q79 87 106 276q43 0 43 43q-22 41 -22 63q27 0 149 340q21 0 21 43h-42v42q128 128 255 128z" />
<glyph unicode="0" horiz-adv-x="1436" d="M676 1784v-21l42 21q229 -61 340 -233q29 0 107 -170l42 21h21v-128h85v-63h-42v-43q63 0 63 -42v-43h-42l21 -42v-21l-21 -43l64 -42l-43 -192q21 -37 21 -85q-41 -21 -63 -21l21 -106h-42v-106q-74 -73 -107 -191q-272 -234 -446 -234q-467 48 -467 297 q-106 134 -106 170q-43 65 -64 149l21 85l-21 106q0 23 21 64l-21 127v85q0 22 21 22l-21 42q122 425 191 425q0 132 425 212zM315 1253h42v-21q0 -32 -85 -64l22 -106v-42q0 -48 -22 -85q17 -85 43 -85q0 -22 -21 -22q0 -85 63 -254l-21 -43q0 -149 149 -149q42 0 42 -21 l43 21h42l64 -42q70 42 127 42l43 -21q92 167 149 191l-22 43q71 198 107 233q0 43 -43 43l21 149v42h-42v85h42v21q-58 58 -106 191q-112 113 -234 128v21q-219 0 -297 -127q-13 0 -106 -128z" />
<glyph unicode="1" horiz-adv-x="1350" d="M272 1742v-43q22 0 22 22l106 -22l85 43q0 -64 42 -64q0 31 64 64h21q0 -64 43 -64q6 43 42 43q69 -192 106 -192l-42 -191h64v-21q-22 -92 -22 -149h22v-21q0 -48 -22 -85q22 -41 22 -64q-22 -41 -22 -63q43 -7 43 -43q-21 -117 -21 -170q0 -22 21 -64q-21 -41 -21 -63 l63 -106l-42 -64v-21q58 0 127 -43v43h107q163 -121 191 -192v-63q-64 -55 -64 -107q-23 0 -64 22q-69 -22 -148 -22q0 22 -22 22q-66 0 -148 -85l-64 42h-64q-42 -6 -42 -42l-149 21h-127q-22 0 -22 21l-42 -21h-21q-22 0 -22 21l-42 -21h-43q0 45 -127 212q0 122 149 213 h148q149 0 149 85q0 33 43 85v21h-43v21l64 85q0 43 -43 43q22 174 43 212q0 21 -21 21q21 165 63 234q-42 159 -42 191h-64l21 -42v-43h-21q-53 0 -64 85l-42 -21q-37 21 -85 21v-42q-110 40 -191 170q102 191 148 191z" />
<glyph unicode="2" horiz-adv-x="1372" d="M740 1763l21 -42q-21 -42 -21 -64h170q21 0 21 -21l42 21q31 0 64 -64v-21h-42q6 -43 42 -43q37 22 85 22v-43l-21 -42q30 0 64 -64q-43 -7 -43 -43q41 -21 64 -21l-64 -85q64 0 64 -42v-21h-43v-128q-106 -94 -106 -170l-85 -21q0 21 -21 21q-31 -66 -404 -149h-63 q0 -92 -128 -106l-21 -127q22 0 64 -21q41 21 63 21q224 -97 468 -128q0 64 63 64v21q-42 54 -85 255v21q85 0 85 107l43 21q0 -72 149 -85q0 -48 106 -170l21 -106q-22 0 -127 -298q-234 -191 -425 -191q-123 21 -383 170q0 -74 -233 -106q0 21 -22 21l22 43 q-64 98 -64 170q87 396 276 509q0 102 340 170q153 85 276 107q26 153 85 212v21q-106 67 -106 128q-85 0 -85 85h-43q-47 0 -85 -22q-37 22 -191 43v-43l-106 22v-64h-42v64h-43q0 -85 -42 -85h-43v-22l85 -21v-127q0 -43 -42 -43l-43 21q-41 -21 -64 -21l-21 43v233 q43 0 213 149l42 21q7 -42 43 -42l-22 42q7 43 43 43q48 0 85 -21q131 42 170 42z" />
<glyph unicode="3" horiz-adv-x="1351" d="M485 1806q42 -7 42 -43l43 21q41 -21 64 -21q6 43 42 43q181 -43 212 -43q38 21 85 21v-42h22l106 21q42 -234 42 -255q-37 0 -127 -212h-43v-22l192 -127l-22 -42q92 0 128 -277q-21 -41 -21 -63q21 -41 21 -64q-53 -64 -85 -64v-85h42q-50 -199 -191 -297 q-129 -213 -425 -213q-188 22 -233 22q0 87 -128 106q-191 127 -191 297v128q0 21 21 21l-21 42q7 43 42 43l43 -21q0 42 255 106q34 -51 64 -170q-22 -41 -22 -64q39 0 319 -127l21 85h64q120 0 149 127q-56 189 -170 234h-85q-71 0 -149 -64h-21q0 40 -85 149v127 q74 0 149 170q42 91 106 128l21 85h-127q-22 0 -22 21q-69 -43 -127 -43l-64 43q-106 -201 -106 -234h-21q-56 64 -128 64l-21 106v191q0 32 149 149h21l106 -21q0 30 64 64z" />
<glyph unicode="4" horiz-adv-x="1436" d="M803 1699h85l85 -276l-21 -85q21 -188 21 -233q-42 -148 -42 -255v-22q7 -42 42 -42l64 42h43v-42q11 21 191 21q0 -21 63 -21v-85l22 -149q-52 0 -106 -63h-192v42h-42q0 -48 -21 -85q42 0 42 -21l43 21q134 0 212 -212q0 -170 -297 -170h-43l-85 21q-21 0 -21 -21 l-106 21h-149q-47 0 -64 234q48 37 234 63v64q0 49 -340 64l21 42v22l-191 -85q-191 52 -191 191q141 307 425 679q154 229 318 340zM655 1274q0 -95 -234 -339l21 -43l-42 -85q21 0 21 -21l43 21h254q0 71 64 149q-21 0 -21 21q42 0 42 43h-42v42l21 43l-42 -22 q-43 0 -43 43v42l64 85q-71 0 -106 21zM952 658q0 -95 -21 -127h21l21 43v84h-21z" />
<glyph unicode="5" horiz-adv-x="1414" d="M1080 1763q41 -21 63 -21q0 -48 -21 -85l21 -43q0 -115 -191 -170q0 -21 -21 -21q-179 103 -191 170q0 68 148 106v22h149q43 0 43 42zM485 1742l21 -43q109 43 170 43l21 -149q-212 -127 -297 -127q-64 -163 -64 -234l-42 21h-128q0 19 -42 170l85 43l-22 106 q0 141 298 170zM995 1678l-22 -42v-22h22q42 0 42 43zM612 1253h170q13 -85 106 -85q19 0 170 22q110 0 170 -192q60 -11 106 -276q-42 -276 -63 -276q0 -174 -404 -404h-42v22q-149 -50 -149 -64q-189 26 -234 42q-37 -21 -85 -21l-255 213q-16 85 -42 85q21 318 276 318 h85q43 0 64 -170q-21 -84 -21 -148h21q186 26 233 63h22l106 -21q0 57 212 213q-21 27 -21 106h21q0 16 -63 63v64q-154 128 -234 128q0 21 -21 21q-41 -21 -64 -21l-85 63q-121 -45 -191 -170q-69 0 -106 -42q-149 52 -149 149q21 41 21 63q-42 0 -42 43v42q24 0 148 128 h22l106 -21q0 42 64 42l106 -21q6 42 42 42z" />
<glyph unicode="6" horiz-adv-x="1372" d="M591 1912h21l85 -85q17 85 43 85l106 -64v42h21q82 -84 149 -84q0 -85 127 -107l22 -191q0 -106 -192 -212h-42q0 55 -106 127l42 64l-42 21h-128v64q37 0 128 -43v43q-85 0 -85 42q-319 -106 -319 -170q0 -85 -85 -85l21 -42v-64q-42 0 -85 -106v-21h43q53 148 488 148 q326 -103 447 -318q0 -64 42 -149q-21 -41 -21 -64l21 -106q-42 0 -42 -63l21 -43q-66 -212 -340 -382q-223 -64 -234 -64l-85 42q-21 -41 -21 -63h-42q0 63 -277 106q0 36 -63 106l21 43q0 90 -128 106v85l43 64q-43 0 -43 42q22 41 22 64q-43 0 -43 42l21 43 q-42 97 -42 212q15 106 64 106q-22 45 -43 234q176 425 319 425q0 62 191 106v64zM209 828l85 -85q-22 -37 -22 -85h85v-21q0 -58 -42 -127q32 0 255 -106q212 26 212 85q-21 0 -21 21l42 21h43v-85q20 0 170 191q-21 41 -21 64q21 41 21 64q-96 148 -170 148 q-41 -21 -64 -21q0 38 -191 64q-170 -85 -382 -128z" />
<glyph unicode="7" horiz-adv-x="1308" d="M634 1806v-22l42 22l149 -64q41 21 63 21l107 -21v42h63q170 -21 170 -212q0 -117 -127 -446q-47 -111 -340 -468q-43 -170 -43 -212l64 -106v-21q0 -22 -21 -22l21 -42v-43q-127 -85 -127 -127q-213 0 -213 127q30 0 64 128h21q0 55 -63 149v42q0 155 106 255l-21 42 q318 437 318 510v43q-64 0 -64 -64h-42q-43 0 -43 42l22 43q-106 21 -106 85q-93 0 -234 -170q-43 0 -106 -170h-85q-67 106 -128 106l43 85q-22 41 -22 64q22 41 22 64q-31 0 -64 63q31 0 64 64q-22 37 -22 85q101 79 234 106q21 -85 106 -85q32 85 64 85q21 0 21 -21 q69 43 107 43z" />
<glyph unicode="8" horiz-adv-x="1351" d="M634 1869q49 -35 339 -85q197 -143 277 -382v-43q-43 -6 -43 -42l21 -43q-34 -68 -63 -191q21 0 21 -21q-31 0 -64 -64v-21q106 0 149 -276v-191q-135 -446 -446 -446q-48 0 -85 21q-70 -43 -128 -43q-21 0 -21 22l-42 -22h-43q-319 152 -319 170v128q-71 0 -106 21 q0 72 64 170q-64 78 -64 149v42l21 43q-42 0 -42 42q64 67 85 149q13 0 42 64l-21 42v21q0 22 21 22q-85 138 -85 233l22 43q-22 41 -22 63q0 183 255 362q35 0 170 42q41 -21 64 -21q7 42 43 42zM634 1529l-85 22q-213 -98 -213 -298q55 -58 276 -85q7 -42 43 -42 q0 52 276 85q42 110 42 212q-63 0 -63 106l-43 -21h-64l-21 85h-42q-70 -64 -106 -64zM718 892q0 -61 -169 -106l-43 21q-141 -85 -191 -85v-64h42q0 -127 -63 -127q0 -70 318 -149q0 64 106 64h22q48 0 85 -21q136 48 191 170h-43v42q0 43 85 43v21q-266 127 -318 127 l21 43v21h-43z" />
<glyph unicode="9" horiz-adv-x="1499" d="M634 1848h63v-42h43l63 42h22q0 -81 233 -106q215 -213 255 -213v-42q0 -111 64 -191v-106q0 -151 42 -234q-58 -131 -127 -489q-169 -403 -489 -403q0 -22 -21 -22t-21 22l-106 -22h-21q-22 0 -22 22q-41 -22 -63 -22l-43 22q-37 -22 -85 -22q-28 0 -106 107v42l21 43 q-101 0 -127 148l21 43q0 21 -21 21q31 212 85 212h170q47 0 85 -148q73 -64 191 -85q0 30 63 64q22 0 22 -22q77 7 233 213h43v42h-106q-103 -85 -170 -85l-22 43q-41 -22 -63 -22q-170 0 -170 107h-85v-43h-128q0 64 -63 64q-34 0 -85 85l21 106q-38 0 -149 106l21 43 l-42 64q80 326 149 403q42 69 42 106h43l42 -21q0 71 128 85q0 64 42 64l64 -43q0 31 64 64zM825 1529v-63h-43v42q-32 0 -191 -42q0 42 -21 42q-128 0 -213 -234q0 -233 234 -233l43 -21q84 21 148 21q41 -21 64 -21q96 106 212 106l22 212q-31 0 -64 106l-149 85h-42z" />
<glyph unicode=":" horiz-adv-x="629" d="M315 1253q94 0 212 -148q-21 -42 -21 -64q43 -7 43 -43v-21q-97 -191 -170 -191q-37 0 -107 -64h-21q0 36 -106 85q0 141 -85 149q27 122 106 212h21l-21 43v21zM251 425h85q147 0 191 -213q-21 -37 -21 -85l21 -42q-69 -154 -148 -170q-227 127 -277 127q0 218 149 383z " />
<glyph unicode=";" horiz-adv-x="714" d="M442 1211q17 0 149 -149q-21 -41 -21 -64q42 -6 42 -42v-21q-97 -192 -170 -192q-36 0 -106 -63h-21q0 36 -106 85q0 140 -85 148q26 123 106 213h21l-21 42v22zM315 531q228 0 276 -170l43 -149q-128 -552 -510 -552l-64 85q21 41 21 64l-21 42l42 85h-42v43h42l43 -21 l106 127v21q-72 0 -106 149q21 115 21 191v21q49 0 149 64z" />
<glyph unicode="=" horiz-adv-x="1479" d="M570 1572l106 -21q41 21 64 21v-21l42 21h21l64 -43h21l64 43h85q21 0 21 -21q41 21 64 21l43 -21q37 21 85 21q0 -48 84 -64q43 -16 43 -212q-86 -43 -255 -85q-64 21 -64 42l-148 -21h-192l-63 42h-21v-42l-362 42q-41 -21 -63 -21q-97 35 -149 128q0 106 106 127 q7 43 43 43l63 -43l107 43l127 -22h21q43 0 43 43zM634 1147l84 -42q85 16 85 42l107 -21h318q22 0 22 -21l42 21h21q27 0 85 -149q0 -158 -276 -191l-127 42l-107 -21l-42 21l-106 -21q-16 0 -128 21q-41 -21 -63 -21l-43 21l-42 -21l-85 21q-38 -21 -85 -21q0 47 -192 64 v42q0 192 298 213l42 -21q77 42 192 42z" />
<glyph unicode="?" horiz-adv-x="1139" d="M612 1742q0 -38 170 -106l64 -85q21 0 21 -43h21q0 85 43 85q127 -114 127 -276q0 -233 -318 -425v-21q42 -69 42 -106q-30 0 -64 -64h43l-64 -234l149 -127v-21q-128 -319 -276 -319h-43q-148 38 -148 234v127h42l-21 43q0 42 64 42q-22 186 -64 234q42 0 42 42l-42 21 q16 234 42 234l-21 43q0 111 149 170q41 -22 64 -22l42 64q-21 41 -21 64l21 42q0 85 -170 85q0 -77 -85 -106q0 -50 -106 -106h-85q-146 0 -170 212q21 41 21 64q-21 0 -21 21q136 213 489 213q0 21 63 21z" />
<glyph unicode="A" horiz-adv-x="1500" d="M825 1678h85q0 -191 85 -191v-191q42 0 42 -22q-21 -41 -21 -63q37 -21 85 -21l-21 -107q21 -41 21 -63q-21 0 -21 -22q42 -6 42 -42v-21l-21 -43q58 -7 127 -340l85 -191l106 -64q0 -297 -127 -297q-56 0 -170 -42q-41 0 -149 42q-37 -21 -85 -21q0 42 -63 42v64l42 64 l-21 42l64 149v64h42v21h-149q-33 0 -85 -85v-21h85v-22q-48 -48 -63 -276q-259 -63 -298 -63q-34 84 -148 84h-22q0 -63 -42 -63h-85q-52 42 -85 42q0 114 85 213q-43 0 -43 42q196 0 234 298h21l-21 42l106 149q0 47 -21 85q21 63 43 63l-22 43v42q56 105 85 107l-21 42 q0 31 64 64l-21 42q57 213 85 213h21v42h-43v21l213 128v21zM718 892q85 -109 85 -149q30 0 64 128q43 0 43 42h-107v64h43q0 43 -43 43q-42 0 -85 -128zM655 425v-21h85v21h-85z" />
<glyph unicode="B" horiz-adv-x="1457" d="M464 1721h42q43 -7 43 -43q37 21 191 43q0 -36 127 -64l43 21q170 0 170 -149l42 22h21q33 0 85 -85q-21 0 -21 -22l85 -21q0 -48 -21 -85l42 -127q-8 -136 -127 -276q64 0 64 -64q127 -156 127 -255v-106q0 -329 -255 -404l-234 -148q-159 42 -191 42q-74 -21 -85 -21 l-42 21q-117 -21 -170 -21q-340 0 -340 170q21 191 149 191l63 149l-42 21q85 693 85 786q-43 69 -43 127l-42 -21v21l21 43h-21q0 -22 -21 -22q0 32 -128 107v63q79 0 128 43l42 -21l43 21l106 -21l-43 63zM400 1402q42 -170 85 -234q0 -21 -21 -21q0 -32 127 -106l43 21 h21q52 -42 85 -42q41 21 63 21q0 -21 22 -21q0 29 127 63l43 -21h21q0 51 85 106q-21 37 -21 85q42 0 42 43q-21 127 -64 127v-21q22 -37 22 -85l-43 -21l-42 85q-22 0 -22 -22q-148 0 -148 85q-43 0 -43 -63h-42l-43 21q0 -43 -42 -43q-53 0 -64 85h-21q-43 -42 -170 -42z M570 743q0 -30 -85 -85q0 -84 -21 -84l21 -43q-21 -37 -21 -85q57 -119 254 -149q0 -21 22 -21l63 43h149q0 63 43 63q0 -21 21 -21q127 99 127 128v21l-63 148l-43 -21l-106 85q0 -30 -64 -64h-21v64q-23 0 -64 -21q-180 42 -212 42z" />
<glyph unicode="C" horiz-adv-x="1308" d="M718 1657h22q0 -72 148 -85q22 -85 128 -85v42h170l21 -148h-21q15 -27 42 -298q-42 -6 -42 -42l21 -43q-85 -99 -85 -127h-64q0 38 -106 149h43v21q-97 80 -128 212q-34 0 -127 128l-106 -22q-48 0 -85 22q-122 -107 -192 -107l22 -42v-21q-104 -127 -128 -213 q43 -69 43 -127v-43l-22 -106q43 -6 43 -42q-43 -136 -43 -170q30 0 64 -128q162 -148 340 -148h85q135 45 191 212v21h-42q27 213 148 213l149 -22v-63l21 -128q-112 -446 -276 -446q-91 -106 -255 -106q-21 35 -21 106q-98 -63 -127 -63q-154 84 -170 84q-42 -21 -64 -21 q0 43 -64 43v148h-85l21 43q-58 0 -127 170l42 191l-42 21l21 85v128h21l-42 63q0 22 21 22l-21 42v21q7 43 42 43l-21 42v22q7 42 43 42l-22 43q108 157 255 297q0 78 107 106q0 37 106 43v-22l42 22h22l42 -22q7 43 42 43zM506 106v-21h85v21h-85z" />
<glyph unicode="D" horiz-adv-x="1457" d="M357 1699q154 -21 192 -42q37 21 85 21h63l64 -42q42 0 42 42q255 -23 255 -127h64q2 -33 170 -170q0 -22 -21 -22l21 -42q0 -21 -21 -21q0 -64 63 -64v-127l22 -128q-22 -35 -22 -106q43 -7 43 -43v-106q0 -21 -21 -21l21 -43l-64 -84q43 -7 43 -43v-21l-149 -340 q-141 -212 -404 -212q-74 -22 -212 -22l-85 22l-42 -22q-117 22 -170 22q-41 -22 -64 -22l-21 43l-43 -21h-42q-31 0 -64 63v64q0 21 21 21l-21 43q0 170 127 170q36 21 107 21l-22 42v107l43 63l-43 85q22 161 43 213h-43v106q0 21 22 21q-43 70 -43 128q0 21 21 21l-21 42 q21 41 21 64q-42 0 -42 42v22q11 0 85 21v42q0 31 -64 64q-41 -21 -64 -21q-85 80 -85 191l213 85q7 -42 42 -42v63zM506 1423l21 -42q-35 -22 -106 -22v-42q35 0 106 -127h22l-64 -107l21 -106l-21 -42l21 -43q0 -22 -21 -64q21 -84 21 -148t-64 -64v-21q64 -58 85 -255 l107 -21q10 0 84 21l149 -21q67 7 149 127q58 0 127 212l-42 255h21q0 22 -21 22l21 148v64q-48 0 -64 85q-41 21 -63 21v64l42 -21v21q-170 52 -170 127l-149 -21q-21 0 -21 21q-14 -21 -191 -21z" />
<glyph unicode="E" d="M506 1678l106 -42q7 42 43 42h63q43 0 43 -64q98 43 191 43l85 -21q41 21 64 21q41 -21 64 -21l42 21q160 -57 170 -106v-128q0 -340 -64 -340h-127q-28 0 -85 128l42 63l-148 85l-43 -21l-64 43h-21l-149 -22q0 64 -63 64q0 -77 -85 -106l-43 21q0 -121 -21 -148 q54 -234 170 -234q0 199 191 318q36 0 128 -212q0 -64 -64 -64v-127l42 -64l-21 -127l43 -64q-75 -191 -128 -191v-64h21l43 21l42 -21l128 21h64q0 48 -22 85q22 41 22 64q-22 0 -22 21q14 0 128 43q0 -43 106 -43v-21q0 -101 21 -212q-24 -383 -191 -383q-69 43 -106 43 q0 -43 -43 -43q-116 22 -170 22q-74 -22 -85 -22v22l-42 -22q-43 0 -43 43q-63 -21 -63 -43q-85 17 -85 43l-106 -21l-149 42q0 -42 -43 -42q-212 26 -212 84l42 64v64q0 21 -21 21q56 191 255 191v22q0 47 -21 85l21 42q-21 41 -21 64q42 69 42 127q-42 0 -42 43l42 85 q-42 0 -42 42v64q0 48 21 85q0 21 -21 21l21 106v128q-106 82 -106 127l-43 -21h-21q-30 0 -64 64v63q55 0 85 85q58 37 319 64zM570 722v-21l21 -106q-64 -21 -64 -43q43 -63 43 -170h127l64 -42h21v85h-42v85q0 21 21 21l-21 43v63l21 43h-127q0 42 -43 42h-21z" />
<glyph unicode="F" horiz-adv-x="1500" d="M973 1721q70 -43 128 -43h64l42 21l43 -63l42 21q127 -70 127 -319v-21q0 -21 -21 -21l21 -43v-21l-42 -64h21q-17 -85 -170 -85l-85 128l22 42q-30 128 -107 149h-21q-48 0 -85 -21l-42 21q-38 -21 -85 -21q0 21 -22 21l-42 -64l-85 43q-98 -28 -106 -85 q21 -115 21 -191v-22l-21 -42q42 0 42 -64h43q0 43 85 43l-22 148l192 128q90 0 127 -213q21 0 21 -21q-42 -70 -42 -127q0 -48 21 -85q-21 -38 -21 -85q0 -85 64 -85v-22l-107 -233q-47 0 -85 -21q-148 21 -148 63l42 85q0 64 -64 64v42l22 43l-43 -21h-21l-42 21 q0 -112 -22 -191l85 -106q-41 -22 -63 -22v-42h21q41 21 63 21q149 -143 149 -170q0 -233 -212 -233q-70 42 -128 42l-106 -21q0 21 -21 21v-42h-64q-21 0 -21 21l-43 -21q-197 0 -212 191q101 191 127 191q54 0 192 64q-43 51 -43 85q0 22 21 63l-21 128v63q0 22 21 22 q0 21 -21 21q21 146 43 191h-43v191h64v43q-59 0 -85 148q-85 0 -85 85h-21v-42h-64v21l21 43h-42v63q63 0 63 128h64l43 -21q0 36 106 63q84 -21 149 -21q10 0 85 21l127 -42l21 42l106 -21h43q42 0 42 43z" />
<glyph unicode="G" d="M634 1806l169 -43q42 21 64 21q0 -127 170 -127v85h64q0 -106 85 -106v-22q0 -63 -21 -63l21 -107v-254q-64 -77 -64 -170h-21q-64 21 -64 127q21 0 21 21q-85 0 -85 43l22 42h-22q0 -21 -21 -21q-42 170 -85 170h-64l-42 -21q-27 106 -64 106l-63 -43l-107 43 q-106 -78 -106 -106q0 -26 -127 -128l-22 -106l22 -42q-64 -109 -64 -213q34 0 127 -361q128 -126 128 -170q170 -21 170 -64q271 164 297 298l-42 -21q-17 0 -64 63h-64q0 20 -42 170q0 79 233 149q0 21 22 21q38 0 191 -64v22q-21 0 -21 21q22 0 63 21q0 -30 64 -64l42 22 q0 -57 64 -128q-42 -127 -85 -127q-14 0 -85 -43l22 -106v-319q-75 -127 -107 -127h-21l-106 21v-21q-69 42 -106 42q-177 -169 -404 -169q0 26 -191 127q0 64 -85 127q0 22 -128 277v127q0 21 22 21q-22 85 -64 149q42 78 42 170h-42q0 22 21 64q0 22 -21 63 q98 416 255 553q76 0 127 148h22q47 0 85 -21z" />
<glyph unicode="H" horiz-adv-x="1564" d="M1058 1763q0 -64 43 -64h21l64 43h42q33 0 85 -85q-63 0 -63 -43h21q41 22 63 22v-149q0 -43 -84 -43v-42l21 -128q-21 -41 -21 -63q21 -41 21 -64h-21l21 -42v-149h-43v-43q64 0 64 -63q-21 -152 -21 -170q21 -41 21 -64h-21q21 -51 42 -212q-21 0 -21 -22 q49 0 170 -127h21v-64q-52 -170 -233 -170q0 21 -22 21l-21 -42q-268 35 -382 106v21q0 179 148 234l107 128v63l-43 64q7 42 43 42q-28 107 -64 107h-21v-43h-64v64l-149 -21h-21q-21 0 -21 21l-43 -21h-21l-42 21q0 -43 -43 -43h-42l-43 22q0 -181 -42 -276 q21 -32 21 -128l106 21q149 -97 149 -233q0 -100 -234 -149h-149q-21 0 -21 21l-42 -21h-170q0 64 -64 64v21q0 212 255 297q-57 192 -85 192l21 212q0 48 -21 85l21 42q-21 42 -21 64l21 43q-21 41 -21 63l21 43l-21 42q21 37 21 85v21h-42q63 78 63 149v43h-42v-64h-64 q-21 127 -106 127v64h42q-21 41 -21 64q21 85 106 85q70 -43 128 -43l64 43l63 -43q160 43 192 43l21 -43l-43 -63l43 -64q-67 -128 -106 -128q-85 -173 -85 -212l42 -64l-21 -42q64 0 106 -64q21 0 21 21l213 -42q6 42 42 42l43 -21q0 64 42 64q37 -21 85 -21q0 21 21 21 l-21 42l21 43l-21 42l21 128q-191 67 -191 106q0 42 -42 42v43h42v21l-21 43l-43 -22h-21l-21 85h42q54 0 255 64z" />
<glyph unicode="I" horiz-adv-x="1181" d="M357 1721q31 0 64 -64q-21 0 -21 -21l42 -22q0 85 298 85h63q277 0 277 -191l21 -85q-50 -42 -340 -85q0 -85 -43 -85v-255l22 -127q-17 -85 -43 -85q17 -85 43 -85l-22 -106v-64q7 -42 43 -42l-21 -107q42 -51 42 -85q52 43 85 43q154 0 213 -106h21v-128 q-72 -148 -319 -148l-85 21q-74 -21 -85 -21q-154 21 -191 42q0 -42 -42 -42h-43q-258 93 -276 169v85q0 78 340 128q0 64 42 64l-21 42v128l43 63v21q0 48 -22 85l22 43q-43 78 -43 170l21 42l-21 43q13 191 43 191q-13 149 -107 149l-85 -22q-25 0 -191 107l21 42v64 l-21 42q70 64 106 64l107 -21q0 30 63 64z" />
<glyph unicode="J" horiz-adv-x="1499" d="M697 1678h85v-42h64v42h64l63 -42q87 42 128 42l42 -21l43 21q233 -36 233 -234v-21q0 -64 -233 -64v22q-41 -22 -64 -22l21 -42q0 -43 -42 -43q21 -41 21 -63q0 -21 -21 -21l21 -107v-63q0 -48 -21 -85q21 -42 21 -64l-21 -43l21 -42l-21 -106q21 -146 21 -234 q0 -23 -21 -64l21 -42q-9 -106 -64 -106l22 -43q-183 -233 -298 -233l-127 -64h-43v42h-63q-48 0 -85 22q-42 -22 -64 -22q-87 94 -234 149q-64 77 -106 404l127 191q20 0 170 42q84 -120 149 -191v-21q0 -21 -21 -21l21 -43v-42q-100 0 -127 -85q63 -22 63 -43 q383 51 383 149v21q-43 0 -43 21q21 64 43 64l-22 43v21q7 42 43 42q-27 218 -64 255q64 0 64 64l-43 21q0 39 43 170l-21 127v85q-97 0 -191 64v-42h-64q0 106 -64 106v85q0 39 191 106z" />
<glyph unicode="K" horiz-adv-x="1585" d="M1143 1657h22l148 -43q7 43 43 43h21q64 -21 64 -128v-85h-64q-48 0 -85 -21h-64q0 -48 -85 -85q-65 -132 -212 -340q-21 -37 -21 -85q21 0 21 -21q-43 -7 -43 -42q0 -59 107 -213l127 -170q43 -84 43 -127l106 21v-64q48 0 85 22l148 -64v-85q0 -191 -191 -191 q-144 0 -212 -43l-149 43q-37 -21 -85 -21v106h-42l-85 -106h-85q-213 0 -213 106h-42q0 -85 -170 -85q-143 63 -170 63v64q3 32 255 234v21l-43 21q15 149 43 149l-21 106v213q5 106 42 106l-42 191q42 0 42 43l-42 63v21q42 0 42 22q-21 41 -21 63q42 0 42 43v21 q-63 53 -63 85l-149 -21q0 42 -43 42v22q0 26 149 85q21 0 21 -22l43 22h191q48 0 85 -22q37 22 85 22l42 -128q-21 -41 -21 -64h-127l-106 -21l21 -106v-170l21 -212q109 39 191 212q49 0 85 106q71 0 85 128h64v42q0 43 -106 43v42q0 31 106 64v64l85 -22q41 22 64 22h63 v21zM570 637q-43 -212 -64 -212q21 -35 21 -106l107 21l127 -85v-21h21v42h85l-21 -42v-22q42 0 42 43q0 21 -21 21l21 43v21q-107 121 -170 234q-64 42 -148 63z" />
<glyph unicode="L" horiz-adv-x="1393" d="M591 1657h85q32 0 106 -128v-21q-64 -53 -64 -85h-127q0 -42 -42 -42l21 -43v-106l-43 -64q43 -6 43 -42v-21q0 -43 -43 -43l22 -42q-22 -38 -22 -85h43v-22q0 -47 -21 -85q21 -37 21 -85h-21q21 -41 21 -63l-21 -43q21 -37 21 -85q-21 0 -21 -21q42 -7 42 -42 q0 -22 -21 -22q29 -119 64 -170l42 22h170q106 0 212 191h22v42q-64 0 -64 43q70 170 106 170q170 0 170 -340q21 0 21 -64q0 -21 -21 -21l21 -106q0 -136 -148 -255l-107 21h-127q-76 0 -191 -21q-131 42 -170 42q0 -42 -43 -42h-85q-21 0 -21 21l-42 -21q-55 0 -149 63 h-21v-42h-85q0 37 -64 106v21q0 117 127 170h64q85 -36 85 -85h43v43q-64 0 -64 149q0 47 21 85l-42 85q21 41 21 63l-21 43l21 42q0 21 -21 21q21 146 42 192q-21 37 -21 85l21 148q-42 0 -42 43v106l21 106q-21 0 -21 21l-43 -21h-21q-43 0 -43 64l-63 -43l-43 64v21 l128 107h42v-43h106l64 43h21l107 -22q6 43 42 43z" />
<glyph unicode="M" horiz-adv-x="1457" d="M187 1678q38 0 255 -276q-42 -7 -42 -43v-21q64 -82 64 -127v-64q49 -106 85 -106v-43l-22 -42q85 -6 85 -85q-42 -7 -42 -43l42 -21h22q0 35 84 149l-21 42l43 64l-22 43q64 119 64 169q-42 0 -42 43q109 103 127 234h-64v42q0 54 255 85q255 -16 255 -85 q-106 -94 -106 -170h-85v-64q7 -42 43 -42l-22 -106q22 -112 22 -128l-22 -42q43 -108 43 -149q-21 -41 -21 -64q21 -41 21 -63q-21 -41 -21 -64q42 -7 42 -43q-21 -41 -21 -63l21 -43v-63h21v-64q0 -111 149 -149v-42l-21 -43q21 -37 21 -85q0 -57 -276 -106q0 -21 -21 -21 v42h-64l-149 43q0 -64 -297 -64v21h-64v-63q-16 0 -127 21l-107 -21q0 47 -170 127q0 32 -21 297q27 0 106 128q-127 50 -127 85v42l42 -21v64l-21 127q43 108 43 149q-43 0 -43 42v22q7 42 43 42l-22 43q0 127 85 127v42q-63 0 -63 128q21 41 21 64l-21 42q21 41 21 64 q-21 41 -21 64zM209 1168l-22 -106l43 -21h85l-43 64v63h-63zM230 977l21 -106v-106q33 0 85 -43h21v43l-85 21v21q48 0 85 21l-21 43v42l21 43l-42 21h-85zM357 637q0 -106 -106 -106v-64q71 0 149 -63l-21 -43v-21h21l21 106q-13 191 -64 191zM867 510q43 -69 43 -106 q42 0 42 42v64h-85z" />
<glyph unicode="N" horiz-adv-x="1393" d="M973 1678h64q11 -85 64 -85h64q0 64 42 64q21 -106 106 -106v-64l-42 -64q21 -41 21 -64q-41 -21 -64 -21q-69 43 -106 43v-43h43v-64h-43q21 -188 21 -233l-21 -106h43l-22 -128q22 -150 22 -255q-43 0 -64 -127q30 0 64 -64l-22 -42q22 -64 43 -64q-29 -297 -106 -297 q-37 0 -107 -64q-106 34 -106 170h-42l-43 -22l21 107v21q-106 0 -106 85l43 21q0 21 -22 21l22 107q0 30 -64 63l21 43q-106 66 -106 127q-23 0 -64 21l22 43q-22 37 -22 85l-106 -43l21 -42v-21q-42 -41 -42 -128h42q-16 -85 -42 -85q51 -181 106 -191l64 43q42 -7 42 -43 v-21l-21 -43q106 0 106 -42l21 -85h-84l21 -85q0 -85 -170 -85v21h-21q0 -63 -43 -63l-170 85q-37 -22 -85 -22q0 43 -42 43l-43 -21q-21 41 -21 63q0 32 106 128v21l-85 -43v64l106 106v22l-42 -22v22q0 30 64 63l-22 43q12 255 43 255h42q-21 61 -63 340l21 42 q0 21 -21 21l42 276q-30 0 -64 64l-42 -21q-33 0 -85 85q0 106 255 106q168 -64 212 -64l-21 -106q34 0 85 -170q41 -21 64 -21v-21l-43 -64q33 0 106 -191q64 0 64 -43q0 -21 -21 -21q42 -192 170 -276h21v21l-42 64l21 42q-21 42 -21 64l21 43q-21 37 -21 85l21 42 q-41 21 -64 21q0 43 64 43v21l-43 64q0 42 64 42q0 43 -64 43v42h43l-21 43v21l21 42q-43 0 -43 64h-21v-42h-42l-170 127v21q106 64 106 128h64q0 -64 42 -64v43l106 -22v64zM400 1105v-22q6 -42 42 -42v64h-42zM421 977v-21q0 -48 21 -85q-21 -41 -21 -64h106v64 q0 28 -106 106zM442 616h64v-21q0 -43 -42 -43h-22v64zM867 574l-21 -85q21 0 21 -22q115 22 191 22v21q-55 0 -148 64h-43z" />
<glyph unicode="O" horiz-adv-x="1435" d="M718 1699h85l170 -127q96 -74 213 -255h64l-22 -106v-21h85v-22l-42 -63q63 0 63 -43v-42l-21 -43h21l-21 -42v-22l43 -63l-43 -192q43 -6 43 -42l-64 -85v-64q-100 -336 -361 -467q-53 -45 -191 -85q-489 96 -489 191v21q0 22 21 22q-21 79 -148 212l-64 213q42 0 42 63 q-21 64 -42 64l21 106v21q0 71 -21 107l21 127v128q85 78 128 297q59 0 148 127q219 85 361 85zM336 1190v-64l-64 -43l43 -127q-17 -85 -43 -85q43 -87 43 -128q-21 -41 -21 -63q42 0 63 -170q22 0 22 -21q-43 -7 -43 -43q43 -7 43 -42q-22 -42 -22 -64q319 -56 319 -85 l127 64q42 -22 64 -22q170 282 170 319l-21 42l64 85v22q0 42 -43 42q0 39 43 170q-42 21 -64 21v64h42v64q-42 0 -106 170q-49 0 -106 85q-79 0 -128 42l-106 -21v21q-114 0 -276 -233z" />
<glyph unicode="P" horiz-adv-x="1500" d="M803 1742h22q0 -23 21 -64l42 21h43q0 -42 21 -42q41 21 64 21q0 -35 149 -64q0 -71 106 -106q148 -177 148 -318q0 -352 -233 -447q0 -90 -531 -148v-128q17 -44 276 -127l21 -43v-42l-64 -85q64 -21 64 -43q0 -127 -255 -169q-22 0 -63 21l-192 -43q-178 0 -382 128 q0 147 276 276q0 42 64 42q0 139 -64 276l21 43l-21 42l43 85q-43 0 -43 43l21 42q0 22 -21 22l21 106l-21 149l43 21q-56 170 -85 170l-107 -22q0 40 -106 128q64 72 64 170h21l85 -21q41 21 64 21q0 -43 64 -43q233 27 233 85h43l106 -21q0 64 42 64zM973 1423v-42h-42 l-43 21q0 -43 -42 -43l-64 43h-21q0 -64 -106 -64v-127q0 -58 -43 -128q55 0 64 -106h21v64l149 -21h85v-43h42q81 0 170 85q0 85 43 149q0 123 -106 148q0 37 -107 64z" />
<glyph unicode="Q" horiz-adv-x="1542" d="M803 1721l22 -43l42 21h21q128 -106 213 -106v-127q100 0 191 -149v-21h-64q22 -83 22 -170l42 21h21l-21 -127l21 -43l-21 -42l21 -43v-106q43 -7 43 -43v-42q-48 0 -85 -21q21 -41 21 -64l-21 -42v-64q-89 -340 -170 -340q21 -41 21 -64l-42 -85l21 -42 q-21 -41 -21 -64l85 -42q165 106 254 106q0 -33 43 -85v-64l-43 -64q22 0 22 -21l-170 -191q-53 0 -170 -21q0 42 -21 42l-43 -21q-140 84 -234 297l43 85l-43 22h-42l-127 -22q-353 135 -468 404q0 170 -64 170v106h-42q0 314 149 722q-22 41 -22 64q102 11 170 127 q25 0 213 149h42v-42h22q89 85 169 85zM336 1020l21 -149l-21 -43l43 -85q-22 -37 -22 -85q64 -21 64 -42v-64q48 0 85 -21q0 79 212 127q7 -42 43 -42l64 42h21v-84h21v42h43q82 -127 106 -127q21 0 21 21l43 -21h21q0 123 85 212q-31 0 -64 64v21q85 0 85 42 q-50 0 -170 404q-42 0 -42 42l21 43q-149 106 -213 106h-212q-91 -50 -127 -170q-31 -27 -128 -233z" />
<glyph unicode="R" horiz-adv-x="1648" d="M294 1699q127 0 127 -63q41 21 64 21q22 0 64 -21l127 21h21q48 0 85 -21q78 42 170 42l43 -21q37 21 85 21q127 -64 127 -127h21q41 21 64 21q100 -128 170 -255v-21q0 -23 -21 -64l21 -85q0 -72 -64 -170v-64q-28 0 -106 -106v-21l42 -64q-21 -41 -21 -64q43 -6 43 -42 v-106l-22 -43q59 0 128 -212h21q41 21 64 21v-42l-21 -43q42 -6 42 -42v-85q0 -48 -212 -106q-213 57 -213 191q0 99 -42 148q0 69 85 192v21l-43 -21q-42 0 -42 42v21h42l43 -21v43q-21 41 -21 63q21 0 21 21q-303 0 -340 85l-43 -21h-106q0 -42 -21 -42q-41 21 -64 21 l-21 -43q21 -37 21 -84h-21q0 -161 234 -319q0 -51 85 -170v-21q-135 -93 -340 -128v22l-43 -22h-148q-113 0 -255 106v22l21 148h-43v22q0 26 149 85q0 42 106 42v85l22 212h-43v22q0 42 64 42l-85 255h21l-42 106l21 43l-21 85l21 42q-21 35 -21 106h-43v-42 q-70 42 -127 42q0 -21 -22 -21q0 43 -42 43q21 158 85 255l42 -22h43q11 85 64 85zM634 1381l21 -43v-21h-64v-43h64v-42l-43 -64v-63q0 -128 85 -128l-21 -42h64l106 21q7 -43 42 -43q0 64 149 64l106 -42q0 63 85 63l-21 43q0 42 64 42q-85 56 -85 107q-48 0 -85 21l21 42 v21q-42 0 -42 64h-107q0 43 -255 85z" />
<glyph unicode="S" horiz-adv-x="1351" d="M549 1721h106v-43l42 21h85q0 -56 170 -106v-42h43l63 42h22q0 -64 63 -64v-63h-63q0 -43 85 -43q0 -64 -43 -170q43 -6 43 -42v-21l-43 -64v-21h43q-43 -85 -128 -85l-21 42v43l21 42l-85 21l21 106q-47 0 -63 85l-255 107q-41 -22 -64 -22q0 43 -42 43 q-277 -73 -277 -276h64v-43h-42v-42q63 0 63 -43q108 0 255 -42h64v-43h127l64 -42l43 21q0 -42 233 -106q64 -64 107 -319h21q-19 -274 -234 -510q0 -25 -191 -63h-21q-22 0 -22 21l-42 -21h-21q-22 0 -22 21l-42 -21l-106 21l-106 -21q0 63 -43 63h-21l-255 -21 q0 21 -21 21l21 107v42q-85 0 -85 64v64l64 106q-23 0 -64 21q0 48 64 255q-22 0 -22 21l43 21h127q43 -6 43 -42q0 -21 -21 -21q101 -208 255 -319q41 21 63 21q85 -54 85 -85h64q0 48 191 107q21 161 43 212q-79 0 -85 106h-22l-148 -21q0 48 -255 85l-43 -21 q-233 78 -233 212q-65 0 -128 85v21q0 22 21 22l-21 42q0 48 21 85q-21 41 -21 64q22 0 149 276q211 127 297 127q0 -21 22 -21v43z" />
<glyph unicode="T" horiz-adv-x="1372" d="M867 1699l149 -21h149q37 -5 127 -191v-43l-42 22q42 -70 42 -128l-42 -21l21 -43v-42h-43v-21l43 -64q0 -42 -43 -42l22 -43v-21q-26 -106 -234 -106l-21 42l21 43q-64 0 -64 148h64q-16 213 -106 213q-85 -117 -85 -319q42 0 42 -64q-42 -38 -64 -446l43 -21l-21 -149 v-63q233 -31 233 -128q0 -21 43 -21v-64q0 -127 -361 -170q0 -21 -22 -21q-69 43 -106 43l-212 -43q-170 140 -170 212q3 62 127 107q0 47 213 85v21h-43v42q0 43 64 43q-85 75 -85 170h43v106q0 119 -43 319l43 85q0 212 -149 276q0 -85 -43 -85h-42v-43h64v-63h-43v-43 l21 -149q-30 0 -63 -63l-43 21l-64 -43h-42l-85 85q21 64 42 64l-42 85q21 28 21 106h-21l21 85l-21 43q35 127 85 127v21l-43 64q109 43 170 43l107 -22v43h21l64 -43q31 0 191 43q37 -21 85 -21q6 42 42 42q41 -21 64 -21z" />
<glyph unicode="U" horiz-adv-x="1563" d="M1207 1763v-42h43l63 42q149 -68 149 -106q21 -35 21 -106v-64q0 -43 -127 -64v-42h63v-43q-69 0 -106 -255q31 0 64 -63q-21 0 -21 -22l-43 22h-21v-43q23 0 64 -21q0 -21 -22 -21l22 -107v-42h-43l64 -85v-21h-64q64 -94 64 -149l-21 -42l21 -107q-69 -244 -255 -340 q-84 -21 -149 -63h-106q-127 0 -127 85q-31 0 -64 -64q-105 0 -297 170l-85 149v127q0 21 21 21l-21 43v42q0 22 21 22l-21 42l21 297q-43 0 -43 43v106l22 43q-43 0 -43 42v64h-21v63q23 0 64 22q0 53 -234 255v21q0 120 319 149q6 -43 42 -43h170q0 -13 64 -42l42 21h43 q0 -157 -128 -255l-42 21h-21q-43 -157 -43 -212l21 -43q-42 -130 -42 -170q26 0 85 -148q0 -23 -21 -64l21 -191l-21 -213l169 -106q273 0 383 213q-21 37 -21 85q21 27 21 106h-21v85q0 21 21 21l-21 42q0 43 63 43v42q-85 0 -85 43q0 42 64 42q-9 107 -64 107 q0 39 43 169q-21 38 -43 192h-42v-43h-64q0 43 -85 106q7 43 43 43l-22 42v43q0 35 319 106z" />
<glyph unicode="V" d="M1143 1784q107 -93 107 -127h21q0 85 42 85q85 -114 85 -191q0 -17 -64 -64q22 -41 22 -64q-128 -42 -128 -85q-42 -55 -148 -616q-22 0 -22 -21q22 -37 22 -85q-43 -7 -43 -42l21 -107q-35 0 -85 -127l22 -106q-26 0 -85 -170q-30 0 -107 -85h-42q-21 0 -21 21l-43 -21 h-21q-52 0 -85 255h-21l21 42q0 77 -85 170q21 0 21 21q-61 0 -127 446q-57 126 -106 298q-22 0 -22 21q22 41 22 64q-32 85 -64 85h-149q0 26 -21 212q85 128 127 128h64v21h64q21 0 21 -21q37 21 191 42q0 -31 107 -64q0 -36 42 -127q-21 -37 -21 -85v-21l42 21 q43 -7 43 -43l-213 -85v-21q85 -10 85 -64l-21 -42q71 -340 85 -340q106 0 106 -127q49 0 128 318h21q-21 41 -21 64l21 85q-21 41 -21 64v63h-43v149q0 48 -21 85q42 64 42 149q48 0 85 -21q38 21 85 21q7 -43 43 -43q0 85 42 85z" />
<glyph unicode="W" horiz-adv-x="1585" d="M336 1678q191 0 213 -127q158 0 169 106l43 21h64q42 0 42 -64h43q0 64 42 64h21v-42l-21 -43h21q38 21 85 21v-63h43l-21 42v21h42l43 -21q10 85 63 85h22q0 -48 106 -64q0 -42 148 -85v-21q-170 -120 -170 -297q22 0 22 -21q-31 0 -64 -64q21 -41 21 -64h-21l21 -42 v-43q-63 0 -63 -170l42 -21q-21 -146 -42 -191h63v-64h-63q0 -23 21 -64v-106h21v-21q-47 0 -85 -213h-21l42 -63l-148 -85q-100 0 -149 148h-21l21 85l-21 43v64q-64 0 -64 42l85 149h-64v64l21 42l-42 21q-51 0 -106 -148l42 -22q-21 -148 -64 -148l22 -107v-42 q-85 -212 -213 -212q-87 42 -127 42q0 48 21 85q-21 37 -21 85v21l21 43q-42 0 -42 42v85q0 21 21 21l-21 43v106h-43v43q0 21 21 21l-21 42v21l43 64q-43 0 -43 64q21 41 21 64l-42 21q0 21 21 21l-64 298q22 41 22 63q-43 0 -43 43v106q-37 21 -191 42v43q276 135 276 191 zM485 1423q0 -21 21 -21q-26 -219 -42 -255h63v-85l-21 -42h64q36 0 64 106q-22 37 -22 85q43 0 43 42q-43 0 -43 43q0 63 64 63v22q-127 0 -127 42h63v21q0 31 -63 64q-32 0 -64 -85zM995 1359l21 -42q-21 -41 -21 -64q42 -6 42 -42v-21l-42 -64h42v-85h-42v-43 q85 -14 85 -127q-38 -21 -85 -21q6 -43 42 -43l106 21q0 -21 22 -21v21l-43 64q21 37 21 85h-21l85 170l-21 106q21 0 21 21q-42 0 -42 43l42 64q-149 0 -149 21q-63 -21 -63 -43zM782 935l43 -22h21v128q-37 0 -64 -106zM591 998q0 -30 -85 -85v-21q48 0 85 -21q0 64 43 64 q-22 41 -22 63h-21zM740 680h148q-42 51 -42 85l21 106q-26 0 -127 -191zM1058 701v-21q38 21 85 21v64h-21q-30 0 -64 -64z" />
<glyph unicode="X" horiz-adv-x="1520" d="M379 1636q0 -22 21 -22l-21 -42v-21h42v42l-21 43l42 21l22 -43h-22q22 -41 22 -63h63q0 85 149 85q0 -102 -127 -170q0 -34 -43 -170h-64q-42 0 -148 170l-43 -22h-64q0 64 -63 64v64q79 64 255 64zM910 1657h21q21 0 21 -21q41 21 64 21l42 -21q38 21 85 21 q32 -85 64 -85l-21 42v22h64q0 -58 63 -128q-66 -64 -148 -85q-125 -191 -255 -510q106 -142 127 -276q86 0 128 -212l63 -43v22q213 -69 213 -298q-85 -127 -191 -127l-43 21l-191 -42q-165 53 -191 127v42q0 43 63 43v42q-36 61 -85 277l-42 21l-64 -43l21 -212v-128 q-58 -106 -191 -106q-85 17 -85 43l-42 -22h-43l-85 64l-106 -64h-42q-31 0 -64 64v64h42v42l-21 43q79 106 106 106q42 -21 64 -21q81 0 213 297q98 0 170 276q-34 0 -85 85h-22v43q0 21 22 21l-22 43v21q0 170 149 170q106 -77 106 -128h21l85 298q-42 0 -42 42 q21 149 64 149z" />
<glyph unicode="Y" horiz-adv-x="1520" d="M209 1742h21l64 -43h148v-21l107 21q127 -21 127 -63v-22q0 -148 -85 -148q-37 -22 -85 -22q0 43 -42 43v-85l106 21q71 -159 127 -170l-21 -148q48 0 64 -107h63v43h-42v42l42 64q-21 41 -21 64q43 0 64 127l-21 43l21 42q-28 128 -64 128q0 37 128 127v21h85v-42 q84 21 148 64h22q30 0 63 -64l43 21q170 0 170 -149q-38 -106 -191 -106h-64q0 -106 -85 -106l21 -106v-85q-85 0 -127 -128q-64 0 -64 -42l21 -43l-64 -85q0 -21 22 -21l-22 -106l22 -255q-43 -7 -43 -42q31 0 64 -64l106 21h64l21 -106q-21 -218 -64 -276q-69 42 -127 42 h-43l-63 -42l-64 42h-21l-128 -21l-42 21l-128 -21q-33 0 -85 85h22l-22 42v43q0 48 22 85q-22 41 -22 64q277 55 277 106v21h-43q0 48 21 85l-21 43l21 42q-63 181 -63 255l21 106q-113 0 -128 297q22 0 22 22q-170 39 -170 127q-234 21 -234 85q0 128 149 213v21z" />
<glyph unicode="Z" horiz-adv-x="1308" d="M251 1721l106 -22h22q116 0 297 22l127 -43q85 17 85 43q277 0 277 -170q21 0 21 -22v-21q-361 -478 -361 -595q-193 -220 -361 -488v-43q0 -35 382 -85q67 1 149 213l-85 106v64q61 0 148 127h85q51 0 85 -170l-21 -42l21 -106l-21 -43l21 -42q0 -22 -21 -22l21 -106 v-64q0 -118 -148 -212l-85 21q-85 -42 -149 -42q-37 21 -85 21q0 -42 -43 -42h-84q-149 0 -149 42l-43 -21l-106 21q0 -42 -64 -42q-193 42 -212 42l21 149v191q81 0 128 127q78 173 297 404q0 106 43 106l-22 43q87 78 170 233q64 14 106 128h-254v42h-22q0 -64 -42 -64 l-64 43q-127 -30 -127 -128q42 -6 42 -42v-21q-42 0 -106 -85h-64q0 90 -64 127q22 41 22 64q0 16 -22 127l22 43l-22 42q10 80 149 192zM740 1466q6 -43 42 -43h21q0 43 -42 43h-21z" />
<glyph unicode="_" horiz-adv-x="1946" d="M1292 361h64q362 0 488 -64v-63l22 -107q-79 -106 -277 -106q-188 0 -276 64q0 -64 -42 -64h-255q-627 43 -680 43h-212q-31 0 -64 63q0 43 64 43v21h-43v64q150 42 170 42l85 -21q41 21 64 21l127 -21q0 -30 -63 -64h-128v-21q7 -42 43 -42h148q73 63 191 85 q0 63 107 63q41 -21 63 -21q72 35 404 85zM1122 297q7 -42 43 -42h21q0 42 -43 42h-21zM1228 297l-21 -42v-21h106q107 0 319 -22l21 43l-255 42q-35 -21 -106 -21q-41 21 -64 21z" />
<glyph unicode="a" horiz-adv-x="1521" d="M634 1381h21v-85q42 0 42 63h64v-63l64 42h21q0 -64 64 -64q42 0 63 -127h107l63 -42l-21 -43q21 -117 21 -170q-21 -28 -21 -106q21 0 43 -128l-22 -106q17 -233 43 -233q64 21 64 42v64l63 42l106 -21v-106h22v-43q-140 -276 -319 -276l-42 21h-128v43l43 64h-107 q-170 -94 -170 -128q-233 0 -233 -63h-21l-64 42h-128q0 94 -106 149q0 50 -85 170q0 16 -21 127h21l-21 43q14 78 170 254v64q-128 0 -128 149q-21 0 -21 42q298 361 531 361q0 22 22 22zM527 1020l22 -43l-43 -85q112 -21 128 -21q21 85 106 85v21q0 43 -64 43l-85 -22 q-41 22 -64 22zM697 510v21l-191 -64q0 27 -149 85q0 -63 -85 -170v-21q91 -127 192 -127q6 42 42 42q106 0 106 -64h22q0 90 127 149q127 167 127 213q-94 -64 -191 -64zM357 467h64v-63h-21q-43 0 -43 42v21z" />
<glyph unicode="b" d="M315 1657q41 -21 64 -21q0 21 21 21q6 -43 42 -43l43 22q53 0 127 -192v-63h22v-64l-43 -64v-85q221 128 340 128q5 -48 212 -106q157 -145 234 -298v-149l21 -127q-21 -41 -21 -64q21 -84 21 -148q-27 0 -106 -192q-34 0 -149 -191l-106 -63h-21l-43 21q0 -31 -63 -64 q-70 43 -128 43q-41 -22 -64 -22v43h-42l-42 -21q0 30 -64 63q-98 -63 -170 -63q-43 69 -43 127q43 247 85 361h-21q0 -42 -42 -42h-22l-42 21l21 106q0 23 -21 64l21 127q0 21 -21 21q0 23 21 64q-21 232 -21 404v85q-255 42 -255 106v191q0 48 255 64zM697 828l-42 22h-21 v-22h42q-21 -37 -21 -85l-43 22q0 -31 -106 -64l149 -382q152 -85 318 -85q7 42 43 42h64q0 64 85 128q0 63 63 106q0 212 -106 212v21l43 64q-64 0 -64 64l-64 -43q-21 42 -21 64l-191 -21l-22 42q-106 -21 -106 -85zM485 616v-85h42v43q0 42 -42 42z" />
<glyph unicode="c" horiz-adv-x="1351" d="M634 1359q21 0 21 -21l106 21h42q149 -51 149 -106h21v43q211 -82 277 -319v-21q0 -298 -298 -298q0 64 -85 64v64q0 48 -21 85l21 42l-42 85l-107 -21h-84v43q-199 -109 -319 -298q52 0 106 -170q72 -108 191 -191v-21h106l149 -21q0 50 85 106q0 113 85 127l-21 43 q21 63 127 63h64q64 -114 64 -169q-129 -489 -361 -489q0 -21 -22 -21l-42 21l-128 -42q-302 0 -424 212q-170 0 -234 531q154 260 191 446q240 106 276 106l-21 43v21q94 0 128 42z" />
<glyph unicode="d" horiz-adv-x="1584" d="M952 1699h21q0 -63 43 -63q37 21 85 21v-21q0 -143 42 -340q-21 0 -21 -22q51 0 64 -169h-64q43 -70 43 -128q0 -21 -22 -21q43 -98 43 -213l-21 -85q42 -6 42 -42v-149l-21 -42q218 0 297 -128l-21 -42q42 0 42 -21q0 -91 -127 -192v-42h-106q-91 -64 -170 -64l-21 43 l-43 -21h-42q0 63 -149 63l-64 -42h-21l-43 21q0 -48 -106 -64q-382 43 -382 213q0 21 -64 42l21 43v42q-63 0 -106 149q0 39 43 170q-31 0 -64 63v43q99 276 149 276h21l-21 106v43q66 0 212 127v43h64q21 0 21 -22l43 22l85 -43q6 43 42 43l85 -85l42 21v-64q43 0 43 43 l-21 42l42 21q0 -21 21 -21l43 64v21h-21l-64 -42q-27 106 -64 106q-41 -21 -64 -21q-13 148 -84 148v64q0 54 254 85q0 -21 22 -21q6 42 42 42zM294 977q0 -42 63 -42v-22l-42 -63v-22h64v-63q-85 -6 -85 -85q21 0 21 -22q-53 -42 -106 -42v-21l42 -64v-21h-42v-21h85 l-22 -43l43 -21q11 0 85 21q149 -34 149 -106h42q21 0 21 21q41 -21 64 -21q191 72 191 297q0 170 -127 298l-43 -22h-21l21 43l-21 42l-106 -21q-58 0 -128 43q-107 -43 -148 -43zM442 956h43v-64h-43v64z" />
<glyph unicode="e" horiz-adv-x="1415" d="M697 1423h21q43 -6 43 -42l42 21l64 -43q7 43 43 43q74 -128 191 -128l21 -42q-42 -7 -42 -42v-22l42 22q85 -43 85 -64v-64q64 0 85 -191q-33 0 -85 -43q73 -233 127 -233v-170q-84 0 -254 -255q-58 -92 -277 -128q0 -21 -21 -21q-48 0 -85 21q-37 -21 -85 -21l-276 106 q-74 170 -149 170l22 43v42l-107 149l22 43q-31 0 -64 63q64 109 64 213v42l-22 106l170 213q161 148 213 148q21 0 21 43h43l106 -21q6 42 42 42zM718 1126l22 -43q-22 -37 -22 -85l43 -21q21 41 21 64q69 -43 106 -43q-42 53 -42 107l-43 -22h-21zM612 1062v-64h64v107 h-21q-43 -7 -43 -43zM379 998q0 -22 -22 -63h43v63h-21zM464 552q1 -29 106 -85h233q0 37 64 107q0 27 -212 84q-184 -57 -191 -106zM910 616v-64q42 0 42 43v21h-42z" />
<glyph unicode="f" horiz-adv-x="1393" d="M888 1699q22 0 22 -21l106 21q49 0 149 -63l85 -64q35 0 63 -128q-21 -146 -127 -254h-43l-106 21v-191q-7 -76 -319 -149v-43q-21 -337 -21 -403l43 21q0 -52 42 -149l149 22h21l43 -22q0 22 21 22q42 -107 64 -107q-15 -148 -43 -148l21 -43q0 -32 -127 -106 q-237 0 -510 43q0 -43 -21 -43l-85 43q-41 -22 -64 -22q0 27 -149 85q0 37 -42 128q0 49 127 85q0 37 107 42h148l22 149q0 22 -22 64q15 148 43 148q-30 94 -85 170v64h-21v21l21 43q-23 0 -64 21l-85 -21q-167 85 -191 85v21q133 212 276 212q37 -21 85 -21l-21 42l64 107 v127q248 170 297 170q41 -21 64 -21q0 42 63 42zM888 1381q0 -43 -21 -43h-64q0 -30 -85 -85h22q191 43 191 85q0 43 -43 43z" />
<glyph unicode="g" d="M485 1147q22 0 64 -21l127 21v-42l64 42h42q85 -44 85 -106h21v42h43v-85q64 0 64 128l106 -21h21v42h64q21 0 21 -21l43 21h42q0 -77 85 -106q21 -37 21 -85v-43q0 -114 -85 -148q0 21 -21 21q0 -43 -42 -43q-52 43 -85 43q-77 0 -149 -361q-149 -146 -149 -213h43v43 h42l64 -43q41 22 64 22q130 -82 170 -170q79 0 106 -255h21q-26 -170 -85 -170l21 -43v-21q-36 -119 -212 -170q-81 -63 -106 -63l-43 21l-318 -64q-42 0 -149 43q-41 -22 -64 -22q0 25 -234 128q0 63 -85 127q0 53 -42 106q0 40 42 170q-42 0 -42 43v42q106 0 106 128 q-28 0 -106 106v21q61 170 191 170q21 -41 21 -64q43 0 43 43q-21 37 -21 85q135 85 148 85q85 -21 149 -64l64 43q41 -22 63 -22q0 26 149 107q0 21 -21 21l21 106v21q-85 0 -85 43q-74 63 -212 106q0 -43 -43 -43h-21l-42 22q-22 -64 -43 -64q-28 21 -106 21 q0 -37 -43 -106q0 -21 22 -21l-22 -106v-128h-21q-127 61 -127 149q0 324 233 425q86 38 128 127zM272 255l-21 -149h43v149h-22zM485 0q-43 -87 -43 -127h-21l-42 21q-22 -41 -22 -64q22 -41 22 -64q-42 -21 -64 -21v-42h21l149 21v-21q-21 -42 -21 -64h63l107 21v-42h21 q0 42 21 42l106 -64q0 39 191 64q0 35 107 106l-128 192l-106 -64h-21v42h-128l-42 -21q0 21 -21 21l21 43v21h-21q-48 0 -85 -21q-42 21 -64 21z" />
<glyph unicode="h" horiz-adv-x="1542" d="M315 1636q157 0 212 -234q22 0 22 -21q-22 0 -22 -22h22q0 22 21 22q0 -22 21 -22l-21 -42v-106q-43 -7 -43 -43h22q74 64 233 85l43 -21q37 21 85 21q236 -103 255 -233q-22 0 -22 -22q93 0 128 -361l-21 -42q21 -37 21 -85v-64l-21 -42q86 -150 212 -234v-106 q-85 -90 -85 -170h-21q-31 0 -64 64q-109 -43 -170 -43q-21 0 -21 21l-106 -21h-128q0 16 -21 127h-43q-36 0 -63 -106q-117 22 -170 22q-64 0 -64 -64q-382 0 -382 127v149h42l-21 106l149 43l-22 42v43q0 57 43 127q-43 0 -43 43q0 55 43 254q-26 219 -43 255l22 43 q0 22 -22 64l22 127v21q-43 0 -43 21q-77 -42 -170 -42l-21 106v106q0 43 212 64q7 43 43 43zM549 574v-22q0 -53 42 -191q-21 0 -21 -21l42 -21v42h43q5 -106 42 -106h64q0 -23 21 -64q128 43 128 106h42l43 -21q21 92 21 149h-21v127h21l42 -21v106q-63 0 -63 43 q6 42 42 42q0 163 -212 213q-127 0 -213 -234q-63 -21 -63 -127z" />
<glyph unicode="i" horiz-adv-x="1266" d="M485 1721q297 0 297 -234v-43q0 -148 -42 -148l42 -106l-21 -43q42 -69 42 -106q0 -23 -21 -64q21 -212 64 -212q0 -23 -21 -64q21 -115 21 -191q-43 -7 -43 -43v-42q55 0 64 -106q69 42 106 42q0 -25 170 -85q0 -33 43 -85l-43 -85q22 -37 22 -85q-108 -85 -383 -85v22 l-85 -43q-41 21 -63 21t-22 -21q-161 21 -212 43q-37 -22 -85 -22h-43q0 32 -148 170l-22 149v42q13 63 298 149q0 21 64 43q-43 69 -43 106l43 85l-22 42l22 43q-22 37 -22 85q43 0 43 42q-21 0 -21 21l-85 -21q-213 13 -213 43q-106 172 -106 255q146 127 212 127l128 -21 v21q-53 80 -85 234q113 170 170 170z" />
<glyph unicode="j" horiz-adv-x="989" d="M697 1678q138 -95 191 -191q0 -126 -106 -276q93 0 128 -383q-22 -188 -22 -233q22 -41 22 -64q-22 -127 -43 -127l21 -43v-85l-21 -42l43 -22l-43 -148l43 -128q-36 -212 -64 -212l21 -43q-150 -297 -403 -297q-362 95 -362 276q-21 0 -42 191q106 233 170 255h170 q49 -7 106 -191l43 -21v21q-22 37 -22 85q107 0 107 42q-22 42 -22 64q43 0 43 43q0 21 -21 21q0 16 21 127q0 85 -43 277h43l-21 106h21q-21 148 -43 148l22 43v21h-22l-42 -21q0 64 -64 64q-23 0 -64 -22q-255 0 -255 213v42q89 64 213 64v-21l170 42q41 -21 64 -21 q41 21 63 21q0 -21 21 -21v42q-108 0 -169 107l21 42q-21 37 -21 85q47 170 148 170z" />
<glyph unicode="k" horiz-adv-x="1521" d="M357 1763q32 -85 64 -85l43 21q0 -12 127 -127v-85h-42l21 -106h-21l21 -43q0 -48 -21 -85q21 -41 21 -63h-21q42 -85 42 -149l-42 -21q31 -85 63 -85h43q22 0 85 106q0 21 -22 21q0 134 107 191v21h85q42 -6 42 -42l106 21h64l106 -21v42h22q104 -55 106 -84v-43 q0 -110 -64 -127h-106v-22h-64q-113 0 -191 -212q-31 0 -64 -64q204 -246 276 -361l43 21h64q191 -70 191 -212q0 -145 -361 -170l-128 21l-106 -21q-27 106 -64 106h-21q0 -106 -234 -106q0 56 -148 85v42q21 42 21 64l-43 21h-21q0 -191 -106 -191q-45 0 -106 170l21 43 h-43v106h64l106 21q0 -85 107 -85l21 43q-21 356 -21 552v106q-64 223 -64 234q42 0 42 42q-21 41 -21 64l21 42l-42 107l-43 -22q-21 0 -21 22q-70 -43 -127 -43v21l21 43q-48 0 -85 21l21 149v42q23 0 64 22h64v21h63l43 -21q7 42 42 42z" />
<glyph unicode="l" horiz-adv-x="1350" d="M272 1678v-42q22 0 22 21l106 -21l85 42q0 -64 42 -64q0 31 64 64q43 0 43 -64l63 43q69 -191 106 -191l-42 -192h64q0 -92 -43 -169h43v-22q0 -47 -22 -85q22 -41 22 -63q-22 -42 -22 -64q43 -7 43 -43q-21 -116 -21 -170q0 -22 21 -63q-21 -37 -21 -85q30 0 63 -64v-21 l-42 -64v-21q58 0 127 -43v43h107q163 -121 191 -191v-64q-64 -54 -64 -106q-23 0 -64 21q-69 -21 -148 -21q0 21 -22 21q-66 0 -148 -85q-43 0 -43 43l-42 -22q-41 22 -64 22l-21 -43l-149 21h-127q-22 0 -22 22l-42 -22h-21q-22 0 -22 22l-42 -22h-43q0 60 -127 213 q0 121 149 212h148q149 0 149 85q0 33 43 85v21h-43v22l64 84q0 43 -43 43q47 399 85 467q-42 160 -42 191h-64l21 -42v-43h-21q-53 0 -64 85l-42 -21q-41 21 -64 21l-21 -42q-110 40 -191 170q102 191 148 191z" />
<glyph unicode="m" horiz-adv-x="1584" d="M294 1232q37 -21 85 -21h21l42 21q22 -41 22 -64h42v64h128q68 0 191 -64v-63q41 -22 63 -22q0 92 319 128q170 -170 170 -361q-43 -7 -43 -43h43v-106q21 0 21 -21q-21 -112 -21 -128q21 -63 42 -63l-63 -107v-21q148 -216 148 -319q-204 -62 -212 -84q-70 0 -255 84 q0 -69 -276 -84v21l-43 -21q-169 0 -169 84h-43q-81 -84 -170 -84q-21 0 -21 21l-106 -21h-64q0 26 -85 148q1 93 85 213l-21 106q21 189 42 233l-42 22l21 106q-21 255 -21 382h21l64 -42h21l-21 42v43q47 0 85 21zM294 1168l-22 -85h43q42 0 42 43zM1058 871 q-21 -41 -21 -64v-64q-85 0 -85 -127h-64q0 -23 22 -64l-22 -127l64 -128h-42v-42h85v-21l42 21l85 -43q0 54 43 107v63l-43 64q0 37 43 128q-43 0 -43 42l64 106q-55 0 -106 149h-22zM400 489l21 -43q-21 -41 -21 -64q118 -148 149 -148h21q21 127 64 127l-22 106v64 l64 106q-42 87 -42 128q21 37 21 85h-128q-55 0 -127 -361z" />
<glyph unicode="n" horiz-adv-x="1585" d="M782 1359h21q362 -59 362 -191q76 0 127 -255v-127q0 -21 -21 -21l21 -43v-64q0 -47 -21 -84q0 -277 148 -277q0 -20 85 -127q-79 -170 -148 -170q-158 -42 -213 -42q0 42 -42 42l-128 -21q-74 74 -191 127l21 43v106q171 43 255 170l-42 85q21 84 21 148q-21 42 -21 64 q30 0 64 64q-49 0 -64 106q-82 64 -128 64v-21q-21 0 -21 21l-149 -21h-42q-114 -263 -149 -298l22 -127l-22 -43q0 -170 149 -170q0 -63 85 -63l-21 -43v-42l42 -64v-43q0 -42 -42 -42l-43 21l-106 -63h-42v42l-107 -21h-297q-64 159 -64 170q43 100 191 233v64l-42 64 q32 85 64 85l-22 42v234l-170 127q-21 38 -21 85v43l43 64h-64v42q64 0 106 64q21 0 21 -22l107 22h63q48 -16 170 -149q99 149 128 149h21v-43h21q0 85 43 85h21l42 -21v21q-21 0 -21 21z" />
<glyph unicode="o" horiz-adv-x="1351" d="M527 1274q37 0 128 -42q6 42 42 42q0 -37 64 -63l42 21h128q0 -60 127 -149v-21l-21 -42q41 -22 64 -22l-21 -42v-21l42 21h21q0 -59 64 -85q0 -79 43 -128h-22l43 -212l-64 -149q43 -6 43 -42v-43q-79 0 -128 -85q0 -162 -467 -254l-43 21l-127 -21q0 33 -149 127 q-1 43 -212 212v64h21q-64 207 -85 382q0 48 106 213q0 106 170 212q0 49 85 85q37 -21 85 -21q0 42 21 42zM718 1041h-42q0 42 -21 42q-42 0 -170 -85q-108 0 -149 -255q70 -424 191 -424v-22l107 22l42 -22q0 36 149 64q0 43 106 106l106 149l-21 127v22h42v21 q0 113 -170 234h-42v21l21 42q-85 0 -85 22q-64 0 -64 -64z" />
<glyph unicode="p" horiz-adv-x="1564" d="M867 1296q128 0 128 -85h42q0 42 21 42q173 0 319 -255q0 -105 85 -212v-43l-21 -42h42v-85q0 -21 -21 -21l21 -43q0 -36 -42 -127h21q-170 -319 -170 -361h-127q-22 -149 -64 -149l-43 21q-37 -21 -85 -21l-63 43h-85l-22 -128q26 0 85 -170q0 -33 -85 -85q-21 0 -21 21 q-68 0 -467 -85q-166 102 -255 213q21 41 21 64v63q69 51 191 64v127q95 109 107 170l-64 255q21 170 42 170l-21 43q21 41 21 63h-21q43 70 43 128v21q0 35 -128 85q-149 98 -149 128v42q1 34 234 127h106q0 -34 128 -106h21v43h43l42 -21q59 106 191 106zM952 998 q0 -96 -212 -127q-106 -149 -106 -340v-21q0 -27 191 -191l42 21l64 -43l64 43q57 0 127 -43q0 120 191 213l-21 106v21q0 48 21 85q-5 69 -148 170q0 43 -22 43q-41 -22 -63 -22v22l-43 -22h-42q0 85 -43 85zM655 85q-43 -69 -43 -106q72 -85 128 -85q0 64 -85 64v63h63 q0 31 -63 64z" />
<glyph unicode="q" horiz-adv-x="1436" d="M612 1296l234 -85q21 -64 127 -64q0 21 22 21l21 -42v-43h-64q0 -42 64 -42q64 21 64 42q-22 41 -22 64h22q85 -17 85 -42l-22 -85l22 -43l-22 -42q43 -70 43 -128v-42q0 -48 -21 -85l21 -43q-21 -37 -21 -85q42 -69 42 -106q-31 0 -64 -64l22 -42l42 21h21 q0 -64 -85 -191q22 -41 22 -64h21v43h42q0 -55 -63 -149l63 -85l-21 -42q96 -23 149 -149q0 -122 -149 -170q0 -85 -234 -85l-361 64v127q102 213 128 213l42 -22l85 43l-21 127h-21q-117 -106 -191 -106q-192 17 -192 64l-42 -21q-213 99 -213 233q-58 0 -127 191 q27 276 64 276l-22 43q0 127 64 127l-21 43v85q26 0 276 234q89 0 191 106zM867 1105v-22h64v43q-41 -21 -64 -21zM336 807q21 0 21 -21q-63 0 -63 -43q6 -42 42 -42l-42 -127q42 -7 42 -43q-21 -28 -21 -106q106 0 106 -106q191 -24 191 -85q199 0 298 170l-22 42 q64 82 64 128q-42 0 -42 42l21 42q-31 0 -64 64v106q-101 0 -149 85l-169 64q-141 -49 -213 -170z" />
<glyph unicode="r" horiz-adv-x="1414" d="M1058 1317h64v-85h-21q-43 0 -43 42v43zM506 1274l128 -63h63v-43q62 0 255 106l-21 -42q21 0 21 -21l43 21h21l127 -85h22l21 85q26 0 85 -149q63 0 63 -42q-42 0 -63 -170l-149 -128h-42v43l21 42q-128 0 -128 43l22 106q-135 0 -213 -255l21 -42q-42 -70 -42 -128 v-170q23 0 64 -21q21 0 21 21q186 -21 234 -63q0 -22 -22 -22l43 -212q-35 0 -106 -127h-22q-21 0 -21 21q-165 -26 -212 -64l-64 43h-21q-52 -43 -85 -43q-23 0 -64 21l-127 -21q-234 0 -319 212q70 0 127 170q112 22 128 22l106 -22v22q-42 69 -42 127v21l106 -21 q0 21 21 21q-64 251 -64 319l43 85q-21 64 -43 64t-63 -22q-265 63 -277 128v21q0 27 192 191l106 -21h42z" />
<glyph unicode="s" horiz-adv-x="1265" d="M485 1274l106 -21q11 0 85 21q159 -42 191 -42h128l63 -255h-21l21 -42l-21 -85q149 -244 149 -298q0 -202 -149 -467q-63 0 -191 -106h-85l-212 -21q0 31 -234 84l-21 43q-70 -43 -128 -43h-21q-31 0 -85 107l21 212v149q7 42 43 42q0 41 -43 149l21 42l-21 85 q0 311 234 404q35 21 106 21q0 -21 21 -21q7 42 43 42zM400 998q0 -14 -106 -106q0 -36 127 -64q41 22 64 22v-22q77 43 170 43l21 -43q69 43 106 43v21q-100 64 -148 64v42q-23 0 -64 -21l-85 21q-41 -21 -64 -21q0 21 -21 21zM400 510l-21 -43q0 -21 148 -106h64v21 l-21 43h21q151 -43 170 -43l42 107q-63 0 -63 21q-85 -43 -234 -43q0 37 -106 43z" />
<glyph unicode="t" horiz-adv-x="1223" d="M527 1678h43q0 -42 42 -42v-43q0 -276 149 -276h21q41 21 64 21q7 -42 42 -42h22l63 42h22l127 -212q0 -58 -191 -149v-21h-64q-21 0 -21 21q-128 0 -128 -85l-42 21h-21v-85q0 -106 -43 -106q43 -98 43 -191q48 0 85 21q41 -21 63 -21v-64h-42v-21q7 -42 42 -42 q34 0 85 85l-21 42q41 3 128 212h21q42 0 127 -191l-21 -42q21 -37 21 -85h-21l21 -43v-63q0 -149 -297 -361q-71 0 -106 -22q-340 75 -340 319q-21 0 -21 64h21q-26 34 -43 212l43 21l-43 255l22 43q0 34 -85 85v42h-149q-33 0 -85 85v21q0 197 340 319q0 106 42 106 l-21 43v21q0 28 106 106z" />
<glyph unicode="u" horiz-adv-x="1690" d="M209 1359q255 0 255 -127q28 0 42 -170l-42 -85q77 0 106 -85l-43 -64q0 -106 64 -106q0 -32 -42 -191q0 -133 148 -212q0 113 298 170l85 148v234q0 21 21 21q0 92 -234 191q0 71 -21 107q0 148 127 148l128 21q217 0 233 -361v-63l-21 -128l43 -149q-22 -41 -22 -63 l43 -85v-106q234 -14 234 -234l-149 -128l-43 22l-85 -22l-42 22l-42 -22q-20 0 -128 85h-21q-128 -85 -319 -106l-42 21l-43 -21q-297 0 -297 170v64q-71 0 -128 319q-21 0 -21 21q21 63 43 63l-22 107v42q59 0 85 149v21q-47 0 -85 21v-42h-21q-184 71 -191 149l21 148 q-21 41 -21 64q64 42 149 42z" />
<glyph unicode="v" horiz-adv-x="1499" d="M1186 1338q21 0 21 -21l106 21h21q85 -142 85 -170q0 -125 -276 -297q-30 -255 -106 -255v-42q-94 -532 -234 -532q0 -21 -21 -21h-64q-181 0 -276 446q-34 149 -85 149v149q0 71 -42 297h-21q-64 -85 -107 -85q-114 43 -127 106q0 76 170 107q0 21 21 21q37 -21 85 -21 q0 50 170 84v22l276 -64v42h128v43l106 -21h64q106 0 106 42zM570 956q0 -46 148 -382l-21 -43q76 0 106 255q60 0 85 191l-42 21q0 -21 -21 -21l-85 106z" />
<glyph unicode="w" horiz-adv-x="1564" d="M655 1359q48 0 85 -21q21 0 21 21l149 -21h85q0 -85 42 -85h21l-21 43v42q53 0 170 21q11 -85 64 -85l148 22l22 -43v-42l-22 -43q42 -21 64 -21v-106q-127 0 -191 -128q21 -41 21 -63q-63 -152 -63 -170q0 -22 21 -22q-52 -552 -170 -552q0 -106 -43 -106h-127 q-69 0 -128 361v85h-21q-44 0 -85 -106h-21l21 -106q-39 0 -148 -149q-70 -43 -128 -43q-34 0 -85 170q-21 0 -21 22q-85 679 -128 679q0 43 -127 43v127q51 149 106 149q152 21 170 21q0 -21 21 -21q0 21 22 21l-22 43q7 42 43 42l21 -42l-21 -43q64 0 64 -42v-64l42 -21 q28 127 64 127q41 -21 64 -21q0 21 21 21l-21 43q21 41 21 63zM1292 1359h21v-63h-21q-42 0 -42 42zM1122 1317l-21 -43v-21h21q43 0 43 43zM442 956v-43q64 -55 64 -191h21q0 33 43 85l-43 21l22 107v63q-69 -42 -107 -42zM718 574q42 21 64 21v42q-30 0 -64 -63zM697 531 v-64q43 0 43 43z" />
<glyph unicode="x" horiz-adv-x="1457" d="M379 1317h42q43 0 43 -85l85 64q42 0 42 -64l43 21h42v-85q106 36 106 106h128l148 43q149 -21 149 -64l43 21h42q0 -47 21 -84l-21 -43q21 -41 21 -64l-170 -127l-42 21l-213 -234v-42q139 -81 298 -319v-21l85 21q69 -42 106 -42v-170q-57 -149 -276 -149v21 q-78 -42 -170 -42l-64 42h-106v22l42 148q-21 42 -21 64q21 37 21 85l-127 64l-21 -43q16 0 63 -63q0 -64 -63 -64v-43h42v-21q0 -26 -148 -170l-43 21q-159 -42 -170 -42q0 42 -42 42l-107 -21q0 43 -42 43l21 42v21h-106v22q0 111 149 148q102 33 191 149l-21 43v21 l106 42l-21 43l63 85q-17 83 -255 318l-42 -21h-64q0 33 -106 170v43q106 0 106 63h128z" />
<glyph unicode="y" horiz-adv-x="1372" d="M1037 1232h21l64 -42q37 21 85 21q0 -21 85 -85l-21 -106v-64q-276 0 -276 -340q-95 -125 -192 -552q-42 0 -63 -170q-49 0 -106 -255q-233 -128 -383 -128q-142 106 -149 213q-21 0 -21 21v43l128 170l148 21q7 -43 43 -43h21q33 0 85 85q0 37 -42 128q0 21 21 21 l-21 106v85q-92 0 -128 213q-42 0 -42 63q21 41 21 64q-24 0 -106 127q-22 0 -22 22l22 42q-81 0 -149 128q164 148 191 148h106v43h64q128 -43 128 -85h21q0 -153 -106 -234l85 -191l42 -21l-21 -43v-106h106q0 96 106 212v64h21v21q-57 128 -85 128l-63 -43l-21 43 q6 56 106 106q0 128 191 128v-22zM634 722h63v-64h-21q-42 0 -42 43v21z" />
<glyph unicode="z" horiz-adv-x="1244" d="M591 1274h21l85 -84q33 0 85 84l106 -63q7 42 43 42q21 0 21 -21l43 21q38 0 127 -148q0 -197 -234 -425v-43l-42 21q-43 -6 -43 -42v-21q25 0 107 -64l21 43q-21 0 -21 21h21q115 -21 191 -21q0 -23 21 -64l-21 -43l43 -106q-22 -37 -22 -85v-21q0 -21 22 -21 q0 -22 -22 -22l22 -106v-106l-255 -64q-42 22 -64 22q0 -43 -43 -43q-69 43 -106 43q-18 0 -170 -22l-42 22l-43 -22q-191 0 -382 128v106q37 255 149 255q170 161 170 255l-64 -43h-106q-128 96 -128 191q0 22 21 22l-21 106q0 149 128 297h63v-42q56 0 255 42 q0 -21 22 -21q6 42 42 42zM718 1274h22v-42h-64q7 42 42 42zM740 489v-43h42q43 0 43 43v21q-37 -21 -85 -21zM612 404v-107h22q42 0 42 43q0 30 -64 64z" />
<glyph unicode="&#xa7;" horiz-adv-x="1095" d="M400 1508q234 -21 234 -42l42 21q93 0 191 -319v-21l-85 -127l-148 -22q0 128 -149 128v64l21 42l-42 21l-64 -85v-85q127 0 127 -127l107 -21q0 21 21 21q0 -70 233 -106l22 -85q-22 -41 -22 -64q85 0 107 -319h-22q43 -107 43 -148q0 -93 -149 -276q43 -70 43 -128v-21 q-43 0 -43 -21q0 -23 21 -64q0 -281 -254 -382q0 -22 -22 -22h-106q-154 0 -297 298l-43 148l43 64l-22 106q43 0 43 85h127q-85 85 -212 276q21 42 21 64q-106 79 -106 255l42 21l-21 43v21q0 127 128 127l-22 107h43l42 -22l-21 149v21l21 43q-37 21 -85 21v64h43 q-21 63 -43 63l85 107v63q91 0 128 64zM506 743l-127 -85q21 0 21 -21q-23 0 -64 -21l21 -42l-42 -64q85 -17 85 -43q-21 -41 -21 -63l42 21h43q85 -44 85 -106h127q0 37 64 127q0 48 21 85q-100 127 -212 170q0 42 -43 42z" />
<glyph unicode="&#xad;" horiz-adv-x="1287" d="M888 1296q298 -101 298 -170l-21 -43q42 -69 42 -127q0 -80 -127 -191q0 -58 -277 -107q-722 0 -722 213l21 42q-21 64 -42 64l21 85v149q85 32 85 63q159 -42 489 -42v21l106 -21q21 64 127 64z" />
<glyph unicode="&#xe4;" horiz-adv-x="1563" d="M379 1678q110 0 170 -106v-64q0 -42 -43 -212h106l64 42h127v-42q43 0 43 42q0 20 -85 128l42 63q-21 42 -21 64l85 64h106q29 0 128 -170v-43q-90 -148 -170 -148v-22q105 -4 234 -339l-22 -85l43 -85l-43 -170q51 -149 85 -149h22v43h127q106 -85 106 -192 q-46 -276 -255 -276q-127 15 -127 64l-106 -21v63l21 43q-158 -128 -340 -128q0 -21 -21 -21l-43 21l-42 -21q-425 111 -425 213q0 21 21 21q-106 166 -106 191q21 41 21 64l-21 85l127 212q107 0 107 43v21q-55 0 -107 149l43 63l-43 64q64 70 64 127q112 -21 128 -21 q41 21 63 21v64q-129 0 -191 106v43q101 191 128 191zM527 1105q0 -234 -212 -234v-21q7 -43 42 -43h22q53 43 212 106q37 -21 85 -21q7 43 42 43q78 -43 170 -43h43v85l-21 43l-43 -22h-21v43h-106q-43 0 -43 42l-106 -21zM336 467q0 -80 191 -106q37 21 191 43l-21 42 q101 0 213 128v21l-85 21q0 -36 -128 -64q0 43 -21 43l-149 -21q0 42 -42 42q-34 0 -149 -149z" />
<glyph unicode="&#xe9;" horiz-adv-x="1266" d="M867 1997h85q0 -43 85 -107q21 -151 21 -169q-80 -13 -127 -128q-44 0 -128 -64q-21 0 -21 -63h-21l-43 21l-21 -43v-21q76 0 191 -85v21q277 -157 277 -318q21 0 21 -21v-22q0 -21 -21 -21l21 -42v-22q0 -110 -64 -191v-21q64 -70 64 -106l-21 -85l21 -43 q-154 -361 -468 -361q0 -42 -106 -42q-314 191 -340 191q-86 234 -170 234q0 69 -42 106q0 106 64 106v21q-64 75 -64 255q40 255 234 255l-22 42v43h64q191 85 276 85v21q-85 0 -85 85q70 234 149 234q64 212 191 212v43zM591 1211q0 -80 -127 -191v-64h21q41 21 64 21v-21 q140 64 191 64q135 -43 170 -43l21 43q0 12 -128 127q0 -64 -42 -64q-43 0 -43 43l-42 -21h-42q0 106 -43 106zM315 722v-21q3 -35 212 -276q69 42 107 42q6 -42 42 -42l85 85q21 0 21 -21q122 0 149 169l-43 22l-42 -22q-109 43 -170 43q-41 -21 -64 -21q-77 42 -170 42 h-127z" />
<glyph unicode="&#xf6;" horiz-adv-x="1372" d="M400 1721h21q153 0 170 -107l-21 -42q21 -41 21 -64q-91 -106 -191 -149h-64q-123 0 -149 192v21q0 97 213 149zM931 1721h21q48 0 85 -22q41 22 64 22q85 -22 85 -107h-21l21 -42v-106q0 -50 -170 -128q-191 43 -191 128q21 41 21 63h-21q-37 -21 -85 -21v64 q127 0 127 85q-21 0 -21 21q85 0 85 43zM697 1317q75 0 404 -170l-21 -42v-22q122 0 170 -340l42 -21l-42 -170l21 -42q-116 -361 -234 -361q0 -48 -170 -128q-109 -42 -170 -42q-66 36 -318 63q-85 192 -170 192q0 41 -107 233q-42 78 -42 170v43h42v85h-42q0 255 149 255 q26 115 127 148v43h149q0 85 85 85l42 -22zM591 977q0 -21 -21 -21q-41 21 -64 21q0 -30 -64 -64h-63q-16 -106 -64 -106l21 -42q0 -71 -21 -107q42 -180 42 -212l43 21q149 -81 149 -106q260 21 318 85l-21 43v21q127 0 127 85q0 21 64 21v21q-85 218 -85 234 q-34 77 -127 106v21l-107 -21v21q-41 -21 -63 -21h-64z" />
<glyph unicode="&#xfc;" horiz-adv-x="1542" d="M336 1699h128q110 -106 148 -106q0 -22 -21 -64v-106q-97 -149 -212 -149q0 -21 -22 -21q-89 85 -170 85v21l43 64q-49 0 -64 106zM1080 1678q148 0 148 -127q64 -50 64 -64q0 -43 -64 -43v-106q0 -42 -42 -42q-21 0 -21 21q-42 -21 -64 -21v-22q0 -26 149 -84l21 -85 q-21 0 -21 -22q63 0 63 -42q-63 -21 -63 -43l21 -42v-64h21q-42 -191 -42 -276v-21l21 -149q-21 0 -21 -21q84 -32 84 -64l43 21h21q64 -13 64 -170q-50 -127 -85 -127l-85 21q-84 -21 -149 -21q0 64 -127 64q21 -41 21 -64h-64q-108 0 -212 -85q-37 21 -85 21 q-41 -21 -64 -21v42q64 0 64 43q-159 -43 -170 -43q-63 0 -234 213l22 42v22h-64q0 47 21 85q-42 106 -64 106q0 39 43 170q-21 37 -21 85q42 0 42 42l-21 149h42q0 42 -42 42q-37 -21 -85 -21q-85 90 -85 170v43q64 0 64 42q-22 41 -22 64l43 -22h21l106 22l192 -170v-213 q0 -21 -22 -21q43 -122 43 -276q-43 -7 -43 -42q31 0 64 -107q49 0 128 -63q6 42 42 42l85 -42q34 0 106 106q37 0 128 64h42v84l-21 107q42 0 42 42q-21 41 -21 64h21q-21 41 -21 64q21 41 21 63h-106q-110 0 -127 64l21 43q-21 41 -21 63q67 64 191 64v42q-19 0 -149 85 l43 64l-43 64q4 66 213 191zM102 1147v-21q7 -43 43 -43v22q0 42 -43 42z" />
<glyph unicode="&#x2000;" horiz-adv-x="1264" />
<glyph unicode="&#x2001;" horiz-adv-x="2528" />
<glyph unicode="&#x2002;" horiz-adv-x="1264" />
<glyph unicode="&#x2003;" horiz-adv-x="2528" />
<glyph unicode="&#x2004;" horiz-adv-x="842" />
<glyph unicode="&#x2005;" horiz-adv-x="632" />
<glyph unicode="&#x2006;" horiz-adv-x="421" />
<glyph unicode="&#x2007;" horiz-adv-x="421" />
<glyph unicode="&#x2008;" horiz-adv-x="316" />
<glyph unicode="&#x2009;" horiz-adv-x="505" />
<glyph unicode="&#x200a;" horiz-adv-x="140" />
<glyph unicode="&#x2010;" horiz-adv-x="1287" d="M888 1296q298 -101 298 -170l-21 -43q42 -69 42 -127q0 -80 -127 -191q0 -58 -277 -107q-722 0 -722 213l21 42q-21 64 -42 64l21 85v149q85 32 85 63q159 -42 489 -42v21l106 -21q21 64 127 64z" />
<glyph unicode="&#x2011;" horiz-adv-x="1287" d="M888 1296q298 -101 298 -170l-21 -43q42 -69 42 -127q0 -80 -127 -191q0 -58 -277 -107q-722 0 -722 213l21 42q-21 64 -42 64l21 85v149q85 32 85 63q159 -42 489 -42v21l106 -21q21 64 127 64z" />
<glyph unicode="&#x2012;" horiz-adv-x="1287" d="M888 1296q298 -101 298 -170l-21 -43q42 -69 42 -127q0 -80 -127 -191q0 -58 -277 -107q-722 0 -722 213l21 42q-21 64 -42 64l21 85v149q85 32 85 63q159 -42 489 -42v21l106 -21q21 64 127 64z" />
<glyph unicode="&#x2013;" horiz-adv-x="1164" d="M799 1296q266 -101 266 -170l-18 -43q37 -69 37 -127q0 -80 -113 -191q0 -58 -248 -107q-644 0 -644 213l18 42q-18 64 -37 64l19 85v149q76 32 76 63q142 -42 436 -42v21l95 -21q19 64 113 64z" />
<glyph unicode="&#x2014;" horiz-adv-x="2188" d="M1538 1296q533 -101 533 -170l-38 -43q75 -69 75 -127q0 -80 -227 -191q0 -58 -494 -107q-1290 0 -1290 213l38 42q-38 64 -75 64l37 85v149q152 32 152 63q284 -42 873 -42v21l190 -21q37 64 226 64z" />
<glyph unicode="&#x2018;" horiz-adv-x="713" d="M378 1066q-227 0 -276 170l-42 149q127 552 510 552l63 -85q-21 -41 -21 -64l21 -42l-42 -85h42v-43h-42l-43 21l-106 -127v-21q72 0 106 -149q-21 -115 -21 -191v-21q-48 0 -149 -64z" />
<glyph unicode="&#x2019;" horiz-adv-x="713" d="M315 1937q227 0 276 -170l42 -149q-127 -552 -510 -552l-63 85q21 41 21 64l-21 42l42 85h-42v43h42l43 -21l106 127v21q-72 0 -106 149q21 115 21 191v21q48 0 149 64z" />
<glyph unicode="&#x201c;" horiz-adv-x="1515" d="M378 1066q-227 0 -276 170l-42 149q127 552 510 552l63 -85q-21 -41 -21 -64l21 -42l-42 -85h42v-43h-42l-43 21l-106 -127v-21q72 0 106 -149q-21 -115 -21 -191v-21q-48 0 -149 -64zM1180 1066q-227 0 -276 170l-42 149q127 552 510 552l63 -85q-21 -41 -21 -64l21 -42 l-42 -85h42v-43h-42l-43 21l-106 -127v-21q72 0 106 -149q-21 -115 -21 -191v-21q-48 0 -149 -64z" />
<glyph unicode="&#x201d;" horiz-adv-x="1515" d="M315 1937q227 0 276 -170l42 -149q-127 -552 -510 -552l-63 85q21 41 21 64l-21 42l42 85h-42v43h42l43 -21l106 127v21q-72 0 -106 149q21 115 21 191v21q48 0 149 64zM1117 1937q227 0 276 -170l42 -149q-127 -552 -510 -552l-63 85q21 41 21 64l-21 42l42 85h-42v43 h42l43 -21l106 127v21q-72 0 -106 149q21 115 21 191v21q48 0 149 64z" />
<glyph unicode="&#x2026;" horiz-adv-x="2863" d="M482 636q295 -170 189 -354q37 -21 -38 -150q-80 -140 -295 -173l-203 117q-75 168 -65 185l40 26q7 139 51 216q33 -19 169 123q129 23 152 10zM1486 636q294 -170 188 -354q37 -21 -37 -150q-81 -140 -296 -173l-203 117q-75 168 -65 185l40 26q7 139 51 216 q33 -19 169 123q129 23 153 10zM2489 636q294 -170 188 -354q38 -21 -37 -150q-80 -140 -296 -173l-202 117q-75 168 -66 185l41 26q6 139 50 216q33 -19 169 123q130 23 153 10z" />
<glyph unicode="&#x202f;" horiz-adv-x="505" />
<glyph unicode="&#x205f;" horiz-adv-x="632" />
<glyph unicode="&#x25fc;" horiz-adv-x="1315" d="M0 1315h1315v-1315h-1315v1315z" />
</font>
</defs>
</svg>
